<svg xmlns="http://www.w3.org/2000/svg" viewBox="0 0 1024 1024" version="1.1"><path d="M811.5 712.8L312.3 212.8l181.6-181.9a105.1 105.1 0 0 1 148.8 0l350.4 350.9a105.5 105.5 0 0 1 0 149.1l-181.6 181.9zM416.2 212.8l395.2 395.9 129.7-129.9a31.9 31.9 0 0 0 0-44.9L590.8 82.9a31.8 31.8 0 0 0-44.9 0l-129.7 129.9z" fill="#111111" p-id="1139"></path><path d="M152.2 1023.8c-35.3 0-68.1-13.4-92.3-37.7l-22.3-22.3C13.2 939.4-0.1 906.4 0 870.9c0.1-38.3 16.3-76.1 44.4-104a4602.6 4602.6 0 0 1 50.4-49c27.7-26.7 53.8-51.8 71.4-70.6 41.2-43.9 47.4-102.4 21.7-208.7-13-53.6 11.7-114.8 73.1-181.4 41.7-45.2 85.9-77.3 87.9-78.6l42.9 59.8a589.9 589.9 0 0 0-77.6 69.7c-42 45.9-61.5 86.1-55 113.4 14.7 61 19.8 106.2 16.5 146.5-4.2 51.7-22.6 94.1-56.2 130-18.9 20.1-45.7 46-74 73.2-16.7 16-33.9 32.7-49.6 48.2-14.3 14.1-22.4 33-22.6 51.8 0 15.8 5.6 30.2 16 40.6l22.3 22.4c10.4 10.4 24.7 16.1 40.4 16.1h0.1c18.8 0 37.7-8.3 51.7-22.6 18.2-18.4 37.4-39.3 56-59.4 23.4-25.2 45.3-49.1 63.5-66.2 77.9-73.5 179.7-61.5 277.8-37.7 27.4 6.7 65.6-10.9 107.5-49.3 36.2-33.3 61.4-69.4 61.5-69.8l60.4 41.9a553.2 553.2 0 0 1-72.3 82c-25.7 23.7-51.3 41.5-76 53.2-34.5 16.3-67.6 20.8-98.4 13.3-90.3-21.8-160.6-26.9-210.2 19.8-16.3 15.4-37.4 38.3-59.8 62.6-19 20.6-38.6 41.9-57.7 61.2-27.8 28.1-65.6 44.3-103.8 44.4 0.1-0.1 0-0.1-0.1-0.1z" fill="#111111" p-id="1140"></path></svg>