<svg xmlns="http://www.w3.org/2000/svg" viewBox="0 0 1024 1024" version="1.1"><path d="M576 928H192c-53 0-96-43.1-96-96V192c0-53 43.1-96 96-96h640c53 0 96 43.1 96 96v384.1c0 17.7-14.3 32-32 32s-32-14.3-32-32V192c0-17.7-14.4-32-32-32H192c-17.7 0-32 14.4-32 32v640c0 17.7 14.4 32 32 32h384c17.7 0 32 14.3 32 32 0 17.7-14.3 32-32 32zM128 693.3a32.1 32.1 0 0 1-22.6-54.7l159.4-159.3a95.8 95.8 0 0 1 110.7-18l173.6 86.8c12.3 6.2 27.1 3.8 36.8-6l287.4-287.4a32 32 0 0 1 45.3 45.3L631.2 587.4a95.8 95.8 0 0 1-110.7 18l-173.6-86.8a31.6 31.6 0 0 0-36.8 6l-159.5 159.3c-6.2 6.3-14.4 9.4-22.6 9.4z m320-277.4c-52.9 0-96-43.1-96-96s43.1-96 96-96 96 43.1 96 96-43.1 96-96 96z m0-128c-17.6 0-32 14.4-32 32 0 17.6 14.4 32 32 32s32-14.4 32-32c0-17.6-14.4-32-32-32zM768 928c-17.7 0-32-14.3-32-32v-192c0-17.7 14.3-32 32-32s32 14.3 32 32v192c0 17.7-14.3 32-32 32z m128-128c-7.9 0-15.7-2.9-21.9-8.7L768 691.7l-106.1 99.7a31.9 31.9 0 0 1-45.2-1.4 32 32 0 0 1 1.4-45.2l112.2-105.4A48.6 48.6 0 0 1 768 621.4c14.7 0 28.5 6.6 37.7 17.9l112.2 105.4A32 32 0 0 1 896 800z" fill="#111111" p-id="785"></path></svg>