<svg xmlns="http://www.w3.org/2000/svg" viewBox="0 0 1024 1024" version="1.1"><path d="M917.3 0v774.6H247.1c-42.2 0-76.7 32.1-79 71.6l-0.1 4.3v35.6c0 40 33.1 73.6 74.7 75.8l4.5 0.1H917.3V1024H247.1C171.8 1024 109.6 965.1 106.8 891.4L106.7 886.1V173.5C106.7 79.7 183.3 3.2 277.7 0.1L283.7 0H917.3z m-64 65.4H285.5c-61.6 0-111.9 47.8-114.7 106.6L170.7 177 170.7 740.8l1.4-0.9a139.3 139.3 0 0 1 71.8-23.1l5.3-0.1L853.3 716.6V65.4z" fill="#111111" p-id="1022"></path><path d="M298.7 43.6v719H234.7V43.6h64zM917.3 849.7v65.4H234.7V849.7h682.7z" fill="#111111" p-id="1023"></path></svg>