<svg xmlns="http://www.w3.org/2000/svg" viewBox="0 0 1243 1024" version="1.1"><path d="M1129.1 0H121.8A109.6 109.6 0 0 0 12.2 109.6v109.6a109.6 109.6 0 0 0 109.6 109.6h1007.3a109.6 109.6 0 0 0 109.6-109.6V109.6A109.6 109.6 0 0 0 1129.1 0z m27.4 219.3c0 15.1-12.3 27.4-27.4 27.4H121.8a27.5 27.5 0 0 1-27.4-27.4V109.6c0-15.1 12.3-27.4 27.4-27.41h1007.3c15.1 0 27.4 12.3 27.4 27.41v109.6z m-148.3 293.3H243.4l7.5-82.3h749.8l7.6 82.2z" fill="#111111" p-id="977"></path><path d="M260.2 328.9l-9.3 101.4-7.6 82.2-42.9 463.9a41 41 0 0 1-40.8 37.3c-1.2 0-2.6 0-3.8-0.1a41.1 41.1 0 0 1-37.1-44.7l59.2-640h82.4z m835.7 684.7c-1.2 0.1-2.6 0.1-3.8 0.1-21 0-38.9-16-40.9-37.3l-43-463.9-7.5-82.2-9.3-101.4h82.7l59.2 640a41.3 41.3 0 0 1-37.3 44.7z" fill="#111111" p-id="978"></path></svg>