<svg xmlns="http://www.w3.org/2000/svg" viewBox="0 0 1024 1024" version="1.1"><path d="M942.1 549.4c22.3 0 40.4 17.9 40.4 40.1v308.7c0 69.4-56.8 125.8-126.6 125.8H167c-69.7 0-126.5-56.4-126.5-125.7V589.5c0-22.2 18-40.1 40.4-40.1 22.3 0 40.4 17.9 40.4 40.1v308.7a45.6 45.6 0 0 0 45.7 45.5h689.1a45.6 45.6 0 0 0 45.7-45.5V589.5c0-22.2 18-40.1 40.4-40.1zM856 0c32.6 0 66.6 12.4 93.3 34.2 28.9 23.7 45.7 55.7 46.7 88.6l26.6 213c0.3 2.2 0.4 4.5 0.31 6.6a40.1 40.1 0 0 1 1.2 9.8c0.1 86.5-70.8 156.9-158 156.9a158.1 158.1 0 0 1-118.7-53.5 158 158 0 0 1-118.7 53.5 158 158 0 0 1-117.6-52.3 158.1 158.1 0 0 1-117.6 52.3c-46.7 0-88.8-20.3-117.7-52.4a157.9 157.9 0 0 1-117.6 52.4c-87.2 0-158-70.5-1581-157 0-1.9 0.1-3.8 0.4-5.7a40.2 40.2 0 0 1-0.1-10.8L27 122.9c0.9-32.9 17.8-65 46.7-88.6C100.4 12.4 134.4 0 167 0h689z m0 80.2H167c-28.3 0-59.2 23.8-59.2 45.5 0 1.6-0.1 3.3-0.31 4.9l-26.9 215.1-0.1 0.9c0.3 1.8 0.4 3.7 0.4 5.7 0 42.4 34.7 76.7 77.2 76.7 42.5 0 77.2-34.5 77.2-76.7 0-22.2 18-40.1 40.4-40.1 22.5 0 40.5 17.9 40.5 40.1 0 42.4 34.7 76.7 77.2 76.7 42.5 0 77.2-34.5 77.2-76.7 0-22.2 18-40.1 40.4-40.1s40.4 17.9 40.4 40.1c0 42.4 34.7 76.7 77.2 76.7 42.5 0 77.2-34.5 77.2-76.7 0-22.2 18-40.1 40.4-40.1h2.3c22.3 0 40.4 17.9 40.4 40.1 0 42.4 34.7 76.7 77.2 76.7 42.5 0 77.2-34.5 77.2-76.7l0-1.5a40.4 40.4 0 0 1-1-5.1l-26.9-215.1c-0.2-1.6-0.2-3.3-0.2-4.9 0-21.7-30.9-45.5-59.2-45.5z" fill="#111111" p-id="1268"></path></svg>