<svg xmlns="http://www.w3.org/2000/svg" viewBox="0 0 1024 1024" version="1.1"><path d="M512 1003.5C240.5 1003.5 20.5 783.5 20.5 512S240.5 20.5 512 20.5s491.5 220.1 491.5 491.5-220.1 491.5-491.5 491.5z m0-49.2c244.3 0 442.4-198 442.4-442.4 0-244.3-198-442.4-442.4-442.4C267.7 69.6 69.6 267.7 69.6 512c0 244.3 198 442.4 442.4 442.4zM413.7 634.9v123c0 13.5-10.9 24.5-24.6 24.5-13.6 0-24.6-11.1-24.6-24.5V315.6c0-13.7 11.1-24.7 24.7-24.7H536.6c95 0 172 77.2 172 172 0 95-77.2 172-172 172h-122.9z m0-49.2h122.9c67.7 0 122.9-55.1 122.9-122.9 0-67.7-55.1-122.9-122.9-122.9h-122.9v245.8z" fill="#111111" p-id="933"></path></svg>