<svg xmlns="http://www.w3.org/2000/svg" viewBox="0 0 1024 1024" version="1.1"><path d="M288 373.3c-82.4 0-149.3 66.9-149.3 149.3a149.3 149.3 0 0 0 149.3 149.3c82.5 0 149.3-66.8 149.3-149.3 0-82.4-66.9-149.3-149.3-149.3z m0 64c47.1 0 85.3 38.3 85.3 85.3 0 47.1-38.2 85.3-85.3 85.3a85.3 85.3 0 1 1 0-170.7zM757.3 672a128 128 0 1 0 128 128c0-70.7-57.3-128-128-128z m0 64a64 64 0 1 1-64 64c0-35.3 28.7-64 64-64zM757.3 117.3a128 128 0 1 0 128 128c0-70.7-57.3-128-128-128z m0 64a64 64 0 1 1-64 64c0-35.3 28.7-64 64-64z" fill="#0" p-id="833"></path><path d="M356.6 580.9a32 32 0 0 1 43.9-11l266.7 160a32 32 0 0 1-32.9 54.9l-266.7-160a32 32 0 0 1-11-43.9zM643.1 264.8a32 32 0 0 1 36.6 52.5l-256 178.3a32 32 0 0 1-36.6-52.5l256-178.3z" fill="#0" p-id="834"></path></svg>