<svg xmlns="http://www.w3.org/2000/svg" viewBox="0 0 1024 1024" version="1.1"><path d="M512 306.5A153 153 0 1 1 512 0.5a153 153 0 0 1 0 306z m0-244.8a91.8 91.8 0 1 0 0 183.6 91.8 91.8 0 0 0 0-183.6zM756.8 581.9H695.6c0-173.8-53.2-244.8-183.6-244.8S328.4 408.1 328.4 581.9h-61.2c0-131.3 25.4-306 244.8-306s244.8 174.7 244.8 306zM83.6 520.7h856.9a30.6 30.6 0 0 1 0 61.2H83.6a30.6 30.6 0 0 1 0-61.2z m738 489.6H202.5a88.3 88.3 0 0 1-88.3-88.3V520.7H879.2v61.2H175.4v331.9a35.3 35.3 0 0 0 35.3 35.3h602.6a35.3 35.3 0 0 0 35.3-35.3V734.9a30.6 30.6 0 1 1 61.2 0v187.1a88.3 88.3 0 0 1-88.3 88.3z" fill="#111111" p-id="1011"></path></svg>