<svg xmlns="http://www.w3.org/2000/svg" viewBox="0 0 1024 1024" version="1.1"><path d="M755.8 256H268.2A76.1 76.1 0 0 0 192 332v558.3l0.1 3.7c3.1 59.7 80.8 83.2 116.2 33.3l14-19.9 54.1 40 3.6 2.5a64 64 0 0 0 72.5-2.5L512 903.5l59.5 44 3.6 2.5a64 64 0 0 0 72.5-2.5l54.1-40 14.1 19.8C751.8 978.2 832 952.7 832 890.3V332A76.1 76.1 0 0 0 755.8 256z m0 64c6.7 0 12.2 5.4 12.2 12v558.3l-31.7-44.8c-17.3-12.8-41.2-12.8-58.5 0L609.5 896l-68.3-50.5c-17.3-12.8-41.2-12.8-58.5 0L414.5 896l-68.3-50.5c-17.3-12.8-41.2-12.8-58.5 0L256 890.3V332c0-6.6 5.5-12 12.2-12H755.8z" fill="#111111" p-id="772"></path><path d="M617.4 465.7a32 32 0 0 1 0 64H362.9a32 32 0 0 1 0-64h254.5zM363.6 593.8l159.7 3.6a32 32 0 1 1-1.5 64l-159.7-3.6a32 32 0 0 1 1.4-64z" fill="#111111" p-id="773"></path><path d="M853.3 92.8a117.3 117.3 0 0 1 117.3 117.3v269.1a85.6 85.6 0 0 1-85.6 85.5h-53.6v-64h53.5c11.9 0 21.6-9.6 21.6-21.5V210.1a53.3 53.3 0 0 0-53.3-53.3H170.7a53.3 53.3 0 0 0-53.3 53.3v257.2c0 18.5 15 33.5 33.5 33.5h65.5v64H150.8a97.5 97.5 0 0 1-97.5-97.5V210.2a117.3 117.3 0 0 1 117.3-117.3h682.7z" fill="#111111" p-id="774"></path></svg>