<svg xmlns="http://www.w3.org/2000/svg" viewBox="0 0 1024 1024" version="1.1"><path d="M958.5 540.7c-3.7-50.3-13.2-100.4-27.5-144.8-21.9-68.1-54.6-133.2-92-183.2-10.2-13.7-30-16.8-44.2-7a29.6 29.6 0 0 0-7.3 42.4c33.6 44.8 63 103.7 83 165.7 12.8 40 21.4 85.4 24.8 131.2 12.2 166.9-59.4 303.2-197.8 380.6-22.7-178.8-167.2-237.2-173.9-239.8a32.9 32.9 0 0 0-27.3 1.6c-125.9 67-162.5 179.5-173.1 242.5-124.5-62.8-200.3-181.2-200.3-317.6 0-91.9 47.7-177 145.8-260.2 13-11.1 26.3-22 39.6-32.8 72-59 146.6-119.9 184.1-212.7 4.1-10 7.7-19.1 10.7-27.3 66.4 44.8 210 165.7 256.6 396.9 3.3 16.5 20 27.3 37.1 24.1 17.2-3.2 28.5-19.1 25.1-35.6C757.5 145.1 526 18.9 499.7 5.4c-0.9-0.5-1.8-0.9-2.8-1.4-15.7-7.1-34.5-0.9-42.1 14-2.2 4.2-3.2 8.7-3.3 13.2-3 11.2-15.3 45.9-18.1 53.2-31.8 78.5-97.1 131.9-166.3 188.5-13.6 11.1-27.1 22.2-40.5 33.5-110.9 94.1-167.1 196.9-167.1 305.7 0 175.5 107 325.5 279.3 391.3a32.6 32.6 0 0 0 29.6-3.2c8.7-5.7 13.9-15.2 13.8-25.3-0-6.2 0.5-147.6 130.6-226.5 34.4 18.9 124.2 82.1 124.2 225.4 0 10.4 5.5 20 14.5 25.6 9.1 5.6 20.5 6.4 30.3 2.1 188.3-81.9 291.8-254.2 276.7-460.9M464.6 56.1" fill="#0" p-id="1093"></path></svg>