<svg xmlns="http://www.w3.org/2000/svg" viewBox="0 0 1024 1024" version="1.1"><path d="M248.3 681.5h558.9a149.1 149.1 0 0 1 149.1 149.1v24.8a149 149 0 0 1-149 149.1H211a149.1 149.1 0 0 1-149.1-149.1v-62.1a111.7 111.7 0 0 1 55.9-96.8c11.3-6.5 18.6-18.2 18.6-31.2v-45.9a37.3 37.3 0 1 1 74.5 0v24.9a37.3 37.3 0 0 0 37.3 37.3z m-37.3 74.5a74.5 74.5 0 0 0-74.5 74.5v24.8a74.5 74.5 0 0 0 74.5 74.5h596.2c41.2 0 74.5-33.4 74.5-74.5v-24.8a74.5 74.5 0 0 0-74.5-74.5H211z m558.9 49.7a37.3 37.3 0 1 1 0 74.5 37.3 37.3 0 0 1 0-74.5zM97.9 235.5a37.3 37.3 0 0 1-1.4-54C202.1 76 348 10.8 509.1 10.8c161.1 0 307 65.2 412.6 170.8a37.3 37.3 0 1 1-52.8 52.6 507.6 507.6 0 0 0-359.8-148.9 507.6 507.6 0 0 0-359.8 148.9 37.3 37.3 0 0 1-51.4 1.4zM264.2 385.7a37.4 37.4 0 0 1-0.1-55.2 358.9 358.9 0 0 1 245-96.2c94.6 0 180.8 36.5 245 96.2 16.1 15 16.2 40.5-0.1 55.2a37.1 37.1 0 0 1-50.2-0.3 284.7 284.7 0 0 0-194.7-76.6 284.7 284.7 0 0 0-194.7 76.6 37.2 37.2 0 0 1-50.2 0.3z m167.9 151.7c-18.1-16.3-16.2-45.8 4.4-58.7a136 136 0 0 1 72.5-20.8 136 136 0 0 1 72.5 20.8c20.6 12.9 22.5 42.4 4.4 58.7l-0.1 0a36.9 36.9 0 0 1-44.2 4.2 61.8 61.8 0 0 0-32.7-9.3c-12 0-23.2 3.4-32.7 9.3-13.9 8.7-32 6.8-44.2-4.2l-0-0z" fill="#111111" p-id="1000"></path></svg>