<svg xmlns="http://www.w3.org/2000/svg" viewBox="0 0 1228 1024" version="1.1"><path d="M1221.7 684.2L1154.2 418.9a93.3 93.3 0 0 0-90.5-70.3h-6.2V93.3a93.3 93.3 0 0 0-93.3-93.3H264.1a93.3 93.3 0 0 0-93.3 93.3v254.4h-5.9a93.3 93.3 0 0 0-90.5 70.6L2.2 708.2a69.1 69.1 0 0 0-2.2 17.7v186.6a93.3 93.3 0 0 0 93.3 93.3h1041.9a93.3 93.3 0 0 0 93.3-93.3v-173.2a242 242 0 0 0-6.8-55zM329.4 233.3l214.6-2.2v111h-213l-1.6-108.9z m354.9 0l214.3-2.2v111H684.3V233.2zM233 93.3c0-17.2 13.9-31.1 31.1-31.1H964.2A31.1 31.1 0 0 1 995.3 93.3v248.8H959.1v-111a60.3 60.3 0 0 0-60-60H684.3a60.3 60.3 0 0 0-62.2 60v111h-16.2v-111a60.3 60.3 0 0 0-60-60H328.1a60.3 60.3 0 0 0-58.8 60v111h-36.4V93.3zM134.7 433.2c3.6-14.1 16.6-23.8 31.1-23.3h897.9c14.5-0.5 27.5 9.2 31.1 23.3l67.5 265.3a5.3 5.3 0 0 0 0 2.2H68.1L134.7 433.3z m1000.6 509.8H93.3a31.1 31.1 0 0 1-31.1-31.1v-149h1104.1v149c0 17.2-13.9 31.1-31.1 31.1z" fill="#40000" p-id="922"></path></svg>