<svg xmlns="http://www.w3.org/2000/svg" viewBox="0 0 1024 1024" version="1.1"><path d="M821.9 85.3c12.8 0 22.5 6.4 28.9 16l106 204.8c2.6 5.2 3.1 19.1 3.2 25.6L960 418.1c0 80-67.4 147.2-147.7 147.2h-41.7c-48.2 0-86.7-16-112.4-41.6-25.7 28.8-70.6 44.8-125.2 44.8h-41.7c-54.6 0-99.6-16-125.2-44.8-25.7 28.8-64.2 44.8-112.4 44.8H211.8C131.4 568.5 64 501.3 64 421.3v-81.3c0-4.8 0.3-17.7 3.2-24.3l83.5-208c3.2-12.8 16-22.4 28.9-22.4h642.3z m-18.3 64H202.9l-74.8 186.2-0.1 1.7-0.1 2.8v81.3c0 44.6 38.7 83.2 83.7 83.2h41.7c30.1 0 51.4-8.6 64.6-23.4l47.8-53.5 47.7 53.5c12.1 13.6 39.6 23.4 77.5 23.4h41.7c37.9 0 65.4-9.8 77.5-23.4l45-50.5 47.9 47.7c14.3 14.2 37.1 22.9 67.2 22.9h41.7c45 0 83.7-38.6 83.7-83.2v-83.2l-0-3.5-0.2-3.9L803.6 149.3zM867.8 600.6a32 32 0 0 1 32 32V832a96 96 0 0 1-96 96H221.1a96 96 0 0 1-96-96v-199.4a32 32 0 0 1 64 0V832a32 32 0 0 0 32 32h582.7a32 32 0 0 0 32-32v-199.4a32 32 0 0 1 32-32z" fill="#111111" p-id="672"></path><path d="M910.5 288v64H83.5v-64z" fill="#111111" p-id="673"></path></svg>