<svg xmlns="http://www.w3.org/2000/svg" viewBox="0 0 1309 1024" version="1.1"><path d="M1196.9 23.8a85.8 85.8 0 0 1 85.8 85.8v772.5a85.8 85.8 0 0 1-85.8 85.8h-114.4a28.6 28.6 0 1 1-57.2 0H281.3a28.6 28.6 0 1 1-57.21 0H109.6A85.8 85.8 0 0 1 23.8 882.2V109.6A85.8 85.8 0 0 1 109.6 23.8H1196.9z m28.6 801.1H81v57.2a28.6 28.6 0 0 0 28.6 28.6H1196.9a28.6 28.6 0 0 0 28.6-28.6v-57.2zM939.4 81H109.6a28.6 28.6 0 0 0-28.6 28.6v658.1h858.4V81z m257.5 0h-200.3v686.7h228.9V109.6a28.6 28.6 0 0 0-28.6-28.6z m-85.8 429.2a85.8 85.8 0 1 1 0 171.7 85.8 85.8 0 0 1 0-171.7z m0 57.21a28.6 28.6 0 1 0 0 57.2 28.6 28.6 0 0 0 0-57.2zM674.5 224.9c15.3 3.8 24.6 19.4 20.8 34.7-9 36.2-13.4 63-13.3 79.4 0.2 24.9 4.4 50 12.7 75.5 20.7 63.6 20.7 127.4-0 190.4a28.6 28.6 0 1 1-54.3-17.9c17-51.4 17-102.7 0-154.7a305.2 305.2 0 0 1-15.6-92.9c-0.2-22.3 4.9-53.2 15-93.7a28.6 28.6 0 0 1 34.7-20.8z m-169.5 0.6a28.6 28.6 0 0 1 18 36.2c-16.9 50.2-16.9 100.8 0.1 152.8 20.7 63.6 20.7 127.4-0 190.4a28.6 28.6 0 1 1-54.4-17.9c17-51.4 17-102.7 0-154.7-20.8-63.6-20.8-126.9 0-188.8a28.6 28.6 0 0 1 36.2-18z m-171.7 0a28.6 28.6 0 0 1 18 36.2c-16.9 50.2-16.9 100.8 0.1 152.8 20.7 63.6 20.7 127.4-0 190.4a28.6 28.6 0 1 1-54.4-17.9c17-51.4 17-102.7 0-154.7-20.8-63.6-20.8-126.9 0-188.8A28.6 28.6 0 0 1 333.4 225.6z m777.7 55.7a85.8 85.8 0 1 1 0 171.7 85.8 85.8 0 0 1 0-171.7z m0 57.2a28.6 28.6 0 1 0 0 57.2 28.6 28.6 0 0 0 0-57.2z m28.6-171.7a28.6 28.6 0 0 1 0 57.2h-57.2a28.6 28.6 0 0 1 0-57.2h57.2z" fill="#111111" p-id="1071"></path></svg>