<svg xmlns="http://www.w3.org/2000/svg" viewBox="0 0 1024 1024" version="1.1"><path d="M705.2 667.5V142.4c0-91.8-50.7-142.4-142.3-142.4H270.6C178.6 0 128 50.6 128 142.4v739.2C128 973.5 178.6 1024 270.6 1024h292.3c91.6 0 142.3-50.6 142.3-142.4v-136h150a34.3 34.3 0 0 0 40.4-39 34.2 34.2 0 0 0-40.4-39h-150z m-55.2-1.7H512c-14.3-1.6-14.3 26.1 13.5 18.7-10.4-63-67.2-107.5-130.6-102.2-63.4 5.2-112.2 58.4-112.2 122.2 0 63.9 48.8 117 112.2 122.2 63.4 5.2 120.2-39.2 130.6-102.2-18.6 0-27.8 20.4-13.5 18.7h138v135.1c0 63.6-26.9 90.6-89.9 90.6H271.2c-63.3 0-90.3-27-90.3-90.6V144.4c0-63.6 26.9-90.6 90.3-90.6h288.8c63.3 0 89.9 27 89.9 90.6v521.5z m-315.8 37.9a71.4 71.4 0 0 1 107.1-61.8 71.4 71.4 0 1 1-107.1 61.8zM328.2 154.9a76.5 76.5 0 0 0-83.9 84.2v116.9a76.2 76.2 0 0 0 83.9 83.9h155.6a76.5 76.5 0 0 0 84.2-83.9v-116.9a76.9 76.9 0 0 0-84.2-84.2h-155.6z m154.1 233.1h-152.9c-24.2 0-31.5-7.9-31.5-31.5v-114.9c0-24.6 7.9-31.5 31.5-31.5h153c24.5 0 31.5 7.9 31.5 31.5v114.9c0 24.2-7.9 31.5-31.5 31.5z" fill="#0" p-id="989"></path></svg>