<svg xmlns="http://www.w3.org/2000/svg" viewBox="0 0 1024 1024" version="1.1"><path d="M511.5 862c130.1 0 235.2-103.5 235.2-231.7 0-128.1-105.1-231.7-235.2-231.7s-235.3 103.5-235.3 231.7c0 128.1 105.1 231.7 235.3 231.7z m0-391.6c89.5 0 162.4 71.7 162.4 159.9 0 88.2-72.8 159.9-162.4 159.9-89.5 0-162.4-71.7-162.4-159.9 0-88.2 72.9-159.9 162.4-159.9z" fill="#0" p-id="1034"></path><path d="M896.6 0H126.3C70.1 0 23.3 45.1 23.3 101.5v821.1C23.3 977.9 69.1 1024 126.3 1024h771.3C953.9 1024 1000.7 978.9 1000.7 922.5V101.5A103.4 103.4 0 0 0 896.6 0z m30.2 921.5c0 16.4-13.5 29.7-30.2 29.7H126.3a30 30 0 0 1-30.2-29.7V313.6h830.7v607.9z m0-679.6H96.1V101.5c0-16.4 13.5-29.7 30.2-29.7h771.3c16.7 0 30.2 13.3 30.2 29.7v140.4h-1z" fill="#0" p-id="1035"></path><path d="M153.4 154.8c0 21.5 17.7 39 39.6 39 21.8 0 39.6-17.4 39.6-38.9 0-21.5-17.7-39-39.6-39-21.9 0-39.6 17.5-39.6 39zM291.8 154.8c0 13.9 7.5 26.8 19.8 33.7a40.1 40.1 0 0 0 39.6 0 38.9 38.9 0 0 0 19.8-33.7 38.9 38.9 0 0 0-19.8-33.7 40.1 40.1 0 0 0-39.6 0 38.9 38.9 0 0 0-19.8 33.7zM430.3 154.8c0 21.5 17.7 39 39.6 39 21.8 0 39.6-17.4 39.6-38.9 0-21.5-17.7-39-39.6-39-21.9 0-39.6 17.5-39.6 39z" fill="#0" p-id="1036"></path></svg>