<svg xmlns="http://www.w3.org/2000/svg" viewBox="0 0 1024 1024" version="1.1"><path d="M511.3 855.2a229.5 229.5 0 0 0 229.7-229.7A229.5 229.5 0 0 0 511.3 395.8a229.5 229.5 0 0 0-229.7 229.7A229.5 229.5 0 0 0 511.3 855.2z m0-388.3c87.4 0 158.6 71.2 158.6 158.6 0 87.4-71.2 158.6-158.6 158.6-87.4 0-158.6-71.2-158.6-158.6 0-87.4 71.2-158.6 158.6-158.6z" fill="#0" p-id="1324"></path><path d="M887.4 0.4H135.2C80.3 0.4 34.6 45.1 34.6 101v814.2c0 54.9 44.7 100.6 100.6 100.6h753.2c54.9 0 100.6-44.7 100.6-100.6V101C988 45.1 943.3 0.3 887.4 0.3z m29.5 913.8c0 16.3-13.2 29.5-29.5 29.5H135.2c-16.3 0-29.5-13.2-29.5-29.5V311.4h811.1v602.8z m0-673.9H105.7v-139.3c0-16.2 13.2-29.5 29.5-29.5h753.2c16.3 0 29.5 13.2 29.5 29.5v139.3h-1z" fill="#0" p-id="1325"></path><path d="M161.6 153.9a38.6 38.6 0 1 0 77.3 0 38.6 38.6 0 0 0-77.3 0zM296.8 153.9a38.6 38.6 0 1 0 77.3 0 38.6 38.6 0 0 0-77.3 0zM432 153.9a38.6 38.6 0 1 0 77.2 0 38.6 38.6 0 0 0-77.2 0z" fill="#0" p-id="1326"></path></svg>