<svg xmlns="http://www.w3.org/2000/svg" viewBox="0 0 1024 1024" version="1.1"><path d="M523.9 85.3C802.8 85.3 982.8 307.5 982.8 511.3c0 242.8-197.4 448-458.8 448-84.2 0-150.5-16.6-221.6-55.4l-88.6 50.2c-27.8 8.4-50.5 5.2-68-9.8-17.6-15-25.1-34.7-22.7-59.2a19570.7 19570.7 0 0 0 29.7-106.4C123 741.8 64 656.4 64 511.3 64 307.5 245.1 85.3 523.9 85.3z m-1.3 64C304.1 149.3 128 317.1 128 522.7c0 77.4 24.9 151.1 70.6 213.2l5.4 7.1 18.2 23.5-37 128.7a0.3 0.3 0 0 0 0.5 0.4l113.4-63.8 26.8 14.6C385.2 878.7 452.5 896 522.7 896 741.3 896 917.3 728.2 917.3 522.7S741.3 149.3 522.7 149.3z m-192 320a53.3 53.3 0 1 1 0 106.7 53.3 53.3 0 0 1 0-106.7z m182.8 0a53.3 53.3 0 1 1 0 106.7 53.3 53.3 0 0 1 0-106.7z m182.9 0a53.3 53.3 0 1 1 0 106.7 53.3 53.3 0 0 1 0-106.7z" fill="#111111" p-id="542"></path></svg>