<svg xmlns="http://www.w3.org/2000/svg" viewBox="0 0 1024 1024" version="1.1"><path d="M71.7 102.4v819.2a81.9 81.9 0 0 0 81.9 81.9h716.8a81.9 81.9 0 0 0 81.9-81.9V102.4a81.9 81.9 0 0 0-81.9-81.9h-716.8a81.9 81.9 0 0 0-81.9 81.9z m55.1 805.2V116.4a41 41 0 0 1 41-41h316.8v873.2H167.7a41 41 0 0 1-41-41z m729.6 41H539.5V75.4h316.8a41 41 0 0 1 41 41v791.3a41 41 0 0 1-41 41z m-525.9-587.7a33.1 33.1 0 0 0-49.6 0l-91.9 104.9a32.4 32.4 0 0 0 0 40.1 22 22 0 0 0 35.2 0l55.1-61.5v202.7c0 15.2 12.3 27.4 27.5 27.4 15.2 0 27.5-12.3 27.5-27.4V444.4l55.1 61.5a23.1 23.1 0 0 0 35.2 0 32.4 32.4 0 0 0 0-40.1l-94.1-104.9z m363.3 302.1a33.1 33.1 0 0 0 49.5 0l91.9-104.9a32.4 32.4 0 0 0 0-40.1 22 22 0 0 0-35.2 0l-55.1 61.5v-202.7c0-15.2-12.3-27.4-27.5-27.4-15.2 0-27.5 12.3-27.5 27.4V579.6l-55.1-61.5a23.1 23.1 0 0 0-35.2 0 32.4 32.4 0 0 0 0 40.1l94.1 104.9z" fill="#111111" p-id="1082"></path></svg>