<svg xmlns="http://www.w3.org/2000/svg" viewBox="0 0 1024 1024" version="1.1"><path d="M133.6 845.9h89c7.4 0 11.1 3.7 11.1 11.1v33.4c0 7.4-3.7 11.1-11.1 11.1h-89c-7.4 0-11.1-3.7-11.1-11.1V857c0-7.4 3.7-11.1 11.1-11.1z m167 0h89c7.4 0 11.1 3.7 11.1 11.1v33.4c0 7.4-3.7 11.1-11.1 11.1h-89c-7.4 0-11.1-3.7-11.1-11.1V857c0-7.4 3.7-11.1 11.1-11.1z m167 0h89c7.4 0 11.1 3.7 11.1 11.1v33.4c0 7.4-3.7 11.1-11.1 11.1h-89c-7.4 0-11.1-3.7-11.1-11.1V857c0-7.4 3.7-11.1 11.1-11.1z m44.5-167C665.7 679 790.3 554.4 790.3 400.7S665.7 122.4 512 122.4 233.7 247 233.7 400.7 358.3 679 512 679z m0-500.9c122.9 0 222.6 99.7 222.6 222.6s-99.7 222.6-222.6 222.6-222.6-99.7-222.6-222.6 99.7-222.6 222.6-222.6z m0 389.6a167 167 0 1 0 0-333.9 167 167 0 0 0 0 333.9z m0-278.3a111.3 111.3 0 1 1 0 222.6 111.3 111.3 0 0 1 0-222.6z" fill="#0" p-id="1104"></path><path d="M52.9 731.1h939.1v66.8H52.9z" fill="#111111" p-id="1105"></path></svg>