<svg xmlns="http://www.w3.org/2000/svg" viewBox="0 0 1260 1024" version="1.1"><path d="M1160.8 0C1208.3 0 1244.6 36.3 1244.6 83.8v726.1a82.3 82.3 0 0 1-83.8 83.8h-111.7l50.3 67c8.4 11.2 5.6 30.7-5.6 39.1-5.6 2.8-54.8 5.6-60.4 5.6a25.4 25.4 0 0 1-22.4-11.2l-75.4-100.5H319.3L243.9 994.2a25.4 25.4 0 0 1-22.4 11.2c-5.6 0-49.4-2.8-55-5.6-11.2-8.4-14-27.9-5.6-39.1l50.3-67H99.5A82.3 82.3 0 0 1 15.8 809.9V83.8C15.8 36.3 52 0 99.5 0H1160.8zM91.9 107.7v682.7a26.3 26.3 0 0 0 26.3 26.3h1024a26.3 26.3 0 0 0 26.3-26.3v-682.7a26.3 26.3 0 0 0-26.3-26.3h-1024a26.3 26.3 0 0 0-26.3 26.3z" fill="#111111" p-id="1058"></path><path d="M1168.9 693.2H91.4c-17 0-28.4-15.8-28.4-39.4v-39.4h1134.3v39.4c0 23.6-11.3 39.4-28.4 39.4z" fill="#1B1B28" p-id="1059"></path><path d="M772.7 499.6c11 15.2 27.3 30.4 49.2 30.4 21.9 0 38.3-10.1 49.2-30.4l109.3-202.5c10.9-25.3 0-55.7-21.8-65.9-27.3-10.1-60.1 0-71 20.2l-65.6 116.5-60.1-111.4c-10.8-25.3-43.6-35.4-71-20.3-27.3 10.1-38.3 40.5-21.9 65.8l103.8 197.4z m-387.8-172.1v151.9c0 30.4 21.8 50.6 54.6 50.6 32.8 0 54.6-20.2 54.6-50.6v-151.9h54.6c32.8 0 54.6-20.3 54.6-50.7 0-30.4-21.9-50.6-54.6-50.6H330.3c-32.8 0-54.6 20.2-54.6 50.6 0 30.4 21.8 50.7 54.6 50.7h54.7z" fill="#111111" p-id="1060"></path></svg>