<svg xmlns="http://www.w3.org/2000/svg" viewBox="0 0 1024 1024" version="1.1"><path d="M900.5 85.3C921.6 85.3 938.7 102.4 938.7 123.5v509.7C938.7 801.9 801.9 938.7 633.3 938.7H123.5A38.2 38.2 0 0 1 85.3 900.5V390.8C85.3 222.1 222.1 85.3 390.7 85.3H900.5zM874.7 149.3H390.7C259.5 149.3 152.7 254.1 149.4 384.5L149.3 390.7V874.7h483.9c131.2 0 238-104.7 241.3-235.2l0.1-6.2V149.3z m-362.7 152.9c115.8 0 209.8 93.9 209.8 209.8 0 115.8-93.9 209.8-209.8 209.8-115.8 0-209.8-93.9-209.8-209.8 0-115.8 93.9-209.8 209.8-209.8z m0 64a145.8 145.8 0 1 0 0 291.5 145.8 145.8 0 0 0 0-291.5z" fill="#111111" p-id="599"></path></svg>