<svg xmlns="http://www.w3.org/2000/svg" viewBox="0 0 1130 1024" version="1.1"><path d="M1029 675.3H104.3c-52.8 0-93.1-40.3-93.1-93.1v-477.9C11.2 51.6 51.6 11.3 104.3 11.3h927.8c52.8 0 93.1 40.3 93.1 93.1v477.9c-3.1 49.6-43.4 93.1-96.2 93.1zM104.3 73.3c-18.6 0-31 12.4-31 31v477.9c0 18.6 12.4 31 31 31h927.8c18.6 0 31-12.4 31-31v-477.9c0-18.6-12.4-31-31-31H104.3z" fill="#111111" p-id="1210"></path><path d="M973.2 194.3h-238.9c-18.6 0-31-12.4-31-31 0-18.6 12.4-31 31-31h238.9c18.6 0 31 12.4 31 31 0 18.6-15.5 31-31 31zM250.2 1004.2c-6.2 0-12.4-3.1-18.6-6.2-12.4-9.3-15.5-31-6.2-43.4 15.5-18.6 31-43.5 24.8-62.1 0-6.2-6.2-9.3-9.3-15.5-9.3-12.4-21.7-27.9-21.7-52.8 0-49.6 34.1-80.7 43.4-83.8 12.4-9.3 34.1-6.2 43.4 6.2 9.3 12.4 6.2 34.1-6.2 43.4 0 0-18.6 12.4-18.6 34.1 0 3.1 0 6.2 9.3 12.4 6.2 9.3 15.5 21.7 21.7 37.2 9.3 34.1-3.1 74.5-34.1 117.9-9.3 9.3-18.6 12.4-27.9 12.4z m285.5 0c-6.2 0-12.4-3.1-18.6-6.2-12.4-9.3-15.5-31-6.2-43.4 15.5-18.6 31-43.5 24.8-62.1 0-6.2-3.1-9.3-9.3-15.5-9.3-12.4-21.7-27.9-21.7-52.8 0-49.6 34.1-80.7 43.5-83.8 12.4-9.3 34.1-6.2 43.4 6.2 9.3 12.4 6.2 34.1-6.2 43.4 0 0-18.6 12.4-18.6 34.1 0 3.1 0 6.2 9.3 12.4 6.2 9.3 15.5 21.7 21.7 37.2 9.3 34.1-3.1 74.5-34.1 117.9-9.3 9.3-18.6 12.4-27.9 12.4z m285.5 0c-6.2 0-12.4-3.1-18.6-6.2-12.4-9.3-15.5-31-6.2-43.4 15.5-18.6 31-43.5 24.8-62.1 0-6.2-3.1-9.3-9.3-15.5-9.3-12.4-21.7-27.9-21.7-52.8 0-49.6 34.1-80.7 43.5-83.8 12.4-9.3 34.1-6.2 43.4 6.2 9.3 12.4 6.2 34.1-6.2 43.4 0 0-18.6 12.4-18.6 34.1 0 3.1 0 6.2 9.3 12.4 6.2 9.3 15.5 21.7 21.7 37.2 9.3 34.1-3.1 74.5-34.1 117.9-9.3 9.3-18.6 12.4-27.9 12.4zM42.2 371.2h1020.9v62.1H42.3z" fill="#111111" p-id="1211"></path></svg>