<svg xmlns="http://www.w3.org/2000/svg" viewBox="0 0 1024 1024" version="1.1"><path d="M855.8 20.1H166.2a75.8 75.8 0 0 0-75.8 75.8v838.7a75.8 75.8 0 0 0 75.8 75.8h689.6a75.8 75.8 0 0 0 75.8-75.8V95.9A75.8 75.8 0 0 0 855.8 20.1zM540.5 771.8H141v-137.5h399.5v137.5zM166.2 70.6h374.2v513.2H141V95.9c0-14 11.3-25.3 25.3-25.3zM141 934.6v-112.2h399.5v137.5H166.2a25.3 25.3 0 0 1-25.3-25.3z m740.1 0c0 14-11.3 25.3-25.3 25.3H591V70.6h264.8c13.9 0 25.3 11.3 25.3 25.3v838.7z" fill="#111111" p-id="955"></path></svg>