<svg xmlns="http://www.w3.org/2000/svg" viewBox="0 0 1024 1024" version="1.1"><path d="M792.9 117.3a156.4 156.4 0 0 1 156.4 156.4 32 32 0 0 1-64 0A92.4 92.4 0 0 0 792.9 181.3H232A93.3 93.3 0 0 0 138.7 274.6v496a93.3 93.3 0 0 0 93.3 93.3h560.9a92.4 92.4 0 0 0 92.4-92.4 32 32 0 1 1 64 0 156.4 156.4 0 0 1-156.4 156.4H232A157.3 157.3 0 0 1 74.7 770.7V274.6A157.3 157.3 0 0 1 232 117.3h560.9z" fill="#111111" p-id="723"></path><path d="M456.7 345.6a32 32 0 1 1 48.3 42l-117.3 134.7 117 129.8a32 32 0 0 1-0 42.9l-2.3 2.3a32 32 0 0 1-45.2-2.3l-135.9-150.9a32 32 0 0 1-0.3-42.5l135.9-156z" fill="#111111" p-id="724"></path><path d="M917.3 488.1a32 32 0 0 1 0 64H356.1a32 32 0 0 1 0-64H917.3z" fill="#111111" p-id="725"></path></svg>