<svg xmlns="http://www.w3.org/2000/svg" viewBox="0 0 1024 1024" version="1.1"><path d="M468.9 57.9a68.4 68.4 0 0 1 86.2 0l399.9 322.6c30.1 24.2 35.1 68.7 11.3 99.3a69.3 69.3 0 0 1-37.8 24.8l-3.7 0.8 0 361.5c0 59.4-44.5 108.5-102.5 113.9l-4.7 0.4-4.9 0.1H211.4c-59.8 0-109.1-47.8-112.1-109.3l-0.1-5-0-361.5-2.5-0.5c-29.7-6.8-52.2-33.1-53.9-65L42.7 436c0-21.6 9.7-42 26.3-55.5z m46.7 50a5.8 5.8 0 0 0-7.3 0L108.9 431.1a6.1 6.1 0 0 0-2.2 4.7c0 3.3 2.6 6 5.9 6h18.8c17.5-0 31.7 14.5 31.7 32.4v392.5l0.1 3.4C164.4 896.5 185.8 917.3 211.7 917.3h599.8l3.3-0.1c25.8-1.3 46.1-23.1 46.1-49.6V474.3c0-17.9 14.2-32.4 31.7-32.4h18.8c1.8 0 3.5-0.8 4.6-2.3a6.1 6.1 0 0 0-1-8.4z m138.1 564.7a32 32 0 0 1-3.8 45.1C610.9 750.9 568.1 768 522.7 768c-45.4 0-88.2-17.1-127.4-50.2a32 32 0 1 1 41.4-48.9C464.7 692.7 493.1 704 522.7 704c29.6 0 57.9-11.3 86-35.1a32 32 0 0 1 45.1 3.8z" fill="#111111" p-id="577"></path></svg>