<svg xmlns="http://www.w3.org/2000/svg" viewBox="0 0 1024 1024" version="1.1"><path d="M512 74.7C259.2 74.7 53.3 269.9 53.3 512l0.1 9.7c2 87.1 30.8 170.7 83 241.5l4.7 6.2-28 97.6c-9.8 34.1 9.9 69.8 44.1 79.6l4.8 0.7c20.8 3 22.3 2.4 44.5-6.5l82.6-46.5-4.4-2.3C353.7 929.6 431.7 949.3 512 949.3c252.8 0 458.7-195.2 458.7-437.3S764.8 74.7 512 74.7z m0 64c218.6 0 394.7 167.8 394.7 373.3S730.6 885.3 512 885.3c-70.1 0-137.4-17.3-196.7-49.6l-26.8-14.6-113.4 63.8a0.3 0.3 0 0 1-0.5-0.4l37-128.7-18.2-23.5-5.4-7.1C142.2 663.1 117.3 589.4 117.3 512c0-205.5 176.1-373.3 394.7-373.3z" fill="#111111" p-id="736"></path><path d="M694.3 419.1a32 32 0 0 1 43.2 47.2l-196.7 180.1a117.3 117.3 0 0 1-161.3-2.7l-83.1-81.4a32 32 0 1 1 44.8-45.7l83.1 81.4a53.3 53.3 0 0 0 73.3 1.2l196.7-180.1z" fill="#111111" p-id="737"></path></svg>