<svg xmlns="http://www.w3.org/2000/svg" viewBox="0 0 1024 1024" version="1.1"><path d="M935.5 139.3L524.3 2a39.2 39.2 0 0 0-24.8 0L88.5 139.3A39.8 39.8 0 0 0 61.4 177.1v396.4c0 43.9 21.1 94.9 62.5 151.8 32.4 44.3 77.8 92.8 131.4 140.3 46.5 41.2 97.4 80.1 143.1 109.4C475.1 1024 502.9 1024 512 1024c9.1 0 36.9 0 113.3-48.1 46-29 96.8-67.4 143.2-108.2 53.7-47.2 99.2-95.7 131.5-140.3 41.5-56.9 62.5-108.7 62.5-153.8V177.2c0-17.2-10.9-32.5-27.1-37.9z m-51.9 434.3c0 18.8-7.9 52.2-45.8 104.8-28.2 39.2-68.6 82.6-116.9 125.6-42.4 37.7-89.2 73.5-131.8 100.8-46.1 29.6-70.5 38.4-77 39.5-6.6-1.2-31-10.2-77.2-40.3-42.5-27.7-89.3-64-131.9-102.1-100.4-89.9-162.6-177.3-162.6-228.2v-367.6l371.7-124.1 371.7 124.1-0 367.6z" fill="#111111" p-id="1290"></path><path d="M335.4 489.1a40.6 40.6 0 0 0-3.6 41.6c6.6 13.4 19.9 21.9 34.5 21.9h192.7l-150.4 202.8a40.6 40.6 0 0 0-5 39.4c5.3 13.1 17.1 22.3 30.8 24.1a38.2 38.2 0 0 0 35.7-15.4l197.7-266.5a40.6 40.6 0 0 0 3.9-41.7 38.6 38.6 0 0 0-34.7-22.1h-193.6l119.3-163.9a40.4 40.4 0 0 0-7.8-55.6 38 38 0 0 0-54.1 8l-165.5 227.4z" fill="#111111" p-id="1291"></path></svg>