<svg xmlns="http://www.w3.org/2000/svg" viewBox="0 0 1024 1024" version="1.1"><path d="M916.4 713.5l-200.7-200.6c12.9-36.1 19.5-73.8 19.5-112.4 0-184.6-150.2-334.8-334.8-334.8-46 0-90.7 9.3-132.9 27.5l-20 8.6c-0 0 0.1 0 0.1 0.1-1.9 0.8-3.7 2-5.2 3.6-6.6 6.6-6.6 17.4 0 24 0.1 0.1-0.1 0.1-0 0.2l187.5 187.5L317.1 429.9 133.4 246.2c-0.3 0-0.6 0-0.9-0.3-7.8-7.8-20.4-7.8-28.2 0-2.1 2.1-3.7 4.6-4.6 7.3-0.1 0.2-0.2 0.1-0.3 0.1l-6.2 14.3c-18.2 42.1-27.5 86.9-27.5 132.9 0 184.6 150.2 334.8 334.8 334.8 38.6 0 76.3-6.5 112.4-19.5l200.7 200.6c27.1 27.1 63.1 42 101.5 42 0 0 0 0 0 0 38.3 0 74.4-14.9 101.4-42C972.3 860.4 972.3 769.4 916.4 713.5zM871.4 871.3c-15.1 15.1-35.1 23.4-56.4 23.4l-0 0c-21.3 0-41.3-8.3-56.4-23.4l-230.8-230.7-19.9 8.6c-34.2 14.8-70.3 22.3-107.5 22.3-149.4 0-271-121.6-271-271 0-20.8 2.3-41.2 7-61.1l168.6 168.6c7.1 5.6 16.8 5.7 24 0.4l177.2-177.2c0.1-0.1-0.1-0.1 0-0.2 7.2-7.2 7.4-18.5 1.2-26.3L339.3 136.3c20-4.6 40.4-7 61.2-7 149.4 0 271 121.6 271 271 0 37.2-7.5 73.4-22.3 107.5l-8.6 19.9 230.8 230.8C902.4 789.6 902.4 840.2 871.4 871.3z" fill="#272636" p-id="1057"></path></svg>