<svg xmlns="http://www.w3.org/2000/svg" viewBox="0 0 1025 1024" version="1.1"><path d="M545.1 127.6c0-10 0-24 0-35.2 0-19.4-21-21-21-21l-85.2 0 0 56.2L127.8 127.6l0 63.8 768.3 0 0-63.8L545.1 127.6z" fill="#272636" p-id="915"></path><path d="M448.2 268.6c0-29.2-29.2-29.2-29.2-29.2l-69.6 0-0.1 56c0 0-156.1 0-189.6 0-33.5 0-31.8 42.1-31.8 42.1s0 567.1 0 594.6c0 27.5 22.3 26.6 22.3 26.6l66.2 0c0 0 0-561.9 0-587.7 0-25.8 26.6-26.6 26.6-26.6L448.2 344.3C448.2 344.3 448.2 297.8 448.2 268.6z" fill="#272636" p-id="916"></path><path d="M674.1 445.2c0 0-286.9 0-320.9 0-34 0-32.9 32.9-32.9 32.9s-0.6 367.2-0.6 392.7c0 25.5 24.4 24.4 24.4 24.4l248.7 0 109.6-233.3c0 0 0-163.3 0-191.5C702.5 442.2 674.1 445.2 674.1 445.2zM622.1 655.7 513.2 851.6l-86.6 0c0 0-16.9-3.2-16.9-21.1s0-318.5 0-318.5 1-23.2 23.2-23.2l172.6 0c0 0 16.6-3.2 16.6 16.6C622.1 525.2 622.1 655.7 622.1 655.7z" fill="#272636" p-id="917"></path><path d="M650.3 381.9l0-84.3c0 0 1-31.9 27.4-31.9 26.4 0 89.8 0 89.8 0l0-26.4L601.5 239.2c0 0-28.5-4.1-28.5 28.4 0 32.5 0 78.6 0 78.6s0 35.6 25.4 35.6C623.8 381.9 650.3 381.9 650.3 381.9z" fill="#272636" p-id="918"></path><path d="M859 303.2c-38.1 0-189.5 0-189.5 0l0 9.6 0 33.6 107.7 0c0 0 25.4-2 25.4 23.4 0 25.4 0 558.8 0 558.8s-3 9.1-14.2 11.2 0 19.3 0 19.3l81.3 0c0 0 26.4-3 26.4-39.6 0-36.6 0-579.1 0-579.1S897 303.2 859 303.2z" fill="#272636" p-id="919"></path></svg>