<svg xmlns="http://www.w3.org/2000/svg" viewBox="0 0 1024 1024" version="1.1"><path d="M399 322.7 331.6 443.5 264.2 322.7 238.3 322.7 312.3 451.2 255.8 451.2 255.8 465.6 320.4 465.6 320.4 502.4 255.8 502.4 255.8 516.8 320.4 516.8 320.4 573.3 342.9 573.3 342.9 516.8 407.4 516.8 407.4 502.4 342.9 502.4 342.9 465.6 407.4 465.6 407.4 451.2 350.9 451.2 425 322.7Z" fill="#272636" p-id="785"></path><path d="M735.3 333.6 609.5 333.6l0-94.3c0-7.8-6.4-14.2-14.2-14.2L126 225.2c-7.8 0-14.2 6.4-14.2 14.2L111.8 708.7c0 7.8 6.4 14.2 14.2 14.2l108.8 0c9.9 43.6 48.9 76.1 95.5 76 46.5-0 85.4-32.5 95.4-76l169.7 0c0.3 0 0.7-0 1-0.1l0 0.1 47.3 0c10.18 43.4 49 75.7 95.4 75.7 46.4-0 85.2-32.4 95.3-75.7l63.7 0c7.8 0 14.2-6.4 14.2-14.2L912.2 510.5C912.2 413.3 832.6 333.6 735.3 333.6zM330.2 770.5c-38.4 0-69.6-31.1-69.6-69.5-0-38.4 31.1-69.6 69.5-69.6 38.4-0 69.6 31.1 69.6 69.5C399.8 739.3 368.7 770.5 330.2 770.5zM581.2 680.4c0 7.8-6.4 14.2-14.2 14.2L427.9 694.5c-3.3-51.1-45.8-91.5-97.7-91.4-51.9 0-94.3 40.4-97.6 91.4l-78.2 0c-7.8 0-14.2-6.4-14.2-14.2L140.1 267.6c0-7.8 6.4-14.2 14.2-14.2l412.8 0c7.8 0 14.2 6.4 14.2 14.2L581.2 680.4zM739.1 770.2c-38.4 0-69.6-31.1-69.6-69.5-0-38.4 31.1-69.6 69.5-69.6 38.4-0 69.6 31.1 69.6 69.5C808.6 739 777.5 770.2 739.1 770.2zM883.9 680.4c0 7.8-6.4 14.2-14.2 14.2l-33 0c-3.2-51.2-45.7-91.8-97.8-91.8-52 0-94.5 40.6-97.6 91.8l-31.8 0L609.5 362l121.1 0c84.3 0 153.3 69 153.3 153.3L883.9 680.4z" fill="#272636" p-id="786"></path><path d="M746.8 413.9l-77.8 0c-7.8 0-14.2 6.4-14.2 14.2l0 87.3c0 7.8 6.4 14.2 14.2 14.2l146.2 0c7.8 0 14.2-6.4 14.2-14.2l0-18.9C829.3 451.1 792.2 413.9 746.8 413.9zM794 501.2 690.2 501.2c-3.9 0-7.1-3.2-7.1-7.1l0-44.8c0-3.9 3.2-7.1 7.1-7.1l59 0c28.5 0 51.9 23.4 51.9 51.9C801 498 797.8 501.2 794 501.2z" fill="#272636" p-id="787"></path></svg>