<svg xmlns="http://www.w3.org/2000/svg" viewBox="0 0 1024 1024" version="1.1"><path d="M180.1 918.1c-16.6 0-30-13.4-30-29.8l0-73c0-72.9 22.1-143.2 63.8-203.1 40.8-58.5 97.4-103.3 163.7-129.7l10.9-4.3-9.3-7.2c-52.2-40.7-82.1-101.6-82.1-166.9 0-117.1 95.9-212.4 213.8-212.4s213.8 95.3 213.8 212.4c0 65.4-29.9 126.2-82.1 166.9l-9.3 7.2 10.9 4.3c66.3 26.3 122.9 71.2 163.7 129.7 41.7 59.9 63.8 130.1 63.8 203.1l0 73c0 16.4-13.5 29.8-30 29.8l-661.7 0zM511 516.4c-165.9 0-300.9 134.1-300.9 298.9l0 43.2 601.6 0 0-43.2c0-164.8-134.9-298.9-300.8-298.9zM511 151.2c-84.8 0-153.8 68.5-153.8 152.8 0 84.3 69 152.8 153.8 152.8 84.8 0 153.8-68.5 153.8-152.8 0-84.3-69-152.8-153.8-152.8zM33.1 808.5c-16.6 0-30-13.4-30-29.8l0-56.5c0-107.2 59.2-204.2 154.5-253.2l7.8-4-5.9-6.5c-29.7-32.5-46.1-74.4-46.1-118 0-96 77.8-174.2 174-175.9-0.6 1-1.2 2-1.8 2.9-14.8 19.4-26.3 40.8-34.2 63.7-46.8 16.5-77.9 60-77.9 109.2 0 45.5 27 87 68.7 105.8l0.2 0.1 0.2 0.1c12.4 4.7 20.5 15.5 20.5 27.5 0 12.3-8.6 23.5-21.5 27.9l-6.9 1.6c-101 25.3-171.5 115.3-171.5 218.7l0 26.7 35.1 0c-3.6 19.6-5.6 39.6-5.9 59.6l-59.2 0zM929.3 808.5c-0.4-20-2.4-40-5.9-59.6l35.1 0 0-26.7c0-103.4-70.5-193.4-171.4-218.7l-7-1.7c-12.9-4.4-21.5-15.6-21.5-27.9 0-12 8-22.8 20.5-27.5l0.2-0.1 0.2-0.1c41.8-18.8 68.7-60.4 68.7-105.8 0-49.3-31.2-92.7-78-109.2-7.8-22.9-19.3-44.3-34.2-63.7-0.6-1-1.2-2-1.8-2.9 96.2 1.6 174 79.9 174 175.9 0 43.5-16.4 85.4-46.1 118l-5.9 6.5 7.82 4c95.3 49 154.5 146 154.4 253.2l0 56.5c0 16.4-13.5 29.8-30 29.8l-59.2 0z" fill="#272636" p-id="774"></path></svg>