<svg xmlns="http://www.w3.org/2000/svg" viewBox="0 0 1038 1024" version="1.1"><path d="M924.3 111.1l0 0c-28-28-73.7-28-101.7 0l-316.7 316.7 101.7 101.7 316.7-316.7c28-28 28-73.7 0-101.7z" fill="#272636" p-id="930"></path><path d="M474.4 543.2c-2 10.4 7.2 19.5 17.7 17.7l103.1-19-101.7-101.7-19.1 102.9z" fill="#272636" p-id="931"></path><path d="M831.1 933.9c0 18.6-15.2 33.8-33.8 33.8l-696.3 0c-18.6 0-33.8-15.2-33.8-33.8L67.2 90.2c0-18.6 15.2-33.8 33.8-33.8l696.3 0c11.8 0 22 6 28 15L861.8 35C846.3 16.8 823.3 5.2 797.3 5.2l-696.3 0C54.3 5.2 16.2 43.2 16.2 90.2l0 843.9c0 46.8 38.1 85 85 85l696.3 0c46.8 0 85-38.1 85-85L882.5 293.1l-51.2 51.2L831.3 933.9z" fill="#272636" p-id="932"></path><path d="M716.8 687.1 181.8 687.1c-11.3 0-20.5 9.2-20.5 20.5l0 12.8c0 11.3 9.2 20.5 20.5 20.5L716.8 740.9c11.3 0 20.5-9.2 20.5-20.5l0-12.8C737.2 696.3 728 687.1 716.8 687.1z" fill="#272636" p-id="933"></path><path d="M614.4 283.2 181.8 283.2c-11.3 0-20.5 9.2-20.5 20.5l0 12.8c0 11.3 9.2 20.5 20.5 20.5l378.9 0L614.4 283.2z" fill="#272636" p-id="934"></path><path d="M613 559.3l-139.4 25.8c-14.2 2.6-26.5-9.7-23.9-23.9l1.5-8.7L181.8 552.5c-11.3 0-20.5 9.2-20.5 20.5l0 12.8c0 11.3 9.2 20.5 20.5 20.5L716.8 606.2c11.3 0 20.5-9.2 20.5-20.5l0-12.8c0-11.3-9.2-20.5-20.5-20.5l-110.6 0L613 559.3z" fill="#272636" p-id="935"></path><path d="M181.8 471.6l248 0 53.8-53.8L181.8 417.8c-11.3 0-20.5 9.2-20.5 20.5l0 12.8C161.3 462.4 170.5 471.6 181.8 471.6z" fill="#272636" p-id="936"></path><path d="M737.2 451.1l0-11.9-32.4 32.4 11.9 0C728 471.6 737.2 462.4 737.2 451.1z" fill="#272636" p-id="937"></path></svg>