<svg xmlns="http://www.w3.org/2000/svg" viewBox="0 0 1024 1024" version="1.1"><path d="M672.5 432.8c0-13.1-10.6-23.7-23.7-23.7L310.9 409.2c-13.1 0-23.7 10.6-23.7 23.7 0 13.1 10.6 23.7 23.7 23.7l337.9 0C661.9 456.5 672.5 445.9 672.5 432.8z" fill="#272636" p-id="702"></path><path d="M805.1 50.2 185.6 51.7c-13.1 0-23.7 10.6-23.7 23.7 0 13.1 10.6 23.7 23.7 23.7l619.6-1.5c64.6 0 117.1 52.5 117.1 117.1l0 592.7c0 13.1 10.6 23.7 23.7 23.7s23.7-10.6 23.7-23.7L969.7 214.7C969.6 124 895.8 50.2 805.1 50.2z" fill="#272636" p-id="703"></path><path d="M637.3 577.8c-87.5 0-158.6 71.2-158.6 158.6 0 87.4 71.1 158.6 158.6 158.6s158.6-71.1 158.6-158.6C795.9 649 724.8 577.8 637.3 577.8zM637.3 863.2c-69.5 0-126-56.5-126-126 0-69.5 56.5-126 126-126s126 56.5 126 126C763.3 806.7 706.8 863.2 637.3 863.2z" fill="#272636" p-id="704"></path><path d="M310.9 353.3l337.9 0c13.1 0 23.7-10.6 23.7-23.7 0-13.1-10.6-23.7-23.7-23.7L310.9 305.9c-13.1 0-23.7 10.6-23.7 23.7C287.2 342.6 297.8 353.3 310.9 353.3z" fill="#272636" p-id="705"></path><path d="M730.6 714c-1.9-6.1-7.1-10.5-13.4-11.4l-44.9-6.6-20.1-40.8c-5.6-11-24.2-11-29.8 0.1l-20.1 40.7-44.9 6.6c-6.3 0.9-11.5 5.2-13.4 11.2-2 6-0.4 12.7 4.2 17.2l32.5 31.7-7.7 44.7c-1 6.2 1.6 12.6 6.5 16.1 5 3.8 12.4 4.2 17.7 1.4l40.1-21.1 40.3 21.2c2.4 1.2 5 1.9 7.7 1.9 3.5 0 7-1.2 9.8-3.3 5.2-3.8 7.7-10.1 6.6-16.3l-7.7-44.7 32.5-31.7C730.9 726.5 732.5 719.7 730.6 714zM664.3 745c-3.9 3.9-5.6 9.4-4.7 14.7l3.5 20.1-18.2-9.5c-2.4-1.2-5-1.9-7.7-1.9s-5.2 0.6-7.7 1.9l-18 9.5 3.4-20c1-5.4-0.7-10.9-4.7-14.8l-14.6-14.2 20.4-3c5.2-0.9 9.8-4.2 12.3-9.1l9-18.3 9.1 18.4c2.4 4.7 6.9 8 12.5 9l20.1 2.9L664.3 745z" fill="#272636" p-id="706"></path><path d="M721.3 136.9 209.7 136.9c-90.7 0-164.5 73.8-164.5 164.5l0 506.9C45.2 899 119 972.8 209.7 972.8l511.6 0c90.7 0 164.5-73.8 164.5-164.5L885.7 301.4C885.8 210.7 812 136.9 721.3 136.9zM721.3 925.4 209.7 925.4c-64.6 0-117.1-52.6-117.1-117.1L92.5 301.4c0-64.6 52.5-117.1 117.1-117.1l511.6 0c64.6 0 117.1 52.5 117.1 117.1l0 506.9C838.4 872.9 785.8 925.4 721.3 925.4z" fill="#272636" p-id="707"></path><path d="M203.4 329.6m-28.2 0a1.1 1.1 0 1 0 56.3 0 1.1 1.1 0 1 0-56.3 0Z" fill="#272636" p-id="708"></path><path d="M203.4 432.8m-28.2 0a1.1 1.1 0 1 0 56.3 0 1.1 1.1 0 1 0-56.3 0Z" fill="#272636" p-id="709"></path></svg>