<svg xmlns="http://www.w3.org/2000/svg" viewBox="0 0 1024 1024" version="1.1"><path d="M42.7 85.5 42.7 85.5 42.7 938.5C42.7 962.2 61.9 981.3 85.5 981.3L938.5 981.3C962.2 981.3 981.3 962.1 981.3 938.5L981.3 85.5C981.3 61.8 962.1 42.7 938.5 42.7L85.5 42.7C61.8 42.7 42.7 61.9 42.7 85.5L42.7 85.5ZM277.3 716.5 202 641.2C193.9 633 180.1 632.7 171.7 641.1 163.7 649.2 163.5 663 171.8 671.3L247.2 746.7 171.8 822C163.7 830.1 163.4 843.9 171.7 852.3 179.8 860.3 193.6 860.5 202 852.2L277.3 776.8 352.7 852.2C360.8 860.3 374.6 860.6 382.9 852.3 391 844.2 391.2 830.4 382.8 822L307.5 746.7 382.8 671.3C391 663.2 391.3 649.4 382.9 641.1 374.8 633 361 632.8 352.7 641.2L277.3 716.5ZM256 256 149.5 256C137.9 256 128 265.6 128 277.3 128 288.8 137.6 298.7 149.5 298.7L256 298.7 256 405.2C256 416.7 265.6 426.7 277.3 426.7 288.8 426.7 298.7 417.1 298.7 405.2L298.7 298.7 405.2 298.7C416.7 298.7 426.7 289.1 426.7 277.3 426.7 265.9 417.1 256 405.2 256L298.7 256 298.7 149.5C298.7 137.9 289.1 128 277.3 128 265.9 128 256 137.6 256 149.5L256 256ZM0 85.5C0 38.3 38.3 0 85.5 0L938.5 0C985.7 0 1024 38.3 1024 85.5L1024 938.5C1024 985.7 985.7 1024 938.5 1024L85.5 1024C38.39 1024 0 985.7 0 938.5L0 85.5ZM554.7 277.3C554.7 265.6 564.6 256 576.1 256L831.9 256C843.7 256 853.3 265.9 853.3 277.3 853.3 289.1 843.4 298.7 831.9 298.7L576.1 298.7C564.3 298.7 554.7 288.8 554.7 277.3ZM554.7 661.3C554.7 649.6 564.6 640 576.1 640L831.9 640C843.7 640 853.3 649.9 853.3 661.3 853.3 673.1 843.4 682.7 831.9 682.7L576.1 682.7C564.3 682.7 554.7 672.8 554.7 661.3ZM554.7 832C554.7 820.2 564.6 810.7 576.1 810.7L831.9 810.7C843.7 810.7 853.3 820.6 853.3 832 853.3 843.8 843.4 853.3 831.9 853.3L576.1 853.3C564.3 853.3 554.7 843.4 554.7 832Z" fill="#272636" p-id="732"></path></svg>