<svg xmlns="http://www.w3.org/2000/svg" viewBox="0 0 1024 1024" version="1.1"><path d="M696.6 199.8c0-17.2-14-31.2-31.2-31.2L291 168.6c-17.2 0-31.2 14-31.2 31.2l0 218.4 436.9 0L696.6 199.8zM384.6 355.8c0 17.2-14 31.2-31.2 31.2s-31.2-14-31.2-31.2l0-62.4c0-17.2 14-31.2 31.2-31.2s31.2 14 31.2 31.2L384.6 355.8z" fill="#272636" p-id="610"></path><path d="M353.4 262.2c-17.2 0-31.2 14-31.2 31.2l0 62.4c0 17.2 14 31.2 31.2 31.2s31.2-14 31.2-31.2l0-62.4C384.6 276.3 370.5 262.2 353.4 262.2z" fill="#272636" p-id="611"></path><path d="M353.4 511.9c-17.2 0-31.2 14-31.2 31.2l0 93.6c0 17.2 14 31.2 31.2 31.2s31.2-14 31.2-31.2L384.6 543.1C384.6 525.9 370.5 511.9 353.4 511.9z" fill="#272636" p-id="612"></path><path d="M696.6 199.8c0-17.2-14-31.2-31.2-31.2L291 168.6c-17.2 0-31.2 14-31.2 31.2l0 218.4 436.9 0L696.6 199.8z" fill="#272636" p-id="613"></path><path d="M665.4 106.2 291 106.2c-51.7 0-93.6 41.9-93.6 93.6l0 592.9c0 40.7 26.1 75 62.4 87.9l0 5.7c0 17.2 14 31.2 31.2 31.2l31.2 0c17.2 0 31.2-14 31.2-31.2l249.6 0c0 17.2 14 31.2 31.2 31.2l21.9 0c0.4-9.8 0.9-20.3 1.4-31.2l0.5 0c0.2-4.8 0.4-9.8 0.7-14.6l-0.5 0c0.8-16.9 1.5-33.5 2.2-47.8l-369.5 0c-17.2 0-31.2-14-31.2-31.2L259.7 480.7l436.9 0 0 38.4c6.9 4.4 13.3 7.9 16.5 7.9 8.4 0 39-24.6 45.9-30.2L759 199.8C759 148.2 717.1 106.2 665.4 106.2zM696.6 418.3 259.7 418.3 259.7 199.8c0-17.2 14-31.2 31.2-31.2l374.5 0c17.2 0 31.2 14 31.2 31.2L696.6 418.3z" fill="#272636" p-id="614"></path><path d="M826.8 547.6c-5.3-5.3-5.8 2.5-5.8 2.5s0 56.9 0 64.6c0 7.7-8.5 14.7-8.5 14.7s-0.5 0.4-1.2 1c-5.5 4.5-30.1 24.3-36.9 24.3-2.6 0-7.8-2.7-13.3-6.3-11-7-24-17.3-24-17.3s-10.4-9.7-10.4-15.6c0-6 0.2-64.6 0.2-64.6s-0.6-7.7-6-2c-17.3 17.4-51.3 52.3-51.2 84.9l-0.1 6.8c-0 40.1 28.9 71.4 66.5 76.8l0 0.2c2.4 0.8 12.6 3.3 25 6.2 7.9 1.8 16.6 3.7 25 5.5 7.7 1.7 8.6 4 0.1 5.8-7.2 1.6-16.8 3.4-25.1 4.8-9.8 1.8-17.6 3.1-17.6 3.1s-2.6 1.1-5.2 3.8c-2.3 2.3-4.4 5.9-4.8 11.4-0.2 3.2-0.8 15.8-1.6 32.3-0.6 11.5-1.2 24.8-1.7 38.4-0.2 3.9-0.4 7.9-0.6 11.8-0.4 8.8-0.8 17.2-1.1 25.1-1 22-1.8 38.8-1.8 38.8 0.1 15.5 10.9 47.1 47.3 47.1 36.1-0.1 47.1-31.6 47.1-47.1l-7.9-157.9-1.5-29.3c37.5-5.6 66.4-37 66.5-76.9l0-6.9C878.3 599.7 844 564.6 826.8 547.6zM791 915.2c-9.2 9.2-24 9.2-33.1 0-9.1-9.1-9.1-23.9 0-33.1 9.1-9.1 23.9-9.1 33.1 0C800.1 891.3 800.1 906.2 791 915.2z" fill="#272636" p-id="615"></path></svg>