<svg xmlns="http://www.w3.org/2000/svg" viewBox="0 0 1024 1024" version="1.1"><path d="M503.2 26.9c0 0-352.6 504.7-352.6 677.9 0 153.5 132.2 281 290.4 308.1l12.6-61.1c-125.3-20.8-244.5-116.6-244.5-231.9 0-130.6 294.1-587.6 294.1-587.6s294.1 457 294.1 587.6c0 110.3-109.2 202.2-228.4 228.4l-10.2 65.7c161.2-24.7 297.1-153.5 297.1-309.1C855.9 531.6 503.2 26.9 503.2 26.9zM541.1 702.8c-77.1 30-83.2-15-83.2-15l79.2-245.7c-13-64.8-60.1-30.1-60.1-30.1S394.5 654.1 367.8 732.8c-26.7 78.7 45.1 75.2 45.1 75.2L556.2 762.9l-83.2 255.6 30 0 15-30.1c0 0 113.9-190.8 143.2-285.6C684.3 628.4 586.2 685.2 541.1 702.8z" fill="#272636" p-id="691"></path></svg>