<svg xmlns="http://www.w3.org/2000/svg" viewBox="0 0 1024 1024" version="1.1"><path d="M802.1 626.3c-11.9 0-20.5 8.5-20.5 20.5 0 153.6-121.2 278.2-267.9 278.2-148.5 0-267.9-124.6-267.9-278.2 0-49.5 13.7-99 37.5-141.7 0-1.7 1.7-1.7 1.7-3.4 1.7-5.1 6.8-13.7 11.9-25.6 11.9-23.9 25.6-49.5 42.7-78.5 46.1-80.2 102.4-167.3 167.3-257.7L512 128l15.4 22.2c5.1 8.5 11.9 17.1 17.1 23.9 3.4 5.1 10.2 8.5 17.1 8.5 3.4 0 8.5-1.7 11.9-3.4 8.5-6.8 11.9-18.8 5.1-29C563.2 129.7 546.1 105.8 529.1 81.9c0 0-1.7-1.7-1.7-3.4 0 0-3.4-3.4-3.4-3.4 0 0-1.7 0-1.7-1.7l-1.7 0-3.4-1.7-3.4 0-3.4 0-3.4 1.7-1.7 0c0 0-1.7 0-1.7 1.7l-1.7 1.7 0 0c0 0-1.7 1.7-1.7 1.7 0 0-1.7 1.7-1.7 1.7-75.1 104.1-139.9 204.8-192.9 295.3-17.1 29-30.7 54.6-42.7 80.2-3.4 8.5-6.8 15.4-10.2 20.5l-3.4 5.1c-29 49.5-44.4 105.8-44.4 163.8 0 175.8 138.2 317.4 308.9 317.4s308.9-143.4 308.9-317.4C822.6 634.9 812.4 626.3 802.1 626.3z" fill="#272636" p-id="598"></path><path d="M611 409.6 750.9 409.6l-110.9 155.3c-6.8 8.5-3.4 17.1 5.1 23.9 3.4 3.4 8.5 3.4 11.9 3.4 6.8 0 11.9-1.7 15.4-6.8l133.1-187.7c3.4-5.1 5.1-11.9 1.7-17.1C802.1 375.5 795.3 375.5 788.5 375.5l-143.4 0 61.4-109.2c3.4-5.1 3.4-13.7 1.7-18.8-1.7-5.1-5.1-8.5-8.5-11.9-3.4-1.7-6.8-1.7-10.2-1.7-6.8 0-13.7 3.4-17.1 10.2l-78.5 134.8c-3.4 5.1-3.4 13.7 0 20.5C597.3 402.8 602.5 409.6 611 409.6z" fill="#272636" p-id="599"></path></svg>