<svg xmlns="http://www.w3.org/2000/svg" viewBox="0 0 1024 1024" version="1.1"><path d="M142.7 507.8l118.6 0c11.3 0 20.5-8.9 20.5-20 0-11.1-9.1-20.5-20.5-20.5L142.7 467.4c-11.5 0-20.2 9.4-20.2 20.5C122.5 498.9 131.1 507.8 142.7 507.8L142.7 507.8zM142.7 433.3 142.7 433.3l118.6 0c11.3 0 20.5-8.9 20.5-20 0-11.6-9.1-20.5-20.5-20.5L142.7 392.8c-11.5 0-20.2 8.9-20.2 20.5C122.5 424.3 131.1 433.3 142.7 433.3L142.7 433.3zM961.7 173.4 961.7 173.4l-244.4 0L717.2 104.3c0-18.5-15.4-34.2-33.9-34.2L340.9 70.2c-18.8 0-33.7 15.7-33.7 34.2l0 69.1L62.8 173.4c-18.8 0-34.2 15.4-34.2 34.2l0 661.9c0 18.5 15.4 33.7 34.2 33.7l244.4 0 0 14.7c0 18.5 14.9 34.2 33.7 34.2l342.4 0c18.5 0 33.9-15.6 33.9-34.2l0-14.7 244.4 0c18.8 0 33.7-15.1 33.7-33.7l0-661.9C995.4 188.8 980.4 173.4 961.7 173.4L961.7 173.4zM307.3 835.3 307.3 835.3 96.5 835.3 96.5 241.3l210.8 0L307.3 835.3 307.3 835.3zM649.4 884.1 649.4 884.1 375.1 884.1 375.1 138.3l274.3 0L649.4 884.1 649.4 884.1zM927.5 835.3 927.5 835.3 717.2 835.3 717.2 241.3l210.3 0L927.5 835.3 927.5 835.3zM142.7 358.6 142.7 358.6l118.6 0c11.3 0 20.5-8.9 20.5-20 0-11.3-9.1-20.4-20.5-20.4L142.7 318.3c-11.5 0-20.2 9.1-20.2 20.4C122.5 349.8 131.1 358.6 142.7 358.6L142.7 358.6zM255.5 667.4 255.5 667.4c-13.7-14-32.7-22.4-53.6-22.4-20.9 0-39.9 8.4-53.4 22.4-13.7 13.4-22.1 32.2-22.1 53.2 0 20.5 7.7 39.2 20.7 52.5l1.4 1.2c13.5 13.9 32.5 22.4 53.4 22.4 20.9 0 39.9-8.4 53.6-22.4 13.7-13.5 22.4-32.2 22.4-53.6 0-20.5-8.2-38.5-21.2-52.2L255.5 667.4 255.5 667.4zM226.7 745.5 226.7 745.5c-6 6-15.2 10.3-24.8 10.3-9.9 0-18.3-4.3-24.5-10.3l-1.2-0.7c-5.8-6.5-9.4-14.4-9.4-24.3 0-9.6 3.8-18.1 10.1-24.8l0.5 0.5c6.2-6.7 14.7-10.8 24.5-10.8 9.6 0 18.7 4.1 24.8 10.8l1 0.5c5.8 6.3 9.4 14.4 9.4 23.8C237 730.4 233.2 739.3 226.7 745.5L226.7 745.5zM762.9 433.3 762.9 433.3l118.8 0c11.6 0 20.5-8.9 20.5-20 0-11.6-8.9-20.5-20.5-20.5L762.9 392.8c-11.5 0-20.5 8.9-20.5 20.5C742.5 424.3 751.4 433.3 762.9 433.3L762.9 433.3zM762.9 507.8 762.9 507.8l118.8 0c11.6 0 20.5-8.9 20.5-20 0-11.1-8.9-20.5-20.5-20.5L762.9 467.4c-11.5 0-20.5 9.4-20.5 20.5C742.5 498.9 751.4 507.8 762.9 507.8L762.9 507.8zM762.9 358.6 762.9 358.6l118.8 0c11.6 0 20.5-8.9 20.5-20 0-11.3-8.9-20.4-20.5-20.4L762.9 318.3c-11.5 0-20.5 9.1-20.5 20.4C742.5 349.8 751.4 358.6 762.9 358.6L762.9 358.6zM439.1 469.1 439.1 469.1l146 0c11.3 0 20.5-8.9 20.5-20.5 0-11.1-9.1-20.5-20.5-20.5L439.1 428.2c-11.6 0-20.5 9.4-20.5 20.5C418.6 460.2 427.5 469.1 439.1 469.1L439.1 469.1zM876 667.4 876 667.4c-13.7-14-32.7-22.4-53.9-22.4-20.7 0-39.9 8.4-53.4 22.4-13.5 13.4-22.1 32.2-22.1 53.2 0 20.5 8.2 39.2 21.2 52.5l1 1.2c13.5 13.9 32.7 22.4 53.4 22.4 21.2 0 40.2-8.4 53.9-22.4 13.5-13.5 22.1-32.2 22.1-53.6 0-20.5-7.7-38.5-21.2-52.2L876 667.4 876 667.4zM847.1 745.5 847.1 745.5c-6.2 6-14.9 10.3-25 10.3-9.1 0-18.3-4.3-24.5-10.3l-1-0.7c-5.8-6.5-9.6-14.4-9.6-24.3 0-9.6 3.8-18.1 10.6-24.8l0 0.5c6.3-6.7 15.4-10.8 24.5-10.8 10.1 0 18.8 4.1 25 10.8l1 0.5c5.8 6.3 9.4 14.4 9.4 23.8C857.5 730.4 853.9 739.3 847.1 745.5L847.1 745.5zM439.1 285.7 439.1 285.7l146 0c11.3 0 20.5-8.9 20.5-20.2 0-11.3-9.1-20.2-20.5-20.2L439.1 245.3c-11.6 0-20.5 8.9-20.5 20.2C418.6 276.9 427.5 285.7 439.1 285.7L439.1 285.7zM439.1 377.7 439.1 377.7l146 0c11.3 0 20.5-9.4 20.5-20.5 0-11.3-9.1-20-20.5-20L439.1 337.2c-11.6 0-20.5 8.7-20.5 20C418.6 368.3 427.5 377.7 439.1 377.7L439.1 377.7zM575.8 673.8 575.8 673.8l-1.2-0.7c-16.1-16.3-37.8-26.2-62.3-26.2-23.8 0-45.7 9.3-61.6 24.8l-1 1.4c-15.9 15.4-26 37.8-26 62.6 0 24.5 10.1 46.7 26 62.1 15.9 16.4 38 26.2 62.5 26.2 24.5 0 46.2-10.1 62.3-26.2l0 0c16.1-15.4 26.2-37.6 26.2-62.1C600.8 711.6 591.1 690 575.8 673.8L575.8 673.8zM545.9 768.9 545.9 768.9c-8.7 8.9-20.7 14.4-33.7 14.4-13.5 0-25.5-5.6-33.7-14l-0.5 0 0.5-0.5c-8.9-8.2-14.4-20.2-14.4-33.2 0-13.5 5.5-25.5 14.4-33.7l0.5-1c8.6-8.4 20.5-13.5 33.2-13.5 13.5 0 25 5.6 33.7 14.4l1 0.5c8.2 8.4 13 20 13 33.2C559.9 748.7 554.6 760.7 545.9 768.9L545.9 768.9z" fill="#272636" p-id="563"></path></svg>