<svg xmlns="http://www.w3.org/2000/svg" viewBox="0 0 1024 1024" version="1.1"><path d="M891.9 415.3c-1.2-10.8-10.3-19.1-21.4-19.1-11.1 0-20.2 8.4-21.4 19.1l-0.1 0 0 373c0 34.2-27.9 62.1-62.1 62.1l-551.7 0c-34.2 0-62.1-27.9-62.1-62.1L173.2 232.1c0-34.2 27.9-62.1 62.1-62.1l370.4 0 0-0c11.6-0.3 20.9-9.8 20.9-21.5 0-11.7-9.3-21.1-20.9-21.5l0-0L235.3 127.1c-57.9 0-105.1 47.1-105.1 105.1l0 556.2c0 57.9 47.1 105.1 105.1 105.1l551.7 0c57.9 0 105.1-47.1 105.1-105.1L892.1 415.3 891.9 415.3z" fill="#272636" p-id="892"></path><path d="M338.4 640.4l-0.1 0.4c-1.8 7.5-3.3 21.4 6.4 31 6 6 13.6 7.7 20.3 7.7 4.1 0 7.9-0.6 10.7-1.3l117.4-31 374.2-374.2c13.1-13.1 20.3-30.5 20.3-49s-7.2-35.9-20.3-49l-25.9-25.9c-27-27-70.9-27-97.9-0L369.2 523.4 338.4 640.4zM403.7 558.7l54.1 54.1-72.7 18.6L403.7 558.7zM429.6 523.8l292.4-292.4 63 63L492.6 586.8 429.6 523.8zM811 179.6l25.9 25.9c10.2 10.2 10.2 26.9 0 37.2l-21.4 21.4-63-63 21.4-21.4C784 169.3 800.7 169.3 811 179.6z" fill="#272636" p-id="893"></path></svg>