<svg xmlns="http://www.w3.org/2000/svg" viewBox="0 0 1024 1024" version="1.1"><path d="M181.7 330.3C184.3 267.3 192 223 206.3 186.8 220.6 150.5 244.7 117.4 278.6 87.5 312.4 57.5 350.3 35.5 392.1 21.3 433.9 7.1 477.1 0 521.5 0 615.8 0 692.8 26.5 752.6 79.6 812.4 132.6 842.3 203.8 842.3 293.1 842.3 338.3 833.3 377.2 815.3 409.8 797.3 442.3 758.2 486.4 697.8 542.1 632.2 604.1 591.9 649.8 577.1 679.2 562.3 708.7 554.9 757.5 554.9 825.8L445.3 825.8C447.4 763.8 457.5 711.5 475.5 669 493.5 626.4 532.9 574.2 593.8 512.2 654.7 450.2 692.8 406.3 708.1 380.6 723.5 354.9 731.2 322.5 731.2 283.7 731.2 224.8 711.8 177.6 673.2 141.8 634.5 106.1 582.4 88.3 516.8 88.3 374.9 88.3 293.5 165.4 280.8 330.3L181.7 330.3ZM578.1 1024 445.9 1024 445.9 891.9 578.1 891.9 578.1 1024Z" fill="#272636" p-id="541"></path></svg>