<svg xmlns="http://www.w3.org/2000/svg" viewBox="0 0 1024 1024" version="1.1"><path d="M935.3 564.9c-5.4 0-10.8-2.1-15-6.2L512 150.4l-408.3 408.3c-8.3 8.3-21.7 8.3-29.9 0-8.3-8.3-8.3-21.7 0-29.9l423.3-423.3c8.3-8.3 21.7-8.3 29.9 0l423.3 423.3c8.3 8.3 8.3 21.7 0 29.9C946.1 562.8 940.7 564.9 935.3 564.9z" fill="#272636" p-id="586"></path><path d="M766 924.7l-148.2 0c-11.7 0-21.2-9.5-21.2-21.2 0-11.7 9.5-21.2 21.2-21.2l148.2 0c23.3 0 42.3-19 42.3-42.3l0-232.8c0-11.7 9.5-21.2 21.2-21.2 11.7 0 21.2 9.5 21.2 21.2l0 232.8C850.6 886.7 812.7 924.7 766 924.7zM406.2 924.7 258 924.7c-46.7 0-84.7-38-84.7-84.7L173.4 437.9c0-11.7 9.5-21.2 21.2-21.2 11.7 0 21.2 9.5 21.2 21.2l0 402.1c0 23.3 19 42.3 42.3 42.3l127 0 0-190.5c0-11.7 9.5-21.2 21.2-21.2l211.6 0c11.7 0 21.2 9.5 21.2 21.2 0 11.7-9.5 21.2-21.2 21.2L427.3 713.1l0 190.5C427.3 915.2 417.9 924.7 406.2 924.7z" fill="#272636" p-id="587"></path></svg>