<svg xmlns="http://www.w3.org/2000/svg" viewBox="0 0 1145 1024" version="1.1"><path d="M1087.8 321.3 671.3 32.6c-74.8-59.3-152.6-24.8-185 2.9L43.6 338.8c-19.4 12.9-50.6 39.3-42.2 71.3 5.8 22 26.2 34.4 60.8 36.8 0.7 0.1 1.4 0.1 2.1 0.1l103.3 0.1 0 459c0 65 50.2 117.8 112 117.8l305.7 0c9 0 17-4 22.6-10.1 6.3-5.7 10.3-13.8 10.3-23L618.2 718.2l150.3 0c17.2 0 31.1-14 31.1-31.3s-13.9-31.3-31.1-31.3l-150.3 0 0-69 150.3 0c17.2 0 31.1-14 31.1-31.3 0-17.3-13.9-31.3-31.1-31.3l-107.3 0 111.2-119.1c11.7-12.6 11.1-32.4-1.4-44.2-12.5-11.8-32.2-11.2-44 1.4l-140.6 150.6-136.1-151.6c-11.5-12.8-31.2-13.8-43.9-2.3-12.8 11.6-13.8 31.4-2.3 44.2l108.7 121-107.1 0c-17.2 0-31.1 14-31.1 31.3 0 17.3 13.9 31.3 31.1 31.3l150.3 0 0 69-150.3 0c-17.2 0-31.1 14-31.1 31.3s13.9 31.3 31.1 31.3l150.3 0 0 243.3L279.6 961.5c-27.4 0-49.7-24.8-49.7-55.3L229.8 420.9c0-1.4-0.6-2.6-0.8-3.9 0-0.3 0.2-0.6 0.2-0.9 0-17.3-13.9-31.3-31.1-31.3l-110.8-0.2L522.9 86.1c1-0.7 2.1-1.5 3-2.3 5.4-4.6 54.3-44.4 107.5-1.6 0.6 0.4 1.2 0.9 1.8 1.3l416.5 288.9c7 5.1 14.5 11.9 20.4 18-3.9 0.2-8.7 0.3-14.4 0.2l-99 0.4c-0.3 0-0.5 0.2-0.8 0.2-0.3 0-0.5-0.2-0.9-0.2-17.2 0-31.1 14-31.1 31.3l0.2 484c0 30.5-22.3 55.3-49.8 55.3l-158.1 0c-17.2 0-31.1 14-31.1 31.3 0 17.3 13.9 31.3 31.1 31.3l158.1 0c61.7 0 112-52.9 112-117.8L988.1 453.3l69-0.3c19.6 0.3 71.8 1.6 84.9-37.3C1154.8 377.8 1114 340.6 1087.8 321.3" fill="#272636" p-id="822"></path></svg>