<svg xmlns="http://www.w3.org/2000/svg" viewBox="0 0 1024 1024" version="1.1"><path d="M721.3 253.6l49.3-49.3 49.3 49.3 63.4 63.4L883.4 204.2l69.8 0 0 182.5 69.8 69.8-49.3 49.3L770.7 302.9 567.7 505.8 1 505.8l150.8-150.8L619.9 355 721.3 253.6 721.3 253.6zM903.8 610.5l0-69.8L637.5 540.7l0 69.8L903.8 610.5 903.8 610.5zM70.8 610.5l0-69.8 496.9 0 0 69.8L70.8 610.5 70.8 610.5zM70.8 645.4l0 69.8 496.9 0 0-69.8L70.8 645.4 70.8 645.4zM35.9 819.8l0-69.8 937.7 0 0 69.8L35.9 819.8 35.9 819.8z" fill="#272636" p-id="680"></path></svg>