<svg xmlns="http://www.w3.org/2000/svg" viewBox="0 0 1024 1024" version="1.1"><path d="M512 785.1c-8.7 0-17.5-3.3-24.2-10l-341.3-341.3C136.7 423.9 133.8 409.3 139.1 396.6 144.4 383.8 156.9 375.5 170.7 375.5L341.3 375.5 341.3 68.3c0-18.8 15.3-34.1 34.1-34.1l273.1 0C667.4 34.1 682.7 49.4 682.7 68.3l0 307.2 170.7 0c13.8 0 26.3 8.3 31.5 21.1s2.3 27.4-7.4 37.2l-341.3 341.3C529.5 781.7 520.7 785.1 512 785.1zM253.1 443.7 512 702.7 770.9 443.7 648.5 443.7C629.7 443.7 614.4 428.4 614.4 409.6L614.4 102.4 409.6 102.4 409.6 409.6c0 18.8-15.3 34.1-34.1 34.1L253.1 443.7z" fill="#272636" p-id="1079"></path><path d="M989.9 989.9l-955.7 0C15.3 989.9 0 974.6 0 955.7s15.3-34.1 34.1-34.1l955.7 0c18.8 0 34.1 15.3 34.1 34.1S1008.7 989.9 989.9 989.9z" fill="#272636" p-id="1080"></path></svg>