<svg xmlns="http://www.w3.org/2000/svg" viewBox="0 0 1024 1024" version="1.1"><path d="M110.4 681.8 499.6 292.7C526.8 264.6 560.1 250.5 599.4 250.5 636 250.5 667 263.2 692.5 288.7 717.9 314.1 730.7 345.2 730.7 381.8 730.7 421 716.6 454.3 688.5 481.6L413.9 756.2C409.4 760.6 404.4 762.9 399.1 762.9 391.9 762.9 381.5 756 367.6 742.1 353.8 728.3 346.8 717.8 346.8 710.6 346.8 705.2 349.1 700.4 353.5 695.9L628.2 421.3C639.4 409.2 644.9 396.1 644.9 381.8 644.9 368.8 640.6 358.1 632.2 349.6 623.8 341.1 613 336.9 600 336.9 584.8 336.9 571.5 342.2 559.9 353L170.7 742.1C142.5 770.2 128.5 802.6 128.5 839.2 128.5 867.8 137.9 891.5 156.7 910.2 175.4 929 199 938.4 227.7 938.4 264.3 938.4 296.6 924.3 324.7 896.2L844.5 375.8C878.5 341.8 895.4 301.4 895.4 254.5 895.4 207.2 879.2 166.8 846.5 133.3 813.9 99.8 774 83.1 726.6 83.1 681.1 83.1 640.6 100.2 605.4 134.6L199.5 541.1C195.1 545.7 189.9 547.9 184.1 547.9 177 547.9 166.5 541.1 153 527.4 139.4 513.8 132.5 503.4 132.5 496.3 132.5 490.9 134.7 486 139.2 481.6L544.5 75.7C595.8 25.2 656.8 0 727.3 0 798.3 0 858.3 24.8 907.4 74.3 956.6 123.9 981.2 184.2 981.2 255.1 981.2 324.8 956 385.4 905.5 436.7L385.1 956.4C340.4 1001.1 287.9 1023.4 227.7 1023.4 175.4 1023.4 131.6 1005.8 96.3 970.5 61.1 935.3 43.4 891.5 43.4 839.2 43.4 778 65.8 725.6 110.4 681.8L110.4 681.8Z" fill="#272636" p-id="1091"></path></svg>