<svg xmlns="http://www.w3.org/2000/svg" viewBox="0 0 1024 1024" version="1.1"><path d="M611 832 416.6 832c-17.7 0-32-14.3-32-32s14.3-32 32-32l194.4 0c17.7 0 32 14.3 32 32S628.7 832 611 832z" fill="#272636" p-id="754"></path><path d="M738 448 416.6 448c-17.7 0-32-14.3-32-32s14.3-32 32-32l321.3 0c17.7 0 32 14.3 32 32S755.7 448 738 448z" fill="#272636" p-id="755"></path><path d="M738 256 416.6 256c-17.7 0-32-14.3-32-32s14.3-32 32-32l321.3 0c17.7 0 32 14.3 32 32S755.7 256 738 256z" fill="#272636" p-id="756"></path><path d="M738 640 416.6 640c-17.7 0-32-14.3-32-32s14.3-32 32-32l321.3 0c17.7 0 32 14.3 32 32S755.7 640 738 640z" fill="#272636" p-id="757"></path><path d="M925.6 827c-2.8-10.7-7.1-20.7-12.4-30.1l23.7-35.7-33.8-33.8-35.7 23.7c-9.4-5.3-19.4-9.6-30.1-12.4l-8.5-42-47.8 0-8.5 42c-10.7 2.8-20.7 7.1-30.1 12.4l-35.7-23.7-33.8 33.8 23.7 35.7c-5.4 9.4-9.6 19.4-12.4 30.1l-42 8.5 0 47.8 42 8.5c2.8 10.7 7 20.8 12.4 30.1l-23.7 35.7 33.8 33.8 35.7-23.7c9.4 5.4 19.4 9.6 30.1 12.4l8.5 42 47.8 0 8.5-42c10.7-2.8 20.7-7 30.1-12.4l35.7 23.7 33.8-33.8-23.7-35.7c5.4-9.3 9.6-19.4 12.4-30.1l42-8.5L967.6 835.5 925.6 827 925.6 827zM861.4 859.4c0 31.3-25.3 56.6-56.6 56.6-31.2 0-56.5-25.3-56.5-56.6 0-31.2 25.3-56.5 56.5-56.5C836.1 802.9 861.4 828.2 861.4 859.4L861.4 859.4zM861.4 859.4" fill="#272636" p-id="758"></path><path d="M640.9 1024 160 1024c-17.7 0-32-14.3-32-32L128 32c0-17.7 14.3-32 32-32l489.9 0c6.1 0 12.1 1.8 17.2 5l216.1 138c9.2 5.9 14.8 16 14.8 27L898 672c0 17.7-14.3 32-32 32s-32-14.3-32-32L834 187.6 640.5 64 192 64l0 896 448.9 0c17.7 0 32 14.3 32 32S658.6 1024 640.9 1024z" fill="#272636" p-id="759"></path><path d="M289.3 224m-30.7 0a1 1 0 1 0 61.3 0 1 1 0 1 0-61.3 0Z" fill="#272636" p-id="760"></path><path d="M289.3 416m-30.7 0a1 1 0 1 0 61.3 0 1 1 0 1 0-61.3 0Z" fill="#272636" p-id="761"></path><path d="M289.3 608m-30.7 0a1 1 0 1 0 61.3 0 1 1 0 1 0-61.3 0Z" fill="#272636" p-id="762"></path><path d="M289.3 800m-30.7 0a1 1 0 1 0 61.3 0 1 1 0 1 0-61.3 0Z" fill="#272636" p-id="763"></path></svg>