<svg xmlns="http://www.w3.org/2000/svg" viewBox="0 0 1024 1024" version="1.1"><path d="M627.6 963.3l-0.3 0c-6.9 0-13.4-3.5-17.2-9.3-21.7-33.3-58.4-53.3-98.1-53.3s-76.4 19.9-98.1 53.3c-3.8 5.8-10.2 9.3-17.2 9.3-3.6 0-7.4-0.9-10.5-2.7l-198.7-114.7c-9.4-5.4-13-17.3-8-27 18.1-35.5 17-77.3-2.9-111.7-20-34.7-56-56.5-96.1-58.4-7-0.3-13.3-4.2-16.8-10.2l-0.7-1.1c-1.8-3.1-2.7-6.6-2.7-10.2L60.2 398.6c0-11 8.7-20 19.6-20.5 40.4-1.7 76.5-23.5 96.7-58.4 20.4-35.4 21.1-78.1 1.6-114.1-3.4-6.2-3.3-13.7 0.3-19.9 1.8-3.1 4.4-5.8 7.6-7.6l198.6-114.7c9.6-5.5 21.9-2.4 27.7 7 21.5 34.9 58.8 55.7 99.7 55.7s78.2-20.8 99.7-55.7c5.8-9.4 18.1-12.5 27.7-7l198.6 114.7c3.1 1.8 5.7 4.4 7.5 7.6 3.5 6.1 3.7 13.7 0.3 20-19.4 36.1-18.8 78.7 1.6 114.1 20.2 34.9 56.3 56.8 96.7 58.4 11 0.5 19.6 9.5 19.6 20.5l0 228.5c0 3.6-0.9 7.1-2.7 10.2l-0.6 1.1c-3.5 6.1-9.8 9.9-16.8 10.2-40.2 1.8-76.1 23.7-96.1 58.4-19.9 34.4-21 76.2-2.9 111.7 4.9 9.7 1.4 21.6-8 27l-198.7 114.7C634.7 962.4 631.2 963.3 627.6 963.3zM512 859.8c47.1 0 91 20.7 120.9 56.3l167.4-96.6c-15.9-43.6-11.9-92.1 11.7-132.9 23.9-41.3 64.4-69.1 110.8-76.8l0-192.7c-46.4-7.7-86.9-35.5-110.8-76.9-24.2-42-27.8-91.5-10.6-136l-166.4-96c-29.8 37.2-74.5 58.8-123 58.8-48.5 0-93.2-21.7-123-58.8L222.6 204.3c17.3 44.4 13.7 94-10.6 136-23.9 41.4-64.4 69.2-110.8 76.9l0 192.7c46.4 7.7 87 35.5 110.8 76.8 23.6 40.8 27.6 89.2 11.7 132.9l167.4 96.6C421 880.5 464.9 859.8 512 859.8z" fill="#272636" p-id="574"></path><path d="M512 705c-105.6 0-191.4-85.9-191.4-191.4 0-105.6 85.9-191.5 191.4-191.5 105.6 0 191.5 85.9 191.5 191.5C703.5 619.1 617.6 705 512 705zM512 363c-83 0-150.5 67.5-150.5 150.5s67.5 150.5 150.5 150.5 150.5-67.5 150.5-150.5S595 363 512 363z" fill="#272636" p-id="575"></path></svg>