<svg xmlns="http://www.w3.org/2000/svg" viewBox="0 0 1068 1024" version="1.1"><path d="M834.1 554.7l0 340.4L100.8 895.2 100.8 161.9l0 0L441.3 161.9 441.3 109.5 100.8 109.5C71.9 109.5 48.4 133 48.4 161.9l0 733.3c0 28.9 23.4 52.4 52.4 52.4L834.1 947.6c28.9 0 52.4-23.4 52.4-52.4L886.5 554.7 834.1 554.7 834.1 554.7zM559.5 406.7 179.6 406.7 179.6 339.2l379.9 0L559.5 406.7zM713.6 596.1 178.1 596.1l0-67.5 535.5 0L713.6 596.1zM744.3 789.4 179.6 789.4l0-67.5 564.7 0L744.3 789.4z" fill="#272636" p-id="720"></path><path d="M936.6 244.5l-20 0c-8.3 0-17-6.4-19.5-14.3l-10.3-25.1c-3.9-7.3-2.3-18 3.5-23.8l14.2-14.1c2.4-2.4 3.8-5.6 3.8-9.2 0-3.6-1.4-6.9-3.8-9.3l-24-24c-2.4-2.4-5.6-3.8-9.2-3.8s-6.9 1.5-9.2 3.8l-14.2 14.2c-5.8 5.8-16.6 7.4-23.9 3.5l-25.1-10.3c-7.9-2.4-14.3-11.2-14.3-19.5L784.6 92.5c0-3.3-1.3-6.7-3.8-9.2C778.2 80.7 774.9 79.4 771.6 79.4l-33.9 0c-3.4 0-6.7 1.3-9.2 3.8-2.6 2.6-3.8 5.9-3.8 9.2l0 20c0 8.3-6.4 17-14.3 19.5L685.1 142.2c-7.3 3.9-18 2.3-23.8-3.5L647.1 124.6c-2.4-2.4-5.6-3.8-9.2-3.8-3.6 0-6.9 1.5-9.2 3.8l-24 24c-2.4 2.4-3.8 5.6-3.8 9.2 0 3.6 1.5 6.9 3.8 9.2l14.1 14.2c5.8 5.8 7.4 16.6 3.5 23.8l-10.3 25.1c-2.4 7.9-11.2 14.3-19.4 14.3l-20-0c-3.4 0-6.7 1.3-9.2 3.8-2.6 2.6-3.8 5.9-3.8 9.2l0 33.9c0 3.3 1.3 6.7 3.8 9.2 2.6 2.5 5.9 3.8 9.2 3.8l20 0c8.3 0 17 6.5 19.4 14.3l10.4 25.1c3.9 7.3 2.3 18-3.5 23.9l-14.2 14.1c-2.4 2.4-3.8 5.6-3.8 9.2 0 3.6 1.5 6.9 3.8 9.2l24 24c2.4 2.4 5.6 3.8 9.2 3.8 3.6 0 6.9-1.5 9.2-3.8l14.2-14.1c5.8-5.8 16.5-7.4 23.8-3.5l25.2 10.3c7.9 2.4 14.3 11.2 14.3 19.5l0 19.9c0 3.3 1.3 6.7 3.8 9.2 2.6 2.5 5.9 3.8 9.2 3.8l33.9 0c3.4 0 6.7-1.3 9.2-3.8 2.6-2.6 3.8-5.9 3.8-9.2l0-19.9c0-8.3 6.5-17 14.3-19.5l25.1-10.3c7.3-3.9 18-2.3 23.9 3.5l14.1 14.1c2.4 2.4 5.6 3.8 9.2 3.8 3.6 0 6.9-1.4 9.2-3.8l24-24c2.4-2.4 3.8-5.6 3.8-9.2 0-3.6-1.5-6.9-3.8-9.2l-14.2-14.1c-5.8-5.8-7.4-16.6-3.5-23.9l10.3-25.1c2.5-7.9 11.2-14.3 19.5-14.3l19.9 0c3.3 0 6.7-1.3 9.2-3.8 2.6-2.6 3.8-5.9 3.8-9.2l0-33.9c0-3.3-1.3-6.7-3.8-9.2C943.3 245.7 940 244.5 936.6 244.5L936.6 244.5zM754.6 349.5c-41.5 0-75-33.6-75-75 0-41.4 33.6-75 75-75 41.4 0 75 33.6 75 75C829.7 315.9 796.1 349.5 754.6 349.5L754.6 349.5zM1067.9 150.9" fill="#272636" p-id="721"></path></svg>