<svg xmlns="http://www.w3.org/2000/svg" viewBox="0 0 1024 1024" version="1.1"><path d="M832 1024 192 1024c-70.7 0-128-57.3-128-128L64 256c0-70.7 57.3-128 128-128l96 0 0-64 86.2 0C401.9 25.9 452.9 0 512 0S622.1 25.9 649.8 64l86.2 0 0 64 96 0c70.7 0 128 57.3 128 128l0 640C960 966.7 902.7 1024 832 1024L832 1024zM672 128l-71.1 0c0-35.3-39.8-64-88.9-64-49.1 0-88.9 28.6-88.9 64l-71.1 0 0 128 320 0L672 128 672 128zM896 256c0-35.4-28.6-64-64-64l-96 0 0 128L288 320 288 192l-96 0c-35.3 0-64 28.6-64 64l0 640c0 35.3 28.7 64 64 64l640 0c35.3 0 64-28.6 64-64L896 256 896 256zM736 832 288 832c-17.6 0-32-14.3-32-32 0-17.7 14.3-32 32-32l448 0c17.7 0 32 14.3 32 32C768 817.7 753.7 832 736 832L736 832zM736 672 288 672c-17.6 0-32-14.3-32-32 0-17.6 14.3-32 32-32l448 0c17.7 0 32 14.4 32 32C768 657.7 753.7 672 736 672L736 672zM736 512 288 512c-17.6 0-32-14.3-32-32s14.3-32 32-32l448 0c17.7 0 32 14.3 32 32S753.7 512 736 512L736 512z" fill="#272636" p-id="743"></path></svg>