<svg xmlns="http://www.w3.org/2000/svg" viewBox="0 0 1024 1024" version="1.1"><path d="M826.8 930l-630.2 0c-58 0-105-47-105-105l0-630.2c0-58 47-105 105-105l630.2 0c58 0 105 47 105 105l0 630.2c0 58-47 105-105 105zM879.3 194.8c0-29-23.5-52.5-52.5-52.5l-630.2 0c-29 0-52.5 23.5-52.5 52.5l0 630.2c0 29 23.5 52.5 52.5 52.5l630.2 0c29 0 52.5-23.5 52.5-52.5l0-630.2zM748.1 247.3l-472.7 0c-14.5 0-26.3-11.8-26.3-26.3s11.7-26.3 26.3-26.3l472.7 0c14.5 0 26.3 11.8 26.3 26.3s-11.8 26.3-26.3 26.3zM492.2 308.1c5.5-5.5 12.8-7.9 20-7.5 7.2-0.4 14.5 2 20 7.5l129.8 157c10.3 10.4 10.3 27.1 0 37.4-10.3 10.3-27 10.3-37.3 0l-86.6-104.8 0 401.1c0 14.5-11.7 26.3-26.3 26.3-14.5 0-26.3-11.8-26.3-26.3l0-400.1-85.8 103.8c-10.3 10.4-27 10.4-37.3 0-10.3-10.3-10.3-27.1 0-37.4l129.8-157z" fill="#272636" p-id="626"></path></svg>