<svg xmlns="http://www.w3.org/2000/svg" viewBox="0 0 1024 1024" version="1.1"><path d="M835.7 911.1 198.8 911.1c-52.1 0-94.4-42.2-94.4-94.4L104.4 227c0-52.2 42.3-94.4 94.4-94.4l94.4 0 0-11.8c0-19.5 15.8-35.4 35.4-35.4 19.6 0 35.4 15.9 35.4 35.4l0 11.8 306.7 0 0-11.8c0-19.5 15.9-35.4 35.4-35.4 19.5 0 35.4 15.9 35.4 35.4l0 11.8 94.4 0c52.1 0 94.4 42.2 94.4 94.4L930.1 816.7C930.1 868.9 887.8 911.1 835.7 911.1L835.7 911.1zM859.3 250.6c0-26-21.1-47.2-47.2-47.2l-70.8 0 0 11.8c0 19.5-15.9 35.4-35.4 35.4-19.5 0-35.4-15.8-35.4-35.4L670.6 203.4 363.9 203.4l0 11.8c0 19.5-15.8 35.4-35.4 35.4-19.5 0-35.4-15.8-35.4-35.4L293.1 203.4l-70.8 0c-26 0-47.2 21.1-47.2 47.2l0 542.6c0 26.1 21.1 47.2 47.2 47.2L812.1 840.3c26 0 47.2-21.1 47.2-47.2L859.3 250.6 859.3 250.6zM515.8 690.9c-0 0-0 0-0 0-13.8 13.8-36.2 13.8-50 0L333.5 558.7c-13.8-13.8-13.8-36.2 0-50 13.8-13.8 36.2-13.8 50 0l107.2 107.3 183.7-183.7c13.8-13.8 36.2-13.8 50.1 0 13.8 13.8 13.8 36.2 0 50L515.8 690.9 515.8 690.9zM515.8 690.9" fill="#272636" p-id="904"></path></svg>