<svg xmlns="http://www.w3.org/2000/svg" viewBox="0 0 1024 1024" version="1.1"><path d="M802.1 136.5c-8.5-2.1-14.9-2.1-23.5-2.1L189.9 134.4l0 0 588.8 0C787.2 134.4 795.7 134.4 802.1 136.5zM829.9 145.1c-2.1 0-2.1-2.1-4.3-2.1C827.7 142.9 829.9 145.1 829.9 145.1zM878.9 185.6c-2.1-2.1-4.3-6.4-6.4-8.5C874.7 181.3 876.8 183.5 878.9 185.6zM921.6 832c-4.3 0-6.4 0-10.7 0l-19.2 0L891.7 232.5c0-8.5 0-14.9-2.1-23.5 2.1 6.4 2.1 14.9 2.1 23.5L891.7 832l19.2 0C915.2 832 917.3 832 921.6 832zM940.8 825.6c-2.1 2.1-6.4 2.1-8.5 4.3C934.4 827.7 938.7 827.7 940.8 825.6zM989.9 27.7c-21.3-17.1-49.1-25.6-76.8-25.6L245.3 2.1c-29.9 0-57.6 8.5-76.8 25.6-21.3 19.2-34.1 44.8-34.1 70.4l0 34.1L113.1 132.3c-29.9 0-57.6 8.5-76.8 25.6C12.8 179.2 0 204.8 0 232.5l0 693.3c0 27.7 12.8 53.3 34.1 70.4 21.3 17.1 49.1 25.6 76.8 25.6l665.6 0c29.9 0 57.6-8.5 76.8-25.6 21.3-19.2 36.3-44.8 36.3-70.4l0-34.1 19.2 0c29.9 0 57.6-8.5 76.8-25.6 21.3-19.2 34.1-44.8 34.1-70.4L1019.7 100.3C1024 72.5 1011.2 46.9 989.9 27.7zM834.1 923.7c0 21.3-25.6 38.4-55.5 38.4L113.1 962.1c-29.9 0-55.5-17.1-55.5-38.4L57.6 232.5c0-21.3 25.6-38.4 55.5-38.4l19.2 0 57.6 0 0 0 588.8 0c29.9 0 55.5 17.1 55.5 38.4L834.1 923.7 834.1 923.7zM966.4 791.5c0 8.5-4.3 17.1-10.7 23.5 0 0 0 0-2.1 2.1-2.1 2.1-4.3 4.3-6.4 4.3 0 0-2.1 0-2.1 2.1s-2.1 0-2.1 2.1c0 0-2.1 0-2.1 2.1 0 0 0 0-2.1 0-2.1 2.1-6.4 2.1-8.5 4.3 0 0-2.1 0-2.1 0 0 0 0 0-2.1 0-2.1 0-4.3 0-6.4 2.1-4.3 0-6.4 0-10.7 0l-19.2 0L889.6 232.5c0-8.5 0-14.9-2.1-23.5 0-2.1 0-2.1-2.1-4.3 0-2.1 0-2.1-2.1-4.3 0-2.1 0-2.1-2.1-4.3 0-2.1-2.1-2.1-2.1-4.3-2.1-2.1-2.1-4.3-4.3-6.4-2.1-2.1-4.3-6.4-6.4-8.5-2.1-4.3-6.4-6.4-8.5-10.7-2.1-2.1-4.3-4.3-8.5-6.4-2.1-2.1-2.1-2.1-4.3-4.3 0 0 0 0-2.1-2.1l0 0c-2.1 0-2.1-2.1-4.3-2.1-4.3-2.1-10.7-6.4-14.9-8.5-2.1 0-2.1-2.1-4.3-2.1-2.1 0-4.3-2.1-6.4-2.1 0 0-2.1 0-2.1 0-4.3 0-6.4-2.1-10.7-2.1 0 0-2.1 0-2.1 0-2.1 0-2.1 0-4.3 0-8.5-2.1-14.9-2.1-23.5-2.1L189.9 134.4 189.9 100.3c0-4.3 0-8.5 2.1-12.8 2.1-4.3 4.3-6.4 8.5-10.7 10.7-10.7 25.6-17.1 44.8-17.1l665.6 0c29.9 0 55.5 17.1 55.5 38.4L966.4 791.5 966.4 791.5zM149.3 253.9l428.8 0 0 57.6L149.3 311.5 149.3 253.9zM672 283.7c0-17.1 12.8-29.9 29.9-32 17.1 0 29.9 12.8 32 29.9 0 0 0 2.1 0 2.1 0 17.1-12.8 29.9-29.9 32-17.1 0-29.9-12.8-32-29.9C672 285.9 672 283.7 672 283.7zM57.6 362.7l776.5 0 0 57.6L57.6 420.3 57.6 362.7 57.6 362.7z" fill="#272636" p-id="866"></path></svg>