<svg xmlns="http://www.w3.org/2000/svg" viewBox="0 0 1024 1024" version="1.1"><path d="M534.4 64.1c302.3 0 317.2 288.7 317.2 288.7 45.9 60.7 21.1 115.2 21.1 115.2 147.5 231.7 52.1 298.7 26 303.6-26 4.9-50.8-28.5-50.8-28.5s-8.7 33.4-29.7 50.8c76.9 35.9 63.2 80.5 63.2 80.5s-16.1 134.8-335.8 49.6l-27.3-5c-306.4 110.6-344.5-38.4-344.5-38.4s-12.4-61.9 47.1-85.5c-34.7-21.1-47.1-65.7-47.1-65.7s-31 50.8-71.9 32.2c-40.9-18.6-65.7-183.4 88-302.3 0 0-22.3-70.6 28.5-112.8C218.4 346.7 232 64.1 534.4 64.1M265.5 362.8c-66.9 57-22.3 114-22.3 114C95.7 567.3 121.7 713.5 121.7 713.5s23.5-11.8 40.3-45.9c16.7-34.1 42.8 5.6 42.8 5.6s16.1 78.1 65.5 108.7c49.3 30.6-2.2 50.1-2.2 50.1s-54.3 0.8-49.6 37.7c4.7 36.9 179.9 83.1 285 1.2l55.8 7.4c183.4 63.8 273.9 4.3 279.9-7.1 6-11.4-27.7-33.8-58.7-46.8-31-13-39-26.7-11.6-44.9 27.4-18.3 38.3-54.5 54.3-92 16.1-37.5 40.3-19.2 43.4-8.7 3.1 10.5 26 45.8 26 45.8s59.7-63.3-64.4-250.3c0 0 27-56-18.6-101.6 0 0-11.1-262.7-280.1-262.7C260.4 110 265.5 362.8 265.5 362.8" fill="#272636" p-id="530"></path></svg>