<svg xmlns="http://www.w3.org/2000/svg" viewBox="0 0 1024 1024" version="1.1"><path d="M661.3 99.8l0 76.6c149.3 68 225.4 206.2 225.4 365.7 0 226.8-183.1 410.6-409.9 410.6-226.8 0-405.9-183.8-405.9-410.6C70.9 382.9 170.7 244.9 298.7 176.8L298.7 100.2C106.7 173.2 2 343.5 2 542c0 265.1 212.7 479.9 477.8 479.9 265 0 477.3-214.8 477.3-479.9C957.1 343.2 853.3 172.6 661.3 99.8z" fill="#272636" p-id="948"></path><path d="M512 405.3c0 23.6-19.1 42.7-42.7 42.7l0 0c-23.6 0-42.7-19.1-42.7-42.7L426.7 42.7c0-23.6 19.1-42.7 42.7-42.7l0 0c23.6 0 42.7 19.1 42.7 42.7L512 405.3z" fill="#272636" p-id="949"></path></svg>