<svg xmlns="http://www.w3.org/2000/svg" viewBox="0 0 1024 1024" version="1.1"><path d="M507.8 566.7c-18.1 0-32.7-14.6-32.7-32.7 0-18.1 14.6-32.7 32.7-32.7 60.2 0 120.4 0 180.6 0 18.1 0 32.7 14.6 32.7 32.7 0 18-14.6 32.7-32.7 32.7C628.2 566.7 568 566.7 507.8 566.7z" fill="#272636" p-id="637"></path><path d="M477.1 376.5c0-18 14.6-32.7 32.7-32.7 18 0 32.7 14.6 32.7 32.7L542.5 533.2c0 18.1-14.7 32.7-32.7 32.7-18.1 0-32.7-15.1-32.7-33.2L477.1 376.5z" fill="#272636" p-id="638"></path><path d="M509.8 109.4c117.1 0 223.3 47.6 300.1 124.4l0.1 0c76.8 76.8 124.3 183 124.3 300.2 0 117.1-47.5 223.3-124.3 300.1l-0.1 0.1c-76.8 76.8-182.9 124.4-300.1 124.4-117.2 0-223.4-47.5-300.3-124.4l0-0.1C132.7 757.3 85.2 651.1 85.2 534c0-117.2 47.6-223.4 124.4-300.2C286.4 156.9 392.6 109.4 509.8 109.4L509.8 109.4zM763.9 279.9c-65-65-154.9-105.2-254.1-105.2-99.2 0-189.1 40.2-254.1 105.2-65 65-105.2 154.8-105.2 254 0 99.3 40.2 189.1 105.2 254.1l0.1-0.1c65 65 154.9 105.3 254.1 105.3 99.2 0 189.1-40.2 254.1-105.2 64.9-65 105.1-154.8 105.1-254.1 0-99.2-40.2-189.1-105.2-254L763.9 279.9z" fill="#272636" p-id="639"></path><path d="M228.4 70.5c14-11.4 34.5-9.2 45.9 4.8 11.4 14 9.2 34.6-4.8 46L142.9 224.2c-14 11.4-34.6 9.2-46-4.8-11.4-14-8.8-34.9 5.2-46.3L228.4 70.5z" fill="#272636" p-id="640"></path><path d="M791.2 70.5c-14-11.4-34.6-9.2-45.9 4.8-11.4 14-9.2 34.6 4.7 46l126.7 102.9c14 11.4 34.6 9.2 45.9-4.8 11.4-14 8.9-34.9-5.2-46.3L791.2 70.5z" fill="#272636" p-id="641"></path></svg>