<svg xmlns="http://www.w3.org/2000/svg" viewBox="0 0 1024 1024" version="1.1"><path d="M873.1 42.4 150.9 42.4C84 42.4 29.6 96.1 29.6 162c0 0 0 246.4 0 246.4l0 29.1c0 27.8 9.7 53.4 25.9 73.8 35 43.8 92.7 71.9 148.8 71.9 8.4 0 16.8-0.6 24.9-1.8 40-5.7 73.6-22.7 101.6-51.8 10.2-10.6 18.6-21.5 25.5-32.2 12.9 23.5 29.7 42.1 49.7 55.6 22.3 14.9 48.7 22.7 74.8 27.4 10.1 1.8 20.5 2.8 31.1 2.8 13 0 25.7-1.4 37.9-4.1 26.2-5.8 50.8-17.1 71.6-34.1 19.6-16 34-33.3 44.7-50.3 20.8 37.1 50.9 63.2 87.9 76.2 1 0.4 2.1 0.6 3.1 0.9 19.4 7.4 40.4 11.5 62.3 11.5 26.7 0 52.1-6 74.7-16.8 39.3-18.7 75.6-46.1 92.6-87.4 5.3-12.9 7.5-27.6 7.5-41.5 0 0 0-29.1 0-29.1L994.4 162C994.4 96.1 940 42.4 873.1 42.4zM935.9 422.7c-7.1 57.9-56.5 102.9-116.3 102.9-36 0-70.7-17.1-92.7-45.6-26.4-35.3-30.5-80.8-30.6-81.6-1.3-16.2-15.4-28.3-31.6-27.1-15.5 1.2-27.3 14.1-27.2 29.4 0 0 0-0.2 0-0.2-0.2 43.5-32.4 89.2-69.4 110.5-16.5 9.5-35.2 14.7-56.1 14.7-24.6 0-55.5-8.7-75.5-23.2-14.8-10.7-26.7-26.8-35.5-47.9-4.9-11.9-8.5-24.5-10.8-37.2-2-11-1.3-23.1-9-32.1-9.8-11.4-23.3-11.5-36.6-5.5-19.8 8.9-15.8 26.5-19.7 42.3-3.9 15.7-10.5 32.4-19.6 45.9-10.2 15.3-23.2 28.6-38.9 39.9-18 11.3-39.3 17.8-62.1 17.8-59.8 0-109.2-45-116.3-102.9L88.1 162c0-34.1 28.2-61.9 62.8-61.9l722.1 0c34.7 0 62.8 27.8 62.8 61.9L935.9 422.7z" fill="#272636" p-id="809"></path><path d="M324.2 408.4l-2.4 0C322.3 408.4 323.2 408.4 324.2 408.4z" fill="#272636" p-id="810"></path><path d="M929.1 623c-16.3 0-29.4 13.2-29.4 29.4L899.7 802.1c0 2.1 0.2 4.2 0.6 6.1l0 49.8c0 34.9-28 63.3-62.4 63.3L191.1 921.4c-8.5 0-16.6-1.7-24-4.9-0.6-0.3-1.2-0.5-1.8-0.8-0.2-0.1-0.4-0.2-0.6-0.3-21.1-10.1-35.8-32-35.8-57.2l0.7-196.1c0-0.6-0-1.3-0.1-1.9l0-7.6c0-16.3-13.2-29.4-29.4-29.4s-29.4 13.2-29.4 29.4l0 39.6 0 110.1c0 0 0 55.8 0 55.8 0 41.6 23.1 86.7 60.8 106.3 8.5 4.4 17.4 8.2 26.5 11 18 5.6 37.1 4.8 55.6 4.8l624.2 0c66.4 0 120.4-54.8 120.4-122.2l0-52.2c0.2-1.2 0.2-2.4 0.2-3.7L958.6 652.5C958.6 636.2 945.4 623 929.1 623z" fill="#272636" p-id="811"></path></svg>