<svg xmlns="http://www.w3.org/2000/svg" viewBox="0 0 1024 1024" version="1.1"><path d="M576.6 1024c-15.9 0-29.8-11.8-32-28-2.4-17.6 10.1-33.9 27.7-36.2 201.2-26.8 360.6-186.2 387.4-387.4 2.4-17.7 18.4-30 36.2-27.7 17.7 2.4 30.1 18.6 27.7 36.2-30.7 230.1-212.8 412.2-442.9 442.9C579.4 1023.9 578 1024 576.6 1024z" fill="#272636" p-id="844"></path><path d="M447.5 1024c-1.4 0-2.8-0.1-4.3-0.3C213.1 993 30.9 810.9 0.3 580.8c-2.4-17.6 10.1-33.9 27.7-36.2 17.6-2.2 33.9 10.1 36.2 27.7C91.1 773.6 250.4 932.9 451.8 959.7c17.7 2.4 30.1 18.6 27.7 36.2C477.3 1012.2 463.5 1024 447.5 1024z" fill="#272636" p-id="845"></path><path d="M32.3 479.7c-1.4 0-2.8-0.1-4.3-0.3-17.7-2.4-30.1-18.6-27.7-36.2C31 213.1 213.1 30.9 443.2 0.3c17.9-2.4 33.9 10.1 36.2 27.7 2.4 17.7-10.1 33.9-27.7 36.2C250.4 91.1 91.1 250.4 64.3 451.7 62.1 467.9 48.3 479.7 32.3 479.7z" fill="#272636" p-id="846"></path><path d="M991.7 479.7c-15.9 0-29.8-11.8-32-28C932.9 250.4 773.6 91.1 572.3 64.3c-17.7-2.4-30.1-18.6-27.7-36.2 2.4-17.7 18.4-30.1 36.2-27.7 230.1 30.7 412.2 212.8 442.9 442.9 2.4 17.6-10.1 33.9-27.7 36.2C994.5 479.6 993.1 479.7 991.7 479.7z" fill="#272636" p-id="847"></path><path d="M574.8 692.9c-12.5 0-24.5-7.4-29.7-19.7-6.9-16.4 0.7-35.3 17.1-42.3 30.6-13 54.8-36.9 68.1-67.3 7.2-16.3 26.2-23.8 42.5-16.6 16.3 7.1 23.8 26.2 16.6 42.5-19.9 45.7-56.2 81.5-102.1 100.9C583.3 692.1 579 692.9 574.8 692.9z" fill="#272636" p-id="848"></path><path d="M447.4 692.1c-4.3 0-8.7-0.9-12.9-2.7-45.6-19.9-81.4-56.2-100.9-102-6.9-16.4 0.7-35.4 17.1-42.3 16.4-6.8 35.3 0.7 42.3 17.1 13 30.6 36.9 54.8 67.3 68.1 16.4 7.1 23.8 26.2 16.6 42.5C471.7 684.9 459.8 692.1 447.4 692.1z" fill="#272636" p-id="849"></path><path d="M364.1 479.7c-4.3 0-8.7-0.9-12.9-2.7-16.3-7.2-23.8-26.2-16.6-42.5 20-45.6 56.2-81.5 102.1-100.8 16.4-6.9 35.4 0.7 42.3 17.1 6.9 16.4-0.7 35.4-17.1 42.3-30.6 13-54.8 36.8-68.1 67.3C388.4 472.5 376.5 479.7 364.1 479.7z" fill="#272636" p-id="850"></path><path d="M659.9 479.6c-12.4 0-24.3-7.2-29.6-19.3-13.1-29.9-36.7-53.5-66.6-66.6-16.3-7.2-23.8-26.2-16.6-42.5 7.1-16.3 26.1-23.9 42.5-16.6 44.8 19.6 80.3 55 99.9 99.8 7.2 16.3-0.3 35.4-16.6 42.5C668.6 478.7 664.2 479.6 659.9 479.6z" fill="#272636" p-id="851"></path><path d="M576.6 860.4c-15 0-28.5-10.6-31.6-25.8-3.6-17.5 7.7-34.5 25.2-38.1C684.3 773.4 773.1 684.7 796.5 570.6c3.6-17.5 20.8-28.6 38.1-25.1 17.5 3.6 28.7 20.6 25.1 38.1-28.5 139.5-137.1 248-276.7 276.3C580.8 860.2 578.7 860.4 576.6 860.4z" fill="#272636" p-id="852"></path><path d="M447 860.4c-2.1 0-4.3-0.2-6.5-0.7-139.5-28.5-248-137.2-276.3-276.7-3.5-17.5 7.8-34.5 25.2-38.1 17.8-3.2 34.5 7.8 38.1 25.2 23.2 114.2 111.9 203 226 226.4 17.5 3.6 28.7 20.6 25.1 38.1C475.4 849.8 462 860.4 447 860.4z" fill="#272636" p-id="853"></path><path d="M195.9 479.2c-2.1 0-4.3-0.2-6.5-0.7-17.5-3.6-28.7-20.6-25.1-38.1 28.6-139.5 137.2-248 276.7-276.3 17.7-3.4 34.5 7.8 38 25.2 3.6 17.5-7.7 34.5-25.2 38.1C339.7 250.6 250.9 339.3 227.5 453.4 224.4 468.7 210.9 479.2 195.9 479.2z" fill="#272636" p-id="854"></path><path d="M828.2 479.7c-15 0-28.5-10.6-31.6-25.8-23.2-114.3-112.1-203.2-226.5-226.5-17.5-3.6-28.7-20.6-25.2-38.1 3.6-17.5 20.8-28.4 38.1-25.2 139.8 28.4 248.5 137.1 276.9 276.9 3.5 17.5-7.8 34.5-25.2 38.1C832.4 479.5 830.3 479.7 828.2 479.7z" fill="#272636" p-id="855"></path></svg>