<svg xmlns="http://www.w3.org/2000/svg" viewBox="0 0 1024 1024" version="1.1"><path d="M530.4 847 238.7 847c-42.6 0-77.1-34.5-77.1-77L161.6 205.1C161.6 162.6 196.1 128 238.7 128l477.1 0c42.5 0 77.1 34.6 77.1 77.1l0 348.7c0 6.7-5.5 12.3-12.4 12.3S768 560.5 768 553.8L768 205.1c0-28.9-23.4-52.3-52.2-52.3L238.7 152.8c-28.8 0-52.3 23.4-52.3 52.3l0 564.9c0 28.9 23.5 52.2 52.3 52.2l291.8 0c6.8 0 12.4 5.6 12.4 12.4C542.8 841.5 537.3 847 530.4 847zM718.6 896c-79.3 0-143.9-64.5-143.9-143.9s64.6-143.9 143.9-143.9 143.8 64.5 143.8 143.9S797.9 896 718.6 896zM718.6 633c-65.7 0-119 53.5-119 119.1s53.4 119.1 119 119.1c65.6 0 119-53.5 119-119.1S784.2 633 718.6 633zM718.7 764.4c-6.8 0-12.4-5.5-12.4-12.4L706.3 678.4c0-6.8 5.5-12.4 12.4-12.4 6.8 0 12.4 5.5 12.4 12.4l0 73.6C731.1 758.8 725.5 764.4 718.7 764.4zM778.3 764.5l-59.8 0c-6.8 0-12.4-5.5-12.4-12.4 0-6.7 5.6-12.4 12.4-12.4l59.8 0c6.8 0 12.4 5.6 12.4 12.4C790.7 759 785.2 764.5 778.3 764.5zM462 461.5c-2.6 0-5.3-0.8-7.6-2.6C449.1 454.8 448 447 452.2 441.6L577.3 278.5c4.2-5.4 12-6.4 17.3-2.3 5.4 4.2 6.5 12 2.2 17.3L471.8 456.7C469.4 459.9 465.7 461.5 462 461.5zM462 701.5c-6.8 0-12.4-5.6-12.4-12.5L449.7 453.3 327.1 293.6C322.9 288.2 324 280.4 329.3 276.2c5.4-4.1 13.2-3.1 17.3 2.3L471.8 441.6c1.7 2.2 2.6 4.8 2.6 7.5l0 239.9C474.4 695.9 468.8 701.5 462 701.5zM590.2 464.7 333.9 464.7c-6.8 0-12.4-5.5-12.4-12.4 0-6.8 5.6-12.4 12.4-12.4l256.3 0c6.8 0 12.4 5.5 12.4 12.4C602.6 459.1 597 464.7 590.2 464.7zM610.2 557.3 313.7 557.3c-6.8 0-12.4-5.6-12.4-12.4 0-6.8 5.6-12.4 12.4-12.4l296.5 0c6.8 0 12.4 5.5 12.4 12.4C622.7 551.7 617.2 557.3 610.2 557.3z" fill="#272636" p-id="652"></path></svg>