<svg xmlns="http://www.w3.org/2000/svg" viewBox="0 0 1027 1024" version="1.1"><path d="M369.7 967.3 67.5 967.3 67.5 64l678.9 0 0 148.1c0 15 12.2 27.2 27.2 27.2s27.2-12.2 27.2-27.2L800.8 63.8c0-29.9-24.3-54.2-54.2-54.2L67.3 9.6C37.4 9.6 13.1 33.9 13.1 63.8l0 903.7c0 29.9 24.3 54.2 54.2 54.2l302.5 0c15 0 27.2-12.2 27.2-27.2S384.7 967.3 369.7 967.3z" fill="#272636" p-id="663"></path><path d="M665.3 234.9c0-15-12.2-27.2-27.2-27.2l-456.6 0c-15 0-27.2 12.2-27.2 27.2s12.2 27.2 27.2 27.2l456.6 0C653.1 262.1 665.3 250 665.3 234.9z" fill="#272636" p-id="664"></path><path d="M406.5 431.4c0-15-12.2-27.2-27.2-27.2L181.5 404.2c-15 0-27.2 12.2-27.2 27.2s12.2 27.2 27.2 27.2L379.3 458.6C394.3 458.6 406.5 446.4 406.5 431.4z" fill="#272636" p-id="665"></path><path d="M304.9 600.6l-123.4 0c-15 0-27.2 12.2-27.2 27.2s12.2 27.2 27.2 27.2l123.4 0c15 0 27.2-12.2 27.2-27.2S319.9 600.6 304.9 600.6z" fill="#272636" p-id="666"></path><path d="M304.9 797.1l-123.4 0c-15 0-27.2 12.2-27.2 27.2s12.2 27.2 27.2 27.2l123.4 0c15 0 27.2-12.2 27.2-27.2S319.9 797.1 304.9 797.1z" fill="#272636" p-id="667"></path><path d="M582 565c0 68.6 49 120.1 84 148.1-34.9 28-84 79.5-84 148.1l0 27.2 262.9 0 0-27.2c0-68.6-49-120.1-84-148.1 34.9-28 84-79.5 84-148.1l0-27.2L582 537.8 582 565zM786.4 834 640.6 834c12.8-41.9 52.1-73.9 72.9-88.5 8.8 6.2 21 15.5 33 27.4C766.7 793 780.1 813.5 786.4 834zM786.3 592.2c-12.8 41.8-52 73.9-72.9 88.5-20.9-14.6-60-46.7-72.9-88.5L786.3 592.2z" fill="#272636" p-id="668"></path><path d="M933.5 487.1c-59.4-59.4-138.4-92.1-222.4-92.1-84 0-163 32.7-222.4 92.1-59.4 59.4-92.1 138.4-92.1 222.4 0 84 32.7 163 92.1 222.4 59.4 59.4 138.4 92.1 222.4 92.1s163-32.7 222.4-92.1c59.4-59.4 92.1-138.4 92.1-222.4C1025.6 625.5 992.9 546.5 933.5 487.1zM711.1 969.6c-143.4 0-260.1-116.7-260.1-260.1 0-143.4 116.7-260.1 260.1-260.1 143.4 0 260.1 116.7 260.1 260.1C971.2 852.9 854.5 969.6 711.1 969.6z" fill="#272636" p-id="669"></path></svg>