<svg xmlns="http://www.w3.org/2000/svg" viewBox="0 0 1024 1024" version="1.1"><path d="M512 74.7c241.5 0 437.3 195.8 437.3 437.3S753.5 949.3 512 949.3 74.7 753.5 74.7 512 270.5 74.7 512 74.7z m0 64C305.8 138.7 138.7 305.8 138.7 512S305.8 885.3 512 885.3 885.3 718.2 885.3 512 718.2 138.7 512 138.7z m138.7 170.7a32 32 0 0 1 31.9 28.9L682.7 341.3v106.7a32 32 0 0 1-63.9 3.1L618.7 448v-106.7a32 32 0 0 1 32-32z m-277.3 0a32 32 0 0 1 31.9 28.9L405.3 341.3v106.7a32 32 0 0 1-63.9 3.1L341.3 448v-106.7a32 32 0 0 1 32-32z" fill="#111111" p-id="588"></path></svg>