<svg xmlns="http://www.w3.org/2000/svg" viewBox="0 0 1024 1024" version="1.1"><path d="M958.8 650.9c0-89.3-53.8-166.2-130.8-200.1 0.3-1.4 0.4-2.8 0.4-4.3 0-78.2-30.4-151.6-85.7-206.9s-128.7-85.7-206.9-85.7c-71.3 0-140 25.9-193.4 73.1-51.1 45.1-84.9 106.4-95.5 173.2-42.3 10.1-81.1 31.6-112.6 63.2-44.9 44.9-69.7 104.7-69.7 168.2 0 63.5 24.7 123.3 69.7 168.2 44.9 44.9 104.7 69.7 168.2 69.7 1 0 2-0.1 3-0.2 1 0.1 2 0.2 3 0.2l435.1 0c0.6 0 1.1-0 1.6-0.1C863.5 866.6 958.8 769.7 958.8 650.9zM740.2 823.4 308.5 823.4c-1 0-2 0.1-3 0.2-1-0.1-2-0.2-3-0.2-105.8 0-191.8-86-191.8-191.8 0-105.8 86-191.8 191.8-191.8s191.8 86 191.8 191.8c0 12.7 10.3 23 23 23s23-10.3 23-23c0-63.5-24.7-123.3-69.7-168.2-44.9-44.9-104.7-69.7-168.2-69.7-2.5 0-5 0.1-7.5 0.1 24.4-111.8 124.6-193.9 240.9-193.9 132.5 0 241 105.1 246.3 236.4-13.6-2.6-27.6-4.1-41.9-4.1-12.7 0-23 10.3-23 23s10.3 23 23 23c95.1 0 172.5 77.4 172.5 172.5S835.3 823.4 740.2 823.4z" fill="#272636" p-id="1033"></path><path d="M302.5 489.5c-78.3 0-142.1 63.7-142.1 142.1 0 4.2 3.4 7.7 7.7 7.7s7.7-3.4 7.7-7.7c0-69.9 56.8-126.7 126.7-126.7 4.2 0 7.7-3.4 7.7-7.7S306.7 489.5 302.5 489.5z" fill="#272636" p-id="1034"></path><path d="M179.6 662.5c-1-4.1-5.2-6.6-9.3-5.6-4.1 1-6.6 5.2-5.6 9.3 2 7.8 4.6 15.6 7.9 23 1.3 2.9 4.1 4.6 7 4.6 1 0 2.1-0.2 3.1-0.7 3.9-1.7 5.6-6.3 3.9-10.1C183.7 676.4 181.3 669.5 179.6 662.5z" fill="#272636" p-id="1035"></path></svg>