<svg xmlns="http://www.w3.org/2000/svg" viewBox="0 0 1031 1024" version="1.1"><path d="M896.4 297.2c0-141.5-114.8-256.3-256.5-256.3-46.5 0-90 12.4-127.6 34-37.6-21.6-81.1-34-127.6-34-141.7 0-256.5 114.7-256.5 256.3 0 82.1 38.7 155.1 98.8 202C97.1 557.6 5.7 685.9 0.9 836.2 0.1 839.5 0 850.2 0 850.2c0 23.5 19 42.5 42.5 42.5 23.5 0 42.5-19 42.5-42.5l0.8-1.4c0.4-155.9 120.4-283.7 273.1-296.7l0 0c8.4 0.8 17 1.3 25.7 1.3 8.7 0 17.2-0.4 25.7-1.3l0 0c62.6 5.3 119.6 29.9 165.2 67.8 1.3-2.4 2.9-4.7 4.9-6.7 15.8-16 29-33.3 48.4-45.3 3.7-2.3 7.7-3.5 11.8-3.9-4.2-3.8-8.4-7.5-12.8-11.1 4 0.2 30-0.2 37.7-0.9 15.7-1.6 31-4.6 45.7-8.8l0 0c34.4 14.9 71.5 36 105.6 63.6 6.5-12.1 15.7-22.7 26.5-31.1 12.1-9.4 25.6-17.8 40.3-22.2-26.1-21.7-55.2-39.9-86.5-54.1C857.6 452.7 896.4 379.5 896.4 297.2zM384.1 472.9c-97 0-175.6-78.6-175.6-175.6 0-97 78.6-175.6 175.6-175.6 97 0 175.6 78.6 175.6 175.6C559.7 394.3 481.1 472.9 384.1 472.9zM719.4 447.1c-2.8 1.1-5.5 2.5-8 4-16.6 7.8-34.7 12.9-53.7 15l-16.8 1c-0.5 0-1.1 0-1.6 0-19.2 0-37.7-3.2-54.9-9 35.5-44 56.9-99.9 56.9-160.8 0-61.3-21.6-117.6-57.6-161.7 17.4-6 36.1-9.3 55.6-9.3 94.2 0 170.6 76.3 170.6 170.5C809.8 361.8 773.2 418.4 719.4 447.1zM820.9 823.4l19.9 19.45-12.8 12.8c0 0-9.4 9.8 2.8 22.4l100.3 99.7c0 0 9.6 8.6 20.2 1.2l50.2-48.8c0 0 8.9-11.8-3-22.6l-99.5-98.5c0 0-10.8-10.6-22.9-1.5l-13.1 13.3-20.9-20.7L820.9 823.4zM807.1 766l-107.6-106.1 0-32.7-63.5-37.7-31.4 30.5 38.3 61.1 33.7 0.2 106.1 104.4L807.1 766zM633.5 944.5c0 0 0-16.3 17-16.3 0 0 15.3 0.5 15.8 16.3 0 0-0.5 14.8-16.4 15.8l-14.2 14c0 0 20.75 19.2 44.1 0l191.8-205.6c0 0 20.9 14 52.4 13.8 0 0 38.5 1.5 68.7-24.8 0 0 58.9-46.2 28.7-118.5l-68.6 66.3-58.1-57.4 68.6-65.7c0 0-43.7-25.6-102.7 11.55 0 0-30.5 21.3-39.7 59.7 0 0-13.8 45.6 17.1 86.7L622.3 917.3c0 0-13.5 13.1-6.9 32.5L633.5 944.5zM633.5 944.5c0 0 1.3 15.4 16.4 15.8l-14.2 14c0 0-18.6-16-20.4-24.5L633.5 944.5z" fill="#272636" p-id="1488"></path></svg>