<svg xmlns="http://www.w3.org/2000/svg" viewBox="0 0 1025 1024" version="1.1"><path d="M931.6 903.4 278.8 903.4c-76.8 0-139.6-62.5-140-139.3l-0.7-200.2c0-7.8-6.5-14.2-14.3-14.2L40.3 549.8c-12.6 0-24-7.5-29.1-19-5.1-11.6-2.8-25 5.7-34.3l348.3-379c11.9-12.8 34.6-13.2 46.8-0.6 26.9 27.7 54.4 54.8 81.8 82.1 26 25.7 52.1 51.5 77.6 77.7 0.3 0.32 0.5 0.6 0.8 0.9 4.2-4.1 8.3-8.3 12.4-12.4 14.9-14.9 29.7-29.9 44.5-44.8l33.1-33.4c6-6 14.1-9.3 22.5-9.3l0 0c8.5 0 16.5 3.4 22.5 9.3l307.4 308.8c9.1 9.1 11.8 22.8 6.9 34.6-4.9 11.8-16.5 19.6-29.4 19.6l-72.7 0c-10.9 0-19.8 8.9-19.8 19.8l0 145.3c0 51.3-41.8 93.1-93.1 93.1L581.6 808l0-63.6 225 0c16.3 0 29.5-13.3 29.5-29.5L836.1 569.6c0-44.7 35.4-81.4 79.6-83.3L684.9 254.5l-10.6 10.5c-14.95 15.1-29.8 30.1-44.7 45.1-3.6 3.6-7.3 7.3-10.9 11 26.8 26.4 52.1 58.8 54.4 102.3 2.3 43.8-18.5 82.5-54.4 101.1-29.9 15.5-66.2 18.2-96.9 7.1-27.1-9.8-48-29.5-59.1-55.6-14.15-33.2-8.7-72.5 14.15-102.6 11.6-15.3 25.2-27.9 38.4-40 4-3.7 8.1-7.3 11.9-11.1-0.4-0.4-0.7-0.8-1.1-1.2-25.4-26-51.1-51.5-76.9-77-19.8-19.6-39.7-39.3-59.4-59.2L112.7 486.2l11.2 0c42.7 0 77.72 34.8 77.9 77.5l0.6 200.2c0.2 41.9 34.4 76 76.3 76l652.8 0 0 63.6L931.6 903.4zM573.69 365.8c-5 4.8-10.2 9.6-15.5 14.5-11.7 10.6-22.6 20.7-30.7 31.4-8.9 11.8-11.3 27.3-6.2 39.4 4.2 9.9 11.6 16.8 22.1 20.6 14.1 5.1 31.7 3.6 46.1-3.8 20.1-10.5 20.5-34.3 20.1-41.3C608.4 404.1 593.2 384.9 573.69 365.8L573.69 365.8z" fill="#272636" p-id="1201"></path></svg>