<svg xmlns="http://www.w3.org/2000/svg" viewBox="0 0 1028 1024" version="1.1"><path d="M814.3 294.2 218 294.2c-11.8 0-21.3 9.8-21.3 21.9 0 12.1 9.5 21.9 21.3 21.9l596.3 0c11.8 0 21.3-9.8 21.3-21.9C835.6 304.1 826.1 294.2 814.3 294.2L814.3 294.2zM835.6 183.4 196.8 183.4c-11.8 0-21.3 9.8-21.3 21.8 0 12.1 9.5 21.8 21.3 21.8l638.8 0c11.8 0 21.35-9.7 21.35-21.8C856.9 193.2 847.4 183.4 835.6 183.4L835.6 183.4zM1016 449.4l-84-352.1c-0.2-0.8-0.4-1.4-0.7-2.2-13.2-34.6-32.5-57.6-83.8-57.6l-664 1.9c-42.5 0-67.5 17.2-83.6 57.2-0.3 0.9-0.6 1.8-0.8 2.6L15.7 458c-6.4 6.3-10.6 14.3-10.6 23.6l0 464.3c0 24 28 47.3 51.4 47.3l937 0c23.4 0 33.7-23.2 33.7-47.3L1027.2 481.6C1027.2 467.6 1023.6 456.4 1016 449.4L1016 449.4zM771.7 804.2 260.6 804.2l0-161.1 511.1 0L771.7 804.2 771.7 804.2zM707.8 480c0 0-45.2 0.6-67.5 0.6L402.7 480.6c-22.3 0-78.1-0.6-78.1-0.6L50 480l89.8-368c8.7-21.35 16.9-28.8 43.8-28.8l664.1-1.9c29.5 0 35.5 7.5 43.7 28.8l91.1 369.9L707.8 480 707.8 480z" fill="#272636" p-id="1245"></path></svg>