<svg xmlns="http://www.w3.org/2000/svg" viewBox="0 0 1024 1024" version="1.1"><path d="M992.1 482.7l-33.4 0C943 262 767.1 86 546.4 70.3l0-33.4c0-17.6-14.3-31.8-31.8-31.8-17.6 0-31.8 14.3-31.8 31.8l0 33.4C262 86 86.1 262 70.4 482.7L37 482.7c-17.6 0-31.8 14.2-31.8 31.8 0 17.6 14.3 31.9 31.8 31.9L70.4 546.4c15.6 220.7 191.6 396.7 412.3 412.4l0 33.4c0 17.6 14.2 31.8 31.8 31.8 17.6 0 31.8-14.2 31.8-31.8l0-33.4c220.7-15.6 396.7-191.7 412.3-412.4l33.4 0c17.6 0 31.8-14.3 31.8-31.9C1024 497 1009.7 482.7 992.1 482.7zM864.8 546.4l30.2 0c-15.4 185.5-163.1 333.4-348.6 348.7l0-30.3c0-17.6-14.3-31.8-31.8-31.8-17.6 0-31.8 14.3-31.8 31.8l0 30.3c-185.5-15.3-333.3-163.1-348.6-348.7l30.2 0c17.6 0 31.8-14.3 31.8-31.9 0-17.6-14.3-31.8-31.8-31.8L134.1 482.7c15.3-185.6 163.1-333.4 348.6-348.7l0 30.3c0 17.6 14.2 31.8 31.8 31.8 17.6 0 31.8-14.3 31.8-31.8l0-30.3c185.5 15.3 333.3 163.1 348.6 348.7l-30.2 0c-17.6 0-31.8 14.2-31.8 31.8C833 532.1 847.2 546.4 864.8 546.4zM514.6 403.1c-61.6 0-111.4 49.9-111.4 111.4 0 61.5 49.9 111.4 111.4 111.4 61.5 0 111.4-49.9 111.4-111.4C626 453 576.1 403.1 514.6 403.1z" fill="#272636" p-id="1234"></path></svg>