<svg xmlns="http://www.w3.org/2000/svg" viewBox="0 0 1316 1024" version="1.1"><path d="M1213.5 248h-140.2c-9.1 0-17.7 1.5-26.1 3.8V102.6c0-56.6-46.2-102.6-103-102.6h-572.7c-56.8 0-103 46-103 102.6v148.9a103 103 0 0 0-25.3-3.5h-140.2C46.3 248 0 294.1 0 350.6v570.8C0 977.9 46.2 1024 103.1 1024h140.2c56.8 0 103-46.1 103-102.6v-58.7c8.1 2 16.5 3.5 25.2 3.5h572.7c9.1 0 17.7-1.5 26.1-3.7v59c0 56.5 46.2 102.6 103 102.6h140.2C1270.4 1024 1316.6 977.9 1316.6 921.4V350.6c0-56.6-46.2-102.6-103-102.6zM371.5 77.7h572.7c13.8 0 24.9 11.2 24.9 24.9v335.1a102.3 102.3 0 0 0-24.9-3.4h-572.7c-8.6 0-16.9 1.4-24.9 3.4V102.6c0-13.7 11.1-24.9 24.9-24.9z m-103.3 843.7c0 13.7-11.2 24.9-25 24.9h-140.2a24.9 24.9 0 0 1-25-24.9V350.6c0-13.7 11.2-24.9 25-24.9h140.2A25 25 0 0 1 268.2 350.6v570.8z m701-157.8c0 13.7-11.1 24.9-24.9 24.9h-572.7a24.9 24.9 0 0 1-24.9-24.9v-226.7c0-13.7 11.1-24.9 24.9-24.9h572.7c13.8 0.1 24.9 11.2 24.9 24.9v226.6z m269.3 157.8c0 13.7-11.2 24.9-24.9 24.9h-140.2A25 25 0 0 1 1048.4 921.4V350.6c-0-13.7 11.1-24.9 24.9-24.9h140.2a25 25 0 0 1 24.9 24.9v570.8z" fill="#111111" p-id="944"></path></svg>