<svg xmlns="http://www.w3.org/2000/svg" viewBox="0 0 1024 1024" version="1.1"><path d="M864.3 376.3a136.9 136.9 0 0 0-68.9 18.6A84.1 84.1 0 0 0 717.3 341.3H105.4C59 341.4 21.4 379.2 21.3 425.8v216.9C21.3 852.9 191.6 1024 400.8 1024h21c209.3 0 379.5-171.1 379.5-381.3v-3.5a136.9 136.9 0 0 0 62.9 15.4c76.3 0 138.4-62.4 138.4-139.1s-62.1-139.1-138.4-139.1z m-138.4 266.3c0 168.4-136.4 305.5-304 305.5h-21.1c-167.6 0-304-137-304-305.5V425.8c0-4.8 3.8-8.6 8.6-8.6h611.8c4.7 0 8.6 3.8 8.6 8.6v216.8z m138.4-64a63.1 63.1 0 0 1-62.9-63.2 63.1 63.1 0 0 1 62.9-63.2 63.1 63.1 0 0 1 62.9 63.2 63.1 63.1 0 0 1-62.9 63.2zM192.2 278.1c20.8 0 37.8-17 37.8-37.9V139.1c0-20.9-16.9-37.9-37.8-37.9s-37.8 17-37.8 37.9v101.1c0 20.9 16.9 37.9 37.8 37.9z m413.1 0c20.8 0 37.7-17 37.7-37.9V189.7c0-20.9-16.9-37.9-37.8-37.9-20.8 0-37.7 17-37.7 37.9v50.6c0 20.9 16.9 37.9 37.8 37.9z m-194 0c20.8 0 37.8-17 37.8-37.9V37.9c0-20.9-16.9-37.9-37.8-37.9s-37.8 17-37.8 37.9v202.3c0 20.9 16.9 37.9 37.8 37.9z" fill="#111111" p-id="966"></path></svg>