<svg xmlns="http://www.w3.org/2000/svg" viewBox="0 0 1181 1024" version="1.1"><path d="M1161.8 445.6c-2.3-47-32-131.5-134.8-140.9V70c0-16.4-6.9-28.2-13.7-35.2-16-14.1-34.3-14.1-36.5-14.1-75.4 0-728.7-2.4-760.7 0-43.4 4.7-57.1 42.3-57.1 61v220.7C72.2 318.9 31.1 396.3 19.7 440.9v375.6c4.6 37.6 36.5 110.3 137.1 110.3h2.3v49.3c0 14.1 11.4 28.2 27.4 28.2H1001.9c13.7 0 27.4-11.7 27.4-28.2v-49.3h43.4c13.7 0 43.4-2.3 64-23.5 11.4-11.7 25.1-30.5 25.1-65.7V445.6zM220.7 74.7c22.8-2.4 461.4 0 753.8 0v227.7c-34.3 4.7-59.4 18.8-80 39.9-38.8 42.3-36.5 100.9-36.5 100.9V527.8H348.6v-91.5c-9.1-44.6-50.3-122.1-137.1-136.2V79.4c0 2.4 2.3-2.4 9.1-4.7z m753.8 873.2H211.6v-21.1h763v21.1z m134.8-110.3c0 16.4-6.9 23.5-9.1 25.8-9.1 9.4-25.1 9.4-34.3 9.4H156.8c-70.8 0-82.2-49.3-84.5-58.7V450.3C76.8 433.9 101.9 356.4 184.2 356.4s107.4 77.5 111.9 93.9v136.2H910.6V445.6s0-37.6 22.8-61c16-16.4 41.1-25.8 73.1-25.8 95.9 0 102.8 82.2 105.1 89.2v389.7h-2.3z" fill="#111111" p-id="1279"></path></svg>