<svg xmlns="http://www.w3.org/2000/svg" viewBox="0 0 1024 1024" version="1.1"><path d="M302.2 874.6c-4.8 0-9.4-2.2-12.4-6l-116-143.4L117.3 725.3C52.6 725.3 0 672.7 0 608L0 117.3C0 52.6 52.6 0 117.3 0l789.3 0c64.7 0 117.3 52.6 117.3 117.3L1024 528c0 8.8-7.2 16-16 16s-16-7.2-16-16L992 117.3C992 70.3 953.7 32 906.6 32L117.3 32C70.3 32 32 70.3 32 117.3L32 608c0 47 38.3 85.3 85.3 85.3l64 0c4.8 0 9.4 2.2 12.4 6l107.4 132.7 91-131.7c5-7.3 15-9.1 22.2-4.1 7.3 5 9.1 15 4.1 22.2l-103.2 149.3c-2.8 4.2-7.5 6.7-12.6 6.9C302.6 874.6 302.4 874.6 302.2 874.6zM280 325.3c-28 0-50.7-22.7-50.7-50.7C229.3 246.7 252 224 280 224c28 0 50.7 22.7 50.7 50.7C330.7 302.7 308 325.3 280 325.3M733.3 224c28 0 50.7 22.7 50.7 50.7 0 28-22.7 50.7-50.7 50.7-28 0-50.7-22.7-50.7-50.7C682.6 246.7 705.3 224 733.3 224M506.7 224c28 0 50.7 22.7 50.7 50.7 0 28-22.7 50.7-50.7 50.7-28 0-50.7-22.7-50.7-50.7C456 246.7 478.6 224 506.7 224M449.7 716.3c-11.1 158.4 108.2 295.8 266.6 307 158.4 11.1 295.8-108.3 307-266.7 11.1-158.2-108.3-295.7-266.7-306.9l-20.2 286.7L449.7 716.3zM419.1 685.2l285 20.1-193.1-210.8C459 542.4 424.4 609.2 419.1 685.2zM741.7 392.9c-82.3-5.8-158.8 23.9-215.1 75.9l193.2 210.8 1.7 0.1L741.7 392.9z" fill="#272636" p-id="1521"></path></svg>