<svg xmlns="http://www.w3.org/2000/svg" viewBox="0 0 1024 1024" version="1.1"><path d="M836.8 1024 199.7 1024c-64 0-115.8-57.3-115.8-128L83.8 576c0-70.7 51.8-128 115.8-128l0-96C199.7 157.6 342.3 0 518.3 0c175.9 0 318.6 157.6 318.6 352l0 2-0.4 0c-1 16.7-13.2 30-28.6 30-15.3 0-27.6-13.3-28.6-30l-0.4 0 0-2c0-159.1-116.7-288-260.7-288S257.6 192.9 257.6 352l0 96 579.2 0c64 0 115.8 57.3 115.8 128l0 320C952.7 966.7 900.8 1024 836.8 1024L836.8 1024zM894.7 576c0-35.4-25.9-64-57.9-64L199.7 512c-32 0-57.9 28.6-57.9 64l0 320c0 35.4 25.9 64 57.9 64l637.2 0c32 0 57.9-28.6 57.9-64L894.7 576 894.7 576zM547.2 761.5l0 102.5c0 17.7-12.9 32-28.9 32-16 0-29-14.3-29-32l0-102.5c-33.6-13.3-57.9-47.9-57.9-89.5 0-53 38.9-96 86.9-96 48 0 86.9 43 86.9 96C605.1 713.7 580.8 748.3 547.2 761.5L547.2 761.5zM518.3 640c-16 0-29 14.3-29 32 0 17.6 13 32 29 32 16 0 28.9-14.3 28.9-32C547.2 654.3 534.3 640 518.3 640L518.3 640z" fill="#272636" p-id="1804"></path></svg>