<svg xmlns="http://www.w3.org/2000/svg" viewBox="0 0 1024 1024" version="1.1"><path d="M860.8 30a30.2 30.2 0 0 1 40.6-2.2l2.4 2.2 79.8 80.9c10.7 10.9 11.6 28 2.2 39.9l-2.2 2.5-71.7 72.7-43-42.3 50.8-51.5-37.3-37.9-52.4 53.2-43-42.3 73.9-75z m-338.2 330l44.7 40.6L347.8 642l-44.7-40.6 219.5-241.4zM117.1 797.7l42.3 43.1-54.3 53.2 37.3 36.6 52.1-51.1 42.3 43.1-73.3 71.8a30.2 30.2 0 0 1-39.8 2.2l-2.4-2.2-80.4-78.8a30.2 30.2 0 0 1-2.3-40.6l2.3-2.5 76.3-74.8v0z m493.3-349.8l44.7 40.6-219.5 241.4-44.7-40.6 219.5-241.4z" fill="#111111" p-id="1255"></path><path d="M45.2 620.5l-6.5 6.6c-37.2 38.1-37.2 99.9 0 138l224.9 230a95.6 95.6 0 0 0 136.9 0l6.5-6.7c37.2-38.1 37.2-99.9 0-138L182 620.5a95.6 95.6 0 0 0-136.9 0z m93.7 42.2l224.9 230c14.3 15 14.3 38.6 0 53.6l-6.5 6.6a35.2 35.2 0 0 1-50.5 0L81.8 723a38.9 38.9 0 0 1 0-53.7l6.5-6.6a35.2 35.2 0 0 1 50.5-0h0z m306.1-611.2l-6.5 6.6c-37.2 38.1-37.2 99.9 0 138l381.6 390.2a95.6 95.6 0 0 0 136.9 0l6.5-6.7c37.2-38 37.2-99.9-0-138L581.8 51.4a95.6 95.6 0 0 0-136.9 0z m93.7 42.2L920.2 483.8a38.8 38.8 0 0 1 0 53.7l-6.5 6.7a35.2 35.2 0 0 1-50.5-0L481.5 153.9a38.9 38.9 0 0 1-0-53.6l6.5-6.7a35.2 35.2 0 0 1 50.6-0z" fill="#111111" p-id="1256"></path><path d="M623.7 28.9l-6.5 6.7c-37.2 38.1-37.2 99.9 0 138l224.9 230a95.6 95.6 0 0 0 136.9 0l6.5-6.7c37.2-38.1 37.2-99.9 0-138L760.6 28.9a95.6 95.6 0 0 0-136.9 0z m93.7 42.2l224.9 230c14.3 15 14.3 38.6 0 53.7l-6.5 6.6a35.2 35.2 0 0 1-50.5 0L660.3 131.4a38.9 38.9 0 0 1 0-53.6l6.5-6.6a35.2 35.2 0 0 1 50.6-0V71zM65.2 444.8l-6.3 6.6c-36.2 37.7-36.2 98.8 0 136.5l370.2 386.1a92.8 92.8 0 0 0 134.5 0l6.3-6.7c36.2-37.7 36.2-98.8-0.1-136.5L199.7 444.8a92.8 92.8 0 0 0-134.5 0z m90.9 41.7l370.3 386.1c13.8 14.4 13.8 38.6 0 53.1l-6.4 6.6a32.4 32.4 0 0 1-47.3-0L102.5 546.3c-13.8-14.4-13.8-38.7-0-53l6.3-6.6a32.4 32.4 0 0 1 47.4 0l-0.1-0z" fill="#111111" p-id="1257"></path></svg>