<svg xmlns="http://www.w3.org/2000/svg" viewBox="0 0 1025 1024" version="1.1"><path d="M1012.1 374.7 540.7 42.9c-3.6-3.7-7.8-6.5-12.2-8.4-13.9-8-33-3-44.3 12L17.6 375.9c-14.5 10.2-16.7 32.2-5 49.1 11.7 16.9 33 22.3 47.5 12.1l32.5-23 0 543.5c0 20.5 16.6 37 372 37 20.5 0 372-16.6 372-37L166.7 361.7l348.2-245.8 355.5 250.2 0 591.4c0 20.5 16.6 37 37.1 37 20.4 0 37-16.6 37-37L944.5 418.2l25 17.6c14.5 10.2 35.8 4.8 47.5-12C1028.8 406.9 1026.6 385 1012.1 374.7L1012.1 374.7zM351.9 403.8l-80.1 0c-30.7 0-37.1 6.4-37.1 37.1l0 81.3c0 30.7 6.4 37.1 37.1 37.1l80.1 0c30.7 0 37.1-6.4 37.1-37.1l0-81.3C389 410.2 382.6 403.8 351.9 403.8L351.9 403.8zM351.9 602.7l-80.1 0c-30.7 0-37.1 6.4-37.1 37.1l0 81.3c0 30.7 6.4 37.1 37.1 37.1l80.1 0c30.7 0 37.1-6.4 37.1-37.1l0-81.3C389 609.1 382.6 602.7 351.9 602.7L351.9 602.7zM351.9 801.8l-80.1 0c-30.7 0-37.1 6.4-37.1 37.1l0 81.3c0 30.75 6.4 37.1 37.1 37.1l80.1 0c30.7 0 37.1-6.4 37.1-37.1l0-81.3C389 808.2 382.6 801.8 351.9 801.8L351.9 801.8zM561.7 801.8l-80.1 0c-30.75 0-37.15 6.4-37.15 37.1l0 81.3c0 30.75 6.4 37.1 37.15 37.1l80.1 0c30.7 0 37.15-6.4 37.15-37.1l0-81.3C598.8 808.2 592.4 801.8 561.7 801.8L561.7 801.8zM771.8 801.8l-80.4 0c-30.7 0-37.15 6.4-37.15 37.1l0 81.3c0 30.75 6.4 37.1 37.15 37.1l80.4 0c30.7 0 37.1-6.4 37.1-37.1l0-81.3C808.8 808.2 802.5 801.8 771.8 801.8L771.8 801.8zM561.7 602.7l-80.1 0c-30.75 0-37.15 6.4-37.15 37.1l0 81.3c0 30.7 6.4 37.1 37.15 37.1l80.1 0c30.7 0 37.15-6.4 37.15-37.1l0-81.3C598.8 609.1 592.4 602.7 561.7 602.7L561.7 602.7z" fill="#272636" p-id="1421"></path></svg>