<svg xmlns="http://www.w3.org/2000/svg" viewBox="0 0 1024 1024" version="1.1"><path d="M913.9 306.9c-34.8-63.1-84.7-116-144.2-153.1-6.1-3.9-11.5-6.4-18.1-6.4-16.8 0-30.4 14.4-30.4 32.2 0 12 6.3 22.6 17.1 28.8 104.9 65 170 185.2 170 313.8 0 128.5-65.1 248.7-169.8 313.6-8.7 5.1-17.9 15.4-17.9 29.3 0 17.7 13.7 32.2 30.4 32.2 7.1 0 12.7-3.1 17.8-6.2 59.7-37 109.8-90 144.8-153.2 36.1-65.1 55.1-139.7 55.1-215.7C968.8 446.4 949.8 372 913.9 306.9zM803.2 522.2c0-44.7-11.2-88.6-32.5-127-20.6-37.2-50.1-68.4-85.3-90.1l-0.1-0.1c-1-0.6-10.2-5.5-17-5.5-16.9 0-30.6 14.5-30.6 32.3 0 11.7 5.8 22.5 15.2 28.2 54.9 33.1 89 95.2 89 162.2 0 68.4-35.2 131.2-91.8 163.9l-0.1 0.1c-9.1 5.9-14.6 16.2-14.6 27.6 0 17.8 13.7 32.3 30.5 32.3l0.2 0c0 0 0 0 0 0 7.1 0 15.1-4.2 15.5-4.3l0.1-0.1C756.7 697.3 803.2 613.2 803.2 522.2zM550.4 75.5c-4.9-2.5-10.5-3.9-15.9-3.9-8.3 0-16.4 3-22.8 8.4l-0.1 0.1c-5.3 4.4-52.9 44.5-104.9 85.1-93.8 73.4-122.3 86.5-127.9 88.6L159.6 253.9c-0.8 0-1.5 0.1-2.1 0.1l-61 0c-16.8 0-30.4 14.4-30.4 32.1l0 472.5c0 17.7 13.7 32.1 30.4 32.1l204.4 0.1c5.4 2.3 32.2 15.8 115.4 87.8 28.4 24.5 61.2 54.1 92.3 83.2 0.8 0.8 1.4 1.3 1.6 1.5l0 0c6.7 6.3 15.3 9.8 24.2 9.8 5.1 0 10.3-1.2 15-3.4 13.5-6.4 22.5-20.6 22.5-35.2 0-1.6 0.3-157.7 0.3-160.8 0-3.2-1.3-656.8-1.3-663.4C570.9 95.4 563.1 82.1 550.4 75.5zM510.9 768.5l-0.5 102.9c-15.5-13.9-30.6-27.1-44.7-39.3-113.8-97.8-142.3-106-161.8-106-0.4 0-0.7 0-0.9 0.1-0.1 0-0.1 0-0.1 0-0.1-0-0.1-0-0.2-0-0.2-0-0.5-0.1-0.9-0.1L148 726.1c-17.7 0-21.5-4.3-21.5-24.1L126.5 339.4c0-13.9 1.5-20.5 15.1-20.5l138.5 0c18.9 0 47.8-8.1 172.2-104.8 19-14.8 39-30.6 58.1-46.2C510.4 227.9 510.9 766.1 510.9 768.5z" fill="#272636" p-id="2306"></path></svg>