<svg xmlns="http://www.w3.org/2000/svg" viewBox="0 0 1024 1024" version="1.1"><path d="M514.6 1024c-125 0-222.9-69.9-222.9-159.2l0-31.8 445.8 0 0 31.8C737.5 954.1 639.6 1024 514.6 1024zM364.9 896.6c22.4 36.7 82 63.7 149.7 63.7 67.8 0 127.3-27 149.8-63.7L364.9 896.6zM197.3 857.4c-17.5 0-31.8-14.2-31.8-31.7l-1.1-342.7c0-160.2 107.9-295.6 254.7-337.2L419.1 79.9c0-41.9 41.9-74.8 95.5-74.8 53.6 0 95.5 32.9 95.5 74.8l0 65.8c146.8 41.7 254.7 176.8 254.7 336.7l0 190.6c0 17.6-14.2 31.8-31.8 31.8s-31.8-14.2-31.8-31.8L801.2 482.4c0-157.8-128.5-286.3-286.6-286.3S228.1 324.8 228.1 482.9l1.1 342.6c0.1 17.6-14.1 31.9-31.7 32C197.4 857.4 197.4 857.4 197.3 857.4zM482.7 132.5l63.7 0 0-52.6c-1.1-2.9-12.3-11.1-31.8-11.1-19.5 0-30.7 8.4-31.9 11.7L482.7 132.5zM960.4 896.6 68.9 896.6c-17.6 0-31.8-14.2-31.8-31.8s14.2-31.8 31.8-31.8l891.5 0c17.6 0 31.8 14.2 31.8 31.8S978 896.6 960.4 896.6z" fill="#272636" p-id="1864"></path></svg>