<svg xmlns="http://www.w3.org/2000/svg" viewBox="0 0 1027 1024" version="1.1"><path d="M1026.4 666.9c0-102.4-61.7-190.6-149.9-229.5 0.3-1.6 0.5-3.2 0.5-4.9 0-89.6-34.9-173.9-98.3-237.2C715.2 131.9 631 97 541.4 97c-81.8 0-160.5 29.8-221.8 83.8-58.6 51.7-97.3 122-109.5 198.7-48.5 11.6-93 36.3-129.1 72.4C29.4 503.4 1 571.9 1 644.7c0 72.9 28.4 141.4 79.9 192.9 51.5 51.5 120 79.9 192.9 79.9 1.2 0 2.3-0.1 3.5-0.2 1.1 0.1 2.3 0.2 3.5 0.2l499 0c0.6 0 1.3-0 1.9-0.1C917.1 914.3 1026.4 803.1 1026.4 666.9zM775.7 864.7 280.7 864.7c-1.2 0-2.3 0.1-3.5 0.2-1.1-0.1-2.3-0.2-3.5-0.2-121.3 0-220-98.7-220-220 0-121.3 98.7-220 220-220 121.3 0 220 98.7 220 220 0 14.6 11.8 26.4 26.4 26.4s26.4-11.8 26.4-26.4c0-72.9-28.4-141.4-79.9-192.9-51.5-51.5-120-79.9-192.9-79.9-2.9 0-5.8 0.1-8.6 0.1 27.9-128.2 142.9-222.3 276.2-222.3 152 0 276.3 120.6 282.5 271.1-15.6-3-31.6-4.6-48.1-4.6-14.6 0-26.4 11.81-26.4 26.4 0 14.6 11.8 26.4 26.4 26.4 109.1 0 197.8 88.7 197.8 197.8C973.6 776 884.8 864.7 775.7 864.7z" fill="#272636" p-id="1708"></path><path d="M273.8 481.8c-89.8 0-162.9 73.1-162.9 162.9 0 4.9 3.9 8.8 8.8 8.8s8.8-3.9 8.8-8.8c0-80.1 65.2-145.3 145.3-145.3 4.9 0 8.8-3.9 8.8-8.8C282.6 485.8 278.6 481.8 273.8 481.8z" fill="#272636" p-id="1709"></path><path d="M132.8 680.2c-1.2-4.7-6-7.6-10.7-6.4-4.7 1.2-7.6 6-6.4 10.7 2.3 9 5.3 17.9 9.1 26.3 1.5 3.3 4.7 5.2 8 5.2 1.2 0 2.4-0.2 3.6-0.8 4.4-2 6.4-7.2 4.5-11.6C137.6 696.1 134.8 688.2 132.8 680.2z" fill="#272636" p-id="1710"></path></svg>