<svg xmlns="http://www.w3.org/2000/svg" viewBox="0 0 1024 1024" version="1.1"><path d="M518.4 149.3c112.6-80.8 267.9-69.4 368.1 32 53.9 54.5 84.1 128.9 84.1 206.4 0 77.5-30.3 151.9-84.1 206.3l-294.4 299.5a111 111 0 0 1-80.2 34.5 110.7 110.7 0 0 1-79.9-34.2L137.3 593.8C83.6 539.2 53.3 465 53.3 387.5s30.2-151.7 84-206.3c102-103.1 261-113.2 374-27.6l0.6 0.4z m322.6 77c-84.6-85.6-219.2-88.6-307.3-7l-21.8 20.1-21.7-20.1c-88.2-81.7-222.7-78.6-307.3 6.9-41.9 42.5-65.6 100.6-65.6 161.3 0 60.7 23.6 118.8 65.6 161.3l295 300.4c9 9.5 21.3 14.7 34 14.7 12.7 0 24.9-5.3 34.3-15L841 549.1c42-42.5 65.7-100.7 65.7-161.4 0-60.7-23.7-118.9-65.7-161.4z m-192.9 15.5c52.4 1 95.3 17 126.8 48.5 31.6 31.6 47.5 74.4 48.3 126.7a32 32 0 1 1-64 1c-0.6-36.6-10.6-63.5-29.6-82.5-19-19-46-29.1-82.8-29.8a32 32 0 0 1 1.2-64z" fill="#111111" p-id="684"></path></svg>