<svg xmlns="http://www.w3.org/2000/svg" viewBox="0 0 1024 1024" version="1.1"><path d="M955 926.1 409.3 926.1c-37.7 0-68.2-30.5-68.2-68.2L341.1 448.6c0-37.7 30.5-68.2 68.2-68.2l102.3 0c18.8 0 34.1 15.3 34.1 34.1 0 18.8-15.3 34.1-34.1 34.1L409.3 448.6l0 409.3 545.7 0L955 448.6l-170.5 0c-18.8 0-34.1-15.3-34.1-34.1 0-18.8 15.3-34.1 34.1-34.1l170.5 0c37.7 0 68.2 30.5 68.2 68.2l0 409.3C1023.2 895.6 992.7 926.1 955 926.1zM613.9 653.2 511.6 653.2c-18.8 0-34.1-15.3-34.1-34.1 0-18.8 15.3-34.1 34.1-34.1l102.3 0L613.9 175.7 68.2 175.7l0 409.3 170.5 0c18.8 0 34.1 15.3 34.1 34.1 0 18.8-15.3 34.1-34.1 34.1L68.2 653.2C30.5 653.2 0 622.7 0 585L0 175.7c0-37.7 30.5-68.2 68.2-68.2l545.7 0c37.7 0 68.2 30.5 68.2 68.2l0 409.3C682.1 622.7 651.6 653.2 613.9 653.2z" fill="#272636" p-id="1598"></path></svg>