<svg xmlns="http://www.w3.org/2000/svg" viewBox="0 0 1024 1024" version="1.1"><path d="M553.5 1021.9 20.3 1021.9c-10.9 0-19.9-8.9-19.9-19.9L0.4 19.9C0.4 8.9 9.3 0 20.3 0l533.2 0c10.9 0 19.9 8.9 19.9 19.9l0 982.2C573.3 1013 564.4 1021.9 553.5 1021.9zM40.1 982.1l493.5 0L533.6 39.7 40.1 39.7 40.1 982.1zM997.8 1021.9 553.5 1021.9c-10.9 0-19.9-8.9-19.9-19.9L533.6 287.7c0-11 8.9-19.9 19.9-19.9l444.4 0c10.9 0 19.9 8.9 19.9 19.9l0 714.3C1017.7 1013 1008.8 1021.9 997.8 1021.9zM573.3 982.1l404.7 0L978 307.6 573.3 307.6 573.3 982.1zM178.2 198.5l39.7 0 0 446.4-39.7 0L178.2 198.5zM355.8 198.5l39.7 0 0 446.4-39.7 0L355.8 198.5zM864.6 1021.9l-177.7 0c-10.9 0-19.9-8.9-19.9-19.9L667 823.5c0-11 8.9-19.8 19.9-19.8l177.7 0c10.9 0 19.9 8.9 19.9 19.8l0 178.5C884.5 1013 875.5 1021.9 864.6 1021.9zM706.7 982.1l138 0L844.7 843.3l-138 0L706.7 982.1zM375.7 1021.9 198 1021.9c-10.9 0-19.9-8.9-19.9-19.9L178.2 823.5c0-11 8.9-19.8 19.9-19.8l177.7 0c10.9 0 19.9 8.9 19.9 19.8l0 178.5C395.6 1013 386.6 1021.9 375.7 1021.9zM217.9 982.1l138 0L355.8 843.3 217.9 843.3 217.9 982.1zM686.8 625l177.7 0 0 39.7-177.7 0L686.8 625zM686.8 446.5l177.7 0 0 39.7-177.7 0L686.8 446.5z" fill="#272636" p-id="2247"></path></svg>