<svg xmlns="http://www.w3.org/2000/svg" viewBox="0 0 1024 1024" version="1.1"><path d="M347.6 329.9h1c13.7 0 24.7-11.1 24.7-24.7v-98.9c0-13.7-11.1-24.7-24.7-24.7H347.6c-13.7 0-24.7 11.1-24.7 24.7v98.9c0 13.6 11.1 24.7 24.7 24.7z m1 212.7H347.6c-13.7 0-24.7 11.1-24.7 24.7v148.4c0 13.7 11.1 24.7 24.7 24.7h1c13.7 0 24.7-11.1 24.7-24.7v-148.4c0-13.7-11.1-24.7-24.7-24.7zM753.9 17.4H269.2A79.1 79.1 0 0 0 190 96.5v797.3a79.1 79.1 0 0 0 79.1 79.1h19.6v8.9c0 13.7 11.1 24.7 24.7 24.7h1c13.7 0 24.7-11.1 24.7-24.7v-8.9H676.5v8.9c0 13.7 11.1 24.7 24.7 24.7h1c13.7 0 24.7-11.1 24.7-24.7v-8.9h26.9a79.1 79.1 0 0 0 79.1-79.1V96.5A79.1 79.1 0 0 0 753.9 17.4z m-473.8 50.5H743a39.6 39.6 0 0 1 39.6 39.6v295.3a25.1 25.1 0 0 0-28.3 5.6h-0a48.3 48.3 0 0 1-34.3 14.2c-13.4 0-25.5-5.4-34.3-14.2a98.6 98.6 0 0 0-69.9-29 98.6 98.6 0 0 0-69.9 28.9 48.3 48.3 0 0 1-34.3 14.2c-13.4 0-25.5-5.4-34.3-14.2a98.6 98.6 0 0 0-69.9-29 98.6 98.6 0 0 0-69.9 28.9 48.3 48.3 0 0 1-34.3 14.2c-13.4 0-25.5-5.4-34.3-14.2v0a25.1 25.1 0 0 0-28.3-5.6V107.4a39.6 39.6 0 0 1 39.6-39.6zM743 922.5H280.1a39.6 39.6 0 0 1-39.6-39.6V450.4a98.5 98.5 0 0 0 62.6 22.3 98.6 98.6 0 0 0 70-28.9 48.3 48.3 0 0 1 34.3-14.2c13.4 0 25.5 5.4 34.3 14.2a98.6 98.6 0 0 0 69.9 29 98.6 98.6 0 0 0 69.9-28.9 48.3 48.3 0 0 1 34.3-14.2c13.4 0 25.5 5.4 34.3 14.2a98.6 98.6 0 0 0 69.9 29 98.5 98.5 0 0 0 62.6-22.3v432.3a39.6 39.6 0 0 1-39.6 39.6z" fill="#111111" p-id="1313"></path></svg>