<svg xmlns="http://www.w3.org/2000/svg" viewBox="0 0 1025 1024" version="1.1"><path d="M870.6 363.8l0 169.7 0 0 73.8 0 0 0 0-117.4 0 0 24.6 17.7c14.5 10.1 36 5.1 48-12 12-17 9.5-39.1-5-49.2L538.7 39.5c-3.8-3.8-7.6-6.3-12-8.2-13.9-8.2-32.8-3.2-44.2 12l0 0L14.4 373.9c-14.5 10.1-17 32.2-5 49.2 12 17 32.8 22.1 47.3 12l32.2-22.7 0 0 0 543.2c0 20.2 15.8 38.5 36 39.1 20.8 0.6 37.9-16.4 37.9-37.2L162.7 360l0 0L511.6 113.3l0 0L870.6 363.8 870.6 363.8z" fill="#272636" p-id="1930"></path><path d="M548.2 401.7l-80.1 0c-30.9 0-37.2 6.3-37.2 37.2l0 81.4c0 30.9 6.3 37.2 37.2 37.2l80.1 0c30.9 0 37.2-6.3 37.2-37.2l0-81.4C585.4 408 579.1 401.7 548.2 401.7z" fill="#272636" p-id="1931"></path><path d="M548.2 801l-80.1 0c-30.9 0-37.2 6.3-37.2 37.2l0 81.4c0 30.9 6.3 37.2 37.2 37.2l80.1 0c30.9 0 37.2-6.3 37.2-37.2l0-81.4C585.4 807.4 579.1 801 548.2 801z" fill="#272636" p-id="1932"></path><path d="M548.2 601l-80.1 0c-30.9 0-37.2 6.3-37.2 37.2l0 82c0 30.9 6.3 37.2 37.2 37.2l80.1 0c30.9 0 37.2-6.3 37.2-37.2l0-82C585.4 607.3 579.1 601 548.2 601z" fill="#272636" p-id="1933"></path><path d="M969.6 801l-80.8 0c-30.9 0-37.2 6.3-37.2 37.2l0 81.4c0 30.9 6.3 37.2 37.2 37.2l80.8 0c30.9 0 37.2-6.3 37.2-37.2l0-81.4C1006.8 807.4 999.9 801 969.6 801z" fill="#272636" p-id="1934"></path><path d="M758.9 801l-80.1 0c-30.9 0-37.2 6.3-37.2 37.2l0 81.4c0 30.9 6.3 37.2 37.2 37.2l80.1 0c30.9 0 37.2-6.3 37.2-37.2l0-81.4C796.1 807.4 789.2 801 758.9 801z" fill="#272636" p-id="1935"></path><path d="M758.9 601l-80.1 0c-30.9 0-37.2 6.3-37.2 37.2l0 82c0 30.9 6.3 37.2 37.2 37.2l80.1 0c30.9 0 37.2-6.3 37.2-37.2l0-82C796.1 607.3 789.2 601 758.9 601z" fill="#272636" p-id="1936"></path></svg>