<svg xmlns="http://www.w3.org/2000/svg" viewBox="0 0 1024 1024" version="1.1"><path d="M618.7 288a32 32 0 0 1 0 64H320a32 32 0 0 1 0-64h298.7zM704 480a32 32 0 0 1 0 64H320a32 32 0 0 1 0-64h384zM533.3 672a32 32 0 0 1 0 64H320a32 32 0 0 1 0-64h213.3z" fill="#111111" p-id="760"></path><path d="M768 85.3a128 128 0 0 1 128 128v597.3a128 128 0 0 1-128 128H256a128 128 0 0 1-128-128V213.3a128 128 0 0 1 128-128h512z m0 64H256a64 64 0 0 0-64 64v597.3a64 64 0 0 0 64 64h512a64 64 0 0 0 64-64V213.3a64 64 0 0 0-64-64z" fill="#111111" p-id="761"></path></svg>