<svg xmlns="http://www.w3.org/2000/svg" viewBox="0 0 1024 1024" version="1.1"><path d="M956.6 98.7l-84.6 0c-1.4-0.1-2.7-0.4-4.2-0.4-1.5 0-2.9 0.3-4.3 0.5l-291.2 0.1 0.1-52.1c0-25.9-21.6-46.8-47.4-46.8-4.2 0-7.7 0.4-11.4 0.6C509.5 0.4 505.7 0 501.2 0c-25.8 0-46.8 20.9-46.8 46.8l0.2 52.2-284 0.1c-3.3-0.9-6.9-1.5-10.8-1.5-3.9 0-7.5 0.6-10.9 1.6l-83.6 0c-25.8 0-43.8 10.4-43.8 36.2 0 25.8 17.9 40 43.8 40l54.3-0 0.4 758.8c2.1 49.7 39.6 89.3 89.8 89.3l46.8 0 0 0.4 515-0.3 0-0.1 46.8 0c51.6 0 88.4-41.8 88.5-93.4l-0.4-755.2 50.1-0c25.8 0 46.8-14.2 46.8-40C1003.4 109.1 982.4 98.7 956.6 98.7zM827.8 852c0.3 61.5-11.5 84.1-53.1 91l-532 0.3c-26-5.6-38.6-19-43.8-47.6l-0.4-720.4 629.2-0.3 0.4 768L827.8 852zM395.6 255.6c-21.7 0-39.3 17.6-39.3 39.3l0 531c0 21.7 17.6 39.3 39.3 39.3 21.7 0 39.3-17.6 39.3-39.3L434.9 294.9C434.9 273.2 417.3 255.6 395.6 255.6zM631.6 255.6c-21.7 0-39.3 17.6-39.3 39.3l0 531c0 21.7 17.6 39.3 39.3 39.3 21.7 0 39.3-17.6 39.3-39.3L670.9 294.9C670.9 273.2 653.3 255.6 631.6 255.6z" fill="#272636" p-id="1322"></path></svg>