<svg xmlns="http://www.w3.org/2000/svg" viewBox="0 0 1024 1024" version="1.1"><path d="M512 1004.3C240.1 1004.3 19.7 783.9 19.7 512 19.7 240.1 240.1 19.7 512 19.7 783.9 19.7 1004.3 240.1 1004.3 512 1004.3 783.9 783.9 1004.3 512 1004.3ZM512 81.2C274.1 81.2 81.2 274.1 81.2 512 81.2 749.9 274.1 942.8 512 942.8 749.9 942.8 942.8 749.9 942.8 512 942.8 274.1 749.9 81.2 512 81.2ZM774 573.5 511.5 573.5C502.3 573.5 494.1 569.2 488.5 562.6 484 557.3 481.2 550.6 481.2 543.2L481.2 542.9C481.2 542.9 481.2 542.8 481.2 542.8 481.2 542.7 481.2 542.7 481.2 542.6L481.2 234.6C481.2 217.9 495 204.3 512 204.3 529 204.3 542.8 217.9 542.8 234.6L542.8 512 773.9 512C790.7 512 804.3 525.8 804.3 542.8 804.3 559.8 790.7 573.5 774 573.5Z" p-id="2088"></path></svg>