<svg xmlns="http://www.w3.org/2000/svg" viewBox="0 0 1025 1024" version="1.1"><path d="M698.9 778c-56.8 40.3-123.3 60.5-191.4 59.6-9-0.1-17.9-0.6-26.8-1.4-3.6-0.3-7.2-0.9-10.8-1.4-6.9-0.9-13.9-1.9-20.6-3.2-4.2-0.8-8.3-1.9-12.4-2.8-6.6-1.6-13.2-3.2-19.7-5.1-3.1-1-6.1-2.1-9.2-3.1-7.4-2.5-14.9-5.1-22.1-8.2-1.6-0.7-3.2-1.4-4.8-2.2-8.5-3.8-16.8-7.7-24.9-12.2-0.4-0.2-0.7-0.4-1.1-0.6-27.4-15.2-52.4-34.2-74.4-56.4-0.3-0.4-0.7-0.8-1-1.1-6.8-6.9-13.3-14.2-19.5-21.7-1.3-1.6-2.5-3.3-3.8-5-44.7-56.6-71.7-128.2-71.7-206.2l75.8 0c1.9 0 3.8-1 4.8-2.9 1-1.8 0.8-4-0.3-5.6l-127.4-193.5c-1-1.5-2.7-2.5-4.6-2.5-1.9 0-3.6 1-4.6 2.5L0.9 498.4c-1.1 1.6-1.3 3.8-0.3 5.6 1 1.8 2.9 2.9 4.8 2.9l75.8 0c0 91.6 28.22 176.5 76.1 246.7 0.6 1 1 2 1.6 3 5 7.25 10.5 13.8 15.8 20.6 1.9 2.6 3.8 5.2 5.9 7.7 7.8 9.6 16.2 18.7 24.7 27.5 0.8 0.9 1.6 1.7 2.4 2.5 28.8 29.2 61.3 53.7 96.7 73.3 0.9 0.6 1.8 1.1 2.8 1.7 10.2 5.5 20.7 10.6 31.3 15.3 2.6 1.1 5.2 2.4 7.9 3.6 9.1 3.8 18.4 7.1 27.8 10.3 4.4 1.5 8.8 3.1 13.3 4.5 8.2 2.5 16.6 4.5 25.1 6.6 5.6 1.3 11.2 2.7 16.9 3.8 2.3 0.5 4.6 1.2 6.9 1.6 8 1.4 16 2.2 24 3.2 2.9 0.3 5.7 0.8 8.6 1.1 14.4 1.4 28.7 2.4 42.9 2.4 87.47 0 172.7-27.1 245.9-79 23.3-16.6 29-49.1 12.7-72.8C754.4 767.1 722.2 761.4 698.9 778M941.5 507c-0-91.3-28.1-176.1-75.8-246.1-0.7-1.2-1.2-2.4-1.9-3.5-5.9-8.6-12.4-16.6-18.8-24.6-0.8-15-1.4-2-2.2-2.9-43.6-53.6-98.4-95-160.55-122.1-1.7-0.8-3.4-1.6-5.1-2.3-9.9-4.1-20.1-7.8-30.35-11.2-3.7-1.23-7.3-2.62-11.1-3.7-8.9-2.7-17.9-4.9-27-7.1-5-1.2-10-2.5-15.1-3.5-2.6-0.5-4.9-1.2-7.4-1.7-6.8-1.2-13.6-1.7-20.4-2.6-4.7-0.6-9.3-1.3-14.1-1.8-11.4-1.1-22.8-1.5-34.1-1.7-2 0-4.1-0.3-6.12-0.3-0.3 0-0.7 0.1-1.1 0.1-87.3 0.1-172.4 26.8-245.5 78.6-23.4 16.5-29.1 49.1-12.7 72.8 16.3 23.6 48.6 29.4 71.9 12.8 56.4-40 122.3-60.3 189.8-59.7 9.7 0.1 19.3 0.5 28.7 1.4 3 0.3 5.8 0.8 8.7 1.1 7.8 0.9 15.5 2.1 23.1 3.6 3.4 0.6 6.7 1.5 9.9 2.3 7.45 1.7 14.9 3.5 22.2 5.7 2.3 0.7 4.5 1.6 6.8 2.3 8.3 2.8 16.5 5.7 24.5 9.1 0.8 0.3 1.7 0.8 2.5 1.1 48.1 20.9 90.3 53.2 123.2 93.5 0.2 0.3 0.4 0.6 0.6 0.8 46.3 57.1 74.3 130.1 74.3 209.6l-75.8 0c-1.9 0-3.8 1-4.8 2.9-1 1.8-0.85 4 0.35 5.6l127.4 193.5c1 1.5 2.7 2.5 4.6 2.5 1.9 0 3.6-1 4.65-2.5l127.3-193.5c1.1-1.6 1.2-3.8 0.3-5.6-1-1.8-2.9-2.9-4.8-2.9l-75.8 0L941.5 507z" fill="#272636" p-id="1333"></path></svg>