<svg xmlns="http://www.w3.org/2000/svg" viewBox="0 0 1026 1024" version="1.1"><path d="M213.5 448.6c-8.8 0-17.4-4-23-11.6-9.3-12.7-6.6-30.5 6.1-39.9l213.8-157.1c8.7-6.4 20.3-7.3 29.9-2.5 9.6 4.9 15.8 14.7 15.8 25.4l0 100.8 168.3-123.7c8.7-6.4 21.2-7.3 30.8-2.5 9.65 4.9 16.7 14.7 16.7 25.4l0 100.8 167.3-123.7c8.7-6.4 19.3-7.3 28.9-2.5 9.6 4.9 14.8 14.7 14.8 25.4l0 157.1c0 15.7-13 28.5-28.7 28.5-15.7 0-28.7-12.8-28.7-28.5l0-100.8L657.5 443.1c-8.75 6.4-19.6 7.35-29.2 2.5-9.6-4.9-15.1-14.7-15.1-25.4l0-100.8L444.5 443.1c-8.7 6.4-20.4 7.35-30 2.5-9.62-4.9-15.9-14.7-15.9-25.4l0-100.8L230.3 443.1C225.2 446.8 219.4 448.6 213.5 448.6zM783.7 990.3 257.3 990.3c-15.7 0-28.5-12.8-28.5-28.55L228.8 759.8c0-15.7 12.8-28.5 28.5-28.5l526.4 0c15.7 0 28.5 12.8 28.5 28.5l0 201.9C812.2 977.5 799.4 990.3 783.7 990.3zM285.8 933.3l469.4 0L755.2 788.3 285.8 788.3 285.8 933.3zM997.5 991.5 28.2 991.5c-15.7 0-28.2-14-28.2-29.8L0 49.5c0-15.7 12.55-25.3 28.2-25.3l185.3 0c15.72 0 28 9.6 28 25.3l0 370.6c0 15.7-12.4 28.5-28.1 28.5-15.7 0-28.1-12.8-28.1-28.5L185.3 80.5 58.6 80.5l0 854.8 909.9 0L968.5 449.8l-113.5 0c-15.7 0-28.5-11.8-28.5-27.6 0-15.72 12.8-27.6 28.5-27.6l142.5 0c15.7 0 28.4 9.7 28.4 25.4l0 541.7C1025.9 977.5 1013.2 991.5 997.5 991.5zM493.1 574.4l60.5 0 0 60.5-60.5 0L493.1 574.4zM753.4 574.4l60.5 0 0 60.5-60.5 0L753.4 574.4zM232.7 574.4l60.5 0 0 60.5-60.5 0L232.7 574.4z" fill="#272636" p-id="2236"></path></svg>