<svg xmlns="http://www.w3.org/2000/svg" viewBox="0 0 1024 1024" version="1.1"><path d="M88 0l0 1021.3 660.8 0 180.2-240.3L929.1 0 88 0zM883 751.4l-160.5 214L134.1 965.3 134.1 55.9l748.9 0L883 751.4zM272.3 136.7l472.6 0 0 59.1L272.3 195.8 272.3 136.7zM272.3 313.9l295.4 0 0 59.1L272.3 373 272.3 313.9z" fill="#272636" p-id="2294"></path><path d="M367.3 654.1c-4 0-8-1.8-10.5-5.3-4.3-5.8-3-14 2.8-18.2l97.8-71.8c4-2.9 9.3-3.3 13.7-1.1 4.4 2.2 7.2 6.7 7.2 11.6l0 46.1 76.9-56.6c45-2.9 9.7-3.3 14.1-1.1 4.4 2.2 7.6 6.7 7.6 11.6l0 46.1 76.5-56.6c4-2.9 8.8-3.3 13.2-1.1 4.4 2.2 6.8 6.7 6.8 11.6l0 71.8c0 7.2-5.9 13-13.1 13-7.2 0-13.1-5.8-13.1-13l0-46.1-76.8 56.6c-4 2.9-9 3.3-13.3 1.1-4.4-2.2-6.9-6.75-6.9-11.6l0-46.1-77.1 56.6c-4 2.9-9.3 3.3-13.7 1.1-4.4-2.2-7.3-6.75-7.3-11.6l0-46.1-77 56.6C372.7 653.3 370 654.1 367.3 654.1zM628 901.7 387.4 901.7c-7.2 0-13-5.8-13-13l0-92.3c0-7.2 5.8-13 13-13l240.7 0c7.2 0 13 5.8 13 13l0 92.3C641.1 895.9 635.2 901.7 628 901.7zM400.4 875.7l214.6 0 0-66.2L400.4 809.4 400.4 875.7zM725.8 902.3 282.6 902.3c-7.2 0-12.9-6.4-12.9-13.6L269.7 471.6c0-7.2 5.7-11.6 12.9-11.6l84.7 0c7.2 0 12.8 4.4 12.8 11.6l0 169.4c0 7.2-5.7 13-12.9 13-7.2 0-12.9-5.8-12.9-13l0-155.3-57.9 0 0 390.8 416 0L712.5 654.6l-51.9 0c-7.2 0-13-5.4-13-12.6 0-7.2 5.8-12.6 13-12.6l65.2 0c7.2 0 13 4.4 13 11.6l0 247.6C738.8 895.9 733 902.3 725.8 902.3zM495.1 711.6l27.7 0 0 27.7-27.7 0L495.1 711.6zM614.2 711.6l27.7 0 0 27.7-27.7 0L614.2 711.6zM376.1 711.6l27.7 0 0 27.7-27.7 0L376.1 711.6z" fill="#272636" p-id="2295"></path></svg>