<?xml version="1.0" standalone="no"?><!DOCTYPE svg PUBLIC "-//W3C//DTD SVG 1.1//EN" "http://www.w3.org/Graphics/SVG/1.1/DTD/svg11.dtd"><svg t="1690512560537" class="icon" viewBox="0 0 1024 1024" version="1.1" xmlns="http://www.w3.org/2000/svg" p-id="1978" xmlns:xlink="http://www.w3.org/1999/xlink" width="200" height="200"><path d="M576 352v165.28l117.024 117.024-45.248 45.28L512.224 544H512v-192h64z" fill="#383F4A" p-id="1979"></path><path d="M362.784 169.184c187.264-99.552 419.776-28.48 519.36 158.784 99.52 187.264 28.48 419.776-158.816 519.328a384.128 384.128 0 0 1-472.736-90.112l-6.112-7.36 49.792-40.224a320.096 320.096 0 0 0 399.04 81.184c156.032-82.976 215.264-276.736 132.288-432.768-82.976-156.032-276.736-215.296-432.768-132.32a320 320 0 0 0-168.768 256.416l66.624-62.08 43.648 46.816L193.92 597.76l-130.944-140.416 46.816-43.648 51.232 54.944a384 384 0 0 1 201.76-299.488z" fill="#383F4A" p-id="1980"></path></svg>