<?xml version="1.0" standalone="no"?><!DOCTYPE svg PUBLIC "-//W3C//DTD SVG 1.1//EN" "http://www.w3.org/Graphics/SVG/1.1/DTD/svg11.dtd"><svg t="1690512529255" class="icon" viewBox="0 0 1024 1024" version="1.1" xmlns="http://www.w3.org/2000/svg" p-id="1648" xmlns:xlink="http://www.w3.org/1999/xlink" width="200" height="200"><path d="M768 128v260.64a112.064 112.064 0 0 1 0 214.72V672h128v224H576v-64H128V128h640z m64 608h-192v96h192v-96zM704 192H192v576h384v-96h128v-68.64a112.064 112.064 0 0 1 0-214.72V192z m-192 416v64H288v-64h224z m224-160a48 48 0 1 0 0 96 48 48 0 0 0 0-96z m-224 0v64H288v-64h224z m96-160v64H288V288h320z" fill="#383F4A" p-id="1649"></path></svg>