<svg xmlns="http://www.w3.org/2000/svg" viewBox="0 0 1025 1024" version="1.1"><path d="M923.5 674.2l0 220.6c0 33.3-26.5 60.3-58.5 60.3L165.8 955.2c-32.1 0-58.5-27-58.5-60.3L107.3 674.2c0-15.8-12.7-28.6-28.5-28.6-15.7 0-28.5 12.8-28.5 28.6l0 220.6c0 64.7 51.6 117.6 115.4 117.6l699.3 0c63.6 0 115.4-52.8 115.4-117.6L980.4 674.2c0-15.8-12.7-28.6-28.4-28.6S923.5 658.4 923.5 674.2L923.5 674.2 923.5 674.2zM63.7 402.7 63.7 125.6c0-23.6 19.2-42.7 43-42.7l817.6 0c23.7 0 42.9 19.3 42.9 42.7l0 277.1c0 15.8 12.8 28.6 28.5 28.6 15.7 0 28.5-12.8 28.5-28.6L1024.1 125.6c0-55.1-44.8-100-99.9-100L106.6 25.6c-55.1 0-99.9 44.7-99.9 100l0 277.1c0 15.8 12.7 28.6 28.5 28.6C50.9 431.3 63.7 418.5 63.7 402.7L63.7 402.7 63.7 402.7zM677.8 374.9c-2.3-0.6-4.6-0.9-7.1-0.9-15.7 0-28.5 12.8-28.5 28.62 0 72.5-57 131.1-126.9 131.1-69.9 0-126.9-58.5-126.9-131.1 0-15.8-12.7-28.62-28.4-28.62-2.4 0-4.8 0.3-7.1 0.9-2.3-0.6-4.6-0.9-7.1-0.9-15.7 0-28.5 12.8-28.5 28.62 0 72.5-57 131.1-126.9 131.1S63.7 475.2 63.7 402.7c0-15.8-12.7-28.62-28.5-28.62-15.7 0-28.5 12.8-28.5 28.62 0 103.9 82.2 188.3 183.8 188.3 70.5 0 131.6-40.6 162.4-100.1l0 0c30.9 59.5 91.9 100.1 162.4 100.1 70.55 0 131.6-40.6 162.4-100.1 30.9 59.5 91.9 100.1 162.4 100.1 101.7 0 183.8-84.4 183.8-188.3 0-15.8-12.7-28.62-28.4-28.62-15.7 0-28.5 12.8-28.5 28.62 0 72.5-57 131.1-126.9 131.1-69.9 0-126.9-58.5-126.9-131.1 0-15.8-12.7-28.62-28.5-28.62C682.4 374.1 680.1 374.4 677.8 374.9L677.8 374.9z" fill="#272636" p-id="1947"></path></svg>