<svg xmlns="http://www.w3.org/2000/svg" viewBox="0 0 1024 1024" version="1.1"><path d="M127.5 1024c-63.6 0-115.4-54.7-115.4-142.9L12.1 75.2c0-34.9 30.7-63.7 68.4-63.7l873.5 0c37.7 0 68.4 24.2 68.4 63.7 0 25.6 0 805.9 0 805.9 0 88.2-51.8 142.9-115.4 142.9L127.5 1024zM86.8 902.1c0 26 18.3 47.2 40.7 47.2l779.5 0c22.4 0 40.7-21.2 40.7-47.2l0-86.8L86.8 815.2 86.8 902.1zM947.7 738 947.7 86.2 86.8 86.2l0 651.8L947.7 738 947.7 738zM518.4 517.9c-171.3 0-272.6-145.7-291.1-315.9-1.2-10.8 2.3-21.6 9.6-29.7 7.4-8.2 18-13 29.1-13 19.7 0 36.1 14.7 38.2 34.2 14.2 130.9 82.4 247 214.2 247 131.8 0 198.9-116.1 213.1-247 2.1-19.5 18.6-34.2 38.3-34.2 11.1 0 21.6 4.7 29 13 7.3 8.1 10.8 19 9.7 29.7C789.8 372.1 689.6 517.9 518.4 517.9z" fill="#272636" p-id="1432"></path></svg>