<svg xmlns="http://www.w3.org/2000/svg" viewBox="0 0 1024 1024" version="1.1"><path d="M938.4 381.4l-271.7-66.6c-6.7-1.6-13.4-1.8-19.8-1L647 96.7c14.6-11.8 22.9-30.7 19.8-50.6-4.6-29.7-32.5-50.1-62.2-45.4L87.6 81.1c-29.7 4.6-50 32.5-45.5 62.2 2.2 14 9.6 25.8 19.8 34l0 812.7c0 18.8 15.2 34 34 34l517 0 306.4 0c18.8 0 34-15.3 34-34L953.4 480.8c12-7.2 21.4-18.9 25-33.6C985.5 418 967.6 388.5 938.4 381.4L938.4 381.4zM130 184.7l449-69.9 0 271.6 0 569.5L407.3 956 407.3 785.6 301.7 785.6l0 170.4L130 956 130 184.7 130 184.7zM885.3 956l-87.8 0 0-87.1-62.7 0 0 87.1-87.8 0L647 429l238.3 53.6L885.3 956 885.3 956 885.3 956zM301.7 212.4l105.7 0 0 103L301.7 315.4 301.7 212.4 301.7 212.4zM301.7 398.7l105.7 0 0 103.1L301.7 501.8 301.7 398.7 301.7 398.7zM301.7 585l105.7 0 0 103L301.7 688 301.7 585 301.7 585zM734.8 521.1l62.7 0 0 61.1-62.7 0L734.8 521.1 734.8 521.1zM734.8 631.5l62.7 0 0 61.1-62.7 0L734.8 631.5 734.8 631.5zM734.8 741.9l62.7 0 0 61-62.7 0L734.8 741.9 734.8 741.9z" fill="#272636" p-id="1543"></path></svg>