<svg xmlns="http://www.w3.org/2000/svg" viewBox="0 0 1024 1024" version="1.1"><path d="M475.5 102.7a85.3 85.3 0 0 1 73.1 0l341.3 161.8A85.3 85.3 0 0 1 938.7 341.5V853.3a85.3 85.3 0 0 1-85.3 85.3H170.7a85.3 85.3 0 0 1-85.3-85.3V341.5a85.3 85.3 0 0 1 48.8-77.1L475.5 102.7z m45.7 57.8a21.3 21.3 0 0 0-18.3 0L161.5 322.3A21.3 21.3 0 0 0 149.3 341.5V853.3a21.3 21.3 0 0 0 21.3 21.3h682.7a21.3 21.3 0 0 0 21.3-21.3V341.5a21.3 21.3 0 0 0-12.2-19.3L521.2 160.5z" fill="#0" p-id="809"></path><path d="M597.3 565.3a117.3 117.3 0 0 1 117.3 117.3v234.7h-64V682.7a53.3 53.3 0 0 0-53.3-53.3h-106.7a53.3 53.3 0 0 0-53.3 53.3v234.7h-64V682.7a117.3 117.3 0 0 1 117.3-117.3h106.7z" fill="#0" p-id="810"></path></svg>