<svg xmlns="http://www.w3.org/2000/svg" viewBox="0 0 1024 1024" version="1.1"><path d="M824.1 0c58.8 0 106.5 47.4 106.5 105.9v659.1a106.1 106.1 0 0 1-92.7 105L992.7 1024h-100.4l-153.8-153h-452.9L131.7 1024H31.3l156-155.2a106.1 106.1 0 0 1-85-103.8V106C102.3 47.4 150 0 208.8 0h615.3z m35.5 576.7H173.3v188.3c0 19.5 15.9 35.3 35.5 35.3h615.3c19.6 0 35.5-15.8 35.5-35.3v-188.3z m-556.1 70.6c16.9 0 32.5 9 41 23.5a46.9 46.9 0 0 1 0 47.1 47.4 47.4 0 0 1-41 23.6 47.2 47.2 0 0 1-47.3-47.1 47.2 47.2 0 0 1 47.3-47.1z m426 0c16.9 0 32.5 9 41 23.5a46.9 46.9 0 0 1 0 47.1 47.4 47.4 0 0 1-41 23.6 47.2 47.2 0 0 1-47.3-47.1 47.2 47.2 0 0 1 47.3-47.1z m-248.5-400.2H173.3v258.9h307.6v-258.9z m378.6 0H552v258.9h307.6v-258.9zM824.1 70.6H208.8c-19.6 0-35.5 15.8-35.5 35.3v70.6h686.3v-70.6c0-19.5-15.9-35.3-35.5-35.3z" fill="#111111" p-id="1162"></path></svg>