<svg xmlns="http://www.w3.org/2000/svg" viewBox="0 0 1024 1024" version="1.1"><path d="M507.7 106.7h-12.2l-5.5 0.1c-107.1 3.4-190.5 91.7-190.5 198.8v92.9l0.1 6.6 0.4 7.3c3.5 50.8 24.5 97.5 59.4 132.7l40.1 40.4 0.6 0.7a2.8 2.8 0 0 1 0.3 1.3l-0 5.7-278.1 134.4-4.5 2.3C83.8 748.7 64 782.9 64 819.8v9.5l0.2 6.5C67 881.3 104.5 917.3 150.6 917.3h701.5C900.3 917.3 938.7 878 938.7 830.2v-10.4l-0.1-4.9a102 102 0 0 0-57.3-87.1L602.3 593.1v-5.7c0-0.7 0.3-1.4 0.6-1.7l40.4-40.7a207.1 207.1 0 0 0 59.9-145.9V305.5c0-109.4-87.2-198.8-195.5-198.8z m0 64c72.6 0 131.5 60.4 131.5 134.8v93.5a143.1 143.1 0 0 1-41.3 100.9l-40.5 40.7a66.4 66.4 0 0 0-19.1 46.8v5.8c0 24.4 13.7 46.7 35.3 57l279.8 135.2c12.9 6.3 21.2 19.6 21.2 34.3v10.4c0 12.8-10.1 23.1-22.6 23.1H150.6a22.8 22.8 0 0 1-22.5-21.6L128 819.8c0-13.9 7.4-26.6 19.2-33.3l2.8-1.5 279-134.8a63 63 0 0 0 35-51l0.3-4.6 0-7.3c0-15.4-5.2-30.2-14.8-41.9l-3.3-3.7-41.5-41.8a143 143 0 0 1-41.2-95.7l-0.1-5.7V305.5c0-72.8 56.4-132.5 127.4-134.8L495.4 170.7h12.2z" fill="#0" p-id="821"></path><path d="M949.3 576v21.3a21.3 21.3 0 0 1-21.3 21.3h-85.3a21.3 21.3 0 0 1-21.3-21.3v-21.3a21.3 21.3 0 0 1 21.3-21.3h85.3a21.3 21.3 0 0 1 21.3 21.3zM949.3 458.7v21.3a21.3 21.3 0 0 1-21.3 21.3h-149.3a21.3 21.3 0 0 1-21.3-21.3v-21.3a21.3 21.3 0 0 1 21.3-21.3h149.3a21.3 21.3 0 0 1 21.3 21.3zM949.3 341.3v21.3a21.3 21.3 0 0 1-21.3 21.3h-149.3a21.3 21.3 0 0 1-21.3-21.3v-21.3a21.3 21.3 0 0 1 21.3-21.3h149.3a21.3 21.3 0 0 1 21.3 21.3z" fill="#0" p-id="822"></path></svg>