<svg xmlns="http://www.w3.org/2000/svg" viewBox="0 0 1024 1024" version="1.1"><path d="M826.8 0 0 0l0 190.8 826.8 0L826.8 0zM413.4 146.3C388 146.3 368.9 127.2 368.9 108.1 368.9 82.7 388 63.6 413.4 63.6s44.5 19.1 44.5 38.2C457.9 127.2 438.9 146.3 413.4 146.3zM553.3 146.3C527.9 146.3 508.8 127.2 508.8 108.1 508.8 82.7 527.9 63.6 553.3 63.6s44.5 19.1 44.5 38.2C597.9 127.2 578.8 146.3 553.3 146.3zM693.3 146.3c-25.4 0-44.5-19.1-44.5-38.2 0-25.4 19.1-38.2 44.5-38.2s44.5 19.1 44.5 38.2C737.8 127.2 718.7 146.3 693.3 146.3zM826.8 318 0 318l0 190.8 826.8 0L826.8 318zM413.4 457.9c-25.4 0-44.5-19.1-44.5-38.2 0-25.4 19.1-38.2 44.5-38.2 25.4 0 44.5 19.1 44.5 38.2S438.9 457.9 413.4 457.9zM553.3 457.9C527.9 457.9 508.8 438.9 508.8 413.4c0-25.4 19.1-38.2 44.5-38.2s44.5 19.1 44.5 38.2S578.8 457.9 553.3 457.9zM693.3 457.9c-25.4 0-44.5-19.1-44.5-38.2 0-25.4 19.1-38.2 44.5-38.2s44.5 19.1 44.5 38.2S718.7 457.9 693.3 457.9zM795 699.6c-12.7 0-25.4 12.7-25.4 25.4l0 114.5c0 12.7 12.7 25.4 25.4 25.4l108.1 0c12.7 0 25.4-12.7 25.4-25.4s-12.7-25.4-25.4-25.4l-82.7 0 0-89C820.5 706 807.8 699.6 795 699.6zM814.1 629.7c-19.1 0-38.2 6.4-57.2 6.4l0 0L0 636l0 190.8 591.5 0 6.4 6.4 38.2 44.5 76.3-95.4-50.9 0c6.4-19.1 19.1-38.2 31.8-50.9l12.7-12.7c25.4-25.4 63.6-38.2 108.1-38.2 82.7 0 152.6 63.6 152.6 146.3s-70 146.3-152.6 146.3c-44.5 0-89-19.1-114.5-50.9-6.4-12.7-25.4-12.7-38.2 0-12.7 6.4-12.7 25.4 0 31.8 38.2 44.5 95.4 70 159 70 114.5 0 203.5-89 203.5-197.2C1017.6 712.3 922.2 629.7 814.1 629.7zM413.4 776c-25.4 0-44.5-19.1-44.5-38.2 0-25.4 19.1-38.2 44.5-38.2 25.4 0 44.5 19.1 44.5 38.2S438.9 776 413.4 776zM553.3 776c-25.4 0-44.5-19.1-44.5-38.2 0-25.4 19.1-38.2 44.5-38.2s44.5 19.1 44.5 38.2S578.8 776 553.3 776z" fill="#272636" p-id="1554"></path></svg>