<svg xmlns="http://www.w3.org/2000/svg" viewBox="0 0 1057 1024" version="1.1"><path d="M885.4 557.9c25.7-51.5 40.5-109.2 40.5-170.5C926 173.4 749.9 0 532.8 0 315.6 0 139.6 173.4 139.6 387.4c0 61.3 14.8 119 40.5 170.5L20.5 830.3c0 0 101.2 20.3 203.9 41.4 68.5 76.2 136.6 152.3 136.6 152.3l146.8-250.4c8.3 0.5 16.5 1.2 25 1.2 8.4 0 16.7-0.7 25-1.2l146.8 250.4c0 0 68.2-76 136.6-152.3 102.7-21.2 203.9-41.4 203.9-41.4L885.4 557.9zM353.4 907.8c0 0-49.2-46.6-95.4-91.5-65.5-18.6-131.7-37.6-131.7-37.6l92.8-158.3c53.5 69.8 130.3 121 219.1 142.7L353.4 907.8zM532.8 704.3c-176.6 0-319.7-143.4-319.7-320.3 0-176.9 143.1-320.3 319.7-320.3 176.5 0 319.7 143.4 319.7 320.3C852.4 560.8 709.3 704.3 532.8 704.3zM807.5 816.3c-46.2 44.9-95.4 91.5-95.4 91.5l-84.8-144.8c88.8-21.6 165.6-72.9 219.1-142.7l92.8 158.3C939.1 778.7 873 797.7 807.5 816.3zM532.8 160c-123.7 0-224 100.3-224 224s100.3 224 224 224c123.7 0 224-100.3 224-224S656.5 160 532.8 160zM532.8 544c-88.4 0-160-71.6-160-160s71.6-160 160-160c88.3 0 160 71.6 160 160S621.1 544 532.8 544z" fill="#272636" p-id="2225"></path></svg>