<svg xmlns="http://www.w3.org/2000/svg" viewBox="0 0 1026 1024" version="1.1"><path d="M951.4 580.6 655.6 580.6c-40.8 0-73.8 33.1-73.8 73.8l0 295.7c0 40.7 33.1 73.8 73.8 73.8l295.7 0c40.8 0 73.8-33.1 73.8-73.8L1025.2 654.4C1025.2 613.7 992.1 580.6 951.4 580.6zM955.4 913.4c0 20.6-20.6 41.2-41.2 41.2L692.7 954.6c-20.2 0-41.2-20.6-41.2-41.2L651.6 691.5c0-20.2 20.6-41.2 41.2-41.2l221.9 0c20.2 0 41.2 20.6 41.2 41.2l0 221.9L955.4 913.4z" fill="#272636" p-id="1766"></path><path d="M951.2 1.6 655.4 1.6c-40.8 0-73.8 33.1-73.8 73.8l0 295.7c0 40.7 33.1 73.8 73.8 73.8l295.7 0c40.8 0 73.8-33.1 73.8-73.8L1025 75.4C1025 34.7 991.9 1.6 951.2 1.6zM955.2 334.1c0 20.6-20.6 41.2-41.2 41.2L692.5 375.2c-20.2 0-41.2-20.6-41.2-41.2L651.4 112.6c0-20.6 20.6-41.2 41.2-41.2L914.4 71.4c20.2 0 41.2 20.6 41.2 41.2l0 221.5L955.2 334.1z" fill="#272636" p-id="1767"></path><path d="M372 580.6 76.2 580.6c-40.7 0-73.8 33.1-73.8 73.8l0 295.7c0 40.7 33.1 73.8 73.8 73.8l295.7 0c40.7 0 73.8-33.1 73.8-73.8L445.8 654.4C446.2 613.7 413.1 580.6 372 580.6zM335.3 954.2 113.8 954.2c-20.6 0-41.2-20.6-41.2-41.2l0-221.9c0-20.2 20.6-41.2 41.2-41.2l221.5 0c20.6 0 41.2 20.6 41.2 41.2l0 221.9C376.4 933.6 355.8 954.2 335.3 954.2z" fill="#272636" p-id="1768"></path><path d="M11.7 39.9C5.5 50.7 2 63.1 2 76.4l0 295.7c0 40.7 33.1 73.8 73.8 73.8l295.7 0c40.7 0 73.8-33.1 73.8-73.8L445.4 76.4c0.4-40.7-32.7-73.8-73.8-73.8L75.8 2.6C48.4 2.6 24.4 17.6 11.7 39.9M334.9 375.8 113.4 375.8c-20.6 0-41.2-20.6-41.2-41.2L72.2 113.2c0-20.6 20.6-41.2 41.2-41.2l221.5 0c20.6 0 41.2 20.6 41.2 41.2l0 221.5C376 355.2 355.4 375.8 334.9 375.8z" fill="#272636" p-id="1769"></path><path d="M372 112.2" fill="#272636" p-id="1770"></path></svg>