<svg xmlns="http://www.w3.org/2000/svg" viewBox="0 0 1024 1024" version="1.1"><path d="M714.7 100.9l137.6 25A79.3 79.3 0 0 1 917.3 203.9v488a79.3 79.3 0 0 1-38.3 67.9L573.4 944.2a118.9 118.9 0 0 1-122.9 0L145 759.7A79.3 79.3 0 0 1 106.7 691.9V203.9a79.3 79.3 0 0 1 65.1-78L309.3 100.9a1132.1 1132.1 0 0 1 405.3 0z m-11.5 63a1068.1 1068.1 0 0 0-382.4 0l-137.6 25A15.3 15.3 0 0 0 170.7 203.9v488c0 5.3 2.8 10.3 7.4 13.1l305.6 184.5a54.9 54.9 0 0 0 56.7 0l305.6-184.5a15.3 15.3 0 0 0 7.4-13.1V203.9a15.3 15.3 0 0 0-12.5-15l-137.6-25z" fill="#111111" p-id="530"></path><path d="M707.1 353.2a32 32 0 0 1 43 47.4l-207.9 188.9a122.1 122.1 0 0 1-167.2-2.8l-88-85.5a32 32 0 0 1 44.6-45.9l88 85.5a58.1 58.1 0 0 0 79.5 1.3l207.9-188.9z" fill="#111111" p-id="531"></path></svg>