<svg xmlns="http://www.w3.org/2000/svg" viewBox="0 0 1024 1024" version="1.1"><path d="M512 348.2c42 0 81.4 15 111.1 42 29.7 27.1 46.1 63 46.1 101.4 0 38.3-16.4 74.3-46.1 101.4C593.4 619.9 554 634.9 512 634.9c-42 0-81.4-15-111.1-42-29.7-27.1-46.1-63-46.1-101.4 0-38.3 16.4-74.3 46.1-101.4C430.6 363.1 470 348.2 512 348.2z m0-61.4c-121.5 0-220 91.7-220 204.8S390.5 696.3 512 696.3s220-91.7 220-204.8S633.5 286.7 512 286.7z m21-163.8h-62.9c-17.3 0-31.4 13.8-31.4 30.7s14.1 30.7 31.4 30.7h62.9c17.3 0 31.4-13.8 31.4-30.7S550.3 122.9 533 122.9z" fill="#111111" p-id="1127"></path><path d="M962.6 432C962.6 194.9 763.3 2.4 516.7 0 267-2.4 63.8 188.7 61.4 428 59.7 614.4 181.1 773.9 352.5 836.1c25.9 9.4 42.8 33.3 42.8 59.7v56.2a8.2 8.2 0 0 1-8.4 8h-75.1c-36.8 0-66.8 28.7-66.8 64h534c0-35.3-29.9-64-66.7-64h-75.1a8.2 8.2 0 0 1-8.3-8V895.8c0-26.6 17.2-50.4 43.1-59.8C841.8 774.1 962.6 616.6 962.6 432zM555.7 962.6h-87.3a8.5 8.5 0 0 1-8.7-8.3V860.2c17.2 1.9 34.7 2.8 52.4 2.8 17.7 0 35.1-0.9 52.4-2.8v94.1a8.5 8.5 0 0 1-8.7 8.3zM512 798.7c-52.4 0-103.1-9.7-150.9-29a387.9 387.9 0 0 1-123.3-79 366.8 366.8 0 0 1-83.1-117.2A350.1 350.1 0 0 1 124.3 430.1c0-49.8 10.2-98.1 30.4-143.4a366.8 366.8 0 0 1 83.1-117.2 387.9 387.9 0 0 1 123.2-79.1C408.9 71.2 459.7 61.5 512 61.5c52.4 0 103.1 9.7 150.9 29a387.9 387.9 0 0 1 123.3 791 366.8 366.8 0 0 1 83.1 117.2A350.1 350.1 0 0 1 899.7 430.1c0 49.8-10.2 98.1-30.4 143.4a366.8 366.8 0 0 1-83.1 117.2 387.9 387.9 0 0 1-123.2 79.1C615.1 789 564.3 798.7 512 798.7z" fill="#111111" p-id="1128"></path></svg>