<svg xmlns="http://www.w3.org/2000/svg" viewBox="0 0 1024 1024" version="1.1"><path d="M712.1 726.1a30.7 30.7 0 0 1 39.8-17.4c73.5 28.7 118.5 70.3 118.5 121.9 0 97.8-166.3 162.7-368.6 162.7s-368.6-64.9-368.6-162.7c0-51.6 45.1-93.2 118.5-121.9a30.7 30.7 0 0 1 22.3 57.2c-52.4 20.5-79.4 45.4-79.4 64.7 0 48 136.3 101.2 307.2 101.2s307.2-53.2 307.2-101.3c0-19.3-27-44.2-79.4-64.7a30.7 30.7 0 0 1-17.4-39.8z" fill="#111111" p-id="796"></path><path d="M279.8 222.8l-3.5 3.5-3.5 3.5c-116.3 120.2-113.1 311.8 7 428.1l160.8 155.6a87.9 87.9 0 0 0 122.2 0l160.8-155.6c2.4-2.3 4.7-4.6 7-7 116.3-120.2 113.1-311.8-7-428.1-123.7-119.7-320.1-119.7-443.8 0z m42.7 44.2c99.9-96.7 258.5-96.7 358.4 0 95.8 92.7 98.3 245.5 5.6 341.2l-2.8 2.8-163.6 158.4a26.4 26.4 0 0 1-36.8 0l-160.8-155.6c-95.8-92.7-98.3-245.5-5.6-341.2l5.6-5.6z" fill="#111111" p-id="797"></path><path d="M501.8 307.2a143.4 143.4 0 1 0 0 286.7 143.4 143.4 0 0 0 0-286.7z m0 61.4a81.9 81.9 0 1 1 0 163.8 81.9 81.9 0 0 1 0-163.8z" fill="#131723" p-id="798"></path></svg>