<svg xmlns="http://www.w3.org/2000/svg" viewBox="0 0 1024 1024" version="1.1"><path d="M504.4 519.6m-151.2 0a151.2 151.2 0 1 0 302.4 0 151.2 151.2 0 1 0-302.4 0Z" fill="#111111" p-id="709"></path><path d="M504.4 124.7c-218.1 0-394.9 176.8-394.9 394.8s176.8 394.9 394.9 394.9 394.8-176.8 394.8-394.9S722.5 124.7 504.4 124.7z m0 64c182.7 0 330.8 148.1 330.8 330.8s-148.1 330.9-330.8 330.9S173.6 702.3 173.6 519.6c0-182.7 148.1-330.8 330.9-330.8z" fill="#111111" p-id="710"></path><path d="M519.6 10.7a32 32 0 0 1 32 32v98.9a32 32 0 1 1-64 0V42.7a32 32 0 0 1 32-32zM519.6 850.4a32 32 0 0 1 32 32V981.3a32 32 0 0 1-64 0v-98.9a32 32 0 0 1 32-32z" fill="#111111" p-id="711"></path><path d="M10.7 519.6a32 32 0 0 1 32-32h98.9a32 32 0 1 1 0 64H42.7a32 32 0 0 1-32-32zM850.4 519.6a32 32 0 0 1 32-32H981.3a32 32 0 0 1 0 64h-98.9a32 32 0 0 1-32-32z" fill="#111111" p-id="712"></path></svg>