<svg xmlns="http://www.w3.org/2000/svg" viewBox="0 0 1024 1024" version="1.1"><path d="M515.4 897.2c-32.1 0-64.1-2.9-94.7-8.7l-223 135.6L197.6 799.5C81 717.9 6.7 592.6 6.7 452.7 6.7 206.4 234.1 6.7 515.4 6.7c281.3 0 508.6 199.7 508.6 446C1024 699 796.6 897.2 515.4 897.2zM515.4 70.8c-246.3 0-446 170.5-446 381.9 0 129.7 75.8 243.4 189.5 311.9l0 148.7 150.1-90.4c35 7.3 70 11.7 107.9 11.7 246.3 0 446-170.55 446-381.9C961.3 241.3 761.7 70.8 515.4 70.8zM738.3 420.6 292.4 420.6c-17.5 0-32.1-14.6-32.1-32.1 0-17.5 14.6-32.1 32.1-32.1l446 0c17.5 0 32.1 14.6 32.1 32.1C770.4 406 755.8 420.6 738.3 420.6zM356.5 547.4l317.7 0c17.5 0 32.1 14.6 32.1 32.1 0 17.5-14.6 32.1-32.1 32.1L356.5 611.5c-17.52 0-32.1-14.6-32.1-32.1C324.4 562 339 547.4 356.5 547.4z" fill="#272636" p-id="1410"></path></svg>