<svg xmlns="http://www.w3.org/2000/svg" viewBox="0 0 1025 1024" version="1.1"><path d="M179.5 923.9c-16.7 0-30.3-13.5-30.3-30l0-73.6c0-73.5 22.2-144.4 64.3-204.8 41.1-59 98.2-104.2 165-130.7l11-4.4-9.3-7.3c-52.6-41.1-82.8-102.4-82.8-168.3 0-118.1 96.7-214.1 215.6-214.1 118.9 0 215.6 96.1 215.6 214.1 0 65.9-30.2 127.3-82.8 168.3l-9.3 7.3 11 4.4c66.9 26.5 123.9 71.7 165 130.7 42.1 60.4 64.3 131.2 64.3 204.8l0 73.6c0 16.6-13.6 30-30.3 30L179.5 923.9 179.5 923.9zM513.1 518.9c-167.3 0-303.3 135.2-303.3 301.3l0 43.6 606.6 0 0-43.6C816.4 654.1 680.4 518.9 513.1 518.9L513.1 518.9zM513.1 150.7c-85.5 0-155 69.1-155 154.1 0 84.9 69.6 154.1 155 154.1 85.5 0 155-69.1 155-154.1C668.2 219.8 598.6 150.7 513.1 150.7L513.1 150.7zM31.3 813.4C14.6 813.4 1 800 1 783.4l0-57c0-108 59.7-205.9 155.7-255.3l7.9-4.1-6-6.5c-29.9-32.8-46.4-75.1-46.4-118.9 0-96.8 78.4-175.7 175.4-177.3-0.6 1-1.2 2-1.8 3-14.9 19.6-26.5 41.1-34.4 64.2-47.1 16.6-78.6 60.5-78.6 110.1 0 45.8 27.2 87.7 69.3 106.7l0.2 0.1 0.2 0.1c12.5 4.7 20.6 15.6 20.6 27.7 0 12.4-8.7 23.7-21.7 28.1l-6.9 1.6C132.6 531.5 61.6 622.1 61.6 726.4l0 26.9 35.4 0c-3.6 19.8-5.6 39.9-6 60.1L31.3 813.42 31.3 813.4zM934.9 813.4c-0.4-20.1-2.4-40.3-6-60.1l35.4 0 0-26.9c0-104.3-71.1-195-172.8-220.5l-7-1.7c-13-4.4-21.7-15.7-21.7-28.1 0-12.1 8.1-23 20.6-27.7l0.2-0.1 0.2-0.1c42.1-19 69.3-60.9 69.3-106.7 0-49.7-31.4-93.5-78.6-110.1-7.9-23.1-19.5-44.7-34.4-64.2-0.6-1-1.2-2-1.8-3 97 1.7 175.4 80.6 175.4 177.3 0 43.9-16.5 86.1-46.4 118.9l-6 6.5 7.9 4.1c96.1 49.4 155.7 147.2 155.7 255.3l0 57c0 16.58-13.6 30-30.3 30l-59.7 0L934.9 813.4z" fill="#272636" p-id="1721"></path></svg>