<svg xmlns="http://www.w3.org/2000/svg" viewBox="0 0 1027 1024" version="1.1"><path d="M5.6 898.5c5.7 18.4 104.5 48.9 238.9 50.5 96.3 1.1 208.8-14.5 241.1-47.8 0 0 3.7-12.1-16.1-22.2-29.2-12.2-98-36.1-140.6-48.7-3.7-1.1-4.2-1.4-4.2-16.4 0-12.5 5.1-25.1 10.1-35.7 5.5-11.5 11.9-31 14.2-48.4 6.6-7.5 15.3-22.4 21-50.5 4.9-24.8 2.6-33.9-0.7-42.4-0.4-0.9-0.7-1.8-0.9-2.6-1.4-5.9 0.4-36.1 4.6-59.7 3-16.1-0.7-50.4-22.9-78.8-14-17.9-40.8-39.9-89.8-43l-26.8 0.1c-48.2 3-75 25.1-89 43-22.2 28.4-25.9 62.7-22.9 78.8 4.3 23.5 5.9 53.8 4.7 59.5-0.2 1.1-0.5 1.9-0.9 2.8-3.2 8.5-5.5 17.6-0.7 42.4 5.7 28.2 14.5 43 21 50.5 2.3 17.4 8.8 36.9 14.2 48.4 4 8.4 5.8 20 5.8 36.3 0 15.2-0.6 15.3-4 16.4-44 13-114.2 38.4-140.3 49.9C21.2 880.6 1.8 885.9 5.6 898.5zM546.1 898.5c5.7 18.4 104.5 48.9 238.9 50.5 96.3 1.1 208.8-14.5 241.1-47.8 0 0 3.7-12.1-16.1-22.2-29.2-12.2-98-36.1-140.6-48.7-3.7-1.1-4.2-1.4-4.2-16.4 0-12.5 5.1-25.1 10.1-35.7 5.55-11.5 11.9-31 14.2-48.4 6.5-7.5 15.3-22.4 21-50.5 4.9-24.8 2.6-33.9-0.7-42.4-0.4-0.9-0.7-1.8-0.9-2.6-1.4-5.9 0.4-36.1 4.6-59.7 3-16.1-0.7-50.4-22.9-78.8-14-17.9-40.8-39.9-89.8-43l-26.85 0.1c-48.2 3-75 25.1-89 43-22.2 28.4-25.9 62.7-22.9 78.8 4.3 23.5 5.9 53.8 4.75 59.5-0.3 1.1-0.6 1.9-1 2.8-3.2 8.5-5.5 17.6-0.7 42.4 5.7 28.2 14.5 43 21 50.5 2.3 17.4 8.8 36.9 14.2 48.4 4 8.4 5.8 20 5.8 36.3 0 15.2-0.6 15.3-4 16.4-44 13-114.2 38.4-140.3 49.9C561.7 880.6 542.2 885.9 546.1 898.5zM775.6 281.7c2 6 1.6 12.7-1.4 18.6-2.8 5.6-7.8 10.1-14.1 12.2l-185.8 61.9c-12.2 4.1-26.5-3-30.6-15.3-4.2-12.6 2.6-26.4 15.3-30.7l130.4-43.5-29.5-14.7c-207.2-122.1-376.59-64-443.8 15.9 7.4-13.8 19.3-27.4 44.8-53 41.7-41.9 185.9-131.5 420.4-6.4l29.4 14.4-43-129.8c-4.3-12.8 2.6-26.5 15.2-30.7 12.3-4.1 26.6 32 30.7 15.3L775.6 281.7z" fill="#272636" p-id="1697"></path></svg>