<svg xmlns="http://www.w3.org/2000/svg" viewBox="0 0 1025 1024" version="1.1"><path d="M932.2 10.2l-826 0c-50.5 0-91.8 41.3-91.8 91.8l0 826c0 50.5 41.3 91.8 91.8 91.8l826 0c50.5 0 91.8-41.3 91.8-91.8l0-826C1024 51.5 982.7 10.2 932.2 10.2zM955.2 905c0 25.3-20.6 45.9-45.9 45.9L129.2 950.9c-25.2 0-45.9-20.6-45.9-45.9L83.3 125c0-25.2 20.6-45.9 45.9-45.9l780.1 0c25.3 0 45.9 20.6 45.9 45.9L955.2 905zM771.6 239.7c-39 0-68.8 29.8-68.8 68.8 0 20.6 9.2 39 22.9 50.5l0 64.2c0 114.7-91.8 206.5-206.5 206.5-114.7 0-206.5-91.8-206.5-206.5l0-64.2c13.8-11.5 22.9-29.8 22.9-50.5 0-39-29.8-68.8-68.8-68.8-39 0-68.8 29.8-68.8 68.8 0 29.8 18.4 55.1 45.9 64.22l0 50.5c0 151.4 123.9 275.3 275.3 275.3 151.4 0 275.3-123.9 275.3-275.3l0-50.5c27.5-9.2 45.9-34.4 45.9-64.22C840.4 269.5 810.6 239.7 771.6 239.7z" fill="#272636" p-id="1532"></path></svg>