<svg xmlns="http://www.w3.org/2000/svg" viewBox="0 0 1024 1024" version="1.1"><path d="M512 74.7c241.5 0 437.3 195.8 437.3 437.3S753.5 949.3 512 949.3a436.1 436.1 0 0 1-243-73.7 32 32 0 1 1 35.6-53.2A372.1 372.1 0 0 0 512 885.3c206.2 0 373.3-167.1 373.3-373.3S718.2 138.7 512 138.7 138.7 305.8 138.7 512a372.1 372.1 0 0 0 62.8 207.4 32 32 0 0 1-53.2 35.6A436.1 436.1 0 0 1 74.7 512C74.7 270.4 270.5 74.6 512 74.6z" fill="#111111" p-id="647"></path><path d="M694.3 419.1a32 32 0 0 1 43.2 47.2l-196.7 180.1a117.3 117.3 0 0 1-161.3-2.7l-83.1-81.4a32 32 0 1 1 44.8-45.7l83.1 81.4a53.3 53.3 0 0 0 73.3 1.2l196.7-180.1z" fill="#111111" p-id="648"></path></svg>