<svg xmlns="http://www.w3.org/2000/svg" viewBox="0 0 1024 1024" version="1.1"><path d="M810 1002.1H214c-105.9 0-192-86.1-192-192.1V214c0-105.9 86.1-192 192-192h596c105.9 0 192 86.1 192 192v596c0 105.9-86.1 192-192 192zM214 74.9c-76.1 0-139.1 62.9-139.1 139.1v596c0 76.1 62.9 139.1 139.1 139.1h596c76.1 0 139.1-62.9 139.1-139.1V214c0-76.1-62.9-139.1-139.1-139.1H214z" fill="#111111" p-id="1173"></path><path d="M445.8 803.4c-158.9 0-291.4-129.1-291.4-291.4 0-158.9 129.1-291.4 291.4-291.4 158.9 0 291.4 129.1 291.4 291.4 0 158.9-132.5 291.4-291.4 291.4z m0-529.8A237.4 237.4 0 0 0 207.4 512c0 132.4 109.3 238.4 238.4 238.4 132.5 0 238.4-109.3 238.4-238.4a237.4 237.4 0 0 0-238.4-238.4z" fill="#111111" p-id="1174"></path><path d="M445.8 604.7c-49.7 0-92.7-39.7-92.7-92.7s39.7-92.7 92.7-92.7 92.7 39.7 92.7 92.7-43 92.7-92.7 92.7z m0-132.4c-23.2 0-39.7 19.9-39.7 39.7s19.9 39.7 39.7 39.7 39.7-19.9 39.7-39.7-16.5-39.7-39.7-39.7z m397.4-132.5c-49.7 0-92.7-39.7-92.7-92.7s39.7-92.7 92.7-92.7 92.7 39.7 92.7 92.7-43 92.7-92.7 92.7z m0-132.4c-23.2 0-39.7 19.9-39.7 39.7s19.9 39.7 39.7 39.7 39.7-19.9 39.7-39.7-16.5-39.7-39.7-39.7z" fill="#111111" p-id="1175"></path><path d="M611.3 902.7c-13.2 0-23.2-9.9-23.2-19.9-3.3-13.3 6.6-26.5 19.9-29.8 119.2-16.5 211.9-122.5 211.9-245v-294.7c0-13.3 9.9-26.5 26.5-26.5 16.6 0 26.5 10 26.5 26.5v294.7c0 145.7-109.3 271.5-251.7 294.7-6.6-3.3-9.9 0-9.9 0z" fill="#111111" p-id="1176"></path></svg>