<svg xmlns="http://www.w3.org/2000/svg" viewBox="0 0 1024 1024" version="1.1"><path d="M862.3 117.3H161.7A108.4 108.4 0 0 0 53.3 225.7V819.6A108.4 108.4 0 0 0 161.7 928H862.3a108.4 108.4 0 0 0 108.4-108.4V225.7A108.4 108.4 0 0 0 862.3 117.3z m0 64c24.5 0 44.4 19.8 44.4 44.4V819.6c0 24.5-19.8 44.4-44.4 44.4H161.7A44.4 44.4 0 0 1 117.3 819.6V225.7C117.3 201.2 137.2 181.3 161.7 181.3H862.3z" fill="#111111" p-id="621"></path><path d="M938.7 362.7v64H85.3v-64zM619.1 640l154 2.1a32 32 0 1 1-0.9 64l-154-2.1a32 32 0 0 1 0.9-64z" fill="#111111" p-id="622"></path></svg>