<svg xmlns="http://www.w3.org/2000/svg" viewBox="0 0 1024 1024" version="1.1"><path d="M1021.7 385.1c-1.6-14.4-13.7-25.6-28.5-25.6-14.8 0-27 11.2-28.5 25.6l-0.2 0 0 498.5c0 45.8-37.2 83-83 83L144.3 966.6c-45.7 0-83-37.2-83-83L61.3 140.4c0-45.8 37.2-83 83-83l494.9 0 0-0c15.5-0.4 27.9-13.1 27.9-28.7s-12.4-28.3-27.9-28.7L639.2 0 144.3 0C66.9 0 3.9 63 3.9 140.4l0 743.2c0 77.4 63 140.4 140.4 140.4l737.2 0c77.4 0 140.4-63 140.4-140.4l0-498.5L1021.7 385.1z" fill="#272636" p-id="1815"></path><path d="M282 685.9l-0.1 0.5c-2.4 10-4.4 28.6 8.5 41.5 8 8 18.2 10.2 27.2 10.2 5.5 0 10.5-0.8 14.3-1.7l156.9-41.4L988.7 195c17.5-17.5 27.1-40.7 27.1-65.4 0-24.7-9.6-48-27.1-65.4l-34.6-34.6c-36.1-36.1-94.8-36.1-130.9-0L323.2 529.6 282 685.9zM369.3 576.8l72.2 72.2-97.2 24.9L369.3 576.8zM403.9 530.1l390.8-390.8 84.2 84.2L488.1 614.4 403.9 530.1zM913.5 70.2l34.6 34.6c13.7 13.7 13.7 36 0 49.6l-28.6 28.6-84.2-84.2 28.6-28.6C877.5 56.5 899.8 56.5 913.5 70.2z" fill="#272636" p-id="1816"></path></svg>