<svg xmlns="http://www.w3.org/2000/svg" viewBox="0 0 1024 1024" version="1.1"><path d="M657.7 938.9 175.1 938.9c-61.4 0-111.4-50-111.4-111.4L63.8 196.5c0-61.4 50-111.4 111.4-111.4l482.6 0c61.4 0 111.4 50 111.4 111.4l0 201.6c0 20.5-16.6 37.1-37.1 37.1-20.5 0-37.1-16.6-37.1-37.1L694.8 196.5c0-20.5-16.6-37.1-37.1-37.1L175.1 159.4c-20.5 0-37.1 16.7-37.1 37.1l0 631.1c0 20.5 16.7 37.1 37.1 37.1l482.6 0c20.5 0 37.1-16.6 37.1-37.1l0-71.6c0-20.5 16.6-37.1 37.1-37.1 20.5 0 37.1 16.6 37.1 37.1l0 71.6C769.1 888.9 719.1 938.9 657.7 938.9z" fill="#272636" p-id="1003"></path><path d="M881.5 341.3 619 603.7 600.5 709.8 701 679.2 960.2 420Z" fill="#272636" p-id="1004"></path><path d="M249.4 734.7c-3.1 0-6.2-0.8-9.1-2.4-8.9-5-12.1-16.3-7.1-25.3 79.5-140.9 110.2-136 120.5-134.4 7.5 1.2 20.7 6.4 25.2 28.4 3.9 18.9 5 38 5.9 53.3 0.2 3.3 0.4 7.1 0.7 10.7l13.4-14.7c27.6-30.6 44.4-48.9 65.5-43.9 18.2 4.2 23.7 24 25.6 30.4 3 10.8 3.1 21 2.1 29.5 2.8-1.2 5.9-2.6 9.5-4.2 9.3-4.3 20.3-0.1 24.6 9.2 4.2 9.3 0.1 20.3-9.2 24.6-29.5 13.4-45.5 20-58.2 9.6-11.1-9.1-8-22.5-5.9-31.5 1.9-8.2 4.1-17.4 1.4-27.2-0-0.1-0.1-0.3-0.1-0.4-7.3 6.2-18.4 18.5-27.7 28.8l-14.9 16.3c-7.9 8.6-24.3 26.4-42.7 19.7-18.2-6.5-19.4-26.8-21-54.8-0.8-13.2-1.6-27.9-4.2-42.5-17.1 15-49.8 61.1-78 111.3C262.1 731.3 255.8 734.7 249.4 734.7z" fill="#272636" p-id="1005"></path><path d="M212.3 307.8l408.3 0 0 37.1-408.3 0 0-37.1Z" fill="#272636" p-id="1006"></path><path d="M212.3 382.1l408.3 0 0 37.1-408.3 0 0-37.1Z" fill="#272636" p-id="1007"></path><path d="M212.3 456.3l334.1 0 0 37.1-334.1 0 0-37.1Z" fill="#272636" p-id="1008"></path></svg>