<svg xmlns="http://www.w3.org/2000/svg" viewBox="0 0 1030 1024" version="1.1"><path d="M672 823.6l-4.3 0L667.8 662.9c-37.3-6.2-71.5-23.4-98.4-50.1-35.5-35.3-54.4-83-53.4-134.1 0.5-25.5 6-50.2 16-73.4l-127.4-130.7L142.8 543.1l0 280.5-5.7 0c-24.2 0-43.8 19.7-43.8 44l0 2.3 622.7 0 0-2.3C715.9 843.3 696.3 823.6 672 823.6zM517.6 798.1 293.9 798.1 293.9 571l223.7 0 0 227.1L517.6 798.1zM404.6 248.5l136 139.5c8.9-16.2 20.3-31.3 33.7-44.7 9.5-9.5 19.7-18 30.4-25.3L404.7 112.6 0.8 526.8l132.4 0L404.6 248.5zM1019.9 705l-85.7-85.2c-10-10-25-11.8-36.7-5.4l-54.4-54.1c42.7-64.9 37.2-150.9-17.5-205.42-63-62.5-167.3-59.8-233 6.4-65.7 66.2-67.9 170.5-4.8 233.1 55.9 55.6 144.5 59.4 209.6 13.3l55.3 54.8c-3.6 10.7-1 23.1 7.6 31.7l85.7 85.1c12.2 12.1 32 12.1 44.2-0.3l30.1-30.2C1032.2 736.7 1032.1 717 1019.9 705zM787.4 555c-47.4 47.7-122.3 50.5-166.8 6.2-44.5-44.3-42.3-119.1 5.1-166.8 47.3-47.8 122.2-50.6 166.8-6.2C837.1 432.5 834.8 507.4 787.4 555z" fill="#272636" p-id="1102"></path></svg>