<svg xmlns="http://www.w3.org/2000/svg" viewBox="0 0 1030 1024" version="1.1"><path d="M189.3 231.7l146.1 0 0 109.5L189.3 341.3 189.3 231.7zM408.4 231.7l146 0 0 109.5L408.4 341.3 408.4 231.7 408.4 231.7zM189.3 414.3l146.1 0 0 109.5L189.3 523.8 189.3 414.3zM408.4 414.3l146 0 0 109.5L408.4 523.8 408.4 414.3 408.4 414.3zM773.5 414.3l73 0 0 109.5-73 0L773.5 414.3zM773.5 596.9l73 0 0 109.5-73 0L773.5 596.9zM189.3 596.9l146.1 0 0 109.5L189.3 706.4 189.3 596.9zM408.4 596.9l146 0 0 109.5L408.4 706.4 408.4 596.9 408.4 596.9zM992.6 925.5 992.6 268.3 700.5 268.3 700.5 49.2 43.3 49.2l0 876.3L6.8 925.5l0 73 1022.4 0 0-73L992.6 925.5zM116.3 925.5 116.3 122.2l511.2 0 0 803.3L116.3 925.5zM700.5 925.5 700.5 341.3l219.1 0 0 584.2L700.5 925.5z" fill="#272636" p-id="1113"></path></svg>