<svg xmlns="http://www.w3.org/2000/svg" viewBox="0 0 1027 1024" version="1.1"><path d="M707.9 969.5c16.6-5.3 32.6-11.6 48-18.9-7-2.4-13.9-5.3-20.6-8.6L707.9 969.5zM975.8 714c3-6.9 5.8-13.9 8.6-20.9l-12.4 12.4C973.3 708.4 974.5 711.2 975.8 714zM620.5 223.2l-108.6 0 0 327.9 104 104.7 72.6-72.6-68.1-68.5L620.5 223.2zM584.3 41c-380.1 0-434.4 364.4-434.4 364.4L5.1 405.3l217.2 218.6 217.2-218.6L258.5 405.3c0 0 63.4-255.1 325.8-255.1 256.4 0 326.9 255.1 325.8 364.4-0.3 33.9-8.9 70.9-23.8 107.9 1.6 0.8 3.3 1.5 4.9 2.3l44.3-44.3 64.7 64.7c12.3-43.8 18.6-88.2 18.6-130.7C1018.7 335.5 898.1 41 584.3 41zM647.7 868.4c-21 6.9-42.2 10.7-63.4 10.7-122.9-4.6-217.2-109.3-217.2-109.3l-108.6 109.3c0 0 128.2 109.3 325.8 109.3 34.3 0 66.8-4 97.4-11.4l-71.2-71.3L647.7 868.4zM1025.9 823.3l0-79.7-58.2 0c-3.8-14.6-9.6-28.4-17.1-41.1l41.2-41.2-56.4-56.4-41.2 41.2c-12.7-7.5-26.5-13.3-41.1-17.1l0-58.2-79.7 0 0 58.2c-14.6 3.8-28.4 9.6-41.1 17.1l-41.2-41.2-56.4 56.4 41.2 41.2c-7.5 12.7-13.3 26.5-17.1 41.1l-58.2 0 0 79.7 58.2 0c3.8 14.65 9.6 28.4 17.1 41.1l-41.2 41.2 56.4 56.4 41.2-41.2c12.7 7.5 26.5 13.3 41.1 17.1l0 58.2 79.7 0 0-58.2c14.6-3.8 28.4-9.6 41.1-17.1l41.2 41.2 56.4-56.4-41.2-41.2c7.5-12.7 13.3-26.5 17.1-41.1L1025.9 823.3zM813.3 889.8c-58.7 0-106.3-47.6-106.3-106.3 0-58.7 47.6-106.3 106.3-106.3 58.7 0 106.3 47.6 106.3 106.3C919.6 842.2 872 889.8 813.3 889.8z" fill="#272636" p-id="1124"></path></svg>