<svg xmlns="http://www.w3.org/2000/svg" viewBox="0 0 1024 1024" version="1.1"><path d="M722.4 253.6l49.3-49.3 49.3 49.3 63.4 63.4L884.5 204.2l69.8 0 0 182.5L1024 456.5l-49.3 49.3L771.7 302.9l-202.9 202.9L2.1 505.8l150.8-150.8 468 0L722.4 253.6 722.4 253.6zM904.9 610.5l0-69.8L638.5 540.7l0 69.8L904.9 610.5 904.9 610.5zM71.9 610.5l0-69.8 496.9 0 0 69.8L71.9 610.5 71.9 610.5zM71.9 645.4l0 69.8 496.9 0L568.8 645.4 71.9 645.4 71.9 645.4zM37 819.8l0-69.8L974.7 750l0 69.8L37 819.8 37 819.8z" fill="#272636" p-id="1853"></path></svg>