<svg xmlns="http://www.w3.org/2000/svg" viewBox="0 0 1024 1024" version="1.1"><path d="M881.2 173.8 774.9 173.8c-11.6 0-20.9 9.4-20.9 20.9 0 11.5 9.4 20.9 20.9 20.9l106.3 0 0 703.2L143.4 918.8 143.4 215.6l108 0c11.6 0 20.9-9.4 20.9-20.9 0-11.5-9.4-20.9-20.9-20.9L143.4 173.824c-23.1 0-41.8 18.8-41.8 41.8l0 703.2c0 23.1 18.8 41.8 41.8 41.8l737.8 0c23.1 0 41.8-18.8 41.8-41.8L923 215.6C923 192.6 904.3 173.8 881.2 173.8z" fill="#272636" p-id="977"></path><path d="M346.3 216.9 678.3 216.9c11.6 0 20.9-9.4 20.9-20.9 0-11.5-9.4-20.9-20.9-20.9l-64.1 0c0.3-2.8 0.7-5.6 0.7-8.5 0-56.6-46-102.6-102.6-102.6-56.6 0-102.6 46-102.6 102.6 0 2.9 0.4 5.7 0.7 8.5l-64.1 0c-11.6 0-20.9 9.4-20.9 20.9C325.4 207.6 334.8 216.9 346.3 216.9zM451.6 166.6c0-33.5 27.3-60.8 60.8-60.8 33.5 0 60.8 27.3 60.8 60.8 0 2.9-0.7 5.7-1.1 8.5L452.7 175.1C452.2 172.3 451.6 169.6 451.6 166.6z" fill="#272636" p-id="978"></path><path d="M302.1 421.5l420.4 0c11.6 0 20.9-9.4 20.9-20.9s-9.4-20.9-20.9-20.9L302.124 379.7c-11.6 0-20.9 9.4-20.9 20.9S290.5 421.5 302.1 421.5z" fill="#272636" p-id="979"></path><path d="M302.1 601.2l420.4 0c11.6 0 20.9-9.4 20.9-20.9s-9.4-20.9-20.9-20.9L302.124 559.4c-11.6 0-20.9 9.4-20.9 20.9S290.5 601.2 302.1 601.2z" fill="#272636" p-id="980"></path><path d="M302.1 780.9l420.4 0c11.6 0 20.9-9.4 20.9-20.9 0-11.6-9.4-20.9-20.9-20.9L302.124 739.1c-11.6 0-20.9 9.4-20.9 20.9C281.2 771.5 290.5 780.9 302.1 780.9z" fill="#272636" p-id="981"></path></svg>