<svg xmlns="http://www.w3.org/2000/svg" viewBox="0 0 1024 1024" version="1.1"><path d="M818.5 65 205.5 65c-33 0-59.7 26.7-59.7 59.7l0 774.7c0 33 26.7 59.7 59.7 59.7l613 0c33 0 59.7-26.7 59.7-59.7l0-774.7C878.2 91.7 851.5 65 818.5 65zM837.4 895.2c0 11-8.9 19.9-19.9 19.9L205 915.1c-11 0-19.9-8.9-19.9-19.9L185.1 127.2c0-11 8.9-19.9 19.9-19.9l612.5 0c11 0 19.9 8.9 19.9 19.9L837.4 895.2z" fill="#272636" p-id="960"></path><path d="M466.8 641.2 433.6 574 400.4 641.2 326.3 652 379.9 704.3 367.3 778.3 433.6 743.3 500 778.3 487.3 704.3 541 652Z" fill="#272636" p-id="961"></path><path d="M313.8 178.6l398.1 0 0 41.5-398.1 0 0-41.5Z" fill="#272636" p-id="962"></path><path d="M313.8 279.8l398.1 0 0 41.5-398.1 0 0-41.5Z" fill="#272636" p-id="963"></path><path d="M313.8 378.6l398.1 0 0 41.5-398.1 0 0-41.5Z" fill="#272636" p-id="964"></path><path d="M546.2 492.6c27.4 15.3 32.3 26.1 32.3 26.1l133.3 0 0-41.4L502.1 477.3C502.1 477.3 518.9 477.3 546.2 492.6z" fill="#272636" p-id="965"></path><path d="M431.8 498c-101.5 0-183.8 82.3-183.8 183.8 0 101.5 82.3 183.8 183.8 183.8 101.5 0 183.8-82.3 183.8-183.8C615.6 580.3 533.3 498 431.8 498zM431.8 840.8c-87.8 0-158.9-71.2-158.9-158.9 0-87.8 71.2-158.9 158.9-158.9 87.8 0 158.9 71.1 158.9 158.9C590.7 769.6 519.5 840.8 431.8 840.8z" fill="#272636" p-id="966"></path></svg>