<svg xmlns="http://www.w3.org/2000/svg" viewBox="0 0 1025 1024" version="1.1"><path d="M60.9 1024c-33.6 0-60.9-27.3-60.9-60.9L0 189.8c0-33.6 27.3-60.9 60.9-60.9l353 0 255.7 255.7 0 578.5c0 33.6-27.3 60.9-60.9 60.9L60.9 1024 60.9 1024zM57.3 966.7l554.9 0L612.2 444 354.5 444 354.5 186.2 57.3 186.2 57.3 966.7zM411.8 386.7l178.8 0L411.8 207.8 411.8 386.7zM741.1 895.1l0-57.3 225.6 0L966.7 315.1 708.9 315.1 708.9 57.3 354.6 57.3C356.4 25.4 383 0 415.3 0l353 0 255.7 255.7 0 578.6c0 33.6-27.3 60.9-60.9 60.9L741.1 895.1zM766.2 257.8l178.8 0L766.2 78.9 766.2 257.8z" fill="#272636" p-id="1289"></path></svg>