<svg xmlns="http://www.w3.org/2000/svg" viewBox="0 0 1025 1024" version="1.1"><path d="M549.1 64.8c0-11.5 0-27.7 0-40.6C549.1 1.8 525 0 525 0l-98.3 0 0 64.8L68 64.8l0 73.6 886 0L954 64.8 549.1 64.8z" fill="#272636" p-id="1827"></path><path d="M437.4 227.4c0-33.7-33.7-33.7-33.7-33.7l-80.3 0-0.2 64.6c0 0-180 0-218.7 0-38.6 0-36.7 48.6-36.7 48.6s0 653.9 0 685.6c0 31.7 25.8 30.7 25.8 30.7l76.3 0c0 0 0-648 0-677.7 0-29.7 30.7-30.7 30.7-30.7l236.6 0C437.4 314.7 437.4 261.1 437.4 227.4z" fill="#272636" p-id="1828"></path><path d="M698 431.1c0 0-330.8 0-370 0-39.2 0-37.9 37.9-37.9 37.9s-0.7 423.4-0.7 452.8c0 29.4 28.1 28.1 28.1 28.1l286.8 0 126.3-269.1c0 0 0-188.3 0-220.8C730.7 427.6 698 431.1 698 431.1zM638 673.8 512.4 899.8l-99.9 0c0 0-19.5-3.7-19.5-24.3s0-367.3 0-367.3 1.2-26.8 26.8-26.8l199.1 0c0 0 19.2-3.6 19.2 19.2C638 523.3 638 673.8 638 673.8z" fill="#272636" p-id="1829"></path><path d="M670.5 358.1l0-97.2c0 0 1.2-36.8 31.6-36.8 30.5 0 103.5 0 103.5 0l0-30.5L614.2 193.6c0 0-32.8-4.7-32.8 32.8 0 37.5 0 90.7 0 90.7s0 41 29.3 41C640 358.1 670.5 358.1 670.5 358.1z" fill="#272636" p-id="1830"></path><path d="M911.1 267.3c-43.9 0-218.5 0-218.5 0l0 11 0 38.8 124.2 0c0 0 29.3-2.4 29.3 26.9 0 29.3 0 644.4 0 644.4s-3.5 10.5-16.4 12.9c-12.9 2.3 0 22.3 0 22.3l93.7 0c0 0 30.5-3.56 30.5-45.7 0-42.2 0-667.8 0-667.8S955 267.3 911.1 267.3z" fill="#272636" p-id="1831"></path></svg>