<svg xmlns="http://www.w3.org/2000/svg" viewBox="0 0 1026 1024" version="1.1"><path d="M1001.2 573c-6.2 0-12.5-2.4-17.2-7.1L513.3 95.2 42.6 565.8c-9.5 9.5-25 9.5-34.5 0-9.5-9.5-9.5-25 0-34.5L496.1 43.4c9.5-9.5 25-9.5 34.5 0l487.9 487.9c9.5 9.5 9.5 25 0 34.5C1013.7 570.6 1007.5 573 1001.2 573z" fill="#272636" p-id="1732"></path><path d="M806 987.7 635.3 987.7c-13.5 0-24.4-10.9-24.4-24.4 0-13.5 10.9-24.4 24.4-24.4l170.8 0c26.9 0 48.8-21.9 48.8-48.8L854.8 621.8c0-13.5 10.9-24.4 24.4-24.4 13.5 0 24.4 10.9 24.4 24.4l0 268.3C903.6 943.9 859.9 987.7 806 987.7zM391.3 987.7 220.6 987.7c-53.8 0-97.6-43.8-97.6-97.6l0-463.5c0-13.5 10.9-24.4 24.4-24.4s24.4 10.9 24.4 24.4l0 463.5c0 26.9 21.9 48.8 48.8 48.8l146.4 0L366.9 719.4c0-13.5 10.9-24.4 24.4-24.4L635.3 695c13.5 0 24.4 10.9 24.4 24.4 0 13.5-10.9 24.4-24.4 24.4L415.7 743.8 415.7 963.3C415.7 976.8 404.8 987.7 391.3 987.7z" fill="#272636" p-id="1733"></path></svg>