<svg xmlns="http://www.w3.org/2000/svg" viewBox="0 0 1024 1024" version="1.1"><path d="M512 74.7c241.5 0 437.3 195.8 437.3 437.3S753.5 949.3 512 949.3a436.1 436.1 0 0 1-243-73.7 32 32 0 1 1 35.6-53.2A372.1 372.1 0 0 0 512 885.3c206.2 0 373.3-167.1 373.3-373.3S718.2 138.7 512 138.7 138.7 305.8 138.7 512a372.1 372.1 0 0 0 62.8 207.4 32 32 0 0 1-53.2 35.6A436.1 436.1 0 0 1 74.7 512C74.7 270.4 270.5 74.6 512 74.6z" fill="#111111" p-id="695"></path><path d="M360.3 319.8a32 32 0 0 1 45.2-2.2l95.9 87.1 95.7-87.1a32 32 0 0 1 42.9-0.2l2.3 2.3a32 32 0 0 1-2.1 45.2l-117.2 106.7a32 32 0 0 1-43.1 0l-117.5-106.7a32 32 0 0 1-2.2-45.2z" fill="#111111" p-id="696"></path><path d="M640 448a32 32 0 0 1 0 64H341.3a32 32 0 0 1 0-64h298.7zM640 554.7a32 32 0 0 1 0 64H341.3a32 32 0 0 1 0-64h298.7z" fill="#111111" p-id="697"></path><path d="M496.4 416a32 32 0 0 1 32.9 31.1l8 277.3a32 32 0 0 1-64 1.8l-8-277.3a32 32 0 0 1 31.1-32.9z" fill="#111111" p-id="698"></path></svg>