<svg xmlns="http://www.w3.org/2000/svg" viewBox="0 0 1024 1024" version="1.1"><path d="M1008.7 405.4l-58.3 57-159.7-158.4 58.3-57c17.7-17.7 45.6-20.3 60.8-5.1l105.2 102.7C1029 359.8 1026.4 387.7 1008.7 405.4L1008.7 405.4 1008.7 405.4 1008.7 405.4 1008.7 405.4zM762.8 330.7l161 157.2L541 865.5c-1.3 1.3-6.4 6.3-13.9 7.6-1.3 0-1.3 0-2.5 1.3l-200.3 62.1c-5.1 1.3-11.4 1.3-15.2-2.5-3.8-3.8-5.1-8.9-2.5-15.2l63.4-196.5c0-1.2 0-1.2 1.3-2.5 1.3-6.4 6.3-13.9 8.8-15.2l73.5-67.2L210.2 637.4c-10.2 0-19-11.4-19-20.3 0-10.2 8.9-21.6 19-21.6l281.4 0L762.8 330.7 762.8 330.7zM491.5 852.9l-98.9-97.6-26.6 82.4 41.8 41.8L491.5 852.9 491.5 852.9zM757.7 392.8c-5.1-5.1-15.2-5.1-20.3 0L437 686.8c-6.3 5.1-6.3 15.2 0 20.3 5.1 5.1 15.2 5.1 20.3 0l299.1-294.1C762.8 408 762.8 399.1 757.7 392.8L757.7 392.8 757.7 392.8 757.7 392.8 757.7 392.8zM89.7 967c-10.1 0-20.3-3.8-20.3-13.9L69.5 151.9c-1.3-19 11.4-15.2 25.3-15.2l69.7 0 0 26.6c0 10.1 11.4 19 22.8 19 10.2 0 22.8-8.9 22.8-19l0-26.6 103.9 0 0 26.6c0 10.1 11.4 19 22.8 19 10.2 0 22.8-8.9 22.8-19l0-26.6 95.1 0 0 26.6c0 10.1 11.4 19 22.8 19 10.2 0 22.8-8.9 22.8-19l0-26.6 95.1 0 0 26.6c0 10.1 11.4 19 22.8 19 10.1 0 22.8-8.9 22.8-19l0-26.6 79.8 0c10.1 0 16.5 5.1 16.5 15.2l0 131.8 58.3-57 0-74.8c0-41.8-31.7-72.2-74.8-72.2l-81.1 0L639.9 30.2c0-10.2-11.4-19-22.8-19-10.1 0-22.8 8.9-22.8 19l0 49.4-95.1 0L499.2 30.2c0-10.2-11.4-19-22.8-19-10.1 0-22.8 8.9-22.8 19l0 49.4-95.1 0L358.5 30.2c0-10.2-11.4-19-22.8-19-10.2 0-22.8 8.9-22.8 19l0 49.4L208.9 79.7 208.9 30.2c0-10.2-11.4-19-22.8-19-10.1 0-22.8 8.9-22.8 19l0 49.4L94.8 79.7c-57 0-84.9 30.4-84.9 72.2l0 799.8c0 41.8 38 72.2 81.1 72.2l628.7 0c43.1 0 74.8-30.4 74.8-72.2L794.5 675.4l-58.3 57 0 220.5c0 10.2-6.3 14-16.5 14M587.9 296.4 208.9 296.4c-10.1 0-17.7 12.7-17.7 21.5 0 10.1 7.6 21.5 17.7 21.5l379 0c10.2 0 17.7-12.7 17.7-21.5C605.6 309.1 598 296.4 587.9 296.4L587.9 296.4 587.9 296.4 587.9 296.4 587.9 296.4zM587.9 442.2 208.9 442.2c-10.1 0-17.7 12.7-17.7 21.5 0 10.1 7.6 21.5 17.7 21.5l379 0c10.2 0 17.7-12.7 17.7-21.5C605.6 454.9 598 442.2 587.9 442.2L587.9 442.2 587.9 442.2 587.9 442.2 587.9 442.2z" fill="#272636" p-id="1576"></path></svg>