<svg xmlns="http://www.w3.org/2000/svg" viewBox="0 0 1024 1024" version="1.1"><path d="M753.8 74.7a162.5 162.5 0 0 1 162.5 162.5v553.2a32 32 0 1 1-64 0V237.1A98.5 98.5 0 0 0 753.8 138.7H270.2a98.5 98.5 0 0 0-98.5 98.5v553.2a32 32 0 0 1-64 0V237.1A162.5 162.5 0 0 1 270.2 74.7h483.5z" fill="#111111" p-id="633"></path><path d="M970.8 724.4a32 32 0 0 1 21.1 60.4l-466.5 162.8a32 32 0 0 1-21 0l-472.2-162.8a32 32 0 0 1 20.9-60.5l461.7 159.1 456-159.1zM618.8 243.6a32 32 0 1 1 45.3 45.2l-152.4 152.9-152.8-152.9a32 32 0 0 1 45.3-45.2l107.5 107.5 107.1-107.5z" fill="#111111" p-id="634"></path><path d="M683.8 396.4a32 32 0 1 1 0 64h-343.7a32 32 0 1 1 0-64h343.7zM683.8 526.6a32 32 0 1 1 0 64h-343.7a32 32 0 1 1 0-64h343.7z" fill="#111111" p-id="635"></path><path d="M511.3 353.8a32 32 0 0 1 32.7 31.3l8 357.2a32 32 0 0 1-64 1.4l-8-357.2a32 32 0 0 1 31.3-32.7z" fill="#111111" p-id="636"></path></svg>