<svg xmlns="http://www.w3.org/2000/svg" viewBox="0 0 1024 1024" version="1.1"><path d="M771.1 205.7c-1.4 0-2.8 0.1-4.1 0.3L255.4 206c-1.3-0.2-2.7-0.3-4.1-0.3-15.9 0-28.7 12.9-28.7 28.75s12.9 28.7 28.7 28.7l0 0.3 519.8 0 0-0.3c15.9 0 28.7-12.9 28.7-28.7S786.9 205.7 771.1 205.7zM771.1 429c-1.4 0-2.8 0.1-4.1 0.3L255.4 429.3c-1.3-0.2-2.7-0.3-4.1-0.3-15.9 0-28.7 12.9-28.7 28.7 0 15.9 12.9 28.7 28.7 28.7l0 0.3 519.8 0 0-0.3c15.9 0 28.7-12.9 28.7-28.7C799.8 441.9 786.9 429 771.1 429zM498.2 646c-1.4 0-2.8 0.1-4.1 0.3L254.8 646.3c-1.3-0.2-2.7-0.3-4.1-0.3-15.9 0-28.7 12.9-28.7 28.7 0 15.9 12.9 28.75 28.7 28.75l0 0.3 247.6 0 0-0.3c15.9 0 28.7-12.95 28.7-28.75C526.9 658.9 514.1 646 498.2 646zM944.3 92.9c0-44.6-36.2-80.8-80.8-80.8L159.3 12.1c-44.6 0-80.8 36.3-80.8 80.8l0 845.2c0 44.5 36.3 80.8 80.8 80.8l464.2 0c7.7 0.3 15.6-2.4 21.5-8.3l0.2 0.2 290.6-290.6-0.2-0.2c5.6-5.6 8.4-12.9 8.4-20.2l0.3 0L944.3 351l0.1 0 0-57.4-0.1 0L944.3 92.9zM624.9 949.8 624.9 711.9l237.9 0L624.9 949.8zM888.2 655.63c-2.2-0.5-4.5-0.8-6.9-0.8l0-0.3L595.8 654.4c-15.9 0-28.7 12.95-28.7 28.75 0 0 0 0.1 0 0.1 0 0.1-0 0.1-0 0.2 0 1.4 0.1 2.8 0.3 4.1l0 274L147.3 961.6c-6.4 0-11.5-5.2-11.5-11.5L135.8 80.9c0-6.4 5.2-11.52 11.5-11.52l729.3 0c6.4 0 11.5 5.2 11.5 11.52" fill="#272636" p-id="1388"></path></svg>