<svg xmlns="http://www.w3.org/2000/svg" viewBox="0 0 1024 1024" version="1.1"><path d="M930.9 204.7 534.9 204.7c-24 0-43.8-18.2-46.3-41.6-0.1-1.1-0.1-2.2-0.2-3.3-0-0.5-0-1.1-0-1.6l0 0.2-0.1 0c-4.7-47-44.4-83.8-92.6-83.8L93.1 74.6c-51.4 0-93.1 41.7-93.1 93.1l0 688.7c0 51.4 41.7 93.1 93.1 93.1l837.8 0c51.4 0 93.1-41.7 93.1-93.1L1024 297.8C1024 246.4 982.3 204.7 930.9 204.7zM977.5 856.3c0 25.7-20.8 46.5-46.5 46.5L93.1 902.9c-25.7 0-46.5-20.8-46.5-46.5L46.5 344.4l930.9 0L977.5 856.3zM46.5 297.8 46.5 167.7c0-25.7 20.8-46.5 46.5-46.5l302.5 0c24.1 0 43.8 18.2 46.3 41.6 0.1 1.1 0.1 2.2 0.2 3.3 0 0.5 0 1.1 0 1.6l0.1 0c4.8 47 44.4 83.6 92.6 83.6l396 0c25.7 0 46.5 20.8 46.5 46.5L46.5 297.8 46.5 297.8z" fill="#272636" p-id="1366"></path></svg>