<svg xmlns="http://www.w3.org/2000/svg" viewBox="0 0 1025 1024" version="1.1"><path d="M961.8 446.3 961.8 446.3 202.1 446.3c-28.2 0-52.1 18.4-60.3 43.9l0 0L75.5 694.5 75.5 129.8l0 0 316.5 0 0 0 0.1 0c0 69.9 56.6 126.6 126.65 126.6l0 0 316.5 0 0 126.62 63.3 0L898.4 256.4c0-34.9-28.4-63.37-63.3-63.37L518.6 193.1c-34.9 0-63.35-28.45-63.35-63.32l0 0c0-34.9-28.3-63.37-63.35-63.37l0 0L75.5 66.6c-34.9 0-63.35 28.47-63.35 63.37l0 759.6c0 34.9 28.47 63.3 63.35 63.3l759.6 0c28.2 0 52.1-18.4 60.3-43.9l0.1 0 129.5-399.1C1024.9 474.7 996.7 446.4 961.8 446.3zM838.4 889.4 75.5 889.4l123.3-379.8 762.9 0L838.4 889.4z" fill="#272636" p-id="1377"></path></svg>