<svg xmlns="http://www.w3.org/2000/svg" viewBox="0 0 1024 1024" version="1.1"><path d="M745.1 1023.7c-148.4 0-268.7-120.2-268.7-268.6 0-148.3 120.3-268.6 268.7-268.6 148.4 0 268.7 120.27 268.7 268.6C1013.8 903.4 893.5 1023.7 745.1 1023.7zM745.2 537.6c-120.2 0-217.6 97.4-217.6 217.6s97.4 217.6 217.6 217.6 217.6-97.4 217.6-217.6S865.4 537.6 745.2 537.6zM854.4 843.6l-132.3-51.8c-0.1-0-0.1-0.1-0.2-0.1-1.4-0.6-2.5-1.7-3.8-2.5-1.4-0.9-3-1.6-4.1-2.7-3.1-3.15-4.9-7.1-6-11.4-0.6-2.1-1.2-4.2-1.2-6.3l0-129.7c0-13.6 11-24.6 24.6-24.6l2 0c13.6 0 24.6 11 24.6 24.6l0 113.2 112.5 44c12.2 4.8 18.5 19.2 14 32.3C880 841.6 866.6 848.3 854.4 843.6zM783.6 178.9c0-28.3-22.9-51.2-51.2-51.2l-51.2 0L681.28 76.8l51.2 0c56.5 0 102.4 45.9 102.4 102.4l0 269c-16.6-4.8-33.7-8.3-51.2-10.4L783.6 178.9zM631 204.8l-2 0c-13.6 0-24.6-11-24.6-24.6L604.4 24.6c0-13.65 11-24.6 24.6-24.6l2 0c13.6 0 24.6 11 24.6 24.6l0 155.6C655.6 193.8 644.6 204.8 631 204.8zM271.6 76.8l307.2 0 0 50.9L271.6 127.7 271.6 76.8zM221.4 204.8l-2 0c-13.65 0-24.6-11-24.6-24.6L194.8 24.6C194.8 11 205.8 0 219.4 0l2 0c13.65 0 24.6 11 24.6 24.6l0 155.6C246 193.8 235 204.8 221.4 204.8zM220.4 357l0 2.8c0 13.4-10.8 24.2-24.2 24.2l-2.8 0c-13.4 0-24.2-10.8-24.2-24.2l0-2.8c0-13.4 10.8-24.2 24.2-24.2l2.8 0C209.6 332.8 220.4 343.6 220.4 357zM196.2 537.6l-2.8 0c-13.4 0-24.2-10.8-24.2-24.2l0-2.8c0-13.4 10.8-24.2 24.2-24.2l2.8 0c13.4 0 24.2 10.8 24.2 24.2l0 2.8C220.4 526.8 209.6 537.6 196.2 537.6zM220.4 667c0 13.4-10.8 24.2-24.2 24.2l-2.8 0c-13.4 0-24.2-10.8-24.2-24.2l0-2.8c0-13.4 10.8-24.2 24.2-24.2l2.8 0c13.4 0 24.2 10.8 24.2 24.2L220.4 667zM296.2 640l150.7 0c-6.4 16.5-11.7 33.5-15.3 51.2L296.2 691.2c-13.65 0-24.6-11-24.6-24.6l0-2C271.6 651 282.6 640 296.2 640zM271.6 360l0-3.2c0-13.3 10.8-24 24-24l387.2 0c13.2 0 24 10.8 24 24l0 3.2c0 13.2-10.8 24-24 24L295.6 384C282.3 384 271.6 373.2 271.6 360zM296.2 537.6c-13.65 0-24.6-11-24.6-24.6l0-2c0-13.65 11-24.6 24.6-24.6l275.8 0c-22.4 14.5-42.8 31.7-60.9 51.2L296.2 537.6zM66.8 178.9l0 665.6c0 28.3 22.92 51.2 51.2 51.2l340 0c8.9 18.2 19.5 35.4 31.6 51.5L118 947.2c-56.5 0-102.4-45.9-102.4-102.4L15.6 179.2c0-56.5 45.9-102.4 102.4-102.4l51.2 0 0 50.9-51.2 0C89.7 127.7 66.8 150.7 66.8 178.9z" fill="#272636" p-id="1311"></path></svg>