<svg xmlns="http://www.w3.org/2000/svg" viewBox="0 0 1024 1024" version="1.1"><path d="M953.6 502.3v-31.9a84.2 84.2 0 0 0-84.1-84.1h-87.7a84.2 84.2 0 0 0-84.1 84.1v15.1h-58v-15.1a84.2 84.2 0 0 0-84.1-84.1h-87.7a84.2 84.2 0 0 0-84.1 84.1v15.1h-58.1v-15.1a84.2 84.2 0 0 0-84.1-84.1h-87.7a84.2 84.2 0 0 0-84.1 84.1v31.4A90.3 90.3 0 0 0 31.1 575.9v59.1c0 30.6 15.4 57.8 38.8 74.1v220.6a84.2 84.2 0 0 0 84.1 84h87.7a84.2 84.2 0 0 0 84.1-84v-204.3h58.1v204.3a84.2 84.2 0 0 0 84.1 84h87.7a84.2 84.2 0 0 0 84.1-84v-204.3h58v204.3a84.2 84.2 0 0 0 84.1 84h87.7a84.2 84.2 0 0 0 84.1-84V708.7a90.3 90.3 0 0 0 38.3-73.7V575.9a89.9 89.9 0 0 0-38.3-73.6z m-690.6 427.3c0 11.5-9.8 21.3-21.4 21.3h-87.7a21.6 21.6 0 0 1-21.3-21.3v-459.2c0-11.6 9.7-21.3 21.3-21.3h87.7c11.6 0 21.3 9.7 21.3 21.3v459.2z m62.8-267.1v-114.3h58.1v114.3h-58.1z m251.2 267.1c0 11.5-9.7 21.3-21.3 21.3h-87.7a21.6 21.6 0 0 1-21.4-21.3v-459.2c0-11.6 9.7-21.3 21.3-21.3h87.7c11.6 0 21.3 9.7 21.3 21.3v459.2z m62.8-267.1v-114.3h58v114.3h-58z m251.1 267.1c0 11.5-9.7 21.3-21.3 21.3h-87.7a21.6 21.6 0 0 1-21.3-21.3v-459.2c0-11.6 9.7-21.3 21.3-21.3h87.7c11.6 0 21.3 9.7 21.3 21.3v459.2z m-88.2-573.1a31.4 31.4 0 0 0 23.5-52.3c-19.9-22.3-28.8-42.8-26.4-60.7 3.3-24.8 27.4-40.8 32.3-44.6 39.3-36.8 55.9-73.6 49.4-109.4-9.3-50.7-60.9-73.4-66.8-75.9a31.3 31.3 0 0 0-40.8 16.8 31.5 31.5 0 0 0 16.6 41.1c6.8 2.9 26.7 14.6 29.3 29.4 2.3 13-8.6 31.6-25.7 48.5-5 3.1-48.7 31.8-56.3 84.7-5.3 37.2 8.6 74.9 41.5 111.9a31.5 31.5 0 0 0 23.5 10.5z m-289.1 0a31.4 31.4 0 0 0 23.5-52.3c-19.9-22.3-28.8-42.8-26.4-60.7 3.3-24.8 27.5-40.8 32.3-44.6 39.3-36.8 55.9-73.6 49.4-109.4C583.2 38.8 531.5 16.1 525.6 13.6a31.3 31.3 0 0 0-40.8 16.8 31.5 31.5 0 0 0 16.6 41.1c6.8 2.9 26.7 14.6 29.3 29.4 2.3 13-8.6 31.6-25.7 48.5-5 3.1-48.7 31.8-56.3 84.7-5.3 37.2 8.6 74.9 41.5 111.9a31.5 31.5 0 0 0 23.5 10.5z m-298.9 0a31.4 31.4 0 0 0 23.5-52.3c-19.9-22.3-28.8-42.8-26.4-60.7 3.3-24.8 27.4-40.8 32.3-44.6 39.3-36.8 55.9-73.6 49.4-109.4-9.3-50.7-60.9-73.4-66.8-75.9a31.3 31.3 0 0 0-40.8 16.8 31.5 31.5 0 0 0 16.6 41.1c6.7 2.9 26.7 14.6 29.3 29.4 2.3 13-8.6 31.6-25.7 48.5-5 3.1-48.7 31.8-56.3 84.7-5.3 37.2 8.6 74.9 41.5 111.9a31.5 31.5 0 0 0 23.5 10.5z" fill="#111111" p-id="1233"></path></svg>