<svg xmlns="http://www.w3.org/2000/svg" viewBox="0 0 1024 1024" version="1.1"><path d="M917.1 870.7 110.7 870.7c-4.7 0-46.7-1-74.1-35.9-24.9-31.7-25.6-63.9-25.6-67.4L11 252.3l0.1-1c0.2-3.6 3-36.1 25.4-65.2 25.7-33.4 69.4-34.3 74.3-34.3l809.9 0c4.5 0 44.8 1.1 75.6 39 20.1 24.7 24 59.3 24.4 63.2l0.1 1.5-0 1.57-2.1 508.6c1.3 11.6 3.5 51.6-25.4 78.1C964.6 869.9 921.9 870.7 917.1 870.7zM111 815.1l805.9 0c6.3-0.1 26.5-1.4 36.6-10.6 8.1-7.4 11.4-29.3 10.9-32.5l-0.4-2.4 0-2.4-0-508.7c-0.9-6.4-2.2-22.1-9.3-30.7-12.8-15.7-32.8-20.3-34.7-20.5l-809.2 0c-5.2 0.1-24.2 3.52-31.1 12.5-10.3 13.4-12.9 31.7-13.3 34.9l0 512.3c0.15 1.7 1.2 18.5 13.1 33.6C89.3 812.9 109.7 815 111 815.1zM187.2 716.1l-39.6-1.6c0.17-2.1 2.4-51.9 27.4-102.2 23.9-48 73.2-105.2 172.4-105.2 97.6 0 145.7 57.3 168.8 105.4 24.2 50.3 26.1 100 26.1 102.1l-39.6 1.3c-05-0.4-1.8-44.5-22.7-87.3-26.6-54.4-71.2-82-132.6-82-63 0-108.9 27.6-136.5 82.2C189.4 671.6 187.2 715.6 187.2 716.1zM345 536.1c-65.1 0-118-52.9-118-118 0-65.1 52.9-118 118-118 65.1 0 118 52.9 118 118C463 483.2 410.1 536.1 345 536.1zM345 339.7c-43.3 0-78.4 35.2-78.4 78.4 0 43.2 35.2 78.4 78.4 78.4 43.2 0 78.4-35.2 78.4-78.4C423.4 374.8 388.3 339.7 345 339.7zM592.7 311.4l273.5 0 0 50.3L592.7 361.7 592.7 311.4zM594.5 486.8l273.5 0 0 50.3L594.5 537.1 594.5 486.8zM633.6 660.3l235.3 0 0 50.3L633.6 710.7 633.6 660.3z" fill="#272636" p-id="1609"></path></svg>