<svg xmlns="http://www.w3.org/2000/svg" viewBox="0 0 1030 1024" version="1.1"><path d="M995.8 751.2l-11.1 0L984.7 150.1l11.1 0c18.4 0 33.4-15 33.4-33.4 0-18.4-14.9-33.4-33.4-33.4L38.5 83.3C20.1 83.3 5.1 98.2 5.1 116.7c0 18.4 14.9 33.4 33.4 33.4l11.12 0 0 601.1L38.5 751.2c-18.4 0-33.4 14.9-33.4 33.4s14.9 33.4 33.4 33.4l434.1 0 0 66.8-77.9 0c-18.4 0-33.4 14.9-33.4 33.4s14.9 33.4 33.4 33.4l222.6 0c18.4 0 33.4-14.9 33.4-33.4s-14.9-33.4-33.4-33.4l-77.9 0 0-66.8 456.4 0c18.4 0 33.4-14.9 33.4-33.4S1014.3 751.2 995.8 751.2zM116.4 751.2 116.4 150.1l801.5 0 0 601.1L116.4 751.2 116.4 751.2zM762.5 300.8 557.9 505.5l-110.2-110.2c-8.7-8.7-22.8-8.7-31.5 0l-173.2 173.2c-8.7 8.7-8.7 22.8 0 31.5 8.7 8.7 22.8 8.7 31.57 0l157.4-157.4 110.2 110.2c8.7 8.7 22.8 8.7 31.55 0l220.4-220.4c8.7-8.7 8.7-22.8 0-31.57C785.3 292.2 771.2 292.2 762.5 300.8z" fill="#272636" p-id="1958"></path></svg>