<svg xmlns="http://www.w3.org/2000/svg" viewBox="0 0 1024 1024" version="1.1"><path d="M88 0l0 1021.3 660.8 0 180.2-240.3L929.1 0 88 0zM883 751.4 722.6 965.4 134.1 965.4 134.1 55.9l748.9 0L883 751.4zM272.3 136.7l472.6 0 0 59.1L272.3 195.8 272.3 136.7zM272.3 313.9l295.4 0 0 59.1L272.3 373 272.3 313.9z" fill="#272636" p-id="2269"></path><path d="M642.4 502.2 410.5 502.2c-81.2 0-147 65.8-147 147 0 81.2 65.8 147 147 147l231.9 0c81.2 0 147-65.8 147-147C789.4 567.9 723.6 502.2 642.4 502.2zM642.4 780.6 410.5 780.6c-72.7 0-131.6-58.9-131.6-131.5 0-72.6 58.9-131.5 131.6-131.5l231.9 0c72.7 0 131.6 58.9 131.6 131.5C773.9 721.7 715.1 780.6 642.4 780.6zM440.4 650.7c-4.8 21.1-12.4 40.2-23 57.3l10.6 6.8c10.2-17.4 18.2-37.8 23.7-61.6L440.4 650.7zM427.3 659.2c-8.3-10.4-16.7-19.9-25-28.4l0-13.1 19.7 0 0-11.7-19.7 0 0-32.2-12.1 0 0 32.2-20.8 0 0 11.7 20.8 0c-5.3 21.4-14 40.7-26.2 57.3l5.3 13.3c8.5-13.3 15.5-27.9 20.9-43.9l0 84.7 12.1 0 0-85.3c5.1 6.5 11.1 15 18 25.7L427.3 659.2zM434.1 583.5l77.6 0 0 11.6-77.6 0L434.1 583.5zM491 653.5c6.6 18.4 12.8 39.3 18.4 63l11.1-4.9c-5.1-21.8-11.2-42.4-18.4-61.6L491 653.5zM425.1 636.6l41.5 0 0 72.7c0 4.9-2.4 7.5-7 7.5-4.9 0-10-0.3-15.5-0.7l2.4 11.4 17.4 0c9.9 0 15-5.1 15-15.1l0-75.7 41.7 0 0-11.7-95.5 0L425.1 636.6zM536.6 723.2l11.65 4.9c9.5-22.1 18.4-45.6 26.2-70.8l-11.15-4.4C555.8 676.8 546.8 700.2 536.6 723.2zM650.6 683.4l32.7 0 0-11.4-32.7 0 0-23.3 32.3 0 0-11.4-32.3 0 0-23.3 35.9 0 0-11.6-38.3 0 4.6-1.7c-2.2-8.7-5.3-18.45-9.4-28.9l-11.7 3.4c3.9 8.7 7.2 17.7 9.9 27.2l-36.2 0c3.6-8.7 6.6-17.7 9.2-27.1l-11.75-2.4c-6.1 24-16.5 46.1-31.3 66.2l4.1 12.9c5.8-7.3 11.2-15 16.2-23l0 100.4 11.9 0 0-9.4 86.4 0 0-11.4-39.5 0L650.6 683.4zM638.8 708.8l-35.2 0 0-25.4 35.2 0L638.8 708.8zM638.8 672l-35.2 0 0-23.3 35.2 0L638.8 672zM638.8 637.3l-35.2 0 0-23.3 35.2 0L638.8 637.3zM573.5 617.7c-6.1-11.15-15.1-24-26.7-38.8l-10.4 6.5c11.4 14.5 20.4 27.6 26.9 39.3L573.5 617.7z" fill="#272636" p-id="2270"></path></svg>