<svg xmlns="http://www.w3.org/2000/svg" viewBox="0 0 1024 1024" version="1.1"><path d="M528 64a446.9 446.9 0 0 1 316.8 131.2c175 174.9 175 458.5 0 633.5A446.6 446.6 0 0 1 528 960a446.6 446.6 0 0 1-316.8-131.2c-175-174.9-175-458.5 0-633.5A446.6 446.6 0 0 1 528 64z m0 53.5c-51.3 0-101.3 9.7-148.4 28.9a391.6 391.6 0 0 0-130.5 86.6 391.7 391.7 0 0 0-86.6 130.5 393.7 393.7 0 0 0-28.9 148.5c0 51.2 9.7 101.2 28.9 148.4a391.7 391.7 0 0 0 86.6 130.5 391.6 391.6 0 0 0 130.5 86.6A393.6 393.6 0 0 0 528 906.4a393.6 393.6 0 0 0 148.4-28.9 391.6 391.6 0 0 0 130.5-86.6 391.7 391.7 0 0 0 86.6-130.5 393.7 393.7 0 0 0 28.9-148.4c0-51.2-9.7-101.2-28.9-148.5a391.7 391.7 0 0 0-86.6-130.5 391.6 391.6 0 0 0-130.5-86.6A393.6 393.6 0 0 0 528 117.5z m0 194.4c51.2 0 102.4 19.5 141.6 58.6 78.2 78.2 78.2 205.1 0 283.2A199.9 199.9 0 0 1 528 712.3a199.5 199.5 0 0 1-141.6-58.6c-78.2-78.2-78.2-205 0-283.2A199.9 199.9 0 0 1 528 311.8z m0 88.8a57.7 57.7 0 0 0-41.5 97.9A69.4 69.4 0 0 0 528 623.5c17.8 0 35.5-6.7 49-20.3a69.4 69.4 0 0 0-7.5-104.6l1.7-1.8a57.8 57.8 0 0 0 0-76.8l-2.3-2.5A57.9 57.9 0 0 0 528 400.6z m0 116.3c10 0 19.2 3.8 26.3 10.9 7.1 7.1 10.9 16.4 10.9 26.3 0 9.9-3.8 19.2-10.9 26.3a36.9 36.9 0 0 1-26.3 10.9c-10 0-19.2-3.8-26.3-10.9a37.2 37.2 0 0 1 0-52.6A36.7 36.7 0 0 1 528 516.9z m0-84.2c6.8 0 13.3 2.7 18.2 7.5a25.8 25.8 0 0 1 0 36.4 25.8 25.8 0 0 1-36.4 0A25.7 25.7 0 0 1 528 432.7z" fill="#111111" p-id="1222"></path></svg>