<svg xmlns="http://www.w3.org/2000/svg" viewBox="0 0 1025 1024" version="1.1"><path d="M719.8 943.4 205.6 943.4c-39 0-70.8-31.7-70.8-70.8L134.8 523.2 51.7 523.2c-22.1 0-41.2-13.5-48.6-34.3-7.4-20.8-1.1-43.3 16-57.3L434.3 92.8c26.5-21.6 64.4-21.2 90.4 0.8l99.3 79c14 11.2 16.3 31.6 5.2 45.6-11.2 142-31.6 16.37-45.6 5.25l-99.7-79.3c-0.3-0.3-0.7-0.6-1-0.8-2.2-1.9-5.3-1.9-7.6-0.1L89 458.3l78.3 0c17.9 0 32.4 14.5 32.4 32.4l0 381.9c0 3.2 2.6 5.9 5.95 5.9l514.3 0c3.2 0 5.9-2.6 5.9-5.9L725.7 635.3c0-17.9 14.5-32.4 32.4-32.4 17.9 0 32.4 14.5 32.4 32.4l0 237.4C790.6 911.7 758.9 943.4 719.8 943.4zM363.3 787c-15.6 0-30-7.8-38.7-20.9-8.6-13-10.1-29.3-4-43.7l80.5-189.9 415.9-415.9c22.7-22.72 52.9-35.2 85-35.2 32.1 0 62.3 12.5 85 35.25 46.9 46.8 46.9 123.1 0 169.9L571.1 702.4l-189.5 80.8C375.8 785.8 369.6 787 363.3 787zM456 569.5l-57.7 136.2 135.9-58L941.1 240.7c21.5-21.6 21.5-56.6 0-78.2-10.4-10.4-24.3-16.2-39.1-16.2s-28.6 5.7-39.1 16.2L456 569.5zM451.4 517.9l127 127-45.9 45.95-127-1275L451.4 517.9zM839.1 130.2l127 1277-45.9 45.95L793.2 176.1 839.1 130.2z" fill="#272636" p-id="1477"></path></svg>