<svg xmlns="http://www.w3.org/2000/svg" viewBox="0 0 1228 1024" version="1.1"><path d="M1140.2 120.3h-48.6l10.8-2.7V66.3c0-29.7-35.1-54.1-67.6-54.1H197c-29.7 0-67.6 24.4-67.6 54.1v48.6l10.8 2.7H91.6c-43.2 2.7-70.2 40.6-70.2 83.8v729.7c0 45.9 27 81.1 70.2 81.1H1137.5c46 0 70.3-35.1 70.3-81.1V201.4c2.7-43.2-24.3-81.1-67.6-81.1z m-118.9-2.7c0 2.7 0 2.7 0 0l-835.1 2.7s-2.7 0-2.7-2.7V66.3s0-2.7 2.7-2.7h835.1s2.7 0 2.7 2.7v51.3h-2.7zM75.4 931.1V201.4c0-16.2 2.7-27 16.2-27h497.3v783.7H91.6c-13.5 0-16.2-10.8-16.2-27z m1081 0c0 16.2-2.7 27-16.2 27h-497.3V174.4h497.3c16.2 0 16.2 13.5 16.2 27v729.7zM399.7 390.6h-189.2c-16.2 0-27 10.8-27 27s10.8 27 27 27h189.2c16.2 0 27-10.8 27-27s-10.8-27-27-27z m621.6 0h-189.2c-16.2 0-27 10.8-27 27s10.8 27 27 27h189.2c16.2 0 27-10.8 27-27s-10.8-27-27-27z" fill="#111111" p-id="1151"></path></svg>