<svg xmlns="http://www.w3.org/2000/svg" viewBox="0 0 1024 1024" version="1.1"><path d="M273.1 307.3 599.3 7.3C609.2-2 625.4-2 635.4 7.3L888.2 243.2C893 247.6 895.7 253.7 895.7 260.1 895.7 266.4 893 272.5 888.2 277L853.3 307.3C820.9 308.9 814.9 310 785 307.3L833.9 260.1 617.3 58 341.3 307.3C303.6 307.7 303.8 309.2 273.1 307.3ZM170.7 307.3 360.4 11.9C367.5 0.5 383-3.4 395.3 3.2L546.1 68.4C516.9 96.1 529.9 65.5 477.9 102.5L391.9 56.4 239 307.3C193.3 308.7 198 306.1 170.7 307.3ZM896 1023.8 128 1023.8C57.5 1023.8 0.1 970.2 0.1 904.3L0.1 406.1C0.1 340.3 66 307.3 136.6 307.3L887.4 307.3C958 307.3 1023.9 340.3 1023.9 406.1L1023.9 904.3C1023.9 970.2 966.5 1023.8 896 1023.8L896 1023.8 896 1023.8ZM142.3 375.1C101.5 375.1 68.3 387.7 68.3 424.4L68.3 906.7C68.3 943.4 101.5 955.9 142.3 955.9L881.7 955.9C922.5 955.9 955.7 943.4 955.7 906.7L955.7 424.4C955.7 387.7 922.5 375.1 881.7 375.1L142.3 375.1 142.3 375.1 142.3 375.1ZM734.1 750.7C668.2 750.7 614.6 697 614.6 631.1 614.6 565.2 668.2 511.5 734.1 511.5 799.9 511.5 853.5 565.2 853.5 631.1 853.5 697 799.9 750.7 734.1 750.7L734.1 750.7 734.1 750.7ZM734 571.8C701.1 571.8 674.2 598.7 674.2 631.6 674.2 664.6 701.1 691.3 734 691.3 767 691.3 793.9 664.6 793.9 631.6 793.9 598.6 767 571.8 734 571.8L734 571.8 734 571.8Z" fill="#272636" p-id="1510"></path></svg>