<?xml version="1.0" standalone="no"?><!DOCTYPE svg PUBLIC "-//W3C//DTD SVG 1.1//EN" "http://www.w3.org/Graphics/SVG/1.1/DTD/svg11.dtd"><svg t="1690871420034" class="icon" viewBox="0 0 1024 1024" version="1.1" xmlns="http://www.w3.org/2000/svg" p-id="4403" xmlns:xlink="http://www.w3.org/1999/xlink" width="200" height="200"><path d="M875.2520704 621.0956864l-0.98235307-9.71437333c-0.2183008-1.6372544-0.43660053-3.3836576-0.87320106-6.33071467-0.65490133-5.67581334-1.4189536-11.4607776-2.29215573-16.9182912-0.65490134-4.25685973-1.52810347-8.6228704-2.40130561-12.8797312l-1.30980373-6.33071467c-21.5026016-101.18229227-82.73589867-219.3920256-182.06263573-351.24554133-72.03917227-95.6156288-139.71233493-164.81689493-143.20514347-168.30970347 0 0-3.8202592-3.49280853-7.6405184-6.33071466-11.024176-8.40457067-26.5235136-8.29541973-37.54768961 0.10914986-3.8202592 2.8379072-7.6405184 6.4398656-8.73202132 7.53136855-7.2039168 7.31306773-72.03917227 74.22217813-142.0044896 167.10904959-99.32673813 131.85351573-160.66918507 249.9540992-181.95348587 350.59064l-1.4189536 6.87646613c-0.87320213 4.36601067-1.74640428 8.73202133-2.4013056 12.6614304-0.982352 5.78496427-1.74640427 11.56992747-2.29215573 16.6999904l-0.21830081 1.85555413c-0.2183008 1.6372544-0.43660053 3.27450773-0.65490133 4.80261227l-1.09150293 10.58757547c-0.65490133 7.74966827-1.09150293 15.93593812-1.09150187 24.01305706 0 2.29215572 0.10914987 4.58431147 0.10914987 6.6581664l0.10914987 5.23921173c0.10914987 3.8202592 0.2183008 7.53136853 0.4366016 11.24247681 0.32745067 5.020912 0.87320213 10.15097387 1.52810346 15.39018773l0.87320215 7.6405184c0.87320213 5.67581333 1.85555413 11.35162667 3.05620692 17.02744l1.20065281 6.00326507c1.30980268 5.67581333 2.72875627 11.35162667 4.25686079 16.69998933 0.65490133 2.18300479 1.2006528 4.36601067 1.85555413 6.33071573 1.6372544 5.34836267 3.3836576 10.58757547 5.34836267 15.93593814 0.982352 2.61960639 1.96470507 5.13006187 2.94705707 7.6405184 1.85555413 4.69346133 3.8202592 9.27777173 5.78496426 13.75293226 1.4189536 3.05620693 2.94705706 6.11241493 4.69346134 9.60522347l2.51045546 5.13006187c1.09150293 2.1830048 2.1830048 4.47516053 3.38365867 6.54901653 3.6019584 6.54901546 7.4222176 13.09803093 11.35162667 19.10129493l1.09150293 1.96470507c5.67581334 8.73202133 11.89737813 17.35489173 19.3195968 26.63266347l2.72875627 3.38365866c6.76731628 8.29541973 13.42548267 15.60848747 21.83005226 24.23135787 7.53136853 7.53136853 15.60848747 14.8444352 24.23135787 21.93920213l3.71110933 2.8379072c6.54901547 5.2392128 13.42548267 10.47842561 22.2666528 16.4816896l5.34836267 3.71110827c7.31306773 4.8026112 14.8444352 9.27777173 23.79475733 14.2986848l3.92940907 2.1830048c2.6196064 1.4189536 5.2392128 2.6196064 8.18626987 4.03856l6.003264 2.8379072c5.34836267 2.72875627 10.69672533 5.34836267 16.15423893 7.6405184 5.2392128 2.1830048 10.58757547 4.14770987 15.71763733 6.11241387l7.31306775 2.72875733c2.94705707 1.09150293 5.89411413 2.29215573 8.84117119 3.1653568 7.6405184 2.51045653 15.39018667 4.47516053 22.59410453 6.33071573l4.14770987 1.09150187c2.1830048 0.54575147 4.25685973 1.2006528 6.33071466 1.6372544 8.07711893 1.85555413 16.15423893 3.27450773 22.81240534 4.25685972l3.3836576 0.65490241c2.6196064 0.43660053 5.34836267 0.87320213 8.07712 1.30980267 6.98561707 0.982352 14.080384 1.52810347 21.066 2.07385493l3.8202592 0.32745066c3.3836576 0.32745067 6.76731627 0.54575147 10.36927466 0.76405228 3.92940907 0.2183008 7.96796907 0.2183008 11.89737814 0.2183008l12.00652906 0c4.03856 0 7.96796907 0 12.00652907-0.2183008 3.3836576-0.10914987 6.76731627-0.43660053 10.2601248-0.76405227l3.71110827-0.32745067c6.98561707-0.54575147 14.080384-1.2006528 21.17515093-2.07385493 2.72875627-0.32745067 5.34836267-0.87320213 7.96796907-1.30980267l3.16535786-0.54575147c6.98561707-1.2006528 14.95358613-2.51045653 23.13985494-4.36601066 2.51045653-0.54575147 4.91176213-1.2006528 7.20391785-1.85555413l3.16535681-0.87320214c7.4222176-1.96470507 15.17188587-3.92940907 22.7032544-6.33071573 3.05620693-0.982352 6.11241493-2.07385493 8.8411712-3.1653568l7.31306774-2.72875733c5.34836267-1.96470507 10.69672533-3.92940907 15.93593813-6.11241387 5.56666347-2.4013056 10.91502613-5.020912 16.2633888-7.74966933l6.11241493-2.94705707c2.4013056-1.09150293 4.8026112-2.1830048 7.74966827-3.8202592l5.56666347-3.1653568c7.53136854-4.25685973 15.06273601-8.73202133 22.37580373-13.53463253 2.4013056-1.6372544 4.8026112-3.27450773 7.09476692-4.80261227 7.09476693-4.91176213 13.97123307-10.041824 20.62939948-15.39018667l1.74640427-1.30980266 2.4013056-1.8555552c8.18626987-6.76731627 16.15423893-14.080384 23.68560746-21.50260054l1.52810348-1.6372544c6.87646613-6.87646613 13.53463253-14.29868373 20.52024852-22.81240426l2.6196064-3.27450774c7.4222176-9.16862187 13.6437824-17.79149227 19.21044587-26.41436373l1.09150293-1.85555413c4.14770987-6.54901547 8.07711893-12.98888107 11.4607776-19.3195968 1.30980267-2.51045654 2.6196064-4.91176213 3.8202592-7.4222176l2.29215574-4.47516054c1.52810347-3.16535787 3.05620693-6.2215648 4.5843104-9.38692266 2.07385493-4.58431147 4.03856-9.27777173 5.89411413-13.8620832l2.94705707-7.6405184c1.96470507-5.34836267 3.71110933-10.58757547 5.2392128-15.71763734l1.85555413-6.33071573c1.6372544-5.67581333 3.05620693-11.2424768 4.36601067-17.2457408l1.2006528-5.67581333c1.09150293-5.67581333 2.1830048-11.35162668 3.056208-16.80914028 0.32745067-1.96470507 0.54575147-3.92940907 0.65490133-5.67581439l0.43660053-3.6019584c0.54575147-4.58431147 1.09150294-9.27777173 1.4189536-13.75293333 0.2183008-3.49280853 0.32745067-6.98561707 0.4366016-10.47842454l0.10914987-6.003264c0.10914987-2.29215573 0.2183008-4.58431147 0.10914987-6.65816641-0.2183008-8.29541973-0.54575147-16.37253973-1.30980267-24.77710932z m-66.03590827 75.53198079l-0.87320213 4.69346134c-0.982352 4.47516053-2.1830048 9.059472-3.49280852 13.6437824l-1.41895361 4.91176214c-1.30980268 4.25685973-2.72875627 8.40457067-4.25685974 12.6614304l-2.4013056 6.11241493c-1.41895361 3.71110933-3.05620693 7.4222176-4.58431146 11.02417599-1.2006528 2.51045653-2.4013056 5.020912-3.6019584 7.42221761l-2.29215574 4.58431147c-0.87320213 1.6372544-1.6372544 3.3836576-2.61960641 5.13006186-2.72875627 5.13006187-5.89411413 10.36927467-10.04182399 16.91829014-4.47516053 6.87646613-9.60522347 13.97123307-15.60848746 21.39345172l-2.4013056 2.83790721c-5.67581333 6.87646613-11.13332693 12.8797312-17.79149227 19.75619734-6.11241493 6.11241493-12.6614304 12.11567893-19.21044587 17.46404159l-3.71110933 2.94705707c-5.45751361 4.36601067-11.13332694 8.6228704-16.91829013 12.6614304l-5.89411414 3.92940907c-6.003264 3.92940907-12.33397973 7.74966827-18.8829952 11.4607776l-4.14770986 2.4013056c-1.2006528 0.65490133-2.51045654 1.30980267-4.14770987 1.96470506-1.74640428 0.76405227-3.49280853 1.6372544-5.2392128 2.51045547l-3.92941013 1.96470507c-3.92940907 1.96470507-7.74966827 3.92940907-11.7882272 5.56666346-4.14770987 1.74640427-8.40457067 3.27450772-12.6614304 4.80261121l-8.40457067 3.16535786c-1.85555413 0.65490133-3.6019584 1.41895361-5.67581333 2.07385492-5.78496427 1.96470507-11.6790784 3.3836576-19.21044587 5.34836268l-4.69346133 1.30980267c-1.2006528 0.32745067-2.40130561 0.65490133-3.8202592 0.98235306-6.4398656 1.52810347-12.8797312 2.6196064-19.53789654 3.71110827l-4.03856 0.6549024c-1.74640427 0.32745067-3.49280853 0.65490133-5.2392128 0.87320213-5.89411413 0.76405227-11.78822828 1.30980267-17.9006432 1.7464032l-4.14770986 0.32745174c-2.6196064 0.2183008-5.13006187 0.43660053-7.6405184 0.5457504-3.05620693 0.10914987-6.11241493 0.10914987-9.16862187 0.10915093l-11.67907733 0c-3.05620693 0-6.11241493 0-9.059472-0.10915093-2.6196064-0.10914987-5.2392128-0.32745067-7.8588192-0.5457504l-4.03855894-0.32745174c-5.89411413-0.43660053-11.78822827-0.87320213-17.6823424-1.7464032l-9.4960736-1.6372544c-6.4398656-1.09150293-12.8797312-2.1830048-19.4287456-3.6019584-1.41895361-0.32745067-2.8379072-0.76405227-4.4751616-1.2006528l-5.020912-1.30980373c-6.33071467-1.6372544-12.2248288-3.16535787-18.33724373-5.13006188-1.74640427-0.54575147-3.3836576-1.2006528-6.003264-2.18300585l-8.95032213-3.27450774c-3.92940907-1.4189536-7.8588192-2.8379072-11.67907734-4.47516052-4.03856-1.6372544-7.8588192-3.6019584-12.77058026-6.11241494l-8.62287147-4.14770987c-1.09150293-0.54575147-2.1830048-0.982352-2.4013056-0.982352l-6.003264-3.49280853c-6.2215648-3.49280853-12.4431296-7.2039168-18.44639467-11.2424768l-5.89411413-4.03856c-5.78496428-4.03856-11.4607776-8.18626987-17.02744-12.77058027l-3.2745088-2.51045547c-6.87646613-5.67581333-13.42548267-11.67907839-20.73854933-18.99214613-5.67581333-5.67581333-11.13332693-11.78822827-16.59083947-18.4463936l-2.4013056-2.83790721c-6.11241493-7.53136853-11.2424768-14.62613547-14.84443627-19.97449811l-1.74640426-2.94705708c-3.27450772-5.020912-6.33071467-10.2601248-9.27777174-15.49933653-0.982352-1.85555412-1.96470507-3.8202592-2.94705706-5.78496427l-1.96470506-3.8202592c-1.2006528-2.4013056-2.51045653-4.91176213-3.60195841-7.4222176-1.6372544-3.71110933-3.16535787-7.4222176-4.69346133-11.2424768-0.76405227-1.96470507-1.52810347-3.92940907-2.29215574-6.00326507-1.52810347-4.25685973-2.94705707-8.40457067-4.25685973-12.55227946l-1.52810348-5.13006187c-1.30980267-4.47516053-2.51045653-8.95032107-3.38365865-13.20718187l-0.982352-5.020912c-0.87320213-4.47516053-1.74640427-8.95032107-2.51045547-13.75293333l-0.76405227-6.2215648c-0.43660053-3.92940907-0.98235201-7.96796907-1.2006528-11.78822827-0.2183008-2.8379072-0.2183008-5.67581333-0.32745066-8.6228704l-0.32745066-9.93267413c0-6.54901547 0.32745067-12.98888107 0.87320212-18.6646944l1.85555414-15.7176384c0.54575147-4.47516053 1.09150293-9.059472 1.85555413-13.8620832 0.54575147-3.3836576 1.2006528-6.76731627 2.18300587-11.56992747l0.982352-4.69346133C264.77465813 393.40824107 461.02682773 170.8508576 515.71110933 111.8005664c54.68428053 59.05029119 250.9364512 281.60767467 290.88544641 470.00102613l1.20065279 5.7849632c0.76405227 3.49280853 1.4189536 6.98561706 2.07385494 10.58757547 0.76405227 4.58431147 1.30980267 9.16862187 1.85555413 13.64378241l1.74640427 15.17188692c0.54575147 6.2215648 0.76405227 12.6614304 0.87320213 19.101296l-0.32745067 10.91502614c-0.10914987 2.51045653-0.10914987 5.13006187-0.32745066 7.74966826-0.2183008 3.6019584-0.65490133 7.09476694-1.09150294 10.69672534l-0.87320213 7.6405184c-0.65490133 4.47516053-1.52810347 8.95032107-2.51045547 13.53463252z m-631.4342624 12.11567894z" fill="#2c2c2c" p-id="4404"></path><path d="M761.62664853 603.30419413c-0.65490133-5.67581334-3.71110933-10.80587628-8.18626986-14.2986848-4.47516053-3.3836576-10.2601248-4.91176213-15.28103679-4.14770986-5.67581334 0.65490133-10.69672533 3.49280853-14.18953388 8.07711893-3.49280853 4.47516053-5.020912 10.04182401-4.2568608 15.39018773l1.20065279 10.15097387c0.32745067 4.47516053 0.54575147 8.8411712 0.54575148 13.20718187l-0.21829974 7.09476693c0 1.96470507-0.10914987 3.8202592-0.2183008 5.67581332-0.2183008 2.51045653-0.43660053 5.020912-0.76405226 7.64051841l-0.54575147 5.020912c-0.43660053 3.16535787-1.09150293 6.2215648-1.63725333 9.27777281l-0.65490134 3.38365759c-0.65490133 3.16535787-1.52810347 6.2215648-2.29215573 9.059472l-1.09150293 3.71110827c-0.87320213 2.94705707-1.85555412 5.78496427-2.94705707 8.73202133l-1.63725333 4.14770987c-0.982352 2.61960639-2.07385493 5.13006187-3.2745088 7.74966827-0.76405227 1.85555413-1.6372544 3.6019584-3.6019584 7.4222176l-2.1830048 4.36601066c-1.85555413 3.3836576-3.8202592 6.6581664-6.4398656 10.91502614l-0.43660054 0.76405226c-3.16535787 4.8026112-6.6581664 9.71437333-10.91502613 15.062736l-1.4189536 1.74640427c-3.8202592 4.58431147-7.53136853 8.73202133-12.33397973 13.6437824-4.14770987 4.14770987-8.73202133 8.29541972-13.20718187 12.00652907l-2.6196064 2.07385493c-3.8202592 3.05620693-7.6405184 5.89411413-11.67907732 8.6228704l-4.14770988 2.8379072c-4.14770987 2.72875627-8.40457067 5.2392128-12.98888107 7.85881813l-12.00652906 6.11241494c-2.72875627 1.30980267-5.4575136 2.72875627-8.18626987 3.92940906-2.8379072 1.2006528-5.78496427 2.29215573-8.73202133 3.2745088l-2.51045547 0.87320214c-5.34836267 1.96470507-9.60522347 5.78496427-12.00652907 10.91502612-2.4013056 5.13006187-2.6196064 10.80587627-0.7640512 16.26338881 3.05620693 8.29541973 11.024176 13.8620832 19.8653472 13.8620832 2.51045654 0 5.020912-0.43660053 9.059472-1.96470507 3.92940907-1.4189536 7.74966827-2.8379072 11.4607776-4.36601066 3.71110933-1.52810347 7.31306773-3.27450773 11.024176-5.13006187l4.25685974-2.07385493c1.85555413-0.87320213 3.71110933-1.74640427 6.76731626-3.38365867l2.4013056-1.41895253c5.2392128-2.94705707 10.36927467-6.11241494 15.71763839-9.4960736l4.58431041-3.1653568c4.91176213-3.3836576 9.49607253-6.87646613 14.080384-10.4784256l2.94705707-2.29215574c5.78496427-4.8026112 11.2424768-9.8235232 17.35489173-15.93593813 4.8026112-4.8026112 9.38692267-9.93267413 14.080384-15.60848747l1.85555414-2.29215466c5.13006187-6.33071467 9.38692267-12.33397972 13.97123306-19.42874667 2.83790721-4.36601067 5.4575136-8.73202133 7.8588192-13.20718187 1.09150293-1.96470507 2.07385493-3.92940907 3.92940907-7.74966826 1.2006528-2.29215573 2.29215573-4.58431147 3.27450773-6.8764672 1.4189536-3.16535787 2.72875627-6.33071467 4.4751616-10.58757547l1.63725334-4.25685973c1.41895361-3.71110933 2.6196064-7.4222176 3.71110933-11.13332694l1.2006528-4.14770986c1.09150294-3.92940907 2.07385493-7.74966827 3.05620693-11.78822827l0.87320215-3.92940907c0.76405227-3.8202592 1.52810347-7.6405184 2.07385492-11.6790784l0.87320213-7.31306773c0.32745067-2.83790721 0.65490133-5.67581334 0.87320214-8.4045696 0.2183008-2.6196064 0.2183008-5.2392128 0.32745066-7.6405184l0.2183008-8.40457067c0-5.56666347-0.32745067-11.024176-0.76405226-17.2457408l-1.41895254-11.024176z" fill="#2c2c2c" p-id="4405"></path></svg>