<svg xmlns="http://www.w3.org/2000/svg" viewBox="0 0 1357 1024" version="1.1"><path d="M1246.3 209.4h-125.7V111.4A100.3 100.3 0 0 0 1020.2 11.1H337.5a100.3 100.3 0 0 0-100.3 100.3v97.9H111.4A100.3 100.3 0 0 0 11.1 309.7V851a100.3 100.3 0 0 0 100.3 100.3h73.9c-0.2 1.8-0.2 3.6 0 5.3v21.7a33.4 33.4 0 1 0 66.8 0v-21.7c0.2-1.8 0.2-3.6 0-5.3h852.6c-0.2 1.8-0.2 3.6 0 5.3v21.7a33.4 33.4 0 1 0 66.9 0v-21.7c0.2-1.8 0.2-3.6 0-5.3h76.9a100.3 100.3 0 0 0 100.3-100.3V309.7a100.3 100.3 0 0 0-102.6-100.3z m-192.6-98v434.7H710.9V78h309.3c18.5 0 33.4 15 33.4 33.4z m-749.6 0c0-18.5 15-33.4 33.4-33.4h306.6v468.1H304V111.4zM1279.7 851c0 18.5-15 33.4-33.4 33.4H111.4c-18.5 0-33.4-15-33.4-33.4V309.7c0-18.5 15-33.4 33.4-33.4h125.7v272.2H190a33.4 33.4 0 0 0 0 66.9h980.3a33.4 33.4 0 0 0 0-66.9h-49.8V276.3h125.7c18.5 0 33.4 15 33.4 33.4V851z" fill="#111111" p-id="1244"></path></svg>