<?xml version="1.0" standalone="no"?><!DOCTYPE svg PUBLIC "-//W3C//DTD SVG 1.1//EN" "http://www.w3.org/Graphics/SVG/1.1/DTD/svg11.dtd"><svg t="1690877440978" class="icon" viewBox="0 0 1024 1024" version="1.1" xmlns="http://www.w3.org/2000/svg" p-id="2377" xmlns:xlink="http://www.w3.org/1999/xlink" width="200" height="200"><path d="M860.7 182.7H163.6c-15.1 0-46.9 8.4-46.9 48.5v410.3c0 42.2 31.6 50.2 45.3 50.2h237.3l94.8 139.8c4.4 7.1 11.3 12.4 20.2 12.4 8.3 0 14.9-4.7 19.7-11.5l95.3-140.8h231.2c26.7 0 45.3-22 45.3-45.3V228c0.2-26.2-21.1-45.3-45.1-45.3zM268.4 463.9c-22.4 0-40.5-18.1-40.5-40.5s18.1-40.5 40.5-40.5 40.5 18.1 40.5 40.5-18.1 40.5-40.5 40.5z m162 0c-22.4 0-40.5-18.1-40.5-40.5s18.1-40.5 40.5-40.5 40.5 18.1 40.5 40.5-18.2 40.5-40.5 40.5z m161.9 0c-22.4 0-40.5-18.1-40.5-40.5s18.1-40.5 40.5-40.5 40.5 18.1 40.5 40.5-18.1 40.5-40.5 40.5z m162 0c-22.4 0-40.5-18.1-40.5-40.5s18.1-40.5 40.5-40.5 40.5 18.1 40.5 40.5-18.2 40.5-40.5 40.5z" fill="#2c2c2c" p-id="2378"></path></svg>