<svg xmlns="http://www.w3.org/2000/svg" viewBox="0 0 1024 1024" version="1.1"><path d="M792.9 819.2 231.1 819.2C202.5 819.2 179.2 796.7 179.2 769l0-34.3c0-45.8 31.6-82 76.8-92L256 435.2c0-139.8 112.5-230.4 256-230.4s256 90.6 256 230.4l0 207.5c45.2 10 76.8 46.2 76.8 92l0 34.3C844.8 796.7 821.5 819.2 792.9 819.2zM281.6 691.2c-30.2 0-51.2 17.9-51.2 43.5l0 34.3L792.9 768c0.8 0 1.1-0.3 1.1-0.3L793.6 734.7C793.6 709.1 772.6 691.2 742.4 691.2l-25.6 0L716.8 435.2c0-111.1-90-179.2-204.8-179.2s-204.8 68.1-204.8 179.2l0 256L281.6 691.2z" fill="#272636" p-id="1019"></path><path d="M793.6 716.8 435.2 716.8c-14.2 0-25.6-11.4-25.6-25.6s11.4-25.6 25.6-25.6l358.4 0c14.2 0 25.6 11.4 25.6 25.6S807.8 716.8 793.6 716.8z" fill="#272636" p-id="1020"></path><path d="M640 256l-51.2 0c0-49-33.8-76.8-76.8-76.8-41.8 0-76.8 26.1-76.8 76.8l-51.2 0c0-79.4 57.5-128 128-128C583.9 128 640 177.9 640 256z" fill="#272636" p-id="1021"></path><path d="M512 832m-64 0a2.5 2.5 0 1 0 128 0 2.5 2.5 0 1 0-128 0Z" fill="#272636" p-id="1022"></path></svg>