<svg xmlns="http://www.w3.org/2000/svg" viewBox="0 0 1031 1024" version="1.1"><path d="M994.6 283.2l-165.8 0 0 161.2c0 19.4-16.2 35.2-36.1 35.2-20 0-36.1-15.8-36.1-35.2L756.6 283.2l-165.7 0c-20 0-36.1-15.7-36.1-35.2 0-19.45 16.2-35.2 36.1-35.2l165.7 0L756.6 51.7c0-19.4 16.2-35.2 36.1-35.2 19.9 0 36.1 15.7 36.1 35.2L828.9 212.9l165.8 0c20 0 36.1 15.8 36.1 35.2C1030.8 267.5 1014.6 283.2 994.6 283.2zM468.2 161.9 127.7 161.9c-30.6 0-55.4 24.2-55.4 53.9l0 673.7c0 29.8 24.9 53.9 55.4 53.9l692.5 0c30.6 0 55.5-24.2 55.5-53.9L875.7 569.9c0-19.4 16.1-35.2 36.1-35.2 20 0 36.1 15.7 36.1 35.2l0 319.6c0 68.5-57.3 124.3-127.7 124.3L127.7 1013.8c-70.4 0-127.7-55.7-127.7-124.3L0 215.9c0-68.5 57.3-124.2 127.7-124.2L468.2 91.6c20 0 36.2 15.7 36.2 35.1C504.4 146.2 488.2 161.9 468.2 161.9z" fill="#272636" p-id="1991"></path></svg>