<svg xmlns="http://www.w3.org/2000/svg" viewBox="0 0 1025 1024" version="1.1"><path d="M865.6 725.4l2.3 0c13.7 0 24.7 11 24.7 24.7l0 249.1c0 13.7-11 24.7-24.7 24.7l-2.3 0c-13.7 0-24.7-11-24.7-24.7L840.9 750.2C840.9 736.8 851.9 725.4 865.6 725.4z" fill="#272636" p-id="2209"></path><path d="M1015.8 873.8l0 2.3c0 13.7-11 24.7-24.7 24.7L742 900.8c-13.7 0-24.7-11-24.7-24.7l0-2.3c0-13.7 11-24.7 24.7-24.7L991.1 849C1004.8 849 1015.8 860.1 1015.8 873.8z" fill="#272636" p-id="2210"></path><path d="M462.6 212.2c89.6 0 209 28 209 269.5 0 19.8 16.4 36.1 36.1 36.1 19.8 0 36.1-16.4 36.1-36.1 0-282.2-152.5-341-280.5-341-128 0-280.5 59.3-280.5 341 0 119.2 54.8 234.5 140.2 299.1l0 5.3C133.2 813.3 12.3 890.7 12.3 986.5c0 19.8 16.4 36.1 36.1 36.1 19.8 0 36.1-16.4 36.1-36.1 0-50.6 104.2-114.7 278.8-133.9 18.1-1.7 31.9-17.5 31.9-35.6l0-55.3c0-12.2-6.5-23.2-16.4-30.2-74-48.3-124-148.9-124-250.3C254.4 239.3 373 212.2 462.6 212.2z" fill="#272636" p-id="2211"></path><path d="M906.7 387.3l-45.5-11.6C846.8 168.6 673.3 4.5 462.6 4.5c-214.7 0-389.9 170-399.2 382.2L36.6 409.4c-8.2 7-12.7 16.9-12.7 27.4l0 142.1c0 19.8 16.4 36.1 36.1 36.1s36.1-16.4 36.1-36.1l0-125.1 26.8-22.1c8.2-7 12.7-16.9 12.7-27.4 0-181 147.2-327.7 327.7-327.7 180.5 0 327.7 147.2 327.7 327.7 0 16.4 11 30.8 27.4 35l44.9 11 0 129.1c0 19.8 16.4 36.1 36.1 36.1 19.8 0 36.1-16.4 36.1-36.1l0-157.1C934.1 405.4 923 390.7 906.7 387.3z" fill="#272636" p-id="2212"></path><path d="M772.2 533.9c-6.5 19.2-66.4 68.1-267.2 68.1-19.8 0-36.1 16.4-36.1 36.1 0 19.8 16.4 36.1 36.1 36.1 305.4 0 335.3-106.5 338.1-128l-35.6-4.6L772.2 533.9z" fill="#272636" p-id="2213"></path><path d="M603.5 785.3l0-24c0-19.8-16.4-36.1-36.1-36.1-19.8 0-36.1 16.4-36.1 36.1l0 55.3c0 18.1 13.9 33.7 31.9 35.6 18.6 2.3 36.7 4.6 53.6 7.6l0-72.8C612.9 787 608.1 786.5 603.5 785.3z" fill="#272636" p-id="2214"></path></svg>