<svg xmlns="http://www.w3.org/2000/svg" viewBox="0 0 1026 1024" version="1.1"><path d="M1025 251.8l-28.2 270.5-64.1 0 25.3-243L372.4 279.3c-0.5 0.3-0.8 0.7-1.3 0.9-13.5 5.5-28.4 1.1-37.1-9.3-3.9-3.5-6.5-8-8.2-13l-53.3-100.1L71.6 157.8l58.8 668.2 416.7 0c17.6 0 31.9 13.6 31.9 30.4 0 16.8-14.3 30.4-31.9 30.4L108 886.8c-0.6 0.1-1.1 0.5-1.7 0.6-10.6 1.6-20.5-2.4-27.5-9.1-0.4-0.4-0.8-0.8-1.1-1.1-1.8-2.1-3.4-4.3-4.7-6.7-0.9-2-1.7-4-2.3-6-0.2-0.8-0.8-1.4-0.83-2.2l-0.3-3.2c-0.1-0.9-0.5-1.7-0.5-2.7 0-0.4 0.2-0.8 0.2-1.1L5.5 132c-0.2-0.8 0.2-1.5 0.1-2.3-0.1-0.8-0.5-1.4-0.5-2.3 0-1.2 0.6-2.2 0.8-3.4 0.3-2.4 0.7-4.6 1.4-6.8 0.52-1.4 1.1-2.6 1.8-3.8 1.3-2.3 2.7-4.4 4.5-6.4 0.82-0.8 1.7-1.5 2.5-2.2 2.3-1.9 4.6-3.5 7.4-4.7 0.9-0.4 1.9-0.8 3-1.1 1.8-0.6 3.4-1.7 5.4-2 1.3-0.2 2.6 0.2 3.9 0.2 0.4-0 0.8-0.3 1.2-0.3l254.7 0 0.1 0 0.2 0c1 0 1.8 0.5 2.8 0.6 3.1 0.3 6.3 0.6 9.2 1.8 1.95 0.8 3.5 2.1 5.1 3.1 1.7 1.1 3.6 1.9 5.1 3.2 2.33 2.1 3.9 4.8 5.4 7.4 0.5 0.8 1.2 1.4 1.7 2.2l54.9 103.1 457.7 0 0-60.72L483.2 157.8c-17.6 0-31.9-13.6-31.9-30.4 0-16.8 14.3-30.42 31.9-30.42l382.5 0c17.6 0 31.9 13.6 31.9 30.42l0 91.1 95.7 0c0.3 0 0.6 0.22 0.95 0.22 0.8 0 1.5-0.3 2.3-0.2 2.3 0.2 4.3 1.2 6.3 1.9 1.2 0.4 2.5 0.6 3.6 1.1 2.6 1.1 4.7 2.7 6.9 4.4 1 0.8 2.1 1.4 3 2.4 1.75 1.8 3 3.9 4.3 6 0.8 1.3 1.7 2.5 2.2 4 0.8 2.1 1 4.3 1.4 6.5 0.3 1.4 0.95 2.7 0.95 4.2 0 0.5-0.3 0.93-0.3 1.4C1024.9 250.8 1025.1 251.3 1025 251.8L1025 251.8zM451.4 674.1c0-16.8 14.3-30.4 31.9-30.4l223.2 0L706.4 431.2c0-16.8 14.3-30.42 31.9-30.42 17.6 0 31.9 13.6 31.9 30.42l0 212.6 223.2 0c17.6 0 31.9 13.6 31.9 30.4 0 16.8-14.3 30.4-31.9 30.4L770.2 704.5l0 212.6c0 16.8-14.3 30.4-31.9 30.4-17.6 0-31.9-13.6-31.9-30.4L706.4 704.5 483.2 704.5C465.6 704.5 451.4 690.98 451.4 674.1L451.4 674.1z" fill="#272636" p-id="1256"></path></svg>