<svg xmlns="http://www.w3.org/2000/svg" viewBox="0 0 1024 1024" version="1.1"><path d="M849.4 1024 203.8 1024c-32.3 0-58.7-27.5-58.7-59.9L145.1 65c0-32.4 26.4-59.9 58.7-59.9l410.8 0.1 0.4 59.9L233.2 65c-10.8 0-29.4 19.1-29.4 30l0 839.1c0 10.8 18.6 30 29.4 30l587.4 0c10.8 0 29.4-19.2 29.4-30L850 304.7l58.8 0 0 659.3C908.8 996.5 881.8 1024 849.4 1024L849.4 1024zM615.1 334.7c-11.2 0-29.4-18.6-29.4-30L585.7 5.1l29.4 0 293.7 299.6 0 30L615.1 334.7 615.1 334.7zM644.4 95l0 179.8 176.2 0L644.4 95 644.4 95zM321.3 664.4l0-59.9 411.2 0 0 59.9L321.3 664.4 321.3 664.4zM497.5 844.2 497.5 424.6l58.7 0 0 419.6L497.5 844.2 497.5 844.2z" fill="#272636" p-id="1631"></path></svg>