<svg xmlns="http://www.w3.org/2000/svg" viewBox="0 0 1024 1024" version="1.1"><path d="M412.7 684.4c0-150.1 121.6-271.7 271.7-271.7s271.7 121.7 271.7 271.7c0 150.1-121.6 271.7-271.7 271.7C534.3 956.1 412.7 834.4 412.7 684.4zM174.1 616.7c-21.1 0-50.1 16.8-50.1 37.6l0 269.4c0 55.4 45.5 100.2 101.7 100.2l408 0c6.1 0 12.1-0.5 17.9-1.5 10.8 1 21.7 1.5 32.8 1.5 187.6 0 339.6-152.1 339.6-339.6 0-171.6-127.3-313.5-292.6-336.4L471.8 37.4c-8.4-11.6-30.9-32.2-40.8-31.4-11.4-5.3-29.8 12.7-43.5 31.4L14.4 483.7c-12.4 14.8-12.4 38.9 0 53.7 12.4 14.8 32.5 14.8 44.9 0L429.7 94.6l211.5 252.9c-167.1 21.2-296.4 164-296.4 336.9 0 111.1 53.3 209.7 135.8 271.7L278.3 956.1c-47.7 0-86.4-38.1-86.4-85.2L191.9 654.3C191.9 633.6 195.2 616.7 174.1 616.7zM565.5 650.4c-18.8 0-34 15.2-34 34 0 18.7 15.2 34 34 34l101.9 0 0 101.9c0 18.7 15.2 34 34 34 18.8 0 34-15.2 34-34l0-101.9 101.9 0c18.8 0 34-15.2 34-34 0-18.8-15.2-34-34-34L735.3 650.4 735.3 548.5c0-18.7-15.2-34-34-34-18.8 0-34 15.2-34 34l0 101.9L565.5 650.4 565.5 650.4z" fill="#272636" p-id="1135"></path></svg>