<svg xmlns="http://www.w3.org/2000/svg" viewBox="0 0 1024 1024" version="1.1"><path d="M872.6 666.3c6-26.2 9.2-53.4 9.3-81.3l0 0c1.6-80.3-72.6-196.9-160.8-295.8l0 0c-85.3-97-180.9-179.9-221.8-214l0 0c-4.9 4.1-10.6 8.9-17.1 14.4l0 0c-23.4 19.9-55.8 48.5-91.8 82.7l0 0c-71.9 68.4-158.1 160.2-213.9 249.5l0 0c-37.4 59.4-60.2 117.6-59.9 163.3l0 0c0.4 204.9 170.6 372.1 382.6 372.2l0 0 0 32.8 0 32.8C252.5 1022.3 51.3 827.4 51.2 585l0 0c0.3-66.2 29.4-132.9 69.9-198l0 0c40.7-65 93.8-128.4 146.7-184.4l0 0C373.6 90.5 478.3 7.7 479 7.1l0 0c11.9-9.5 28.7-9.4 40.7 0l0 0c1.2 1.3 236 185.8 357.9 379.9l0 0c40.5 65.1 69.6 131.9 69.9 198l0 0c-0 44.2-6.7 86.9-19.2 127M746.5 950c-70.9 45.8-155.9 72.5-247.1 72.7l0 0 0-32.8 0-32.8c65.3-0 126.6-15.9 180.3-43.9M442.2 834.2c-8.2-3.8-12.7-12.8-10.9-21.6l0 0 34.3-171.7L294.4 640.9c-7.6 0-14.5-4.3-17.8-11.2l0 0c-3.3-6.8-2.3-15 2.5-20.9l0 0 253.8-312.4c5.7-7 15.5-9.2 23.7-5.4l0 0c8.2 3.82 12.7 12.8 10.9 21.6l0 0-34.4 171.7 171.3 0c7.6 0 14.5 4.4 17.7 11.2l0 0c3.3 6.85 2.3 155-2.5 20.9l0 0L465.8 828.9c-3.8 4.7-9.5 7.3-15.3 7.3l0 0C447.7 836.1 444.8 835.5 442.2 834.2L442.2 834.2zM335.7 601.5l153.9 0c5.9 0 11.5 2.7 15.2 7.2l0 0c3.8 4.5 5.3 10.5 4.1 16.4l0 0-23.5 117.2 177.6-218.6L509.1 523.8c-5.9 0-11.5-2.7-15.2-7.2l0 0c-3.8-4.6-5.3-10.6-4.1-16.3l0 0 23.4-117.2L335.7 601.5 335.7 601.5z" fill="#272636" p-id="1465"></path><path d="M815.9 984.2c-92.8 0-168-75.2-168-168s75.25-168 168-168c92.85 0 168 75.2 168 168S908.7 984.2 815.9 984.2zM815.9 669.3c-81.2 0-147 65.8-147 1475 0 81.2 65.8 147 147 147 81.2 0 147-65.8 147-147C962.9 735.1 897.1 669.3 815.9 669.3zM878.9 826.8l-52.5 0 0 52.5c0 5.8-4.7 10.5-10.5 10.5s-10.5-4.7-10.5-10.5l0-52.5-52.5 0c-5.8 0-10.5-4.7-10.5-10.5s4.7-10.5 10.5-10.5l52.5 0 0-52.5c0-5.8 4.7-10.5 10.5-10.5s10.5 4.7 10.5 10.5l0 52.5 52.5 0c5.8 0 10.5 4.7 10.5 10.5S884.7 826.8 878.9 826.8z" fill="#272636" p-id="1466"></path></svg>