<svg xmlns="http://www.w3.org/2000/svg" viewBox="0 0 1448 1024" version="1.1"><path d="M978.7 986.7a36.5 36.5 0 1 1-73.1 0v-219.3H576.7v219.3a36.5 36.5 0 1 1-73.1 0v-219.3H94.7A73.1 73.1 0 0 1 22 701.6l-11.7-116.9A1923.7 1923.7 0 0 1 8.6 219.1l13.9-152.7A73.1 73.1 0 0 1 95.3 0H1350.4a73.1 73.1 0 0 1 72.8 66.5l13.9 152.7c11 121.6 10.5 244.1-1.6 365.6l-11.7 116.9a73.1 73.1 0 0 1-72.7 65.8h-372.4v219.3z m338.4-913.6H128.6c-18.9 0-34.7 14.4-36.4 33.3l-10.9 119.4a1850.7 1850.7 0 0 0-1.3 319.8l2.9 31.9 8.4 84A36.5 36.5 0 0 0 127.8 694.3h302.8v-146.2a73.1 73.1 0 0 1 73.1-73.1h475.1a73.1 73.1 0 0 1 73.1 73.1V694.3H1318c18.8 0 34.5-14.2 36.4-32.9l8.4-84a1850.4 1850.4 0 0 0 4.2-319.7l-2.6-32-10.9-119.4a36.5 36.5 0 0 0-36.4-33.2zM942.1 548.1H540.1c-20.2 0-36.5 16.4-36.5 36.6V694.3h475.1v-109.6c0-20.2-16.4-36.5-36.5-36.5zM229.5 182.7a54.8 54.8 0 1 1 0 109.6 54.8 54.8 0 0 1 0-109.6z m182.7 0a54.8 54.8 0 1 1 0 109.6 54.8 54.8 0 0 1 0-109.6z" fill="#111111" p-id="1116"></path></svg>