<svg xmlns="http://www.w3.org/2000/svg" viewBox="0 0 1024 1024" version="1.1"><path d="M876.3 0 150 0C80.1 0 16.9 58.6 16.9 128.6l0 766.9c0 67.7 56.4 128.6 133.1 128.6l726.3 0c72.2 0 133.1-56.4 133.1-128.6l0-766.9C1009.3 65.4 934.9 0 876.3 0L876.3 0zM943.9 895.4c0 36.1-29.3 63.2-65.4 63.2L159 958.6c-36.1 0-65.4-29.3-65.4-63.2L93.6 135.3c0-36.1 29.3-65.4 65.4-65.4l124.1 0L283.1 518.8l133.1-128.6 133.1 128.6L549.2 69.9l331.6 0c36.1 0 65.4 29.3 65.4 63.2L946.2 895.4 943.9 895.4z" fill="#272636" p-id="2077"></path></svg>