<svg xmlns="http://www.w3.org/2000/svg" viewBox="0 0 1024 1024" version="1.1"><path d="M950.6 10.2l-869 0C41.8 10.2 9.2 42.8 9.2 82.6l0 869c0 39.8 32.6 72.4 72.4 72.4l869 0c39.8 0 72.4-32.6 72.4-72.4L1023 82.6C1023 42.8 990.4 10.2 950.6 10.2zM950.6 951.6l-869 0L81.6 82.6l869 0L950.6 951.6zM371.3 227.5l434.5 0 0 72.4L371.3 299.9 371.3 227.5zM226.4 227.5l72.4 0 0 72.4-72.4 0L226.4 227.5zM371.3 372.3l434.5 0 0 72.4L371.3 444.7 371.3 372.3zM226.4 372.3l72.4 0 0 72.4-72.4 0L226.4 372.3zM371.3 589.5l434.5 0 0 72.4L371.3 661.9 371.3 589.5zM226.4 589.5l72.4 0 0 72.4-72.4 0L226.4 589.5zM371.3 734.3l434.5 0 0 72.4L371.3 806.8 371.3 734.3zM226.4 734.3l72.4 0 0 72.4-72.4 0L226.4 734.3z" fill="#272636" p-id="2165"></path></svg>