<svg xmlns="http://www.w3.org/2000/svg" viewBox="0 0 1024 1024" version="1.1"><path d="M935.9 233 730 10.2C724 3.7 715.6 0 706.8 0L370.3 0c-49 0-88.8 39.8-88.8 88.8l0 40.8 63.3 0L344.8 88.8c0-14.1 11.4-25.5 25.5-25.5l310.2 0 0 215.9c0 8.2 6.6 14.8 14.8 14.8l185.8 0 0 478.2c0 14.1-11.4 25.5-25.5 25.5l-79.3 0 0 63.3 79.3 0c49 0 88.8-39.8 88.8-88.8L944.3 254.5C944.3 246.5 941.3 238.8 935.9 233zM710 81.8l168.7 182.6-168.7 0L710 81.8zM530.6 173.1c-6-6.5-14.4-10.2-23.3-10.2L170.8 163c-49 0-88.8 39.8-88.8 88.8l0 683.4c0 49 39.8 88.8 88.8 88.8l485.2 0c49 0 88.8-39.8 88.8-88.8L744.9 417.4c0-7.9-3-15.6-8.4-21.5L530.6 173.1zM668.5 415.7l-142.5 0L526.1 261.5 668.5 415.7zM656 960.7 170.8 960.7c-14 0-25.5-11.4-25.5-25.5L145.3 251.8c0-14.1 11.4-25.5 25.5-25.5l322.7 0 3 3.2 0 201c0 8.2 6.6 14.8 14.8 14.8l170.3 0 0 489.9C681.5 949.2 670.1 960.7 656 960.7zM576.2 808.4 229.2 808.4c-6.3 0-11.4 5.1-11.4 11.4 0 6.3 5.1 11.4 11.4 11.4l347 0c6.3 0 11.4-5.1 11.4-11.4C587.6 813.5 582.5 808.4 576.2 808.4zM576.2 713.9 229.2 713.9c-6.3 0-11.4 5.1-11.4 11.4 0 6.3 5.1 11.4 11.4 11.4l347 0c6.3 0 11.4-5.1 11.4-11.4C587.6 719.1 582.5 713.9 576.2 713.9zM576.2 619.5 229.2 619.5c-6.3 0-11.4 5.1-11.4 11.4 0 6.3 5.1 11.4 11.4 11.4l347 0c6.3 0 11.4-5.1 11.4-11.4C587.6 624.7 582.5 619.5 576.2 619.5zM229.2 550.1l158.7 0c6.3 0 11.4-5.1 11.4-11.4s-5.1-11.4-11.4-11.4l-158.7 0c-6.3 0-11.4 5.1-11.4 11.4C217.8 545 222.9 550.1 229.2 550.1zM269.7 362.2c0 4.5 3.4 8.1 7.6 8.1 0.1 0 0.1 0 0.1 0 1.6 21.3 18.3 42.5 38.7 42.5 20.4 0 37.2-21.3 38.8-42.5 0 0 0.1 0 0.1 0 4.2 0 7.6-3.6 7.6-8.1 0-3.3-1.9-6.1-4.5-7.3 1.5-4.8 2.4-9.9 2.4-15.2 0-26-19.8-47.1-44.4-47.1-24.5 0-44.4 21.1-44.4 47.1 0 5.3 0.8 10.4 2.4 15.2C271.5 356.1 269.7 358.9 269.7 362.2zM221.9 488.1l188.5 0c2.3 0 4.1-1.8 4.1-4.1l0-14.8c0-1.1-0.5-2.2-1.3-3-18.1-17.6-40.2-30-64-35.9-0.6-0.3-1.3-0.5-2-0.5l-2.1 0c-0.7 0-1.4 0.2-2 0.5-7.2 3.8-17 6.1-27 6.1-10 0-19.8-2.2-27-6.1-0.6-0.3-1.3-0.5-2-0.5l-1.6 0c-0.3 0-0.7 0-1 0.1-24.4 5.8-47.1 18.3-65.6 36.3-0.8 0.8-1.3 1.9-1.3 3l0 14.8C217.8 486.3 219.6 488.1 221.9 488.1z" fill="#272636" p-id="2176"></path></svg>