<svg xmlns="http://www.w3.org/2000/svg" viewBox="0 0 1024 1024" version="1.1"><path d="M404 621.3l88.1 0 0-87.2-88.1 0L404 621.3zM382 424.8l-88.1 0 0 87.2 88.1 0L382 424.8zM492.1 424.8l-88.1 0 0 87.2 88.1 0L492.1 424.8zM435 840.5l-229.1-1.5 0.1-383.5 17.5-14.2 291.4-274.5L816.4 454.5c0 0 25.9 23.5 132.4 124.1l65.3-67.7L574.7 92.1l-61.8-61.3-61.7 61.3L3.1 510.9l77.8 71.4 58.6-61.3 0 383.9 359.4 0C472.5 886.9 451.6 861.5 435 840.5zM878.9 710.5 618.2 710.5c-10.1 0-18.3-2.1-18.3 7.9s8.2 10 18.3 10l260.7 0c10.1 0 18.3 1.4 18.3-8.6S889 710.5 878.9 710.5zM838.2 600.3 658.9 600.3c-95.3 0-168.2 48-168.2 143.5 0 88 77.7 150.7 163.3 162.4 13.1 12.1-20.4 64.4-20.4 64.4 21.5-15 101.5-53.4 124.5-64.9 40.8 0 80 0 80 0 95.3 0 160.2-66.3 160.2-161.9C998.3 648.3 933.4 600.3 838.2 600.3zM821.3 861.2 684.5 861.2c-64.8 0-149-53.7-149-117.9 0-64.3 84.2-100.6 149-100.6l136.7-0.6c64.8 0 133 36.9 133 101.2C954.3 807.5 886 861.2 821.3 861.2zM293.9 621.3l88.1 0 0-87.2-88.1 0L293.9 621.3zM878.9 776.1 618.2 776.1c-10.1 0-18.3-2.1-18.3 8 0 10 8.2 10 18.3 10l260.7 0c10.1 0 18.3 1.4 18.3-8.6S889 776.1 878.9 776.1z" fill="#272636" p-id="2121"></path></svg>