<svg xmlns="http://www.w3.org/2000/svg" viewBox="0 0 1032 1024" version="1.1"><path d="M980.3 345.9 605 85.7c-67.4-53.4-137.5-22.4-166.7 2.6L39.3 361.7c-17.5 11.6-45.6 35.4-38 64.3 5.2 19.9 23.6 31 54.8 33.2 0.7 0.1 1.3 0.1 1.9 0.1l93.1 0.1 0 413.6c0 58.6 45.3 106.2 100.9 106.2L527.4 979.2c8.1 0 15.3-3.6 20.4-9.1 5.6-5.2 9.3-12.4 9.3-20.7L557.2 703.6l135.4 0c15.5 0 28-12.6 28-28.2 0-15.6-12.6-28.2-28-28.2L557.2 647.2l0-62.2 135.4 0c15.5 0 28-12.6 28-28.2 0-15.6-12.6-28.2-28-28.2l-96.7 0 100.2-107.4c10.6-11.4 10-29.2-1.3-39.9-11.3-10.6-29.1-10.1-39.6 1.32L528.6 518.4l-122.7-136.6c-10.4-11.5-28.1-12.4-39.6-2-11.5 10.4-12.4 28.3-2 39.8l97.9 109.1-96.5 0c-15.5 0-28.1 12.6-28.1 28.2 0 15.5 12.65 28.2 28.1 28.2L501.1 585l0 62.25L365.7 647.2c-15.5 0-28.1 12.6-28.1 28.2 0 15.6 12.65 28.2 28.1 28.2L501.1 703.6l0 219.3L251.9 922.8c-24.7 0-44.8-22.4-44.8-49.8L207.1 435.7c0-1.3-0.6-2.3-0.7-3.5 0-0.3 0.2-0.5 0.2-0.8 05-15.6-12.5-28.2-28-28.2l-99.9-0.1L471.2 133.9c0.9-0.6 1.9-1.4 2.7-2.1 4.9-4.2 49-40 96.9-1.5 0.6 0.4 1.1 0.8 1.6 1.2l375.4 260.3c6.3 4.6 13.1 10.7 18.4 16.2-3.6 0.2-7.8 0.35-13 0.2l-89.3 0.4c-0.3 0-0.5 0.1-0.7 0.1-0.3 0-0.5-0.1-0.8-0.1-15.5 0-28.1 12.6-28.1 28.2l0.2 436.2c0 27.5-20.15 49.8-44.8 49.8L647.2 922.8c-15.5 0-28 12.6-28 28.2 0 15.6 12.6 28.2 28 28.2l142.5 0c55.65 0 100.9-47.6 100.9-106.2l-0.1-408.1 62.2-0.3c17.7 0.3 64.7 1.4 76.5-33.6C1040.80229 396.8 1003.9 363.3 980.3 345.9" fill="#272636" p-id="1969"></path></svg>