<svg xmlns="http://www.w3.org/2000/svg" viewBox="0 0 1031 1024" version="1.1"><path d="M1011.4 406.1 871.3 285.3 871.3 96.3c-73.2-89.1-128.6 5.1-128.6 5.1l0 69.4L596.1 43.6c-86.1-86.6-168.4 0-168.4 0S145.7 289.1 51 370.1c-109.2 93.4-9 139.5-9 139.5l102.9 50.4 1.2 175.3-87.4 79.7c-61.7 90 16.7 163.3 16.7 163.3 110.6 110.6 214.7-14.1 214.7-14.1l534.9 0c45-6.4 52.7-65.6 52.7-65.6l3.9-330.4 123.4-57.9C1059 460.1 1011.4 406.1 1011.4 406.1zM787.2 116.1l43.5 0 0 130.7-43.5-44.3L787.2 116.1zM231.7 950.3c0 0-50.8 61.1-111.9 0 0 0-50.1-45 0-100.3l244.3-244.3c0 0-21.8-207.6 178.7-198.9l3.9 36.9-72 68.1 90 95.1 82.3-74.6 36 7.7c0 0 16.8 199.3-208.3 173.6L231.7 950.3zM954.9 481.6l-123.4 55.3-9 322.7c-2.6 61.7-39.9 63-39.9 63L341.6 922.6l150.4-150.4c309.2 3 232.7-268.4 232.7-268.4l-95.2-11.8-60.1 55.7-31.4-34.1 58.5-55.2-10.9-103.7c-299.8-30.2-281.3 228.6-281.3 228.6l-108 106.7 1.3-168.4-96.4-43.7c-55.3-23.1-6.4-70.7-6.4-70.7L444.5 95.9c70.9-68.1 136.3-2.6 136.3-2.6l374.1 338.1C998.6 461 954.9 481.6 954.9 481.6z" fill="#272636" p-id="2143"></path></svg>