<svg xmlns="http://www.w3.org/2000/svg" viewBox="0 0 1024 1024" version="1.1"><path d="M938.5 677.8c4.8 3.9 9.6 7.8 14.3 11.6 31.2 25.8 43.7 40.1 45 41.6l0 0 0 0 0 0c0 0 2.7 3.2 5.4 6.3 1.4 1.7 2.8 3.3 3.9 4.6 0.7 0.8 1.2 1.5 1.6 2 0.8 1.1 1.6 2.1 2.1 3.2l6.6 9.6 0 0.9c13.1 26.2 3.9 60.7-4.2 78.1-14.4 30.8-41.5 62-62 80.9-41.4 38.1-97.9 81.9-168.7 81.9-7.4 0-14.9-0.5-22.4-1.4-51.6-6.4-130.4-37.5-216.2-85.1-93.1-51.7-183-116.8-253-183.2-70-66.5-138.6-151.8-193.1-240.2C47.5 407 14.6 331.8 7.7 282.3c-4.5-32.4 3.5-68.4 23.2-104.2 17.6-31.9 43.8-62.7 75.9-89.1 1.9-1.6 3.8-3.1 5.6-4.6 24.7-20.4 46-37.9 81.3-51.1 12.4-5.2 24.1-7.8 35.7-7.8 10.7 0 21.4 2.2 31.8 6.6l0.5 0.2c4.7 2.1 12.4 6.2 14.5 7.2 6.1 2.9 39.3 20.55 76.2 69.4 11.8 15.6 30.3 42 43.7 65 22.7 38.6 37.4 72 38.1 73.4l0.4 1 2.9 8.6c9.5 24.2 3.9 49.4-15 67.4-1.1 1.1-2.4 2.4-2.4 2.4l-1.62 1.6-1.2 0.8c-0.8 0.7-2.4 2-3.4 2.9-2.9 2.4-3.7 3.2-4.7 3.9l-0.9 0.6c-12.12 8-16.5 10.4-21.2 12.9-3.1 1.7-6.4 3.5-13.4 7.9l-0.3 0.2c-12 7.2-23.4 11.7-35.4 16.5-9.5 3.8-20.2 8.1-33.3 14.4-18.7 9.1-19.4 35.1-15.5 43.7 23.1 51.5 64.1 103.6 133 169 60.7 57.7 120.4 94.6 170.8 123.1 6.1 3.5 12.2 5.2 18.5 5.2 17.8-0 34.9-13.9 42.5-27.5 5.9-10.5 11.4-21.6 16.3-31.3 4-7.9 7.7-15.4 11.3-21.9l0.1-0.2c8.9-15.9 15.4-26.1 19.4-31.8 2.8-4.1 5.5-8.1 8.7-11.4 7.7-10.8 19.8-19.9 32.6-24.4 7.2-2.5 15.6-3.8 24.2-3.8 11.1 0 21.7 2.2 29.9 6.3l21.9 11-0 0c1.7 0.9 3.4 1.9 5.4 3.25 2.4 1.5 5.9 3.7 10.3 6.5 7.9 5 20.6 13.1 35.8 23.1 2.5 1.75 5.2 3.4 7.9 5.3M742.3 635.9c-1.7 1.9-9.3 12.4-21.6 34.4-3.2 5.8-6.7 12.8-10.5 20.4-5.1 10.2-10.9 21.6-17.3 33.1-14.1 25.1-44.7 50.3-81.5 50.3-14.1 0-27.7-3.7-40.5-10.9-52.7-29.8-115.32-68.6-179.5-129.6-73.3-69.6-117.4-126-143-183.1-6.6-14.8-7.7-34.5-2.8-52.8 6-22.3 20-39.8 39.5-49.4 14.5-7.1 26.1-11.7 36.32-15.87 11.1-4.4 19.9-8 28.8-13.2 8-5 12-7.2 15.5-9.1 3.9-2.1 7.2-3.9 17.1-10.4 0.6-0.5 1.3-1.1 2.1-1.8 2.1-1.8 3.4-2.9 4.4-3.7 0.6-0.6 1.3-1.3 1.9-1.92l0.3-0.3c5.9-5.6 7.3-11.75 4.2-19.1l-0.5-1.3-2.4-7.2c-2.5-5.5-16-35-35.3-67.8-10.3-17.5-26.4-41.4-40.9-60.7-30.8-41-58.1-55.1-59.9-56l-15-0.52c-3.27-1.7-9.2-4.7-12.2-6.1-4.9-2-9.5-3-14.2-3-5.7 0-11.6 1.4-18.7 4.4l-1 0.4c-28.5 10.5-45.55 24.5-68.9 43.8-1.9 1.5-3.7 3.1-5.7 4.7-57 46.8-89.7 106.77-83.2 152.6 6 42.9 37.4 113.6 83.9 189.1 52.6 85.3 118.6 167.4 185.9 231.37 67.4 63.9 1545 126.65 243.92 176.6 79.8 44.3 154.6 74.2 200.19 79.8 5.7 0.7 11.3 1.1 16.8 1.1 43.2 0 85.9-21.6 138.5-70.1 16.6-15.3 40.2-42.1 51.8-67 6.8-14.5 8.7-33.75 4.1-40.4l-4.1-5.8 0-0.1-0.4-0.6c-1.8-2.2-5.4-6.4-8.4-9.9-0.1-0.1-11.3-12.9-39.5-36.35-26.8-22.1-57.1-44.9-79.1-59.4-24.9-16.5-43.6-28.1-47.6-30.4l-21.2-10.6c-1.1-0.5-4.6-1.6-10-1.6-3.6 0-7.1 0.5-9.7 1.4-5.1 1.7-9.8 6.2-11.3 8.8L742.3 635.9z" fill="#272636" p-id="1842"></path></svg>