<?xml version="1.0" standalone="no"?><!DOCTYPE svg PUBLIC "-//W3C//DTD SVG 1.1//EN" "http://www.w3.org/Graphics/SVG/1.1/DTD/svg11.dtd"><svg t="1690871337219" class="icon" viewBox="0 0 1024 1024" version="1.1" xmlns="http://www.w3.org/2000/svg" p-id="5841" xmlns:xlink="http://www.w3.org/1999/xlink" width="200" height="200"><path d="M580.416 205.447l-29.451 202.901-11.456 65.455h202.902L452.786 784.697l58.907-168.538 26.182-76.906H284.248l296.168-333.806zM626.232 81.09c-6.543 0-14.726 3.274-19.634 8.183L177.886 575.252c-6.544 8.183-1.635 21.273 11.456 21.273h269.986L352.972 902.51c-6.547 19.639 8.182 35.999 24.543 35.999 6.547 0 14.725-1.634 19.638-8.178l459.798-490.892c6.547-8.182 1.635-22.908-8.183-22.908h-242.17l45.815-302.717c3.275-19.634-11.455-32.724-26.181-32.724" p-id="5842"></path></svg>