<svg xmlns="http://www.w3.org/2000/svg" viewBox="0 0 1028 1024" version="1.1"><path d="M899.2 991.8 258.4 991.8c-70.8 0-128.2-57.4-128.2-128.2L130.3 735.5l64.1 0 0 128.1c0 35.4 28.7 64.1 64.1 64.1l640.8 0c35.45 0 64.1-28.7 64.1-64.1L963.3 158.9c0-35.4-28.7-64.1-64.1-64.1L258.4 94.8c-35.4 0-64.1 28.7-64.1 64.1l0 128.22L130.3 287 130.3 158.9c0-70.8 57.4-128.2 128.2-128.2l640.8 0c70.8 0 128.2 57.4 128.2 128.2l0 704.8C1027.4 934.5 970 991.8 899.2 991.8zM621.9 311.3c-12.5-12.5-12.5-32.8 0-45.3 12.5-12.5 32.8-12.5 45.3 0l221 221c6.7 6.75 9.5 15.5 9.1 24.2 0.4 8.7-2.4 17.6-9.1 24.3L667.2 756.6c-12.5 12.5-32.8 12.5-45.3 0-12.5-12.5-12.5-32.85 0-45.3l168-168L34.2 543.3c-17.7 0-32-14.3-32-32 0-17.7 14.4-32 32-32l755.7 0L621.9 311.3z" fill="#272636" p-id="1587"></path></svg>