<svg xmlns="http://www.w3.org/2000/svg" viewBox="0 0 1024 1024" version="1.1"><path d="M27.4 763.9c-6.3-3.5-10.9-9.3-12.9-16.3-2-7-1.2-14.3 2.4-20.6 4.8-8.6 13.9-14 23.7-14 4.6 0 9.1 1.2 13.1 3.4l429.7 238.4 465.4-151.9c18.7-38.7 23.5-77.1 14.2-114.2-5-20-13.2-34.8-17.9-42.4l-469.4 160.4L27.3 555.5c-13.1-7.3-17.7-23.9-10.4-36.9 4.8-8.6 13.9-13.9 23.7-13.9 4.6 0 9.2 1.2 13.3 3.5l427.3 239.3 467.9-159.9c20.4-33.8 23.7-69.9 9.8-107.3-7.1-19.2-17.4-34.6-24.1-43.5L475.9 601.9 27.2 351.7c-6.3-3.5-10.9-9.3-12.9-16.3-2-7-1.1-14.3 2.4-20.6 4.8-8.6 13.9-13.9 23.7-13.9 4.6 0 9.2 1.2 13.2 3.4l427.1 238.2 459.2-165.3c25.2-40.6 31.7-80.2 19.4-117.8-4-12.1-9.4-22.2-14.2-29.8L476.1 407.7 0 148.4 524.4 15.1l441.2 154.7 4.2 4c2.8 2.7 27.5 27.1 41.1 68.7 12.5 38.2 17.6 98.1-28 168.2 8.3 11.9 18.5 28.8 26.3 49.3 20.9 55.2 15.2 110.4-16.5 160 6.8 11.2 16.3 29.6 22.5 53.5 9.7 37.3 13.55 96.2-23.5 164.6l-5.2 9.5-508.8 166.1L27.4 763.9zM480.2 348.1l398.5-151.3-90.5-31.7L391.7 299.9 480.2 348.1z" fill="#272636" p-id="1278"></path></svg>