<svg xmlns="http://www.w3.org/2000/svg" viewBox="0 0 1024 1024" version="1.1"><path d="M945.7 88.6 78.3 88.6C35.1 88.6 0 129.1 0 178.8L0 845.2C0 894.9 35.1 935.4 78.3 935.4L945.7 935.4C988.9 935.4 1024 894.9 1024 845.2L1024 178.8C1024 129.1 988.9 88.6 945.7 88.6L945.7 88.6ZM78.3 139.2 948.1 145.1C958.1 145.1 967.1 152.4 967.1 163.9L967.1 314.4 512 540.2 56.9 314.4 56.9 182.7C56.9 171.2 68.3 139.2 78.3 139.2L78.3 139.2ZM948.1 878.9 75.9 878.9C65.9 878.9 56.9 852.8 56.9 841.3L56.9 389.7 505.4 594.1C505.5 594.2 505.7 594.2 505.9 594.3 506 594.4 506.2 594.4 506.4 594.5 507 594.8 507.6 595 508.2 595.2L508.2 595.2C508.8 595.4 509.5 595.6 510.1 595.8 510.2 595.8 510.4 595.9 510.5 595.9 511.8 596.2 513.1 596.4 514.4 596.6 514.6 596.6 514.7 596.6 514.8 596.6 515.5 596.7 516.2 596.7 516.8 596.7L516.8 596.7 516.8 596.7C517.5 596.7 518.1 596.7 518.8 596.6 519 596.6 519.1 596.6 519.2 596.6 520.5 596.4 521.9 596.2 523.2 595.9 523.3 595.8 523.4 595.8 523.6 595.8 524.8 595.5 526.1 595 527.4 594.5 527.5 594.4 527.7 594.3 527.8 594.3 528 594.2 528.2 594.1 528.4 594L963.8 385 967.1 841.3C967.1 852.8 977.1 878.9 967.1 878.9L948.1 878.9Z" p-id="2099"></path></svg>