<svg xmlns="http://www.w3.org/2000/svg" viewBox="0 0 1024 1024" version="1.1"><path d="M981.5 550.1c-3.9-51.3-13.8-102.4-28.7-147.7-22.9-69.4-57.1-135.7-96.3-186.8-10.7-13.9-31.4-17.1-46.3-7.1-14.9 9.9-18.3 29.3-7.6 43.2 35.1 45.7 65.9 105.7 86.8 168.9 13.5 40.8 22.4 87 25.9 133.7 12.8 170.1-62.1 309.1-206.9 387.9-23.7-182.3-175-241.8-181.9-244.4a35.2 35.2 0 0 0-28.6 1.6c-131.7 68.3-170 183-181.1 247.2-130.3-64.1-209.5-184.7-209.5-323.7 0-93.6 49.9-180.4 152.5-265.2 13.6-11.3 27.5-22.4 41.5-33.5 75.4-60.1 153.4-122.2 192.7-216.8 4.3-10.2 8-19.5 11.1-27.8 69.4 45.6 219.7 168.9 268.5 404.6 3.5 16.8 21 27.8 38.8 24.6 18-3.2 29.8-19.5 26.3-36.3C771.2 146.8 529 18.1 501.5 4.4c-0.9-0.5-1.9-0.9-2.9-1.4-16.4-7.3-36-0.9-44.1 14.3-2.3 4.3-3.3 8.9-3.4 13.5-3.1 11.4-16 46.8-19 54.3-33.3 80-101.6 134.5-173.9 192.1-14.2 11.3-28.4 22.7-42.3 34.2C99.8 407.2 41 512.1 41 623c0 178.9 112 331.8 292.2 398.9 3.9 1.5 8.1 2.2 12.2 2.2a34.8 34.8 0 0 0 18.8-5.4c9.1-5.8 14.5-15.5 14.5-25.8-0-6.3 0.5-150.4 136.6-230.9 36 19.3 129.9 83.7 129.9 229.7 0 10.5 5.7 20.4 15.2 26.1a35 35 0 0 0 31.7 2.2c197-83.5 305.3-259.1 289.5-469.8M473.1 62.3" fill="#0" p-id="1302"></path></svg>