<svg xmlns="http://www.w3.org/2000/svg" viewBox="0 0 1024 1024" version="1.1"><path d="M286.5 314.7l209.8 0c12.4 0 22.5-10.1 22.5-22.5s-10.1-22.5-22.5-22.5L286.5 269.7c-12.4 0-22.5 10.1-22.5 22.5S274.1 314.7 286.5 314.7zM264 516.9c0 12.4 10.1 22.5 22.5 22.5l449.5 0c12.4 0 22.5-10.1 22.5-22.5s-10.1-22.5-22.5-22.5L286.5 494.5C274.1 494.5 264 504.5 264 516.9zM698.5 15l-45 0L653.6 0l0 0L653.6 15 159.1 15c-33.1 0-59.9 26.8-59.9 59.9l0 884c0 33.1 26.8 59.9 59.9 59.9l719.2 0c33.1 0 59.9-26.8 59.9-59.9L938.3 269.7l0 0L698.5 15zM698.5 74.9l179.8 194.8L728.5 269.7c-16.6 0-30-13.4-30-30L698.5 74.9 698.5 74.9zM878.3 929c0 16.5-13.4 30-30 30L189.1 959c-16.6 0-30-13.4-30-30L159.1 104.9c0-16.5 13.4-30 30-30l464.5 0 0 179.8c0 33.1 26.8 59.9 59.9 59.9l164.8 0L878.3 929 878.3 929zM736 734.2 286.5 734.2c-12.4 0-22.5 10.1-22.5 22.5 0 12.4 10.1 22.5 22.5 22.5l449.5 0c12.4 0 22.5-10.1 22.5-22.5C758.5 744.3 748.4 734.2 736 734.2z" fill="#272636" p-id="2029"></path></svg>