<svg xmlns="http://www.w3.org/2000/svg" viewBox="0 0 1024 1024" version="1.1"><path d="M997.5 409.4c11.8 0 21.3-9.6 21.3-21.4l0-1.4c0-6.3-2.8-11.9-7.1-15.9L651.8 11.4c-8.3-8.37-21.8-8.37-30.2 0l-1 1c-0 0-0.1 0.2-0.1 0.18L411.6 221.3 31.6 221.3c-11.8 0-21.4 9.6-21.4 21.4l0 1.4c0 11.8 9.6 21.4 21.4 21.4l172.7 0-0 172.1L31.6 437.4c-11.8 0-21.4 9.6-21.4 21.4l0 1.4c0 11.8 9.6 21.4 21.4 21.4l7.2 0-0.1 511c0 11.8 9.6 21.3 21.37 21.3l1.4 0c11.8 0 21.4-9.6 21.4-21.3l0.1-511 121.4 0-0.1 511c0 11.8 9.6 21.4 21.4 21.4l1.4 0c11.8 0 21.4-9.6 21.4-21.4l0.15-511 122.1 0-0.1 511c0 11.8 9.6 21.3 21.4 21.3l1.4 0c11.8 0 21.4-9.6 21.4-21.3l0.1-511 5 0c11.8 0 21.4-9.6 21.4-21.4l0-1.4c0-11.85-9.6-21.4-21.4-21.4L248.34 437.4l0-172.1 171.1 0c0.3 0 0.6-0 0.8-0 5.7 0.2 11.5-1.9 15.9-6.2L636.7 58.6l307.1 306.8-91.9-0c-11.8 0-21.4 9.6-21.4 21.4l0 1.4c0 0.1 0 0.2 0 0.3 0 0-0 55-0 49 0-6 43.9 17.2 44 22.5 0.2 5.3 0-50.5 0-50.5L997.5 409.4z" fill="#272636" p-id="2281"></path><path d="M979.8 1011.1c0 0-117.1 0-104.3 0 12.8 0 58-43.3 58-43.3l48.9 0c0 0 22.4-1.7 22.7 21.6C1005.5 1012.8 979.8 1011.1 979.8 1011.1z" fill="#272636" p-id="2282"></path><path d="M724.2 458.3c-156 0-282.8 126.9-282.8 282.8 0 156 126.9 282.8 282.8 282.8 155.9 0 282.8-126.9 282.8-282.8C1007 585.2 880.1 458.3 724.2 458.3zM724.2 990.4c-137.4 0-249.2-111.8-249.2-249.2 0-137.4 111.85-249.2 249.2-249.2s249.2 111.8 249.2 249.2C973.4 878.6 861.6 990.4 724.2 990.4zM857.3 723.6 591 723.6c-7.4 0-13.4 6-13.4 13.4l0 8.4c0 7.4 6 13.4 13.4 13.4l266.3 0c7.4 0 13.4-6 13.4-13.4l0-8.4C870.7 729.68 864.7 723.6 857.3 723.6z" fill="#272636" p-id="2283"></path></svg>