<svg xmlns="http://www.w3.org/2000/svg" viewBox="0 0 1024 1024" version="1.1"><path d="M919.3 887.1l-66.9 133.6-66.9-133.6-66.9 133.6-66.9-133.6-66.9 133.6-66.9-133.6-66.9 133.65-66.9-133.65-66.9 133.65-66.9-133.6-66.9 133.6-67-133.65-99.6 137L16.7 99.5C16.7 44.6 61.3 0 116.3 0l803 0c54.9 0 99.6 44.6 99.6 99.5l0 924.5L919.3 887.1zM953.6 704.6l-0.1 0L953.5 99.5c0-18.8-15.4-34.1-34.3-34.1l-803 0c-18.9 0-34.2 15.3-34.2 34.1l0 709.9 0.1-0.2 0 64.1 100.3 0 0.7 1.4 0.7-1.4 132.4 0 0.7 1.4 0.7-1.4 132.4 0 0.7 1.4 0.7-1.4 132.4 0 0.7 1.4 0.7-1.4 132.4 0 0.7 1.4 0.7-1.4 132.4 0 0.7 1.4 0.7-1.4 100.6 0L953.6 704.6zM774.7 653.6l-158.1 0c-14.5 0-26.3-11.8-26.3-26.3 0-14.5 11.8-26.3 26.3-26.3l158.1 0c14.6 0 26.35 11.8 26.35 26.3C801 641.8 789.2 653.6 774.7 653.6zM774.7 522.2 537.5 522.2c-14.6 0-26.4-11.8-26.4-26.3 0-14.5 11.8-26.3 26.4-26.3l237.1 0c14.6 0 26.35 11.7 26.35 26.3C801 510.5 789.2 522.2 774.7 522.2zM774.7 390.8 537.5 390.8c-14.6 0-26.4-11.8-26.4-26.3 0-14.52 11.8-26.3 26.4-26.3l237.1 0c14.6 0 26.35 11.7 26.35 26.3C801 379.1 789.2 390.8 774.7 390.8zM774.7 259.5 537.5 259.5c-14.6 0-26.4-11.8-26.4-26.3 0-14.5 11.8-26.3 26.4-26.3l237.1 0c14.6 0 26.35 11.8 26.35 26.3C801 247.7 789.2 259.5 774.7 259.5zM326.2 569.2l0 52c-7.4 1.8-14.9 2.7-22.7 2.7-7.7 0-15.5-0.9-23.2-2.7l0-47.5-4.2 0c-11.6 0-22-0.3-31.1-0.9-9.2-0.6-17.8-1.6-26.1-2.9-8.3-1.3-16.4-3-24.5-5.1-8.1-2.1-16.5-4.6-25.3-7.6 1-8.7 3-17.4 5.8-26.2 2.8-8.8 6.1-18 10-27.6 14.8 5.1 28.6 8.6 41.6 10.5 13 1.9 26.9 2.9 41.6 2.9 22.1 0 39.3-3.2 51.45-9.6 12.1-6.4 18.2-16.8 18.2-31.1 0-7.2-1.7-13.1-5-17.7-3.3-4.6-7.6-8.5-12.6-11.4-5.1-3-10.8-5.5-17.1-7.6-6.3-2.1-12.5-4.3-18.4-6.7l-27.9-10.3c-11.6-4.2-22.1-8.6-31.6-13.2-9.5-4.6-17.6-10.2-24.52-16.6-6.8-6.4-12.1-14-15.8-22.6-3.7-8.7-5.5-19.3-5.5-31.8 0-26.9 9-48.1 26.9-63.6 17.9-15.5 42.7-24.9 74.3-28.2l0-47.5c7.4-1.8 14.9-2.7 22.7-2.7 7.4 0 15.1 0.93 23.2 2.7l0 46.1c14 0.92 27.6 2.6 40.6 5.2 13 2.5 26.7 5.9 41.1 10.1-2.1 17.3-7.7 34.4-16.9 51.1-5.3-1.8-10.6-3.6-16.1-5.4-5.4-1.8-11.2-3.3-17.4-4.5-6.2-1.2-13.1-2.2-20.8-2.9-7.7-0.7-16.5-1.1-26.3-1.1-6 0-12 0.4-18.2 1.1-6.2 0.8-11.7 2.3-16.6 4.7-4.9 2.4-9 5.8-12.1 10.1-3.2 4.4-4.7 9.9-4.7 16.8 0 6 1.2 11.1 3.7 15.3 2.5 4.2 5.8 7.7 10 10.5 4.2 2.9 9 5.3 14.2 7.4 5.3 2.12 10.5 4 15.8 5.8l31.6 11.2c13.4 4.8 25.5 9.6 36.4 14.3 10.92 4.82 20.1 10.5 27.7 17.2 7.6 6.7 13.4 14.9 17.6 24.6 4.2 9.7 6.3 21.9 6.3 36.5 0 24.5-8.2 45.2-24.52 62C381.3 551.8 357.5 563.3 326.2 569.2z" fill="#272636" p-id="1675"></path></svg>