<svg xmlns="http://www.w3.org/2000/svg" viewBox="0 0 1024 1024" version="1.1"><path d="M834.1 1023.4C834.1 1023.4 189 1023.4 189 1023.4 136.1 1023.4 93 984.7 93 937.1 93 937.1 93 86.5 93 86.5 93 38.9 136.1 0.2 189 0.2 189 0.2 701.6 0.2 701.6 0.2 701.6 0.2 930 187.9 930 187.9 930 187.9 930 937.1 930 937.1 930 984.7 887 1023.4 834.1 1023.4ZM189 63.1C171 63.1 155.9 73.8 155.9 86.5 155.9 86.5 155.9 937.1 155.9 937.1 155.9 949.8 171 960.5 189 960.5 189 960.5 834.1 960.5 834.1 960.5 852 960.5 867.1 949.8 867.1 937.1 867.1 937.1 867.1 229.1 867.1 229.1 867.1 229.1 690.3 229.1 690.3 229.1 690.3 229.1 690.3 72.3 690.3 72.3 690.3 72.3 679.1 63.1 679.1 63.1 679.1 63.1 189 63.1 189 63.1ZM790.4 361.9C790.4 372.3 781.9 380.7 771.5 380.7 771.5 380.7 494.9 380.7 494.9 380.7 484.4 380.7 476 372.3 476 361.9 476 351.4 484.4 343 494.9 343 494.9 343 771.5 343 771.5 343 781.9 343 790.4 351.4 790.4 361.9ZM357.3 456.6C357.3 456.6 310.1 456.6 310.1 456.6 270.9 456.6 239 424.7 239 385.5 239 385.5 239 338.3 239 338.3 239 299.1 270.9 267.2 310.1 267.2 310.1 267.2 357.3 267.2 357.3 267.2 396.5 267.2 428.4 299.1 428.4 338.3 428.4 338.3 428.4 385.5 428.4 385.5 428.4 424.7 396.5 456.6 357.3 456.6ZM390.6 338.3C390.6 319.9 375.7 304.9 357.3 304.9 357.3 304.9 310.1 304.9 310.1 304.9 291.7 304.9 276.8 319.9 276.8 338.3 276.8 338.3 276.8 385.5 276.8 385.5 276.8 403.9 291.7 418.8 310.1 418.8 310.1 418.8 357.3 418.8 357.3 418.8 375.7 418.8 390.6 403.9 390.6 385.5 390.6 385.5 390.6 338.3 390.6 338.3ZM271.2 524.5C271.2 524.5 767.9 524.5 767.9 524.5 778.3 524.5 786.7 532.9 786.7 543.3 786.7 553.8 778.3 562.2 767.9 562.2 767.9 562.2 271.2 562.2 271.2 562.2 260.8 562.2 252.3 553.8 252.3 543.3 252.3 532.9 260.8 524.5 271.2 524.5ZM271.2 649.2C271.2 649.2 767.9 649.2 767.9 649.2 778.3 649.2 786.7 657.6 786.7 668.1 786.7 678.4 778.3 686.9 767.9 686.9 767.9 686.9 271.2 686.9 271.2 686.9 260.8 686.9 252.3 678.4 252.3 668.1 252.3 657.6 260.8 649.2 271.2 649.2ZM271.2 780.2C271.2 780.2 547.8 780.2 547.8 780.2 558.3 780.2 566.7 788.6 566.7 799 566.7 809.4 558.3 817.9 547.8 817.9 547.8 817.9 271.2 817.9 271.2 817.9 260.8 817.9 252.3 809.4 252.3 799 252.3 788.6 260.8 780.2 271.2 780.2Z" fill="#272636" p-id="2018"></path></svg>