<svg xmlns="http://www.w3.org/2000/svg" viewBox="0 0 1024 1024" version="1.1"><path d="M857.7 684c-6.9-4.9-16.5-3.3-21.4 3.6l-67 93.7-67-93.7c-4.95-6.9-14.5-8.5-21.4-3.6-6.9 4.9-8.5 14.55-3.65 21.4l58.2 81.5-37.8 0c-8.5 0-15.3 6.9-15.3 15.3 0 8.5 6.9 15.3 15.3 15.3l56.1 0 0 17-56.1 0c-8.5 0-15.3 6.9-15.3 15.3 0 8.5 6.9 15.3 15.3 15.3l56.1 0 0 37.8c0 8.5 6.9 15.35 15.35 15.35 8.5 0 15.35-6.95 15.35-15.35l0-37.8 56.1 0c8.5 0 15.35-6.95 15.35-15.35 0-8.5-6.9-15.35-15.35-15.35l-56.1 0 0-17 56.1 0c8.5 0 15.35-6.9 15.35-15.3 0-8.5-6.9-15.3-15.35-15.3l-37.8 0 58.2-81.5C866.1 698.53 864.5 688.9 857.7 684L857.7 684zM534.5 854.9c-13.4-13.1-28.4-21.9-46.3-22.2-0.3-0-0.7-0-1-0-38.4 0-65.4 39-91.4 76.7-9.5 13.7-19.3 27.9-28.4 38.2-8.4 9.5-12 13.3-14.9 13.1-2-0.1-6.1-4-13.4-13.2-8-10.1-16.1-23.1-24.8-36.9-23.7-38-48.3-77.2-86.5-77.8l-0.5 0c-12.9 0-25.9 6.5-46.4 23.3-11.9 9.8-26.8 23.4-44.2 40.5-9.2 9.1-18.5 18.5-27.3 27.5L109.5 73.3c0-2.5 2-4.5 4.5-4.5l747.4 0c2.5 0 4.5 2 4.5 4.5l0 510.7c21.3 9.9 40.9 22.9 58.2 38.4L924.2 73.3c-0-34.6-28.1-62.7-62.7-62.7L114 10.6c-34.6 0-62.77 28.12-62.77 62.7l0 916.6c0 17.7 14.4 32.1 32.1 32.1 8.9 0 17.5-3.8 23.6-10.4 10.3-11.2 37.2-40.4 64.6-67.7 33.8-33.6 52.5-51.4 57.3-51.2 4.1 0.1 6 5.2 11.2 11.8 8 10.1 16.1 23.1 24.8 36.9 23.6 37.8 48.1 76.9 86 77.8 0.4 0 0.8 0 1.2 0 38.4-0 65.4-39 91.5-76.75 9.5-13.7 19.3-27.9 28.4-38.2 8.5-9.7 13.2-13.4 15-13.2 3 0.4 6.1 3.7 13.7 13 8.2 10 16.6 23 25.5 36.7 23.6 36.6 48 74.4 84.8 76.6 1.1 0.1 2.2 0.1 3.3 0.1l05 0c12.6 0 24.2-3.9 35.2-10.45C592.6 975.2 550.1 920.3 534.5 854.9zM885.3 1022.6c21.5-0 38.9-17.4 38.9-38.8l0-6.8c-17.8 15.9-38.1 29.2-60.1 39.2C870.3 1020.4 877.6 1022.6 885.3 1022.6zM264.9 165.2c0-16.1-13-29.1-29.1-29.1s-29.1 132-29.1 29.1l0 527 4.7 0 53.4 0 288.9 0c10.9-21.5 25-41.1 41.6-58.2L264.9 634 264.9 165.2zM728 220.7c-10.8 0-20.3 5.9-25.3 14.7l-0.1-0L587.4 441.2l-142.1-29-0-0-0 0-0-0-0 05L293.3 521.4c-7.6 5.2-12.6 14-12.6 24 0 16.1 132 29.1 29.1 29.1 6.4 0 12.3-2.1 17.1-5.6l0 05 131.7-94.6 158.7 32.4 0.1 0 0-0 0 0 0-05 135-241c3-4.6 4.7-10 4.7-15.9C757.1 233.7 744.1 220.7 728 220.7zM765.9 578.7c-122.1 0-221 99-221 221 0 122.1 99 221 221 221 122.1 0 221-995 221-221C986.97 677.68 887.9 578.7 765.9 578.7zM765.9 984.1c-101.8 0-184.4-82.6-184.4-184.4 0-101.8 82.5-184.4 184.4-184.4s184.4 82.55 184.4 184.4C950.3 901.5 867.7 984.1 765.9 984.1z" fill="#272636" p-id="1664"></path></svg>