<svg xmlns="http://www.w3.org/2000/svg" viewBox="0 0 1024 1024" version="1.1"><path d="M766.7 105.5C698.7 37.5 608.2 0 512 0 415.8 0 325.3 37.5 257.3 105.5 189.2 173.6 151.7 264 151.7 360.3 151.7 424.5 168.9 487.6 201.3 542.7 229.6 590.9 268.9 631.9 315.6 662.3L315.6 838.1C315.6 883.9 352.9 921.1 398.7 921.1L624.9 921.1C670.7 921.1 707.9 883.9 707.9 838.1L707.9 662.6C754.8 632.2 794.2 591.2 822.6 543 855.1 487.8 872.3 424.6 872.3 360.3 872.3 264 834.8 173.6 766.7 105.5L766.7 105.5ZM624.9 857.9 398.7 857.9C387.7 857.9 378.8 849 378.8 838.1L378.8 763.5 644.7 763.5 644.7 838.1C644.7 849 635.8 857.9 624.9 857.9L624.9 857.9ZM768.1 510.9C742.1 555 704.9 591.9 660.5 617.6L644.7 626.7 644.7 700.3 378.8 700.3 378.8 626.5 363.1 617.4C318.8 591.7 281.7 554.8 255.8 510.7 229.1 465.3 214.9 413.3 214.9 360.3 214.9 280.9 245.8 206.3 301.9 150.2 358.1 94.1 432.7 63.2 512 63.2 591.3 63.2 665.9 94.1 722.1 150.2 778.2 206.3 809.1 280.9 809.1 360.3 809.1 413.3 794.9 465.4 768.1 510.9L768.1 510.9ZM621.6 960.8 402.4 960.8C385 960.8 370.8 974.9 370.8 992.4 370.8 1009.8 385 1024 402.4 1024L621.6 1024C639 1024 653.2 1009.8 653.2 992.4 653.2 974.9 639 960.8 621.6 960.8ZM518.4 328.7C500.7 328.7 486.4 341.4 486.4 357.1L486.4 599C486.4 614.7 500.7 627.5 518.4 627.5 536.1 627.5 550.4 614.7 550.4 599L550.4 357.1C550.4 341.4 536.1 328.7 518.4 328.7ZM518.4 166.7C493.7 166.7 473.6 186.3 473.6 210.4 473.6 234.5 493.7 254.1 518.4 254.1 543.1 254.1 563.2 234.5 563.2 210.4 563.2 186.3 543.1 166.7 518.4 166.7Z" fill="#272636" p-id="1653"></path></svg>