<svg xmlns="http://www.w3.org/2000/svg" viewBox="0 0 1024 1024" version="1.1"><path d="M913.3 450.2a35.2 35.2 0 0 0-44.1 23.8 459.1 459.1 0 0 1-44.7 102.6c-65.3 109.9-179.2 172.9-312.6 172.9-133.5 0-247.4-63.1-312.7-173a460.1 460.1 0 0 1-44.6-102.5 35.3 35.3 0 0 0-44.1-23.8 35.8 35.8 0 0 0-23.5 44.6 531.9 531.9 0 0 0 51.7 118.5c71.3 120.2 195.9 195.4 337.9 206.2v168.7c0 19.7 15.8 35.7 35.3 35.7 19.5 0 35.3-16 35.3-35.7v-168.7c142-10.8 266.5-86 337.9-206.1a531.3 531.3 0 0 0 51.8-118.6 35.8 35.8 0 0 0-23.5-44.6z m16.1-270.7a69.8 69.8 0 0 0-63.1-42.7l-10.9-0.1c-62.9 0-120.4 19.1-171.1 40.4C640 100.2 598.6 48.9 555.6 17.1a69.7 69.7 0 0 0-73.2-11.4 69.8 69.8 0 0 0-17.1 10.3c-42.9 31.3-85.6 83.7-130.1 159.7-50.1-20.5-106.7-39-167.3-39l-10.7 0.1a69.7 69.7 0 0 0-62.8 42.6C70 237.4 60 306.5 65.5 379.2a35.5 35.5 0 0 0 37.9 32.9 35.6 35.6 0 0 0 32.5-38.3c-4.6-61 3.4-118.3 23.2-165.6l9.2-0.1c58.9 0 115.3 22.5 168.1 45.5 16.6 7.3 36 0.6 44.8-15.4 45.4-82.4 86.7-136.3 126.3-164.8 0.9-0.6 1.2-1.5 1.9-2.2 1.1 1 2.2 1.9 3.4 2.8 39.3 28.6 80.3 82.9 125.4 165.9a35.2 35.2 0 0 0 45.3 15.5c50.9-22.8 110.3-47.1 171.7-47.1l9.7 0.1c18.7 44.7 26.9 98.5 23.8 156-1.1 19.7 13.9 36.5 33.4 37.6 19.3 1.4 36.1-14 37.2-33.7 3.7-68.6-6.6-133.8-29.7-188.6z m-555.4 126.5c-19.5 0-35.3 16-35.3 35.7v34.8c0 19.7 15.8 35.7 35.3 35.7 19.5 0 35.3-16 35.3-35.7v-34.8c0-19.7-15.8-35.7-35.3-35.7z m275.7 0c-19.5 0-35.3 16-35.3 35.7v34.8c0 19.7 15.8 35.7 35.3 35.7 19.5 0 35.3-16 35.3-35.7v-34.8c0-19.7-15.8-35.7-35.3-35.7z m-50.7 161.7a35.3 35.3 0 0 0-48.8 10c-0.1 0.2-15.4 22.6-38.6 22.6-22.6 0-36.7-20.7-37.6-22.2a35.1 35.1 0 0 0-48.4-11.2 35.9 35.9 0 0 0-11.4 49.2c12.7 20.6 47.5 55.6 97.4 55.6 49.7 0 84.9-34.7 97.9-55.2a35.8 35.8 0 0 0-10.5-48.9z m300.4 323.3a35.1 35.1 0 0 0-49.4-7.5L614.6 959.4a36 36 0 0 0-7.4 50 35.2 35.2 0 0 0 49.4 7.5l235.5-175.9c15.7-11.7 19-34.1 7.4-50z m-490.2 168.4L173.8 783.4a35.1 35.1 0 0 0-49.4 7.5 36 36 0 0 0 7.4 50l235.5 175.9a35.2 35.2 0 0 0 49.4-7.5 36 36 0 0 0-7.4-49.9z" fill="#111111" p-id="1047"></path></svg>