<svg xmlns="http://www.w3.org/2000/svg" viewBox="0 0 1024 1024" version="1.1"><path d="M621.7 96a32 32 0 0 1 0 64H257.6A97.6 97.6 0 0 0 160 257.6v508.8a97.6 97.6 0 0 0 97.6 97.6h507.3a97.6 97.6 0 0 0 97.6-97.2l1.6-356.9a32 32 0 0 1 64 0.3l-1.6 356.9a161.6 161.6 0 0 1-161.6 160.9H257.6A161.6 161.6 0 0 1 96 766.4V257.6A161.6 161.6 0 0 1 257.6 96H621.7z" fill="#111111" p-id="659"></path><path d="M753.3 113.6L455.6 409.6a64 64 0 0 0-18.9 45.4v53.8a67.2 67.2 0 0 0 65.8 67.2l51 1.1a64 64 0 0 0 45.7-17.8L902.8 267.9a107.9 107.9 0 0 0 3.2-152.5l-1.5-1.5a107 107 0 0 0-151.3-0.4z m106.5 46.1a43.9 43.9 0 0 1-1.3 62.1L554.9 513.2l-51-1.1a3.2 3.2 0 0 1-3.2-3.2v-53.8L798.4 158.9a43 43 0 0 1 58.1-2.3l3.3 3.1z" fill="#111111" p-id="660"></path><path d="M772.3 154.9l94.7 95.3-45.4 45.1-94.7-95.3z" fill="#111111" p-id="661"></path></svg>