<svg xmlns="http://www.w3.org/2000/svg" viewBox="0 0 1025 1024" version="1.1"><path d="M643 1023l-0.3 0c-7.8 0-15.2-4-19.4-10.5-24.6-37.8-66.2-60.4-111.2-60.4-45 0-86.6 22.6-111.2 60.4-4.3 6.6-11.6 10.5-19.4 10.5-4.1 0-8.4-1.1-11.9-3.1l-225.2-130c-10.7-6.2-14.7-19.6-9.1-30.6 20.5-40.3 19.3-87.6-3.3-126.6-22.7-39.3-63.4-64.1-109-66.2-7.9-0.4-15.1-4.7-19-11.6l-0.7-1.3C1.1 650 0 646 0 642L0 383c0-12.4 9.8-22.7 22.2-23.2 45.8-1.9 86.7-26.6 109.6-66.2 23.2-40.1 23.9-88.5 1.9-129.4-3.8-7.1-3.7-15.6 0.3-22.5 2-3.6 5-6.6 8.6-8.7L367.7 3.11c10.9-6.3 24.8-2.8 31.4 7.9 24.4 39.5 66.6 63.1994 113 63.1994 46.3 0 88.6-23.6 113-63.1994 6.6-10.7 20.5-14.2 31.4-7.9l225.1 130c3.6 2.1 6.5 5 8.5 8.6 4 7 4.1 15.6 0.3 22.6-22 40.9-21.3 89.2 1.9 129.4 22.8 39.6 63.8 64.3 109.6 66.2 12.4 0.5 22.2 10.7 22.2 23.2l0 258.9c0 4.1-1.1 8.1-3.1 11.6l-0.7 1.3c-4 6.9-11.1 11.2-19 11.6-45.5 2.1-86.2 26.8-109 66.2-22.5 39-23.7 86.4-3.3 126.6 5.6 11 1.6 24.5-9.1 30.6l-225.2 130C651 1021.9 647 1023 643 1023zM512 905.7c53.4 0 103.2 23.5 137 63.8l189.7-109.5c-18-49.5-13.4-104.3 13.3-150.6 27.1-46.9 73-78.4 125.6-87.1l0-218.4c-52.6-8.7-98.5-40.2-125.6-87.1-27.5-47.6-31.5-103.8-12-154.1L651.4 53.9c-33.8 42.1-84.5 66.7-139.4 66.7-55 0-105.6-24.6-139.4-66.7L184 162.7c19.6 50.3 15.5 106.5-12 154.1-27.1 46.9-73 78.4-125.6 87.1L46.4 622.3c52.6 8.7 98.6 40.2 125.6 87.1 26.7 46.2 31.2 101.1 13.3 150.6L375 969.5C408.8 929.2 458.6 905.7 512 905.7z" fill="#272636" p-id="1792"></path><path d="M512 730.2c-119.6 0-217-97.3-217-217 0-119.6 97.3-217 217-217 119.6 0 217 97.3 217 217C729 632.9 631.6 730.2 512 730.2zM512 342.7c-94 0-170.6 76.5-170.6 170.6 0 94 76.5 170.6 170.6 170.6 94 0 170.6-76.5 170.6-170.6C682.6 419.2 606 342.7 512 342.7z" fill="#272636" p-id="1793"></path></svg>