<svg xmlns="http://www.w3.org/2000/svg" viewBox="0 0 1025 1024" version="1.1"><path d="M479.4 203.9c87.8 0 204.9 27.4 204.9 264.2 0 19.4 16 35.4 35.4 35.4 19.4 0 35.4-16 35.4-35.4 0-276.7-149.6-334.3-275.1-334.3s-275.1 58.2-275.1 334.3c0 116.9 53.7 229.9 137.4 293.3l0 5.2C156.4 793.5 37.8 869.4 37.8 963.6c0 19.4 16 35.4 35.4 35.4 19.4 0 35.4-16 35.4-35.4 0-49.6 102.2-112.4 273.4-131.3 17.7-1.7 31.3-17.2 31.3-34.9l0-54.3c0-11.9-6.3-22.7-16-29.6-72.5-47.4-121.6-146-121.6-245.4C275.2 230.5 391.6 203.9 479.4 203.9z" fill="#272636" p-id="2002"></path><path d="M914.8 375.6l-44.6-11.4C856.1 161 686 0.1 479.4 0.1c-210.5 0-382.3 166.7-391.4 374.8l-26.1 22.4c-8 6.9-12.5 16.6-12.5 26.9l0 139.1c0 19.4 16 35.4 35.4 35.4s35.4-16 35.4-35.4l0-122.7L146.6 418.9c8-6.9 12.5-16.6 12.5-26.9 0-177.5 144.3-321.3 321.3-321.3s321.3 144.3 321.3 321.3c0 16 10.8 30.2 26.9 34.3l44 10.8 0 126.6c0 19.4 16 35.4 35.4 35.4 19.4 0 35.4-16 35.4-35.4l0-154C941.7 393.2 930.9 379 914.8 375.6z" fill="#272636" p-id="2003"></path><path d="M783 519.4c-6.3 18.8-65.1 66.8-262 66.8-19.4 0-35.4 16-35.4 35.4 0 19.4 16 35.4 35.4 35.4 299.7 0 328.8-104.4 331.6-125.5l-34.9-4.5L783 519.4z" fill="#272636" p-id="2004"></path><path d="M617.6 765.9l0-23.3c0-19.4-16-35.4-35.4-35.4-19.4 0-35.4 16-35.4 35.4l0 54.3c0 17.7 13.6 33 31.3 34.9 18.3 2.2 36 4.5 52.6 7.5l0-71.2C626.7 767.6 622.1 767 617.6 765.9z" fill="#272636" p-id="2005"></path><path d="M961.3 913.3l-20.3 0 0-50.7c0-5.6-4.6-10.1-10.1-10.1l-91.3 0 0-60.9 20.3 0c11.1 0 20.3-9.1 20.3-20.3l0-60.9c0-11.1-9.1-20.3-20.3-20.3l-60.9 0c-11.1 0-20.3 9.1-20.3 20.3l0 60.9c0 11.1 9.1 20.3 20.3 20.3l20.3 0 0 60.9-91.3 0c-5.6 0-10.1 4.6-10.1 10.1l0 50.7-20.3 0c-11.1 0-20.3 9.1-20.3 20.3l0 60.9c0 11.1 9.1 20.3 20.3 20.3l60.9 0c11.1 0 20.3-9.1 20.3-20.3l0-60.9c0-11.1-9.1-20.3-20.3-20.3l-20.3 0 0-40.6 182.6 0 0 40.6-20.4 0c-11.1 0-20.3 9.1-20.3 20.3l0 60.9c0 11.1 9.1 20.3 20.3 20.3l60.9 0c11.1 0 20.3-9.1 20.3-20.3l0-60.9C981.6 922.5 972.4 913.3 961.3 913.3zM799 710.4l60.9 0 0 60.9-60.9 0L799 710.4zM758.4 994.5l-60.9 0 0-60.9 60.9 0L758.4 994.5zM961.3 994.5l-60.9 0 0-60.9 60.9 0L961.3 994.5z" fill="#272636" p-id="2006"></path><path d="M961.3 1024l-60.9 0c-16.3 0-29.5-13.3-29.5-29.5l0-60.9c0-16.3 13.3-29.5 29.5-29.5l11 0 0-22.1-164.1 0 0 22.1 11 0c16.3 0 29.5 13.3 29.5 29.5l0 60.9c0 16.3-13.3 29.5-29.5 29.5l-60.9 0c-16.3 0-29.5-13.3-29.5-29.5l0-60.9c0-16.3 13.3-29.5 29.5-29.5l11 0 0-41.4c0-10.7 8.7-19.4 19.4-19.4l82 0 0-42.4-11 0c-16.3 0-29.5-13.3-29.5-29.5l0-60.9c0-16.3 13.3-29.5 29.5-29.5l60.9 0c16.3 0 29.5 13.3 29.5 29.5l0 60.9c0 16.3-13.3 29.5-29.5 29.5l-11 0 0 42.4 82 0c10.7 0 19.4 8.7 19.4 19.4l0 41.4 11 0c16.3 0 29.5 13.3 29.5 29.5l0 60.9C990.8 1010.7 977.5 1024 961.3 1024zM894.4 1003.7c1.8 1.1 3.8 1.8 6 1.8l60.9 0c2.2 0 4.2-0.7 6-1.8L894.4 1003.7zM691.6 1003.7c1.8 1.1 3.8 1.8 6 1.8l60.9 0c2.2 0 4.2-0.7 6-1.8L691.6 1003.7zM891.2 927.6c-1.1 1.8-1.8 3.8-1.8 6l0 60.9c0 2.2 0.7 4.2 1.8 6L891.2 927.6zM767.7 927.6l0 72.9c1.1-1.8 1.8-3.8 1.8-6l0-60.9C769.5 931.4 768.8 929.4 767.7 927.6zM970.6 927.6l0 72.9c1.1-1.8 1.8-3.8 1.8-6l0-60.9C972.3 931.4 971.6 929.4 970.6 927.6zM688.3 927.6c-1.1 1.8-1.8 3.8-1.8 6l0 60.9c0 2.2 0.7 4.2 1.8 6L688.3 927.6zM909.7 985.2l42.4 0 0-42.4-42.4 0L909.7 985.2zM706.9 985.2l42.4 0 0-42.4-42.4 0L706.9 985.2zM894.4 924.3l72.9 0c-1.8-1.1-3.8-1.8-6-1.8l-29.5 0 0-59.9c0-0.4-0.4-0.9-0.9-0.9l-100.5 0 0-79.4 29.5 0c2.2 0 4.2-0.7 6-1.8l-72.9 0c1.8 1.1 3.8 1.8 6 1.8l29.5 0 0 79.4-100.5 0c-0.4 0-0.9 0.4-0.9 0.9l0 59.9-29.5 0c-2.2 0-4.2 0.7-6 1.8l72.9 0c-1.8-1.1-3.8-1.8-6-1.8l-29.5 0 0-59.1 201.2 0 0 59.1-29.6 0C898.2 922.6 896.2 923.2 894.4 924.3zM869.1 704.4l0 72.9c1.1-1.8 1.8-3.8 1.8-6l0-60.9C870.9 708.2 870.3 706.2 869.1 704.4zM789.8 704.4c-1.1 1.8-1.8 3.8-1.8 6l0 60.9c0 2.2 0.7 4.2 1.8 6L789.8 704.4zM808.3 762l42.4 0 0-42.4-42.4 0L808.3 762zM793 701.1l72.9 0c-1.8-1.1-3.8-1.8-6-1.8l-60.9 0C796.8 699.3 794.7 700 793 701.1z" fill="#272636" p-id="2007"></path></svg>