<svg xmlns="http://www.w3.org/2000/svg" viewBox="0 0 1025 1024" version="1.1"><path d="M472.9 194.9c83.1 0 193.9 25.9 193.9 250 0 18.3 15.2 33.5 33.5 33.5 18.4 0 33.5-15.2 33.5-33.5 0-261.8-141.5-316.4-260.3-316.4s-260.3 54.9-260.3 316.4c0 110.6 50.8 217.6 130 277.5l0 4.9C167.3 752.6 55 824.4 55 913.5c0 18.4 15.2 33.5 33.5 33.5 18.3 0 33.5-15.2 33.5-33.5 0-46.9 96.7-106.4 258.7-124.2 16.8-1.6 29.6-16.2 29.6-33l0-51.3c0-11.3-6-21.5-15.2-28.1-68.6-44.8-115-138.2-115-232C279.7 220.3 389.8 194.9 472.9 194.9z" fill="#272636" p-id="2040"></path><path d="M884.9 357.4l-42.2-10.8C829.3 154.3 668.4 2 472.9 2c-199.2 0-361.7 157.7-370.3 354.7L77.6 377.8c-7.6 6.5-11.8 15.7-11.8 25.4l0 131.8c0 18.4 15.2 33.5 33.5 33.5s33.5-15.2 33.5-33.5L132.9 419l24.9-20.5c7.6-6.5 11.8-15.7 11.8-25.4 0-168 136.6-304 304-304 167.4 0 304 136.6 304 304 0 15.2 10.2 28.6 25.4 32.5l41.6 10.2 0 119.8c0 18.4 15.2 33.5 33.5 33.5 18.4 0 33.5-15.2 33.5-33.5l0-145.7C910.3 374.1 900 360.6 884.9 357.4z" fill="#272636" p-id="2041"></path><path d="M760.1 493.4c-6 17.8-61.6 63.2-247.9 63.2-18.3 0-33.5 15.2-33.5 33.5 0 18.3 15.2 33.5 33.5 33.5 283.4 0 311.1-98.8 313.7-118.7l-33-4.2L760.1 493.4z" fill="#272636" p-id="2042"></path><path d="M603.6 726.7l0-22.1c0-18.3-15.2-33.5-33.5-33.5-18.4 0-33.5 15.2-33.5 33.5l0 51.3c0 16.8 12.9 31.2 29.6 33 17.3 2.1 34.1 4.2 49.8 7.1l0-67.6C612.3 728.3 607.8 727.7 603.6 726.7z" fill="#272636" p-id="2043"></path><path d="M956 825.5l-22.1 0c-0.8 0-1.4 0.3-2.2 0.4-3.4-20.4-11.2-39.1-22.7-55.2 0.6-0.4 1.2-0.7 1.8-1.2l15.6-15.6c8.6-8.6 8.6-22.6 0-31.2-8.6-8.6-22.6-8.6-31.2 0l-15.6 15.6c-0.5 0.5-0.7 1.2-1.2 1.8-16.1-11.5-34.8-19.4-55.2-22.7 0.1-0.8 0.4-1.4 0.4-2.2l0-22.1c0-12.2-9.9-22.1-22.1-22.1-12.2 0-22.1 9.9-22.1 22.1l0 22.1c0 0.8 0.3 1.4 0.5 2.2-20.4 3.3-39.1 11.2-55.2 22.7-0.4-0.5-0.7-1.2-1.2-1.8l-15.6-15.6c-8.6-8.6-22.6-8.6-31.2 0-8.6 8.6-8.6 22.6 0 31.2l15.6 15.6c0.5 0.5 1.2 0.7 1.8 1.2-11.5 16.1-19.4 34.8-22.7 55.2-0.8-0.1-1.4-0.4-2.2-0.4l-22.1 0c-12.2 0-22.1 9.9-22.1 22.1 0 12.2 9.9 22.1 22.1 22.1l22.1 0c0.8 0 1.4-0.3 2.2-0.4 3.4 20.4 11.2 39.1 22.7 55.2-0.6 0.4-1.2 0.7-1.8 1.2l-15.6 15.6c-8.6 8.6-8.6 22.6 0 31.2 8.6 8.6 22.6 8.6 31.2 0l15.6-15.6c0.5-0.5 0.7-1.2 1.2-1.8 16.1 11.5 34.8 19.4 55.2 22.7-0.1 0.8-0.5 1.4-0.5 2.2l0 22.1c0 12.2 9.9 22.1 22.1 22.1 12.2 0 22.1-9.9 22.1-22.1l0-22.1c0-0.8-0.3-1.4-0.4-2.2 20.4-3.4 39.1-11.2 55.2-22.7 0.4 0.5 0.7 1.2 1.2 1.8l15.6 15.6c8.6 8.6 22.6 8.6 31.2 0 8.6-8.6 8.6-22.6 0-31.2l-15.6-15.6c-0.5-0.5-1.2-0.7-1.8-1.2 11.5-16.1 19.4-34.8 22.7-55.2 0.8 0.1 1.4 0.4 2.2 0.4l22.1 0c12.2 0 22.1-9.9 22.1-22.1C978 835.4 968.1 825.5 956 825.5zM801.6 935.7c-48.7 0-88.2-39.5-88.2-88.2 0-48.7 39.5-88.2 88.2-88.2 48.7 0 88.2 39.5 88.2 88.2C889.8 896.3 850.3 935.7 801.6 935.7z" fill="#272636" p-id="2044"></path></svg>