<svg xmlns="http://www.w3.org/2000/svg" viewBox="0 0 1024 1024" version="1.1"><path d="M659.3 701.2l0-14.8 0-118.6 44.5 0 0 118.6 89 0 0 44.5L659.3 730.9 659.3 701.2zM948.5 701.2 904 701.2c-4.1 0-7.4-3.3-7.4-7.4l0-7.4-0.4 0c-3.9-107.1-91.7-192.7-199.8-192.7-110.5 0-200.2 89.6-200.2 200.2 0 110.5 89.6 200.2 200.2 200.2 47.7 0 91.2-17 125.6-44.9l-88.5-88.5 177.9 0 0 177.9-47.3-47.3c-45.2 38.6-103.6 62.1-167.7 62.1-143.3 0-259.5-116.2-259.5-259.5 0-143.3 116.2-259.5 259.5-259.5 137 0 248.6 106.3 258.2 240.8 0.7 1.1 1.3 2.4 1.3 3.9l0 14.8C955.9 697.9 952.5 701.2 948.5 701.2zM570.4 330.6 570.4 286.1l148.3 0 0 44.5L570.4 330.6zM214.5 686.4l177.9 0 0 44.5L214.5 730.9 214.5 686.4zM496.2 419.5l0 44.5L377.6 464l0 133.4-44.5 0 0-133.4L214.5 464l0-44.5 118.6 0 0-89L214.5 330.6 214.5 286.1l55.6 0-55.6-55.6 33.4-33.4 89 89 37.1 0 89-89 33.4 33.4-55.6 55.6 55.6 0 0 44.5L377.6 330.6l0 89L496.2 419.5zM807.6 152.6c0-16.4-13.3-29.7-29.7-29.7l-622.7 0c-16.4 0-29.7 13.3-29.7 29.7l0 682c0 16.4 13.3 29.7 29.7 29.7l289.6 0c15 22.1 32.9 41.9 53.1 59.3L133 923.6c-36.8 0-66.7-29.9-66.7-66.7L66.3 130.4c0-36.9 29.9-66.7 66.7-66.7l667.2 0c36.8 0 66.7 29.9 66.7 66.7L866.9 442.2c-18.4-12.5-38.3-22.8-59.3-31L807.6 152.6z" fill="#272636" p-id="1046"></path></svg>