<svg xmlns="http://www.w3.org/2000/svg" viewBox="0 0 1024 1024" version="1.1"><path d="M864.2 1021.4 176.5 1021.4c-24.7 0-69.4-10.9-69.4-63.5l0-128.3L72.1 829.6c-18.6 0-33.7-13.9-33.7-31.1 0-17.2 15.1-31.1 33.7-31.1l35.1 0L107.2 639.8 72.1 639.8c-18.6 0-33.7-13.9-33.7-31.1 0-17.1 15.1-31 33.7-31l35.1 0L107.2 449.2l-34.4 0c-18.6 0-33.7-13.9-33.7-31.1 0-17.2 15.1-31.1 33.7-31.1l34.4 0L107.2 259.2 69.5 259.2c-18.6 0-33.7-13.9-33.7-31.1 0-17.2 15.1-31.1 33.7-31.1l37.6 0L107.2 70.7c0-31.8 21.5-65.5 71-65.5l686 0c57.1 0 103.3 42.7 103.3 95.3l0 825.8C967.4 978.8 921.2 1021.4 864.2 1021.4L864.2 1021.4zM176.1 68.7c-0.1 0.6-0.2 1.2-0.2 2l0 126.3 33.4 0c18.6 0 33.7 13.9 33.7 31.1s-15.1 31.1-33.7 31.1l-33.4 0 0 127.8 36.6 0c18.62 0 33.7 13.92 33.7 31.1 0 17.2-15.1 31.1-33.7 31.1l-36.6 0 0 128.5 35.9 0c18.6 0 33.7 13.95 33.7 31 0 17.3-15.1 31.1-33.7 31.1l-35.9 0 0 127.5 35.9 0c18.6 0 33.7 13.95 33.7 31.1 0 17.1-15.1 31.1-33.7 31.1l-35.9 0 0 128.3 0.6 0 550.1 0L726.6 68.6 178.1 68.6C177.3 68.6 176.7 68.6 176.1 68.7L176.1 68.7zM898.7 100.4c0-17.5-15.5-31.8-34.5-31.8l-68.8 0 0 889.3 68.8 0c19 0 34.5-14.2 34.5-31.8L898.7 100.4 898.7 100.4zM533.2 693.3l-60.8 0c-8.1 0-14.7-6.6-14.7-14.7l0-51.6c0-8.1-6.6-14.7-14.7-14.7l-74.7 0c-8.1 0-14.7-6.6-14.7-14.7l0-28.4c0-8.1 6.6-14.7 14.7-14.7l74.7 0c8.1 0 14.7-6.6 14.7-14.7l0 0c0-2.5-0.6-5-1.8-7.1l-5.5-9.9c-2.6-4.7-7.5-7.6-12.8-7.6l-67.4 0c-7.9 0-14.4-6.2-14.7-14.1l-1.2-30.8c-0.3-8.3 6.3-15.3 14.7-15.3l36.4 0c10.6 0 17.7-10.8 13.5-20.5l-31.6-80.8c-4.2-9.7 2.9-20.52 13.5-20.52l61.9 0c6.3 0 11.9 4 13.9 10l18.4 78.3c4.5 13.3 23.2 13.4 27.8 0.2l20.2-78.6c2.1-5.9 7.6-9.8 13.9-9.8l59.7 0c10.6 0 17.7 10.8 13.55 20.52l-31.6 80.8c-4.2 9.7 2.9 20.5 13.5 20.5l23.1 0c8.1 0 14.7 6.6 14.7 14.7l0 30.8c0 8.1-6.6 14.72-14.7 14.72l-66.9 0c-5.3 0-10.3 2.9-12.8 7.65l-5.5 9.9c-1.2 2.2-1.8 4.6-1.8 7.1l0 0c0 8.1 6.6 14.7 14.7 14.7l72.4 0c8.1 0 14.7 6.6 14.7 14.7l0 28.4c0 8.1-6.6 14.7-14.7 14.7l-72.4 0c-8.1 0-14.7 6.6-14.7 14.7l0 51.6C547.9 686.7 541.3 693.3 533.2 693.3z" fill="#272636" p-id="1146"></path></svg>