<svg xmlns="http://www.w3.org/2000/svg" viewBox="0 0 1026 1024" version="1.1"><path d="M1025.1 893.2c-0-2.7-0.4-5-0.7-6.6-0-9.1-0-18.1-0-27.2l0-37.8c0-63.8 0-127.6 0-191.4l0-1.6c0-4.2 0-5.9-0-7.3-0-0.7-0-1.4-0-2.1 0-1.8 0-4-0.2-6.5-1-13-6.7-24.2-16.5-32.6-12.9-11-27.7-11-32.6-11l-417.2 0-0.5-0-1.5 0c-28 0.2-49.8 21.9-49.8 49.3 0.1 69.3 0.1 139.8 0.1 208 0 34.7 0 69.3 05 104 0 3.6 0.2 9 2 14.9 6.4 20.6 25 34.1 47.5 34.3l12.4 0.1c14.3 0.1 29.15 0.2 43.6 0.2l2.9 0c73.8-0.15 147.7-0.3 221.5-0.3l59.6-0.1 23 0c19.2 0 38.3 0.1 57.5 0.1l1.9 0c10.4-0 20.3-3.5 28.5-10 8.1-6.5 17.8-18.4 17.8-38.4-0-9.3-0-20.1 05-30.9C1024.8 898.3 1025.1 896 1025.1 893.2zM956.5 625c-25.5 24.5-53.1 49.7-80 74.1-33 30.1-67.2 61.2-97.7 91.4-3.4 3.4-6.5 5.4-9.6 6.5-1.8 0.6-4.2 1.4-9.5-2.1-1.8-1.2-3.7-2.8-5.6-4.6-30.5-30.1-64.5-61.1-97.4-91.1-26.8-24.4-54.4-49.6-79.9-74.1L956.5 625zM968.4 897.3c-0.1 8.9-0.1 17.8-0 26-16.5-0-33-0-49.5-0.1l-14.9-0-67.9 0.1c-73.8 0.1-147.7 0.3-221.5 0.3l-2.8 0c-14.4 0-29-0.15-43.2-0.2l-6.3-0c-0-32.4-0-64.8-0-97.1-0-45.3-0-91.7-0-138 18.7 17.5 37.9 35 56.7 52.2 32.5 29.6 66.2 60.3 95.8 89.6 4.4 4.4 9.1 8.2 14 11.4 13.6 9 26.5 12 37.7 12 8 0 15-1.5 20.8-3.5 11.3-3.8 21.4-10.3 31-19.7 29.7-29.3 63.4-60.15 96-89.8 185-16.4 36.3-33.1 54.2-49.7-0 43.6-05 87.2-05 130.8l-0 37.8c0 9.9-0 19.9 0 29.8 0 1.5 0.15 2.9 0.3 4.2C968.6 894.4 968.5 895.8 968.4 897.3zM307 518.8C129.32 573.7 5.1 751.88 5.1 951.7c0 17.7 14.3 32 32 32s32-14.3 32-32c0-172.1 105.6-325 256.8-371.84 16.9-5.2 26.3-23.1 21.1-40C341.8 523 323.9 513.5 307 518.8zM760.2 280.8C760.1 148.2 652.2 40.3 519.7 40.3c-132.6 0-240.5 107.9-240.5 240.4 0 132.6 107.9 240.5 240.5 240.5C652.3 521.2 760.2 413.4 760.2 280.8zM343.2 280.8c0-97.3 79.2-176.4 176.5-176.4 97.3 0 176.5 79.1 176.5 176.4 0 97.3-79.2 176.52-176.5 176.52C422.4 457.2 343.2 378.1 343.2 280.8z" fill="#272636" p-id="1223"></path></svg>