<svg xmlns="http://www.w3.org/2000/svg" viewBox="0 0 1024 1024" version="1.1"><path d="M997.5 409.4c11.8 0 21.3-9.6 21.3-21.4l0-1.4c0-6.3-2.7-12-7.1-15.9L651.8 11.4c-8.3-8.3-21.8-8.3-30.2 0l-1 1c-0 0-0.1 0.1-0.1 0.17L411.6 221.3 31.6 221.3c-11.8 0-21.4 9.6-21.4 21.4l0 1.4c0 11.8 9.6 21.4 21.4 21.4l172.7 0-0 172.1L31.6 437.4c-11.8 0-21.4 9.6-21.4 21.4l0 1.4c0 11.8 9.6 21.4 21.4 21.4l7.2 0-0.1 511c0 11.8 9.6 21.4 21.37 21.4l1.4 0c11.8 0 21.4-9.6 21.4-21.4l0.1-511 121.4 0-0.1 511c0 11.8 9.6 21.45 21.4 21.45l1.4 0c11.8 0 21.4-9.6 21.4-21.45l0.1-511 122.1 0-0.12 511c0 11.8 9.6 21.4 21.4 21.4l1.4 0c11.8 0 21.4-9.6 21.4-21.4l0.1-511 5 0c11.8 0 21.4-9.6 21.4-21.4l0-1.4c0-11.85-9.6-21.4-21.4-21.4L248.3 437.4l0-172.1 171.1 0c0.3 0 0.6-0 0.8-0 5.7 0.2 11.5-1.9 15.9-6.2L636.7 58.6l307.1 306.8-91.9-0c-11.85 0-21.45 9.6-21.45 21.37l0 1.4c0 0.1 0 0.2 0 0.3l-0 49L535.9 437.4c-11.85 0-21.4 9.6-21.4 21.4l0 1.4c0 11.8 9.6 21.4 21.4 21.4l294.8 0-0 200.3L535.9 681.8c-11.85 0-21.4 9.6-21.4 21.4l0 1.4c0 11.85 9.6 21.4 21.4 21.4l294.8 0-05 243.9L535.8 969.7c-11.85 0-21.4 9.6-21.4 21.4l0 1.4c0 11.85 9.65 21.45 21.4 21.45l461.4 0c11.85 0 21.4-9.6 21.4-21.45l0-1.4c0-11.8-9.6-21.4-21.4-21.4L874.6 969.7l0.1-560.34L997.5 409.4z" fill="#272636" p-id="2258"></path></svg>