<svg xmlns="http://www.w3.org/2000/svg" viewBox="0 0 1024 1024" version="1.1"><path d="M750.2 668.3c-55.3 0-100.3 45-100.3 100.3 0 55.3 45 100.3 100.3 100.3 55.3 0 100.3-45 100.3-100.3C850.5 713.3 805.5 668.3 750.2 668.3zM750.2 817.2c-26.8 0-48.6-21.8-48.6-48.6 0-26.8 21.8-48.6 48.6-48.6 26.8 0 48.6 21.8 48.6 48.6C798.9 795.4 777 817.2 750.2 817.2zM1015.4 716.2c-3.8-19.9-16.5-32.7-32.9-32.7l-2.3 0c-31.3 0-56.8-25.5-56.8-56.8 0-8.2 3.6-18.3 5-21.5 7.7-17.5 1.8-38.9-15.4-50.8l-66.4-36.8c-5.2-2.2-10.8-3.4-16.7-3.4-12 0-23.9 4.9-31.8 13.1-8.3 8.5-30.2 26.1-45.4 26.1-15.3 0-37.4-17.9-45.7-26.6-7.9-8.4-19.9-13.4-32.1-13.4-5.8 0-11.4 1.1-16.3 3.3l-1.2 0.5-67.6 37.1-1.6 1c-15.7 10.9-21.7 32.3-14 49.6 0.5 1.2 5 12.2 5 21.6 0 31.3-25.5 56.8-56.8 56.8l-2.6 0c-16 0-28.7 12.8-32.5 32.7-0.6 3.1-5.6 30.5-5.6 52.7 0 22.2 5 49.7 5.6 52.8 3.8 19.9 16.5 32.7 32.9 32.7l2.2 0c31.3 0 56.8 25.5 56.8 56.8 0 8.2-3.6 18.3-5 21.5-7.7 17.4-1.8 38.8 15.4 50.8l65.1 36.3c5.2 2.3 10.8 3.4 16.7 3.4 12.2 0 24.3-5.1 32.1-13.7 8-8.7 30.8-27.8 46.4-27.8 15.7 0 38.3 19.1 46.7 28.4 7.9 8.7 20 13.9 32.3 13.9 5.8 0 11.3-1.1 18.1-4.1l65.9-36.4 1.6-1c15.7-10.9 21.7-32.3 14-49.6-0.5-1.2-5-12.2-5-21.7 0-31.3 25.5-56.8 56.8-56.8l2.6 0c16 0 28.8-12.8 32.5-32.6 0-0.3 5.6-29.4 5.6-52.8C1021 746.7 1016 719.3 1015.4 716.2zM966.1 803.6c-53.5 7-94.2 52.7-94.2 107.5 0 12.7 3.1 24.7 5.7 32.8l-47.5 26.3c-4.3-4.2-11.1-10.5-19.5-16.7-21-15.6-41.4-23.5-60.5-23.5-19 0-39.1 7.8-60 23.1-8.3 6.1-15.1 12.2-19.4 16.4l-45.4-25.4c2.7-8.2 5.8-20.3 5.8-32.9 0-54.9-40.7-100.5-94.2-107.5-1.4-8.9-3.3-23.3-3.3-34.7 0-11.5 1.9-25.9 3.3-34.7 53.5-7 94.2-52.7 94.2-107.5 0-12.6-3.1-24.7-5.7-32.8l49.1-26.9c4.3 4 11.1 10 19.5 16 20.6 14.7 40.5 22.1 59 22.1 18.4 0 38.1-7.3 58.5-21.7 8.3-5.8 15.1-11.7 19.4-15.7l47 26.1c-2.7 8.2-5.8 20.2-5.8 32.9 0 54.9 40.7 100.5 94.2 107.5 1.4 9 3.3 23.4 3.3 34.7C969.3 780.3 967.4 794.6 966.1 803.6zM70 950.5l0-56.8c0-193.1 148.9-352.3 338.7-370.2l-0.1-0c0 0 0.2 0 0.5 0 11.6-1.1 23.4-1.7 35.3-1.7 1.8 0 3.6 0.1 5.3 0.1 42-3.3 105.5-13.1 138.6-42.7l16.2-12.7c63.4-49.5 99.8-123.6 99.8-203.1C704.5 120.9 587.8 5.1 444.4 5.1S184.3 120.9 184.3 263.4c0 79.5 36.4 153.5 99.8 203.1l16.2 12.7-19.1 7.6C112.2 553.8 3 713.6 3 893.7l0 90c0 18.3 15 33.2 33.5 33.2l489.8 0c-15.9-20.4-29.5-42.7-40.5-66.5L70 950.5 70 950.5zM251.3 263.4c0-105.8 86.6-191.9 193.1-191.9 106.5 0 193.1 86.1 193.1 191.9 0 105.8-86.6 191.9-193.1 191.9C337.9 455.3 251.3 369.2 251.3 263.4z" fill="#272636" p-id="1620"></path></svg>