<svg xmlns="http://www.w3.org/2000/svg" viewBox="0 0 1024 1024" version="1.1"><path d="M339 0 145 0C65.3 0 0 65.3 0 144l0 194c0 78.6 65.3 140.9 143.9 140.9l334.9 0L478.8 144C478.8 65.3 416.5 0 339 0L339 0zM408.4 408.4 144 408.4c-38.8 0-72.5-31.6-72.5-70.4l0-194c0-38.8 33.7-72.5 72.5-72.5l194 0c38.8 0 70.4 32.7 70.4 72.5L408.4 408.4 408.4 408.4zM884.1 0 690.2 0c-78.6 0-144 65.3-144 144l0 334.9 337.9 0c78.6 0 139.9-62.3 139.9-140.9l0-194C1024 65.3 961.7 0 884.1 0L884.1 0zM952.5 337.9c0 38.8-29.6 70.4-69.4 70.4L615.6 408.4 615.6 142.9c0-38.8 34.7-72.5 73.5-72.5l194 0c38.8 0 69.4 32.7 69.4 72.5L952.5 337.9 952.5 337.9zM0 689.1l0 194c0 78.6 65.3 140.9 143.9 140.9l194 0c78.6 0 139.9-62.3 139.9-140.9L477.8 545.2 144 545.2C65.3 545.2 0 610.5 0 689.1L0 689.1zM408.4 883.1c0 38.8-30.6 69.4-70.4 69.4L144 952.5c-38.8 0-72.5-30.6-72.5-69.4L71.5 689.1c0-38.8 33.7-73.5 72.5-73.5l264.4 0L408.4 883.1 408.4 883.1zM884.1 545.2 545.2 545.2l0 337.9c0 78.6 65.3 140.9 144 140.9l194 0c78.6 0 139.9-62.3 139.9-140.9L1023 689.1C1024 610.5 961.7 545.2 884.1 545.2L884.1 545.2zM952.5 883.1c0 38.8-29.6 69.4-69.4 69.4L689.1 952.5c-38.8 0-73.5-30.6-73.5-69.4L615.6 615.6l268.5 0c38.8 0 69.4 33.7 69.4 73.5l0 194L952.5 883.1z" fill="#272636" p-id="1443"></path></svg>