<svg xmlns="http://www.w3.org/2000/svg" viewBox="0 0 1024 1024" version="1.1"><path d="M981.4 316.3c2.8 6.5 4.8 13.3 7.3 19.9l-54.2 0C865 171.6 702 56 512 56 258.8 56 53.5 261.3 53.5 514.5L2.5 514.5C2.5 233.2 230.6 5.1 512 5.1c181.7 0 340.8 95.4 431 238.7l15.7-89.1c2.4-13.9 15.7-23.1 29.5-20.7 13.8 2.4 23.1 15.6 20.7 29.5l-26.5 150.5C982.2 314.9 981.7 315.5 981.4 316.3zM715.8 591l0 50.9-178.3 0 0 152.8-50.9 0 0-152.8-178.3 0 0-50.9 178.3 0 0-76.4-178.3 0 0-50.9 158.2 0L350.6 325.5l39-32.8 122 145.4 0.8 0 122-145.4 39 32.8-115.9 138.1 158.2 0 0 50.9-178.3 0 0 76.4L715.8 591zM42.6 712.8c-2.8-6.5-4.8-13.3-7.3-19.9l54.2 0c69.6 164.7 232.6 280.2 422.5 280.2 253.2 0 458.5-205.3 458.5-458.5l50.9 0c0 281.4-228.1 509.5-509.5 509.5-181.7 0-340.8-95.4-431-238.7l-15.7 89.1c-2.4 13.9-15.7 23.1-29.5 20.7-13.8-2.4-23.1-15.6-20.7-29.5l26.5-150.5C41.8 714.2 42.3 713.6 42.6 712.8z" fill="#272636" p-id="2198"></path></svg>