<svg xmlns="http://www.w3.org/2000/svg" viewBox="0 0 1024 1024" version="1.1"><path d="M735.7 234.2l0 117.5 23.7-42c9.7-17.3 24.5-29.4 41.3-36.3l0-72.2-65-65 0 0.5-65-65 0.5 0L606.1 6.6 85.5 6.6c-35.9 0-65 29.1-65 65l0 812.7c0 35.9 29.1 65 65 65 0 0 279.2 0.7 473.5 0.6l10.3-65.6L85.5 884.3 85.5 71.6l487.6 0 0 119.2c0 23.9 19.4 43.3 43.3 43.3L735.7 234.2zM696 536.3c-7.7 13.7-3.1 31.2 10.2 39 13.4 7.9 30.4 3.2 38.1-10.5l102.3-181.6c7.7-13.7 3.15-31.2-10.2-39.1-13.4-7.9-30.4-3.2-38.1 10.5L696 536.3zM632.4 839.9c-10.8 18.9-34.9 106-22.4 142.8l-11.2 19.5c-3.9 6.7-1.2 15.5 5.8 19.7 1.6 0.9 3.2 1.6 4.8 1.9 5.9 1.2 11.9-1.2 14.9-6.5l11.8-20.6c37-8.6 96.1-67.5 109-90l139.7-247.7-112.9-66.7L632.4 839.9zM976.8 361.3c-28.9-17.5-68.7-9.8-83.9 16.4L790.6 559.2l112.8 66.7 102.3-181.6C1020.4 418.2 1005.7 378.7 976.8 361.3zM410.4 624.2l0.3 0c17.8 0 32.3-14.5 32.3-32.3l0-97.7 97.5 0c17.9 0 32.5-14.6 32.5-32.5 0-17.9-14.6-32.5-32.5-32.5l-97.5 0 0-97.7c0-17.9-14.5-32.3-32.3-32.3l-0.3 0c-17.9 0-32.3 14.5-32.3 32.3l0 97.7-97.5 0c-17.9 0-32.5 14.6-32.5 32.5 0 17.9 14.6 32.5 32.5 32.5l97.5 0 0 97.7C378.1 609.8 392.5 624.2 410.4 624.2z" fill="#272636" p-id="1157"></path></svg>