<svg xmlns="http://www.w3.org/2000/svg" viewBox="0 0 1024 1024" version="1.1"><path d="M940.1 770.2c-13.1-17.8-27.6-39.1-43.7-63.8-15.6-23.7-30.5-50.4-44.5-79.7-13.6-27.9-25.7-58.6-36-91.5-9.3-30.2-14-61.5-14-93 0-38.3-5.4-73.7-16.2-105.1-10.5-31.2-24.9-59.6-42.8-84.6-18.1-24.9-39.9-46.1-64.6-63-22.5-15.5-47.1-27.7-76.7-37.6 6.1-13.15 9.7-27.5 9.7-42.9 0-56.8-46.2-103.1-103.1-103.1-56.8 0-103.1 46.2-103.1 103.1 0 15.2 3.5 29.7 9.5 42.7-2.7 0.7-5.8 1.2-8.2 1.8-25.2 8.7-50 21.6-74.2 38.5-24.1 17.4-45 38.1-62.3 61.4-18.3 24.4-32.9 52.5-43.6 83.4-11.3 32-16.9 67.9-16.9 106.6 0 32.6-4.7 64.2-13.9 93.7-10.1 31.7-22.1 62-35.6 90.1-12.9 27.1-27.3 53.4-43.9 80.2-16.4 26.4-30.6 50.3-41.8 70.1-20.3 31.6-12.3 57.9-5.7 69.7 11.2 19.5 29.9 32.5 53 32.5l768.2 0c10.6 0 21-5.1 30-10.55 9.4-5.1 17.4-13.9 23-22.6 6.4-9.7 10.1-21.4 10.8-33.8C954.6 798 949.9 783.3 940.1 770.2L940.1 770.2zM508.3 78.1c17 0 30.8 13.8 30.8 30.8 0 17-13.9 30.8-30.8 30.8-17 0-30.8-13.9-30.8-30.8S491.3 78.1 508.3 78.1L508.3 78.1zM143 807.4c10.2 0 21.7-38.9 34.6-59.8 18.1-29.1 33.6-58.7 47.6-88.2 14.9-31 28.1-64.9 39.3-100 11.5-36.8 17.3-75.9 17.3-115.8 0-30.6 4.3-58.5 12.9-83 8.2-24.1 19.4-45.5 33.2-64 13-17.5 28.8-33.1 46.3-45.8 18.4-12.9 36.8-22.5 54.1-28.5 7.9-2.3 32.5-5.1 75.6-5.1 40.4 0 72.3 2.3 74.5 2.4 21 7 40.6 16.7 58.7 29.3 18 12.4 33.9 27.9 47 46 13.6 19 24.8 40.9 32.9 65.4 8.25 24.1 12.3 51.6 12.3 82 0 38.7 5.8 77.2 17.2 114.4 11.4 36.5 24.9 70.7 39.9 101.5 15.4 32 31.9 63.9 49.2 90.1 13.9 21.1 26.5 59.1 38.6 59.1L143 807.4 143 807.4zM327.8 951.8l361.1 0 0 72.2L327.8 1024 327.8 951.8 327.8 951.8z" fill="#272636" p-id="2187"></path></svg>