<svg xmlns="http://www.w3.org/2000/svg" viewBox="0 0 1024 1024" version="1.1"><path d="M243.3 594l582.7 0 0 53.4L243.3 647.4 243.3 594 243.3 594 243.3 594 243.3 594zM241.9 799l582.7 0 1.3 57.3L243.3 856.3 241.9 799 241.9 799 241.9 799 241.9 799zM556.6 384.4l269.4 0 0 54.3L556.6 438.7 556.6 384.4 556.6 384.4 556.6 384.4 556.6 384.4zM614.5 174.6l211.5 0 0 55.3L614.5 229.9 614.5 174.6 614.5 174.6 614.5 174.6 614.5 174.6zM874.6 1024 167.7 1024c-46.6 0-84.4-39.8-84.4-88.5L83.3 88.5C83.3 39.8 121.1 0 167.7 0l707 0c46.6 0 84.4 39.8 84.4 88.5l0 846.9C959.1 984.2 921.2 1024 874.6 1024L874.6 1024 874.6 1024 874.6 1024zM156.8 53.6c-9.5 0-17.5 10-17.5 21.8l0 873.3c0 11.9 8.1 21.8 17.5 21.8l728.8 0c9.5 0 17.5-10 17.5-21.8L903.2 75.4c0-11.9-8.1-21.8-17.5-21.8L156.8 53.6 156.8 53.6 156.8 53.6 156.8 53.6zM470.5 328.6c7.7 13.1 11.6 28.4 11.6 45.9 0 26.8-8 49.2-24 67.1-16 17.9-39.1 28.5-69.3 31.7l0 46-38.5 0 0-45.8c-50.3-5.2-81.5-34.5-93.5-87.8l59.5-15.6c5.5 33.5 23.7 50.3 54.7 50.3 14.5 0 25.2-3.6 32-10.8 6.8-7.2 10.3-15.8 10.3-26 0-10.6-3.5-18.5-10.3-23.8-6.8-5.4-22-12.3-45.5-20.6-21.1-7.4-37.7-14.6-49.6-21.9-11.9-7.1-21.5-17.1-29-30.1-7.4-12.9-11.1-28-11.1-45.1 0-22.5 6.7-42.8 19.9-60.7 13.3-18 34.1-29.1 62.6-33l0-35.5 38.5 0 0 35.5c43 5.1 70.9 29.5 83.6 73l-53.2 21.8c-10.4-29.9-26.3-44.8-48-44.8-10.8 0-19.6 3.3-26.1 10-6.6 6.7-10 14.8-10 24.2 0 9.7 3.2 17.1 9.5 22.3 6.4 5.1 19.9 11.6 40.8 19.2 22.8 8.3 40.8 16.3 53.8 23.6C452.4 305.3 462.7 315.6 470.5 328.6L470.5 328.6 470.5 328.6 470.5 328.6z" fill="#272636" p-id="1168"></path></svg>