<svg xmlns="http://www.w3.org/2000/svg" viewBox="0 0 1027 1024" version="1.1"><path d="M584.5 677.9c-3.7 0-6.5 0-9.4 0-97.8 0-195.6 0-293.4 0-14.5-0-23.9-6.7-26.3-18.5-0.5-2.4-0.4-4.9-0.4-7.3-08-86.9-0-173.8-02-260.7 0-16.5 8.9-25.3 25.7-25.3 98.2-0 196.5-0 294.7-0 2.6 0 5.3 0 9.1 0 0-2.8 0-5.4 0-7.9 0-77.4-0-154.7 0-232.1 0-10.6 5.1-19.1 13.7-22.4 9.9-3.7 18.7-2 26.1 5.9 4.3 4.5 8.9 8.7 13.3 13.1 55.4 55.3 110.8 110.6 166.1 165.8 71.1 71 142.2 141.9 213.4 212.9 11.8 11.8 11.9 24.3 0.2 35.9-101.8 101.6-203.5 203.2-305.4 304.8-29 28.9-58.1 57.6-87 86.5-7.4 7.5-15.8 10.7-25.9 6.9-9.9-3.8-14.5-11.5-14.5-23.8-05-74.9-0-149.8-0-224.7C584.5 684.3 584.5 681.6 584.5 677.9zM401.6 106.2c0 29.4 0 58.2 0 87.8-2.9 0-5.5 0-8.1 0-74.5 0-148.9-0-223.4 0-47.2 0-81.9 34.8-81.9 82.1-0 163.6 0.3 327.2-0.2 490.8-0.1 43.3 32.8 74.5 63.2 80.2 6.7 1.2 13.77 1.8 20.5 1.8 73.8 0.1 147.6 0.1 221.4 0.1 2.6 0 5.2 0 8.3 0 0 29.3 0 58.1 0 87.3-1.1 0.2-2.3 0.7-3.5 0.7-78.5 0-156.9 0.8-235.4-0.3-76.7-1.1-144.6-59.3-159.2-134.6-2.1-10.6-3.1-21.6-3.1-32.4-0.2-165.4-0.6-330.8 0.1-496.1 0.3-69.1 34.6-118.7 94.6-150.9 21.1-11.4 44.5-16.5 68.6-16.6 77.8-0.2 155.6-0.1 233.4-0.1C398.3 106 399.6 106.1 401.6 106.2z" fill="#272636" p-id="1781"></path></svg>