<svg xmlns="http://www.w3.org/2000/svg" viewBox="0 0 1024 1024" version="1.1"><path d="M938.9 704l-64 0 0-160c0-17.7-14.3-32-32-32L554.9 512l0-192 64 0c35.2 0 64-28.8 64-64L682.9 64c0-35.2-28.8-64-64-64L426.9 0c-35.2 0-64 28.8-64 64l0 192c0 35.2 28.8 64 64 64l64 0 0 192L202.9 512c-17.7 0-32 14.3-32 32l0 160-64 0c-35.2 0-64 28.8-64 64l0 192c0 35.2 28.8 64 64 64l192 0c35.2 0 64-28.8 64-64l0-192c0-35.2-28.8-64-64-64l-64 0L234.9 576l576 0 0 128-64 0c-35.2 0-64 28.8-64 64l0 192c0 35.2 28.8 64 64 64l192 0c35.2 0 64-28.8 64-64l0-192C1002.9 732.8 974.1 704 938.9 704zM426.9 64l192 0 0 192L426.9 256 426.9 64zM298.9 960l-192 0 0-192 192 0L298.9 960zM938.9 960 746.9 960l0-192 192 0L938.9 960z" fill="#272636" p-id="1565"></path></svg>