<svg xmlns="http://www.w3.org/2000/svg" viewBox="0 0 1024 1024" version="1.1"><path d="M43 318.9l-0.2 0.3 453.8 262c4.5 2.6 9.7 4 14.9 4 5.4 0 10.7-1.5 15.3-4.2l450.3-260c14.3-8.3 19.1-26.6 10.9-40.8-2.7-4.6-6.6-8.5-11.2-11L528.3 9.1c-4.5-2.6-9.7-4-14.9-4-5.9 0-11.6 1.7-16.5 4.9L46.9 269.8c-14.3 8.2-19.2 26.5-11 40.7C37.7 313.8 40.2 316.6 43 318.9zM513.2 69.5l389.3 225.8L511.6 520.9 121.4 295.7 513.2 69.5zM976.9 488.6l-84.4-49-59.7 34.5 69.8 40.5L511.6 740.3 121.4 515l69.9-40.4-59.7-34.4-84.8 49c-14.3 8.2-19.2 26.5-11 40.7 1.9 3.3 4.4 6.2 7.3 8.5l-0.2 0.3 453.6 261.9c4.5 2.6 9.7 4 14.9 4 5.4 0 10.7-1.5 15.3-4.2l450.3-260c14.3-8.3 19.1-26.6 10.9-40.8C985.4 495 981.5 491.2 976.9 488.6zM976.9 708l-84.1-48.8-59.7 34.5 69.4 40.3L511.6 959.6 121.4 734.3l69.6-40.2-59.7-34.4-84.5 48.8c-14.3 8.2-19.2 26.5-11 40.7 1.9 3.3 4.3 6.1 7.2 8.4l-0.2 0.3 453.7 262c4.5 2.6 9.7 4 14.9 4 5.4 0 10.7-1.5 15.3-4.2l450.3-260c14.3-8.3 19.1-26.6 10.9-40.8C985.4 714.4 981.5 710.5 976.9 708z" fill="#272636" p-id="1267"></path></svg>