<svg xmlns="http://www.w3.org/2000/svg" viewBox="0 0 1025 1024" version="1.1"><path d="M892.5 304.2c-18.1 0-33-15-33-33.7L859.5 214.5c0-61.6-44.3-112-98.9-112L167.6 102.5c-54.5 0-98.9 50.2-98.9 112l0 582.5c0 61.8 44.4 112 98.9 112l131.8 0c18.1 0 33 15 33 33.7 0 18.5-14.8 33.6-33 33.6L167.6 976.3c-90.8 0-164.8-80.4-164.8-179.1L2.8 214.6c0-98.8 73.9-179.1 164.8-179.1l593 0c90.9 0 164.8 80.4 164.8 179.1l0 56C925.4 289.1 910.6 304.2 892.5 304.2zM134.7 539.4c0-18.5 14.8-33.6 32.9-33.6l197.6 0c18.2 0 33 15 33 33.6 0 18.5-14.8 33.7-33 33.7L167.5 573C149.4 572.9 134.7 557.9 134.7 539.4zM134.7 337.8c0-18.5 14.8-33.6 32.9-33.6l263.7 0c18.1 0 32.9 15 32.9 33.6 0 18.6-14.8 33.6-32.9 33.6L167.6 371.3C149.4 371.3 134.7 356.3 134.7 337.8zM612.6 682.5c-49.9-36.7-82.7-96-82.7-163.3 0-111.1 88.7-201.6 197.6-201.6 108.9 0 197.6 90.5 197.6 201.6 0 67.3-32.8 126.7-82.7 163.3 105.1 53.4 181.5 171.9 181.5 273.5 0 18.6-14.8 33.6-33 33.6-18.1 0-32.9-15-32.9-33.6 0-92.9-103.3-235.2-230.6-235.2-127.3 0-230.6 142.3-230.6 235.2 0 18.6-14.8 33.6-33 33.6-18.1 0-32.9-15-32.9-33.6C431.2 854.4 507.5 736 612.6 682.5zM859.5 519.2c0-74.1-59-134.4-131.8-134.4-72.8 0-131.7 60.3-131.7 134.4 0 74.2 59 134.4 131.8 134.4C800.5 653.6 859.5 593.4 859.5 519.2z" fill="#272636" p-id="1980"></path></svg>