<svg xmlns="http://www.w3.org/2000/svg" viewBox="0 0 1099 1024" version="1.1"><path d="M949.8 363.2H148.1c-70.6 0-127.9-55.6-127.9-123.9 0-13.1 10.7-23.8 23.8-23.8 13.1 0 23.8 10.7 23.8 23.8 0 42 36 76.3 80.3 76.3h801.7c44.3 0 80.3-34.1 80.3-76.3 0-13.1 10.7-23.8 23.8-23.8s23.8 10.7 23.8 23.8c0 68.3-57.3 123.9-127.9 123.9z" fill="#111111" p-id="1187"></path><path d="M120.8 1007.4c-13.1 0-23.8-10.7-23.8-23.8V342c0-13.1 10.7-23.8 23.8-23.8s23.8 10.7 23.8 23.8v641.6c0 13.1-10.7 23.8-23.8 23.8z m856.3 0c-13.1 0-23.8-10.7-23.8-23.8V342c0-13.1 10.7-23.8 23.8-23.8s23.8 10.7 23.8 23.8v641.6c0 13.1-10.7 23.8-23.8 23.8zM864.9 814.8c-13.1 0-23.8-10.7-23.8-23.8V343.6c0-13.1 10.7-23.8 23.8-23.8s23.8 10.7 23.8 23.8v447.5c0 13.1-10.7 23.8-23.8 23.8z m-632 0c-13.1 0-23.8-10.7-23.8-23.8V343.6c0-13.1 10.7-23.8 23.8-23.8 13.1 0 23.8 10.7 23.8 23.8v447.5c0 13.1-10.6 23.8-23.8 23.8zM1053.9 255.7H44a23.8 23.8 0 0 1-21.8-33.4l83.6-188.1a23.9 23.9 0 0 1 21.8-14.2h842.6c9.4 0 18 5.6 21.8 14.2l83.6 188.1a23.8 23.8 0 0 1-21.8 33.4zM80.6 208.1h936.6l-62.5-140.5H143.1l-62.5 140.5z" fill="#111111" p-id="1188"></path></svg>